<svg xmlns="http://www.w3.org/2000/svg" width="187" height="153" fill="none" viewBox="0 0 187 153"><rect width="118" height="123" fill="#fff" transform="translate(30 15)"/><path fill="#B4DBCA" d="M12.8476 65.9041C47.1532 40.5127 59.6925 10.4612 81.4588 3.5393C124.884 -10.2701 140.665 18.8151 161.379 47.8709C182.658 77.7169 187 91.5261 187 122.263C187 153 140.97 153 129.679 153C118.389 153 68.016 140.973 43.2639 140.973C-4.94547 140.973 -9.36039 82.3414 12.8476 65.9041Z"/><g clip-path="url(#clip0)"><path fill="#2B657D" d="M146.937 116.386L125.985 95.4346L136.261 85.1595C137.151 84.2692 137.517 82.9815 137.228 81.7561C136.938 80.5306 136.035 79.5425 134.841 79.1443L73.19 58.594C71.8849 58.1588 70.4453 58.4985 69.4725 59.4717C68.4993 60.4448 68.1596 61.8838 68.5948 63.1892L89.1451 124.84C89.5435 126.035 90.5316 126.938 91.7569 127.227C92.9821 127.517 94.27 127.151 95.1603 126.26L105.436 115.985L126.387 136.936C127.096 137.645 128.026 138 128.955 138C129.885 138 130.815 137.646 131.524 136.936L146.937 121.523C148.356 120.105 148.356 117.804 146.937 116.386ZM128.955 129.23L108.004 108.279C106.586 106.86 104.285 106.86 102.866 108.279L94.179 116.966L77.7851 67.7845L126.967 84.1784L118.279 92.8659C116.862 94.2832 116.861 96.585 118.279 98.0034L139.23 118.955L128.955 129.23Z"/><path fill="#2B657D" d="M71.2266 43.0625C73.2328 43.0625 74.8594 41.436 74.8594 39.4297V17.6328C74.8594 15.6265 73.2328 14 71.2266 14C69.2203 14 67.5938 15.6265 67.5938 17.6328V39.4297C67.5938 41.436 69.2203 43.0625 71.2266 43.0625Z"/><path fill="#2B657D" d="M42.9692 27.8324C41.5507 26.4136 39.2504 26.4136 37.8316 27.8324C36.4129 29.2511 36.4129 31.5512 37.8316 32.9699L53.2444 48.3827C54.6629 49.8014 56.9635 49.8014 58.382 48.3827C59.8007 46.964 59.8007 44.6639 58.382 43.2452L42.9692 27.8324Z"/><path fill="#2B657D" d="M53.2444 74.0705L37.8316 89.4833C36.4129 90.902 36.4129 93.2021 37.8316 94.6208C39.2501 96.0395 41.5507 96.0395 42.9692 94.6208L58.382 79.208C59.8007 77.7892 59.8007 75.4892 58.382 74.0705C56.9632 72.6517 54.6629 72.6517 53.2444 74.0705Z"/><path fill="#2B657D" d="M89.2094 48.3827L104.622 32.9699C106.041 31.5512 106.041 29.2511 104.622 27.8324C103.204 26.4136 100.903 26.4136 99.4847 27.8324L84.0719 43.2452C82.6531 44.6639 82.6531 46.964 84.0719 48.3827C85.4904 49.8014 87.7909 49.8014 89.2094 48.3827Z"/><path fill="#2B657D" d="M53.0625 61.2266C53.0625 59.2203 51.436 57.5938 49.4297 57.5938H27.6328C25.6265 57.5938 24 59.2203 24 61.2266C24 63.2328 25.6265 64.8594 27.6328 64.8594H49.4297C51.436 64.8594 53.0625 63.2328 53.0625 61.2266Z"/></g><defs><clipPath id="clip0"><rect width="124" height="124" fill="#fff" transform="translate(24 14)"/></clipPath></defs></svg>