<?xml version="1.0" encoding="UTF-8"?>
<svg id="Layer_1" data-name="Layer 1" xmlns="http://www.w3.org/2000/svg" viewBox="0 0 75.37 70.42">
  <defs>
    <style>
      .cls-1 {
        fill: #d74651;
      }

      .cls-2 {
        fill: #6fb257;
      }

      .cls-3 {
        fill: #ffeded;
      }

      .cls-4 {
        fill: #fff;
      }

      .cls-5 {
        fill: #fc8787;
      }

      .cls-6 {
        fill: #74551f;
      }

      .cls-7 {
        opacity: .2;
      }

      .cls-8 {
        fill: #3d8b23;
      }

      .cls-9 {
        fill: #fe4d4d;
      }

      .cls-10 {
        fill: #e0e0e0;
      }

      .cls-11 {
        fill: #3c2415;
      }

      .cls-12 {
        fill: #7d7d7d;
      }

      .cls-13 {
        fill: #d28d6e;
      }

      .cls-14 {
        fill: #efbe84;
      }

      .cls-15 {
        fill: #3d2424;
      }

      .cls-16 {
        fill: #fbc9c2;
      }

      .cls-17 {
        fill: #a48144;
      }

      .cls-18 {
        fill: #99e280;
      }

      .cls-19 {
        fill: #eafcde;
      }

      .cls-20 {
        fill: #fffefe;
      }

      .cls-21 {
        fill: #73d480;
      }
    </style>
  </defs>
  <path class="cls-8" d="m5.74,43.94s-6.02.95-4.21-5.03c0,0,2.8-.14,3.94,1.45s.71,3.24.27,3.58Z"/>
  <path class="cls-18" d="m5.83,43.54s-5.43,1.18-4.31-4.63c0,0,2.74-.62,3.88.97s.86,3.33.43,3.66Z"/>
  <path class="cls-15" d="m7.16,50.65c-.3-2.39-.68-4.77-1.56-7.03-.03-.07-.09-.22-.13-.34-.15-.34-.27-.47-.61-.53-.33-.05-.55.03-.89.02.35-.16.71-.13,1.07-.08.02.02.24.06.26.03,0,0-.08-.09-.09-.1-.13-.31-.48-.52-.64-.81-.36-.66-.94-.96-1.66-1.04-.18-.02-.35-.02-.61-.04.46-.16,1.88.44,1.85.41-.02-.24-.11-.64-.04-1.05.29-.72.02-.75-.24-1.08-.02-.02-.04-.04-.06-.06-.02-.02-.04-.05-.06-.07h0c-.33-.59-.68-1.15-.97-1.75-.63-1.33-1.04-2.73-1.3-4.17-.18-.97-.22-1.95-.25-2.92.07-.21.07-.42,0-.63-.01-.69.06-1.37.15-2.05.02-.17,0-.31-.09-.45-.72-1.13-.98-2.4-.77-3.68.45-2.65,2.03-4.4,4.59-5.24.42-.14.85-.22,1.29-.25.12,0,.23-.04.33-.12,1.99-1.61,4.25-2.68,6.68-3.41,1.02-.3,2.05-.54,3.09-.72.92-.16,1.83-.32,2.76-.4,1.67-.16,3.35-.24,5.03-.13.06.02.12.03.19.05.2,0,.4.01.59.02-.05.3-.22.4-.52.37-.36-.04-.71,0-1.04.18-.03,0-.06.01-.09.02-1.12-.02-2.23.04-3.35.14-.72.06-1.43.11-2.14.21-.86.12-1.72.28-2.56.46-1.42.31-2.8.74-4.13,1.31-2.17.93-4.11,2.2-5.71,3.97-.81.9-1.49,1.89-2.04,2.96-.42.82-.74,1.68-1,2.56-.34,1.18-.54,2.38-.6,3.6-.05,1.02-.01,2.04.1,3.06.09.85.24,1.68.46,2.5.33,1.21.81,2.36,1.44,3.45,1.87,3.23,4.7,5.28,8.12,6.59.85.32,1.73.58,2.63.79.87.21,1.75.37,2.64.47.92.1,1.84.2,2.77.19,1.21-.02,2.41-.02,3.62-.11,1.09-.09,2.18-.24,3.26-.42,1.06-.18,2.11-.42,3.14-.71,1.04-.3,2.06-.66,3.06-1.07,2.26-.93,4.31-2.19,6.15-3.81.9-.79,1.57-1.77,2-2.89.39-1,.66-2.04.67-3.13-.15-.2-.15-.5.05-.46.01-.22.02-.45-.02-.67-.22-.03-.22-.12-.03-.17,0-.53-.09-1.05-.19-1.57-.27-1.37-.77-2.63-1.67-3.72-.08-.1-.14-.22-.13-.35.1-1.03-.03-2.05-.18-3.07-.14-.99-.47-1.92-.96-2.8-.55-.99-1.3-1.81-2.14-2.55-1.15-1.02-2.4-1.89-3.79-2.56-.56-.27-1.12-.56-1.72-.74-.02-.11-.03-.22-.07-.32-.16-.33-.46-.5-.77-.68,1.06.3,2.08.71,3.06,1.23,2.08,1.09,3.95,2.46,5.39,4.34.32.42.58.88.84,1.34.17.33.22.7.45,1-.01.09.02.17.08.24-.05.23.1.41.15.62.26,1.22.38,2.45.35,3.7,0,.16.03.28.13.41.46.59.81,1.24,1.08,1.94.03.07.04.15.12.19,0,.04,0,.09,0,.13.03.23.16.44.23.66.03.17.07.34.15.49-.04.11.03.21.04.32.06.5.24.99.17,1.51,0,.1.26.13.04.3.07.56.03,1.12-.03,1.68-.11.89-.25,1.77-.56,2.61-.08.23.03.38.28.38.11,0,.22-.02.34-.02-.05-.2-.16-.4,0-.59.06.13-.03.3.07.42.1.12.21.23.34.32.18.13-.11.24,0,.38.09.12.18.19.3.26.13.07.36.11.28.34-.09.27.08.41.24.54.1.08.21.14.31.23.02.05.05.11.07.16,0,.08,0,.15,0,.23,0,.2.09.2.25.09.12.05.24.1.26.24,0,.04.06.23,0,.26-.14.07-.2.08-.19.22.01.15.09.19.24.19.32,0,.67.37,1,.34.01,0-.06.15-.03.2-.14.01-.32-.01-.43.05v-.02c0-.05-.04,0-.08-.02-.11.06-.13.08-.08.18.05.09.14.1.23.09.13-.02.27-.05.4-.08.25.05.44.17.42.47,0,.01.06.02.1.04.09.12.22.13.35.12h0c0,.06.03.08.07.1.02.05.1.09.05.14-.02.02-.1,0-.15-.02-.11-.12-.27-.12-.4-.16-.17-.05-.29-.13-.3-.31-.01-.19-.1-.22-.27-.19-.2.04-.41.11-.59-.06,0-.1-.09-.22-.06-.3.1-.26,0-.24-.22-.24-.05,0-.14.01-.19,0-.25-.13-.34-.48-.24-.75.1-.25.04-.17-.18-.21-.03-.06-.05-.12-.08-.17.05-.3-.02-.54-.33-.67-.07-.03-.12-.09-.18-.14-.03-.05-.06-.09-.09-.14.02-.28,0-.53-.33-.65-.16-.06-.24-.21-.26-.37-.04-.3-.26-.34-.5-.35-.05,0-.11,0-.13.05-.03.06.03.08.06.12.08.09.22.1.27.22-.15.07-.24-.06-.35-.11-.05-.05-.09-.11-.14-.16-.05-.1-.11-.25-.22-.25-.13,0-.11.18-.18.27-.02.02-.02.05-.03.08-.16.16-.07.38-.11.56-.05,0-.08-.06-.05.07.14.54.43.96.83,1.35.31.3.7.56.92.94-.03,0-.13.04-.17.05-.23-.26-.5-.47-.76-.7-.37-.33-.69-.75-.86-1.24-.05-.13-.07-.26-.13-.43-.3.53-.62.99-1.01,1.43.13,0,.25.02.36,0,.81-.16,1.46.22,1.66,1,.06.22.08.45.08.67,0,.19.05.3.21.41.8.53,1.25,1.26,1.24,2.24.07.17.04.36.06.53-.01.24-.1.47-.06.71-.02.2-.04.4-.07.6-.08.26-.15.51-.23.77-.05.21-.17.39-.19.6-.17.32-.33.65-.51.97-1.09,1.9-2.44,3.58-4.28,4.81-.24.13-.5.25-.72.42,0,0-.02,0-.02,0-.25.1-.49.21-.74.31-.11.04-.14.13-.14.23-.03.53-.09,1.07-.15,1.6-.08.75-.23,1.48-.41,2.21-.31,1.27-.76,2.49-1.45,3.61-.06.1-.09.19-.06.31.25,1.07.19,2.13-.04,3.2-.29,1.11-.84,2.07-1.67,2.85-.98.94-2.19,1.45-3.5,1.77-1.22.29-2.45.28-3.68.23-.94-.04-1.83-.26-2.61-.82-.77-.56-1.3-1.31-1.73-2.14-.07-.14-.11-.23-.3-.12-1.47.84-3.05,1.16-4.73.93-1.28-.17-2.42-.64-3.39-1.49-.82-.73-1.42-1.6-1.73-2.66-.18-.59-.18-1.19-.21-1.79,0-.13-.02-.26-.09-.37-.41-.65-.82-1.31-1.19-1.99-.04-.23-.16-.29-.39-.29-1.75,0-3.5,0-5.25,0-.16,0-.32.01-.44-.12-.29-1.8-.58-3.59-.86-5.39-.07-.47-.07-.47-.53-.47q-.67,0-.67-.68c0-.32,0-.64,0-.96,0-.48.03-.52.53-.52,1.22,0,3.33,0,4.55,0m-1.02-9.08c-.24-.24-.49-.49-.76-.76-.17.42-.4.85-.28,1.22.03.09.38.43.83,1.42.43.86.76,1.75,1,2.68.17.68.3,1.37.45,2.05.07,0,.08-.04.09-.08.31-.81.59-1.63.78-2.48.14-.61.4-1.19.64-1.78.05-.13.08-.22-.08-.32-.96-.55-1.83-1.23-2.67-1.95Zm2.75,12.01c-.35-.11-.84-.15-1.02-.23-.09-.04.14-.19.08-.27-.13-.16.19-.22-.01-.22-1.25,0-1.96.74-3.21.74-.79,0-.79-.5-.63.28.24,1.57.08,2.81.32,4.38.03.2.03.1.22.1,1.69,0,3.39-.01,5.08,0,.2,0,.25.16.16-.06-.29-.7-.51-1.42-.68-2.16-.2-.84-.21-1.71-.3-2.56Zm25.67,2.01c.04-.08.05-.15-.04-.2-.05-.33,0-.69-.05-1.01-.03-.14-.05-.27-.27-.28-.18-.01-.54-.14-.54-.21,0-.07-.02-.14.28-.13.63,0,1.24-.14,1.83-.32,2.13-.65,3.86-1.89,5.23-3.63,1.14-1.45,2.17-2.96,2.41-4.87.1-.84-.01-1.61-.45-2.33-.35-.57-.85-.96-1.44-1.25.05-.11.05-.23.13-.23.15,0,.29.02.28-.19,0-.07-.02-.13-.03-.2-.06-.48-.37-.73-.84-.66-.21.03-.42.08-.62.15-.88.31-1.63.87-2.39,1.39-1.57,1.05-3.2,2.04-4.98,2.7-.69.26-1.34.52-1.81,1.12-.25.32-.52.62-.65,1.02-.02.07-.04.15-.13.13-.1-.02-.07-.11-.07-.17,0-.3.03-.6.2-.87.08-.14.14-.29.25-.49-3.71,1.08-7.46,1.8-11.25,1.67-.03-.05.01-.1-.02-.05-.19,0-.45-.04-.68-.04-.57-.05-.72.04-1.08,0-.54-.06-1.02-.4-1.56-.48-.73-.11-1.45-.28-2.17-.45-.67-.17-1.33-.39-1.98-.62-.46-.16-.92-.33-1.37-.53-.18-.08-.27-.02-.38.09-.43.45-.85.92-1.22,1.43-.3.41-.6.82-.81,1.27-.22.48-.43.96-.52,1.5-.09.54-.12,1.08-.02,1.59.17.82.41,1.32,1.02,1.95.12-.06.03-.06.04-.15.02-.34.12-.5.17-.83.15-.98.49-1.91,1.01-2.76.09-.14.18-.38.35-.29.17.09,0,.28-.06.41-.45.97-.72,1.99-.81,3.05-.06.71-.09,1.43-.03,2.15,0,.07,0,.06,0,.12.04.43.06.86.13,1.29.09.64.22,1.27.42,1.88.25.73.61,1.42.97,2.11.36.68.8,1.3,1.24,1.93.38.54.77,1.06,1.24,1.53.05.05.1.11.05.18-.06.08-.12.03-.18,0-.1-.06-.21-.12-.31-.18-.34-.2-.58-.52-.88-.78-.07.09-.06.18-.04.25.17.61.28,1.24.63,1.8.36.6.78,1.13,1.33,1.55.82.64,1.76.94,2.77,1.13.64.12,1.28.11,1.9.03.84-.1,1.62-.42,2.39-.77.06-.03.16-.04.16-.16-.78-.11-1.56-.19-2.33-.41-.73-.21-1.41-.51-2.07-.88-.24-.14-.44-.33-.67-.5-.06-.05-.07-.1-.05-.15.02-.06.09-.04.13-.03.08.02.15.05.22.09.54.3,1.12.53,1.71.72,1,.34,2.03.55,3.07.6,1.67.09,3.35.06,5-.32.87-.2,1.72-.45,2.56-.74.11-.04.21-.11.27.03.06.15-.1.15-.17.19-.97.52-2.01.82-3.07,1.04-1.12.24-2.26.34-3.41.35-.25,0-.23.09-.15.26.15.34.34.65.55.95.29.42.59.85,1.01,1.12.7.46,1.46.74,2.33.76,1.35.02,2.68.05,4-.34,1.24-.36,2.3-.98,3.13-1.97.7-.83,1.08-1.79,1.11-2.9.02-.03.06-.05.03-.09.05-.46.1-.91.08-1.37,0-.05,0-.11-.03-.09-.02.02-.03.03-.07.09-.29.39-.61.73-1.02.99-.11.07-.21.15-.37.05.6-.81,1.16-1.65,1.6-2.56-.4-.19-.5-.37-.45-.81.04-.4.13-.79.19-1.19.16-1.05.2-2.06.13-3.13Zm-26.5-3.03c-.29-.53-.51-1.03-.69-1.55-.05-.15-.16-.12-.27-.12-1.51,0-3.03.12-4.54.11-.2,0-.14.06-.13.25.01.38.05.63.03,1.01-.01.23.18.1.4.09,1.26,0,2.3-.12,3.56-.12.54,0,.62-.31,1.64.32ZM1.59,25.92c.69-2.8,1.99-5.25,4.01-7.32-1.85.43-3.19,1.54-3.97,3.23-.61,1.32-.69,2.72-.04,4.09Zm33.18,28.25c.2.72.28,1.46.28,2.2,0,.4-.07.81-.09,1.21-.05.81-.25,1.6-.36,2.41-.02.12-.05.28.12.33.16.05.19-.11.23-.21.3-.65.55-1.33.78-2.01.12-.36.21-.73.29-1.11.11-.57.25-1.13.28-1.71.02-.47.12-.93.08-1.41-.54.14-1.05.28-1.6.31Zm-30.41-14.44c-.37.81-.16,1.62.51,2.1,0-.35.1-.67.29-.96.05-.07.09-.13.01-.21-.27-.3-.53-.61-.81-.94Zm4.42,5.79c.37-.41.72-.8,1.06-1.19.04-.05.09-.1.01-.15-.18-.1-.37-.2-.55-.29-.07-.03-.11.01-.13.08-.18.5-.38.99-.39,1.56Z"/>
  <g class="cls-7">
    <path d="m13.38,65.93c.97.86,2.11,1.32,3.39,1.49,1.69.23,3.26-.09,4.73-.93.19-.11.22-.02.3.12.43.83.96,1.58,1.73,2.14.78.56,1.67.78,2.61.82,1.23.05,2.46.06,3.68-.23,1.31-.32,2.52-.83,3.5-1.77.82-.78,1.38-1.74,1.67-2.85.32.08.62-.06.92-.08.63-.05,1.24-.19,1.87-.2,0,.53,0,1.06-.02,1.58-.01.26.05.33.32.33,2.57-.01,5.14,0,7.71,0,6.46,0,12.91,0,19.37,0,1.89,0,3.78,0,5.67,0,.46,0,.91,0,1.37,0,.37,0,.43-.05.48-.41.04-.26.09-.53.14-.79.76.11,1.5.32,2.17.7.51.29.5.66-.02.96-.59.35-1.25.51-1.91.66-1.65.38-3.32.6-5,.77-1.3.14-2.61.25-3.92.32-1.13.07-2.26.13-3.39.18-1.33.06-2.66.07-4,.12-2.18.08-4.36.04-6.54.03-1.51,0-3.02-.06-4.53-.12-1.13-.04-2.26-.11-3.39-.18-.64-.04-1.29-.11-1.93-.16-.17-.02-.32.01-.48.1-.92.48-1.92.71-2.93.91-1.47.29-2.96.48-4.45.61-1.18.1-2.36.18-3.54.24-2.19.12-4.38.14-6.57.09-1.58-.03-3.16-.11-4.73-.24-2.2-.17-4.39-.41-6.54-.95-.75-.19-1.51-.39-2.15-.85-.48-.34-.48-.77,0-1.1.8-.55,1.73-.75,2.65-.97.59-.14,1.18-.25,1.77-.37Z"/>
  </g>
  <path class="cls-20" d="m68.03,56.9c0-16.47-.18-35.74-.18-52.21,0-.13,1.06-1.61,1.07-1.74.02-.22,0-.13-.21-.03-.78.39-1.23,1.16-2.02,1.54-1.47.72-2.89,1.77-4.35,2.5-1.73.86-3.44,1.63-5.17,2.48-1.28.63-2.62.73-3.89,1.37-3.05,1.51-6.21,2.62-9.26,4.14-.15.07-.31.14-.4.29,0,.02,0,.04,0,.06h0s-.07,0-.07.06h0c-.05-.01-.08,0-.07.06h0c-.06-.02-.08,0-.07.06h0c-.12-.04-.15.07-.21.13-.3.33-.38.83-.49,1.26-.28,1.03-.07,1.85.36,2.79.1.23.06.53-.16.64-.99.47-2.06.86-2.84,1.65-.23-.3-.28-.68-.45-1,.73-1.65,1.59-3.23,2.74-4.64.37-.46.77-.89,1.2-1.29.12-.12.26-.21.41-.29,6.17-3.16,12.23-6.52,18.28-9.9,2.78-1.55,5.55-3.13,8.32-4.7.06-.03.12-.06.24-.12v1.55c0,.12,0,.24,0,.36,0,14.09,0,40.9,0,54.99"/>
  <path class="cls-15" d="m69.76,56.9h1.04c.36,0,.72,0,1.09,0,.85,0,1.69,0,2.54,0,.39,0,.45.06.45.45,0,.51,0,1.01,0,1.52,0,.36-.07.41-.42.42-.25,0-.55-.1-.72.05-.17.15-.12.46-.15.71-.26,1.67-.52,3.34-.78,5.01,0,.03,0,.06,0,.09-.05.26-.09.53-.14.79-.06.36-.11.41-.48.41-.46,0-.91,0-1.37,0-1.89,0-3.78,0-5.67,0-.06-.09-.18-.13-.19-.24-.06-.44-.13-.87-.19-1.31-.2-1.26-.39-2.51-.59-3.77-.02-.16-.04-.32-.06-.48,0-.03.01-.08-.05-.07h.01c0-.29-.04-.57-.13-.85.03-.26-.07-.38-.34-.35-.2.02-.41,0-.62,0-.19,0-.32-.06-.38-.25,0-.46-.23-.94-.2-1.39.02-.35-.15-.31-.59-.37-.05,0-.02-.13-.06-.16-.4-.21-.62-.56-1.02-.78-.36-.2-.61-.54-.83-.87-.23-.35-.32-.74-.6-1.06-.2-.23-.4-.48-.51-.75-.61-1.46-2.14-2.11-3.29-1.71-.17.06-.29.06-.39-.07-.11-.13-.27-.29-.2-.48.11-.29.2-.63.35-.9.06-.12.3-.1.26-.24-.03-.12-.09-.27-.09-.4-.02-.29.14-.58.42-.68.2-.07.62.17.72.46.27.78.84,1.07,1.53,1.41.38.19.61.25,1,.09.82-.34,1.78-.89,2.74-.75.03.06-.05.47-.09.56-.52-.03-1.02-.08-1.48.22-.03.02-.04.07-.07.09-.01,0-.06-.04-.07-.03-.21.08-.42.21-.63.3-.43.19-.81.25-1.29.07,0-.02-.03.02-.04.02-.02-.02.01-.09-.01-.05,0,0-.03-.02-.02,0,0,.13.05.32-.1.36-.02-.1-.2-.15-.32-.35,0-.02-.03-.06-.04-.07.04-.12-.03-.07-.11-.11-.54-.29-1.01-.7-1.3-1.24-.01-.07-.04-.09-.1-.14,0-.03.07-.16.06-.19-.1-.16-.05-.25-.27-.19-.24.07-.09.22-.08.42,0,.2-.03.42-.04.62,0,.05-.1.2-.16.23-.23.13-.23.25-.34.46-.1.12-.1.12-.01.22.08.1.1.02.21-.02.12-.05.22-.06.35-.1.14,0,.4-.02.54-.02.02.07.07.1.12.09.42.03.56.15.96.26.15.11.53-.15.65-.11,0,.24.07.37.24.47.72.83,1.18,1.78,1.7,2.74.37.69.81,1.08,1.63,1.01.08,0,.2.09.31.16-.2.12-.34.03-.58.14.5.22.78.41,1.26.52.44.11.79.19,1.2-.13.21-.17.16-.51.33-.68.31-.22.74-1.49.84-1.83.09-.03.22,0,.3.08-.11.66-.21,1.79-.87,2.46,1.24,0,2.09.25,3.33.25m-3.26,3.31c.29,1.9.49,3.77.77,5.66.03.17.14-.16.27-.16,2.24,0,4.09,0,6.33,0,.17,0,.23.2.26.02.1-.72.32-1.32.43-2.04.18-1.16.32-2.28.5-3.44.04-.2.03-.38.1-.58.1-.31.07-.2-.19-.2-2.86,0-5.59,0-8.45,0-.06,0-.1-.03-.16-.03-.13,0-.11.02-.08.15.05.25.19.36.23.62Zm4.19-1.31c1.86,0,3.62,0,5.48.01.23,0,.28.1.27-.14-.02-.43.05-.81.07-1.24.02-.29-.04-.27-.3-.27-2.46,0-4.92.18-7.38.18-1.25,0-2.5-.12-3.76-.13-.22,0-.19-.12-.18.11.02.44.11.87.08,1.31-.02.28-.06.2.19.2,1.85,0,3.67-.03,5.52-.03Z"/>
  <g class="cls-7">
    <path d="m4.17,58.68c.12.14.18.14.34.14,1.75,0,3.5,0,5.25,0,.23,0,.36.06.39.29-3.39,0-6.77.04-10.16-.19,1.35-.22,2.82-.11,4.17-.24Z"/>
  </g>
  <path class="cls-15" d="m30.35,14.04c-.23-.03-.46-.09-.7-.07-.17.01-.23-.08-.25-.22.32.08.65.15.95.29Z"/>
  <path class="cls-6" d="m1.24,29.42c.07.21.07.42,0,.63-.05-.21-.05-.42,0-.63Z"/>
  <path class="cls-4" d="m24.48,13.69c-.37.64-.01.99,1.01,1.37-.27.14-.65.35-.89.53-.37.28-.5.12-.39.48.11.34.07.19.5.21.48.02,1.29-.69,1.75-.8.18-.04.17,1.2.12,1.37-.05.17-.2.44-.21.62-.04.77-.07.84.68,1.01-.18.26-.88.9-1.07,1.16-.22.31-.26.69-.42,1.03-.02.05-.06.17.05.2.09.02.15-.03.19-.11.02-.05.04-.09.06-.14.24-.52.57-.98.98-1.38.6-.58,2-1.27,2.82-1.44.69-.14,1.29-.06,1.99.03.53.06.95.33,1.46.48.63.18.74.49,1.31.82,1.27.75,2.49,1.65,3.21,2.91.29.52.51,1.17.71,1.74.46,1.28.07,2.53-.58,3.7-.23.41-.54.77-.89,1.08-.06.05-.11.1-.07.17.05.07.12.04.18,0,.03-.02.07-.03.1-.05,1.23-.84,1.65-2.14,1.7-3.62.02-.5.09-.87-.06-1.37-.39-1.26-1.25-2.35-2.08-3.35-.58-.69-1.56-1.24-2.35-1.72.36-.1-.07-.21-.3-.45-.1-.1-.69,0-.8-.09-.94-.68-1.99-1-3-1.57l1.47-.43s0,.02,0,.02c0-.07-.03-.07-.08-.05-.14-.17-1.4-.09-1.57-.22-.1-.08-1.29-1.11-1.13-1.25.08-.07,2.24.59,2.29.48.6.18,1.46.39,2.02.67,1.38.67,2.55,1.4,3.7,2.43.84.75,1.57,1.8,2.12,2.78.48.87.9,1.79,1.05,2.78.15,1.02,0,2.02-.1,3.05-.01.14.05.25.13.35.9,1.09,1.75,2.24,2.02,3.61.1.52.26.57.33,1.72.03.62-.12,1.38-.13,1.54-.09,1.19-.39,1.85-.78,2.85-.44,1.12-1.15,2.37-2.05,3.16-1.83,1.62-3.98,2.92-6.24,3.85-1,.41-2.13.46-3.17.76-1.03.3-2.08.54-3.14.71-1.08.18-2.22.56-3.31.65-1.21.1-2.38.2-3.59.22-.93.01-1.89-.17-2.81-.27-.89-.1-1.98-.22-2.85-.42-.89-.21-1.76-.52-2.61-.85-3.42-1.3-6.28-3.23-8.15-6.46-.63-1.09-1.08-2.26-1.4-3.48-.22-.82-.38-1.78-.47-2.63-.11-1.02-.36-2.06-.31-3.07.06-1.21.48-2.5.82-3.68.26-.89.59-1.81,1-2.63.55-1.07,1.32-2.25,2.14-3.14,1.6-1.76,3.68-2.91,5.86-3.85,1.33-.57,2.5-1.25,3.92-1.57.85-.19,1.99-.46,2.85-.58.71-.1,1.73-.14,2.45-.2,1.12-.09,2.11-.11,3.23-.09,0,0-.27.34-.27.34l1.03.08Z"/>
  <path class="cls-20" d="m43.21,42.5c-.34-.56-1.16-.82-1.75-1.11.06-.11.16-.13.24-.13.18-.05.18-.18.18-.29,0-.08.18-.12.17-.19-.07-.47-.31-1.12-.78-1.05-.21.03-.6-.04-.8.04-.88.31-1.58.94-2.34,1.45-1.57,1.06-3.28,2.12-5.06,2.78-.69.26-1.19.36-1.72.91-.28.28-.61.63-.74,1.02-.02.07-.1.68-.19.67-.1-.02-.07-.11-.07-.17.03-.22.06-.47.21-.87.07-.19.49-.79.59-.99-3.71,1.08-7.44,1.82-11.23,1.69-1-.02-1.2-.14-1.56-.18-.55-.06-1.44-.29-1.98-.38-.73-.11-1.42-.11-2.14-.29-.68-.17-1.43-.39-2.09-.62-.46-.16-.84-.27-1.29-.47-.18-.07-.46-.08-.58.04-.43.45-.7.69-1.07,1.2-.29.4-.64.78-.85,1.23-.22.48-.67,1.11-.76,1.65-.09.53-.13,1.65-.02,2.16.17.82.63,1.43,1.24,2.06.02-.17.14-.14.14-.23.03-.33.02-.54.07-.87.15-.98.43-2.07.95-2.93.09-.14.04-.28.21-.19.17.09-.05.18-.11.31-.46.96-.69,1.69-.78,2.74-.05.71-.26,1.75-.2,2.47,0,.02.24.44.25.49.04.43-.03.77.04,1.2.09.63.17,1.17.38,1.78.25.73.71,1.5,1.07,2.18.36.68.63.98,1.07,1.6.38.54,1.06,1.11,1.53,1.57.05.05.1.11.05.18-.06.08-.13.04-.19,0-.1-.06,0-.1-.1-.16-.34-.2-1-.99-1.29-1.25-.07.09-.2.71-.18.78.17.62.21,1.41.56,1.98.36.59.88,1.17,1.43,1.6.81.64,2.09.62,3.1.81.64.11,1.3.37,1.92.3.84-.1,1.6-.69,2.37-1.04.06-.03.16-.04.16-.16-.78-.11-1.57-.19-2.33-.41-.73-.22-1.41-.51-2.07-.89-.24-.13-.44-.33-.67-.49-.06-.05-.07-.1-.05-.15.02-.06.09-.04.13-.03.08.02.15.04.22.08.54.31,1.12.53,1.71.73,1,.33,2.03.55,3.06.6,1.68.08,3.35.06,5-.33.87-.2,1.72-.45,2.56-.74.11-.04.21-.11.28.03.06.14-.11.15-.18.19-.96.51-2.01.81-3.07,1.04-1.12.23-2.26.34-3.41.35-.25,0-.23.09-.15.26.15.33-.14.79.07,1.09.29.41.77.97,1.2,1.25.69.46,1.84.74,2.7.76,1.35.02,2.65.09,3.97-.29,1.24-.36,2.43-.92,3.27-1.92.69-.83.92-2.06.99-3.19.01-.07.01-.08.01-.16.05-.46.05-.92.03-1.38,0-.09,0-.17-.1,0-.29.39-.61.74-1.02.99-.11.07-.04.01-.2-.09.61-.81,1.43-1.63,1.87-2.54-.4-.19-.64-.22-.6-.67.05-.4.03-.91.09-1.31.16-1.05.34-2.09.27-3.16-.04-.38-.1-1.04-.16-1.31-.03-.14-.31-.02-.53-.04-.18-.01-.48-.1-.54-.21-.02-.07-.04-.12.28-.13.63.01,1.24-.14,1.83-.32,2.13-.65,4.11-1.7,5.48-3.44,1.14-1.45,2.14-3.04,2.38-4.95.1-.84.07-1.86-.38-2.58Zm-26.15,8.04c.03-.06,0-.17.09-.15.08.03.04.11.04.17.01.78-.02,1.27,0,2.05.02.55.08,1.13.12,1.68.04.41.04.66.06,1.08.01.07.09.23,0,.23-.06,0-.08-.11-.1-.19-.23-.8-.17-1.33-.18-2.16,0-.12-.03-.14-.04-.24-.06-.62-.07-1.18-.06-1.8,0-.28-.04-.43.07-.67Z"/>
  <path class="cls-4" d="m38.72,52.82c0,3.85.21,7.66.21,11.5,0,.43-.02-.13.42-.13,8.54,0,16.86.46,25.4.46.06.44.15,1.01.22,1.45.02.12.13.16.19.24-6.46,0-12.91,0-19.37,0-2.57,0-5.14,0-7.71,0-.27,0-.33-.07-.32-.33.03-.53.02-1.05.02-1.58,0-.1.02-.2.02-.3.02-1.12.04-2.25.06-3.37.04-2.49.09-4.97.13-7.46,0-.02,0-.04,0-.06.22-.18.48-.29.72-.42Z"/>
  <path class="cls-17" d="m8.83,53.62c.09.86.1,1.72.3,2.56.17.74.39,1.46.68,2.16.09.22.03.24-.17.24-1.69,0-3.38,0-5.08,0-.2,0-.29-.05-.32-.25-.24-1.57-.49-3.14-.73-4.71,1.77,0,3.54,0,5.31,0Z"/>
  <path class="cls-19" d="m47.51,37.34c.15.12.04.28.06.41-.1.06-.08.17-.05.24.11.28.05.56.02.85-.04.26-.03.51,0,.77,0,.47.07.93.22,1.38.08.24.11.46-.15.62-.02.02-.04.04-.06.06-.02.02-.03.05-.05.08-.03.02-.06.05-.02.09.02-.02.03-.04.05-.06.02-.02.04-.04.06-.06.02-.02.04-.04.06-.06.02.01.07.03.07.03-.09.46-.62.85-1.05.77-.62-.11-1.23-.23-1.83-.41-.44-.13-.89-.25-1.2-.63-.06-.14-.12-.36-.16-.51-.03-.11.07-.31-.13-.34,0,0,0,0,0,0,.08-.06,0-.12-.04-.17-.22-.39-.59-.64-.9-.94-.4-.39-.68-.84-.82-1.38-.03-.12.03-.07.08-.06,0,0,0,0,0,0,0,.04.01.07.06.06h0s0,.08.07.06h0c-.04.06.02.08.06.11,0,.03,0,.07.01.08.07.06.05-.02.05-.04,0-.23-.02-.47.1-.71.09.54,0,.98.36,1.37.02-.35.03-.54.04-.86.03-.02.17-.08.21-.11,0,.35.04.77.05,1.12.01.29.04.3.3.43,0-.16.01-.14.03-.26.03-.29,0-.68.19-.94.15.21.07.53.06.74-.02.42-.11.66.26,1-.01-.19.1-.33.14-.48.28.74-.12,1.34.37,1.79.06-.07.03-.11.02-.16-.04-.33-.19-.75-.07-1.07.01-.04.16-.07.23-.04.02,0,.06.11.07.14,0,.06-.03.2-.03.25-.12.34,0,.57.08.89.04.15.14.17.26.14.14-.04,0-.06-.01-.14,0-.14.01-.32,0-.46.18.41.22.94.86.91.01,0,.03.01.04.02,0-.02-.04-.06-.04-.08,0-.08-.13-.13-.08-.23.02,0,.12,0,.13,0,.26.35.64.42,1.03.49.12.02.16-.04.21-.12.05,0,.13.04.15.02.05-.05-.03-.09-.05-.14,0-.05,0-.1-.07-.09,0,0,0,0,0,0-.02-.22-.31-.33-.35-.54-.06-.21-.06-.39-.16-.58-.08-.16-.14-.24-.38-.22-.24.02-.53-.15-.68-.41.22,0,.34-.08.51-.09.06,0,.13.11.13,0,0-.16-.37-.59-.54-.65-.27-.1-.55-.28-.8-.49.21-.06.41-.08.58-.06.06,0,.05.08.08-.03.02-.08-.22-.45-.3-.46-.38-.04-.74-.26-1.08-.41,0-.01,0-.12,0-.13.3-.14.54-.05.87-.03-.16-.45-.17-.74-.77-.78-.14,0-.49-.12-.42-.3.15-.24.51-.05.76-.03-.18-.46-.84-.66-.92-1.08.13-.19.25.04.44,0-.08-.31-.31-.51-.37-.77.46.06.6.43.76.72.02-.32-.18-.66-.1-.95l.1.04c.16.06.18.24.23.39.08.28.06.54.05.82,0,.19-.01.25.13.41,0-.27-.15-.84.14-.84.22.72-.02,1.45.36,1.97.02-.65-.14-1.39.13-1.79.18.59.16,1.37.13,2-.02.45.1.61.35,1.01.02-.5-.14-.93-.08-1.37.02-.03.09-.75.2.04.09.48.23.96.24,1.45.01.38-.07.56.24.92,0-.47.03-.82.03-1.21.11.39.23.92.26,1.31.02.28-.1.61.18.8.14.1.31.15.36.31.03.1.02.26.14.27.04.22.02.47.19.65.01.03.02.06.03.09,0,0,.02-.01.02-.02.01-.04,0-.07-.03-.09-.02-.12-.05-.24-.07-.37-.02-.17.08,0,.11-.04,0,.01.02.03.03.04,0-.01,0-.02,0-.04-.01,0-.03,0-.04,0,.04-.14-.11-.23-.1-.36.02-.43.2-.55-.03-.85,0-.07.02-.21.03-.28.05.03.07-.01.07-.09,0-.3.03-.54-.17-.82-.07-.1-.11-.29-.11-.42.13,0,.17.06.28.08.03-.68-.13-1.17-.8-1.59.27-.07.29-.11.55-.04.06-.12-.05-.17-.08-.28-.16-.54-.15-.51-.69-.45.02-.04.04-.12.05-.15.04-.14.3-.07.22-.27-.06-.14-.17-.2-.27-.32-.13-.16-.22-.06-.36-.03-.1.02-.25.05-.37.02.05-.16.2-.27.32-.34.05-.03.05,0,.02-.07-.1-.24-.16-.43-.31-.64-.1-.13-.18.02-.32,0l-.06-.07c.01-.14.14-.21.25-.25.07-.02.11-.03.08-.12-.09-.24-.01-.58-.46-.59.47-.16.23-.5.23-.76,0-.2-.18-.15-.34-.14.2-.34.24-.37.09-.45.01-.1.06-.23.16-.23.12,0,.11.15.13.23.09.43.2.85.27,1.28.11.7.33,1.34.84,1.84.48.47.67,1.07.83,1.69.05.19.03.39.17.55Z"/>
  <path class="cls-17" d="m7.99,52.6c-.59,0-1.12,0-1.66,0-1.26,0-2.53,0-3.79,0-.22,0-.3-.06-.29-.28.02-.38.01-.76,0-1.13,0-.19.04-.26.25-.26,1.51,0,3.03,0,4.54,0,.1,0,.21-.02.27.12.18.51.39,1.02.69,1.55Z"/>
  <path class="cls-20" d="m1.59,25.92c-1.02-.78-.74-2.93-.13-4.25.78-1.69,2.65-3.23,4.7-3.48-2.02,2.07-3.88,4.93-4.57,7.73Z"/>
  <path class="cls-3" d="m34.77,54.17c.55-.04,1.19-.32,1.73-.47.05.48.05.98.02,1.45-.03.58-.29,1.33-.4,1.89-.08.37-.21.95-.33,1.31-.23.68-.54,1.09-.84,1.74-.05.1-.07.26-.23.21-.17-.05-.28-.14-.26-.26.11-.8.33-1.7.38-2.52.03-.4.09-.84.09-1.25,0-.74.05-1.39-.15-2.12Z"/>
  <path class="cls-6" d="m8.83,53.62c-1.77,0-3.54,0-5.31,0q-.15-.78.64-.78c1.25,0,2.51,0,3.76,0,.2,0,.29.02.42.18.06.08.21.22.5.6Z"/>
  <path class="cls-12" d="m43.44,15.47c-.14.32-.09.64-.19.98-.22.72-.1,1.25.1,1.95.15.54.47,1.01.76,1.49.09.15-.11.59-.28.64-1.3.39-2.6.81-3.65,1.67-.06-.07-.1-.14-.08-.24.78-.79,1.71-1.36,2.7-1.84.22-.1.26-.18.16-.41-.43-.95-.63-1.93-.35-2.96.12-.43.33-.81.63-1.14.05-.06.09-.17.21-.13Z"/>
  <path class="cls-12" d="m42.01,29.04c-.05-.28-.02-.58.23-.67,1.9-.7,3.91-1.61,5.81-2.32.11-.04.44.08.53.24.09.15-.03.53-.12.65-.05.07-3.34,1.37-3.42,1.4-2,.73-.96.28-2.96,1.01-.04.01-.03-.19-.07-.18,0-.04,0-.09,0-.13Z"/>
  <path class="cls-12" d="m42.21,29.68c1.28-.45,2.64-.97,3.92-1.43.66-.23,1.39-.44,2.05-.67.11-.04.35-.05.45.09.1.14-.09.48-.18.61-.05.08-.29.16-.37.19-1.87.66-3.71,1.31-5.58,1.98-.03,0-.07-.14-.1-.13-.08-.16-.16-.47-.19-.64Z"/>
  <path class="cls-18" d="m43.75,37.76c.34.15.67.34,1.06.38.08,0,.39.5.37.58-.02.11-.11.06-.17.06-.16-.03-.33-.07-.53,0,.25.21.53.3.8.4.17.06.55.57.55.73,0,.12-.09.08-.15.08-.17,0-.33,0-.55,0,.21.25.46.34.71.32.24-.02.32.1.41.26.1.2.13.42.18.63-.09.1,0,.18.03.26.04.1,0,.15-.09.16-.03-.01-.1-.03-.1-.04-.04-.29-.17-.42-.42-.47-.1-.22-.37.01-.48-.17.11-.06.24-.07.38-.08-.03-.05-.05-.11-.06-.11-.33.04-.55-.29-.87-.29-.14,0-.24-.09-.25-.24,0-.14.05-.24.18-.31.06-.03.04-.08.03-.13-.02-.15-.13-.21-.25-.27-.14-.12.06-.28-.22-.26-.02-.05-.07-.21-.09-.26.02-.18.07-.35-.17-.45-.35-.14-.19-.53-.29-.78Z"/>
  <path class="cls-12" d="m43.69,46.44c.69-.06,1.45-.67,2.13-.79.74-.13,1.52-.03,2.26-.18.16-.03.4.08.45.31.04.23-.13.58-.39.62-1.07.2-2.26.41-3.33.61-.45.08-.85,0-1.31.03.02-.22.14-.4.19-.6Z"/>
  <path class="cls-12" d="m43.99,45.06c.5,0,1-.44,1.49-.53.85-.16,1.68-.25,2.52-.43.15-.03.46.03.5.25.04.2,0,.62-.25.67-.53.11-1.26.3-1.78.4-.87.17-1.72.19-2.58.36.02-.2.08-.52.1-.72Z"/>
  <path class="cls-18" d="m44.18,40.29s-.01-.1-.03-.11c-.07-.03-.07.05-.08.08-.11.32-.09.64-.05.97,0,.05.04.09-.02.16-.5-.45-.23-1.06-.38-1.59-.03.14-.07.29-.11.46-.37-.34-.36-.76-.34-1.19.01-.22.03-.43.04-.65,0,0,0,0,0,0,.02,0,.04,0,.06,0,.11.04.16.17.29.18.03.05.06.09.09.14-.02.2.02.11.18.22.12.09.15.27.16.4.02.25.06.25.18.19.03.06.05.12.08.17-.03.02-.03.05.01.08.27.17.14.39-.07.47Z"/>
  <path class="cls-18" d="m45.4,41.86c-.64.03-.68-.5-.86-.91.02.14.04.28.05.42,0,.07.12.18-.02.22-.13.03-.28,0-.32-.15-.08-.32-.19-.65-.07-.98.16.17.34.13.57.16.05,0,.1.02.15.02.04.14.13.24.12.39,0,.11-.06.27.12.2.18.17.39.09.59.06.17-.03.32-.03.34.16.01.18.13.28.3.33.14.04.24.04.35.16-.05.08-.09.14-.21.12-.39-.08-.78-.14-1.03-.49,0-.01-.04,0-.06,0-.05.09.05.16.04.25-.01.01-.03.03-.04.04Z"/>
  <path class="cls-21" d="m43.75,37.76c.09.26.05.57.4.71.24.1.08.34.06.53-.09-.09-.21-.15-.31-.23-.16-.13-.34-.27-.24-.54.08-.23-.15-.27-.28-.34-.13-.07-.22-.14-.3-.26-.1-.14.19-.25,0-.38-.12-.09-.24-.21-.34-.32-.11-.12-.01-.28-.07-.42,0,0,0,0,0,0,.23-.03.22-.23.26-.39.07-.08.03-.17.04-.26.21.08.41.34.32.56-.04.1-.05.18-.11.26-.16.21-.06.17.13.24.38.15.38.15.24.53-.06.16-.12.15.13.09.05-.01.01.16.06.16,0,.01,0,.03,0,.04Z"/>
  <path class="cls-18" d="m42.44,38.15c-.01.32-.03.64-.04,1-.6-.41-.32-1.02-.41-1.56-.12.24-.11.48-.1.71,0,.03.01.1-.05.04-.02-.01,0-.06-.01-.08-.02-.04-.04-.08-.06-.12,0,0,0,.01,0,.01,0-.04,0-.09-.07-.06,0,0,0,0,0,0,0-.02,0-.05,0-.07-.02-.04-.04,0-.06,0,0,0,0,0,0,0,.03-.19-.06-.4.11-.56.17.08.27-.13.43-.1.05.05.09.11.14.16-.03.16.1.32-.02.49-.06.08.07.11.14.14Z"/>
  <path class="cls-2" d="m42.44,38.15c-.07-.03-.2-.06-.14-.14.13-.17,0-.33.02-.49.11.05.2.18.35.11-.06-.12-.2-.13-.27-.22-.03-.04-.09-.06-.06-.12.02-.06.08-.05.13-.05.24.01.46.05.5.35.02.16.1.32.26.37.33.12.35.37.33.65-.12-.02-.18-.14-.29-.18,0-.02,0-.03,0-.05.07-.1.06-.19-.04-.25-.11-.07-.16-.01-.2.08-.05.1-.09.03-.12-.01-.05-.07-.04-.15-.05-.23-.01-.09-.02-.2-.12-.22-.12-.02-.12.11-.15.18-.02.04-.02.09-.04.14-.03.02-.07.05-.1.07Z"/>
  <path class="cls-20" d="m43.99,43.81c.14-.03.36-.26.5-.29.14-.03.51-.04.55.15.04.17-.23.69-.42.74-.17.05-.41-.11-.58-.07-.02-.18,0-.36-.06-.53Z"/>
  <path class="cls-21" d="m44.16,39.56c-.12.06-.23.15-.26-.1-.01-.14.01-.32-.11-.41-.15-.12-.17-.1-.14-.3.06.05.12.11.18.14.31.13.37.37.33.67Z"/>
  <path class="cls-21" d="m44.73,40.62c-.22.05-.41.01-.57-.16,0-.06,0-.12.01-.17.18-.14.3-.29.03-.46-.04-.03,0-.07.03-.09.27-.07.33.03.24.28-.1.27,0,.47.26.6Z"/>
  <path class="cls-21" d="m45.12,41.24c-.17.07-.18-.05-.18-.16,0-.15-.02-.29-.06-.43.21,0,.34.05.24.3-.03.08,0,.19,0,.29Z"/>
  <path class="cls-2" d="m45.36,40.93c.12.18.38-.05.48.17-.13.03-.27.06-.4.08-.09.02-.19,0-.23-.09-.05-.1-.02-.19.09-.25.02.03.04.06.06.09h0Z"/>
  <path class="cls-2" d="m42.18,37.36c-.16-.03-.26.18-.43.1,0-.03.01-.06.03-.08.07-.09.05-.28.18-.27.11,0,.17.15.22.25Z"/>
  <path class="cls-21" d="m44.27,39.15c.28-.02.24.19.24.36-.16.11-.25.07-.25-.13,0-.08,0-.15,0-.23Z"/>
  <path class="cls-2" d="m46.36,41.61c.1-.01.13-.06.09-.16-.03-.08-.12-.16-.03-.26.04.21.27.32.29.55-.13,0-.26,0-.35-.12Z"/>
  <path class="cls-15" d="m43.29,40.41c.04.05.14.09.04.17-.12.02-.1-.09-.15-.15.03,0,.07-.02.1-.03Z"/>
  <path class="cls-2" d="m46.72,41.74c.08-.01.07.05.07.09-.04-.02-.08-.04-.07-.09Z"/>
  <path class="cls-10" d="m38,53.31s-.02-.04-.03-.06c0,0,.02,0,.02,0,0,.02,0,.04,0,.06Z"/>
  <path class="cls-18" d="m45.36,40.94s-.04-.06-.06-.09c.04.02.07.04.06.09Z"/>
  <path class="cls-12" d="m23.46,13.62h-.02s0-.03,0-.03c.03,0,.06-.01.09-.02-.03.02-.05.04-.08.05Z"/>
  <path class="cls-12" d="m43.5,15.41s-.04.04-.07.06c-.01-.06,0-.08.07-.06Z"/>
  <path class="cls-12" d="m43.56,15.35s-.04.04-.07.06c-.02-.06.02-.07.07-.06Z"/>
  <path class="cls-12" d="m43.63,15.29s-.04.04-.07.07c0-.05.02-.06.07-.07Z"/>
  <path class="cls-12" d="m43.62,15.24s0,.04,0,.06c0-.02,0-.04,0-.06Z"/>
  <path class="cls-17" d="m73.29,60.25c-.17,1.16-.34,2.32-.52,3.48-.11.72-.23,1.43-.33,2.15-.02.18-.09.23-.26.23-2.24,0-4.48,0-6.72,0-.13,0-.23,0-.26-.17-.28-1.9-.57-3.79-.86-5.69,2.98,0,5.97,0,8.95,0Z"/>
  <path class="cls-17" d="m68.76,59.05c-1.85,0-3.7,0-5.56,0-.25,0-.36-.05-.34-.32.03-.44.02-.88,0-1.31,0-.23.07-.28.29-.28,1.25,0,2.51,0,3.76,0,2.46,0,4.92,0,7.38,0,.26,0,.37.05.35.34-.03.43-.02.86,0,1.28.01.24-.07.3-.3.3-1.86,0-3.72,0-5.59,0Z"/>
  <path class="cls-14" d="m65.06,54.23c-.04.41-.45,1.62-.76,1.84-.28.04-.41.13-.42.49,0,.1-.21.23-.3.22-.29-.05-.59-.08-.88-.13-.24-.04-.52-.28-.49-.55.02-.26.08-.41-.23-.49-.34-.08-.64-.2-.77-.51-.06-.13-.29.09-.43.07-.38-.05-.26-.87-.41-1.17-.03-.06-.42.04-.47.02-.34-.14-.17-.59-.35-.88-.3-.47-.71-.8-1.28-.89-.17-.1-.36-.18-.35-.42,0,0,0,0,0,0,.15-.04.17-.17.17-.29.01-.04.03-.03.04-.04.02,0,.03,0,.04.02.1.24.45.27.8.21.45-.08.66-.29,1.03-.53.03-.02.12-.04.13-.08,0-.01.02-.01.03-.01.03-.02.06-.03.09-.05.45-.3.97-.32,1.48-.29,0,.2,0,.39,0,.59-.26-.02-.4.18-.64.28-.17.07-.21,0-.17.16.04.18.08.06.21.05.22-.01.39.11.61.11.02.11.04.21.05.32.13,1.22,1.22.84,2.4,1.27.36.13.52.57.88.69Zm-1.49,1.62c-.02-.14.05-.08-.08-.07-.16.02-.18-.04-.18.12,0,.11-.03.12.09.1.15-.03.14.02.16-.15Z"/>
  <path class="cls-6" d="m73.29,60.25c-2.98,0-5.97,0-8.95,0-.05-.25-.09-.51-.14-.76-.02-.13.02-.19.15-.19.06,0,.12,0,.18,0,2.86,0,5.71,0,8.57,0,.26,0,.41.03.3.34-.06.19-.08.41-.11.61Z"/>
  <path class="cls-10" d="m69.21,45.57v11.31h-5.06c.36-.54.84-1.16,1.07-2.19.13-.58.05-.6.06-.75l.24.02s-.3-.09-.38-.04c-.09.04-1.63.28-1.76.26-.13-.02-.73-.42-.73-.42l-.92-3.24-5.69-5.81,8.1-1.56,2.35-.22,2.73,2.64Z"/>
  <path class="cls-13" d="m58.27,52.24c.57.09.98.42,1.28.89.18.29.34.58.68.72.06.02.11.09.15.14.16.3.34.55.72.6.14.02.21.17.27.3.14.31.36.51.7.59.3.08.36.34.33.59-.02.27.09.38.34.42.29.05.59.1.88.15.1.02.16-.02.16-.12,0-.36.27-.42.55-.46-.16.17-.13.44-.34.6-.4.32-.84.26-1.28.16-.48-.11-.87-.41-1.37-.62.24-.11.45-.02.65-.14-.1-.07-.19-.06-.27-.05-.82.07-1.3-.35-1.67-1.03-.52-.96-1.04-1.91-1.77-2.74Z"/>
  <path class="cls-20" d="m57.84,51.47s.02.03.03.05c-.06.14-.12.28-.19.42-.4-.11-.78-.27-1.25-.33-.2-.01-.35-.02-.49-.01,0-.03,0-.05,0-.08.05-.03.09-.06.16-.1-.25-.08-.47.13-.7.02-.04-.03-.08-.06-.13-.09.11-.21.16-.46.39-.59.06-.03.04-.11.04-.16,0-.2,0-.4,0-.59,0-.2-.04-.43.2-.5.21-.06.34.12.44.28-.17.05-.24-.21-.49-.11.34.17.42.48.6.72.37.48.83.84,1.39,1.07Z"/>
  <path class="cls-13" d="m60.12,51.1s-.02.09-.04.11c-.37.24-.73.52-1.18.6-.35.06-.65-.07-.74-.3.47.17.91.03,1.34-.15.21-.09.42-.17.63-.25Z"/>
  <path class="cls-10" d="m57.86,51.51c-.56-.23-1.05-.64-1.42-1.12-.18-.24-.26-.56-.6-.72.25-.1.33.16.49.11,0,.03.01.06.02.09.02.06.05.12.07.18.29.54.74.93,1.28,1.22.08.04.2.12.15.24Z"/>
  <path class="cls-10" d="m55.27,51.34s.08.06.13.09c0,.19.2.09.3.09.1,0,.13.02.23,0,0,.03,0,.05,0,.08-.12.04-.25.06-.36.11-.11.04-.25.11-.32.02-.08-.1-.07-.26.02-.38Z"/>
  <path class="cls-15" d="m57.68,51.94c.06-.14.12-.28.19-.42.19.08.03.21.05.31,0,0,0,0,0,0-.12-.05-.08.23-.24.12Z"/>
  <path class="cls-10" d="m68.86,54.75s.08.08.14.04c.05.13-.03.24-.05.38-.09-.14-.1-.28-.09-.43Z"/>
  <path class="cls-13" d="m60.24,51.04s-.06.03-.09.05c.03-.02.06-.03.09-.05Z"/>
  <path class="cls-15" d="m74.95,51.88s0,0,0,0c0,0,0,0,0,0Z"/>
  <path class="cls-15" d="m26.83,18.53c.3-.22.59-.44.89-.66.02-.02.04-.04.06-.07h0c.28-.14.39-.19.67-.28.53-.09,1.06-.21,1.6-.21.54,0,1.09,0,1.63.1.24.05.23-.17.33-.27.27.1.51.32.89.2-.34-.21-.56-.52-.92-.61.02-.27-.28-.42-.28-.69,1.01.57,2.03,1.14,2.97,1.83.11.08.22.18.31.28.23.24.2.3-.16.4.78.49,1.47,1.06,2.05,1.75.84,1,1.48,2.11,1.87,3.36.15.49.29.99.28,1.49-.05,1.48-.68,2.65-1.91,3.5-.03.02-.07.03-.1.05-.06.05-.13.08-.18,0-.04-.06.01-.11.07-.17.35-.31.66-.67.89-1.08.65-1.17.77-2.38.31-3.66-.2-.56-.43-1.12-.72-1.63-.72-1.26-1.66-2.31-2.93-3.06-.57-.34-1.17-.6-1.8-.78-.5-.14-1.03-.23-1.55-.3-.7-.09-1.4-.07-2.09.07-.81.17-1.53.54-2.13,1.12-.41.4-.74.86-.98,1.38-.02.05-.04.09-.06.14-.04.08-.1.13-.19.11-.11-.03-.08-.15-.05-.2.16-.33.2-.72.42-1.03.18-.26.35-.53.53-.79.12-.08.22-.19.31-.31Z"/>
  <path class="cls-20" d="m31.97,16.73c.37.1.59.4.92.61-.38.12-.62-.1-.89-.2.04-.14,0-.28-.03-.41Z"/>
  <path class="cls-15" d="m31.59,16.02s.08-.02.08.05c-.03-.02-.05-.03-.08-.05Z"/>
  <path class="cls-15" d="m60.43,36.72c-.25.35-.49.7-.87.91-.55.3-1.04.37-1.4-.03-.2-.22-.3-.48-.39-.75-1.08.46-1.9-.11-2.17-1.14-.09-.35-.05-.73.13-1.06.1-.18.1-.36.1-.55-.01-1.33.64-2.33,1.87-2.85.12-.05.17-.12.15-.24-.13-1.39,1.45-3.18,2.62-3.43.55-.12,1.1-.19,1.57.24.25.23.37.51.41.84.02.15.06.18.18.08.47-.44,1.25-.21,1.54.4.2.42.23.85.21,1.31-.01.45-.12.86-.35,1.24-.04.07,0,.13.01.19.26.93.06,1.76-.5,2.52-.11.14-.24.27-.42.32-.16.05-.17.13-.1.26.19.35.35.71.54,1.06.35.66.22,1.27-.18,1.85-.47.67-1.11,1.1-1.92,1.25-.39.08-.79-.3-.82-.7-.05-.57,0-1.15-.21-1.72Zm3.59-7.19c0-.05.04-.09-.01-.11h0c-.13-.39-.44-.5-.81-.51-.31-.01-.39.12-.51.41-.02.1-.1.22-.11.31-.24,1.44-.94,2.58-2.4,3.06-.17.06-.07-.04-.05.09-.01.07-.01.03.06.04.57.09.74.26,1.19.67.04-.62.13-.91.29-1.45.17-.23.28-.71.41-1.04.09.32.28.58.47.76.39.37.71.39,1.09-.05.48-.57.57-1.13.49-1.86.01-.07,0-.1-.04-.16,0-.02,0-.03,0-.04,0-.05.05-.11,0-.13h-.05Zm-1.03,4.79c.16.02.12.04.22-.07.53-.59.75-1.14.65-1.91-.02-.13,0-.24-.17-.04-.16.18-.28.42-.49.51-.18.02-.18.05-.23.2-.13.39-.17.47-.08.88.04.17-.13.34.1.44Zm-1.76-3.08s.13-.01.15-.03c.02-.02.03-.03.05-.05.01,0,.08,0,.08-.01.02-.03.03-.12.05-.15.46-.75.69-1.4.54-2.29-.09-.55-.65-.95-1.32-.7-.09-.02-.19,0-.28.01-.84.2-1.29.76-1.77,1.42-.39.53-.54.86-.52,1.53,0,.14.02.23.19.21.12.09.12.11.24.22.22.19.38.14.42-.16.02-.13,0-.29.03-.41.1-.36.36-.75.66-1,.15-.13.51-.06.69-.03.1.02.03.27,0,.39-.34-.15-.66-.07-.81.31-.09.23-.15.43-.21.67-.02.11-.1.22.06.29.18.07.29.19.42.31.08.21-.04.62.33.49.53-.18.69-.55,1.02-1.02Zm2.08,6.37c.18-.23.24-.49.22-.77-.03-.51-.29-.92-.51-1.35-.48-.91-.71-1.84-.33-2.84.06-.16-.02-.21-.16-.24-.22-.07-.33-.29-.49-.43-.38.75-.41,1.55-.41,2.41-.13-.14-.2-.21-.26-.29-.3-.42-.73-.65-1.2-.83-.16-.06-.33-.06-.38.14-.1.36-.34.62-.61.92.49.09.69.49.94.83.55.97.71,2.04.74,3.13.01.42.15.55.58.56.12,0,.23,0,.35-.04.65-.22,1.15-.64,1.52-1.2Zm-4.52-2.82c-.28.07-.65,0-.96-.19,1.11-.18,1.87-1.03,1.77-2.14-.03-.32-.13-.52-.35-.57-.26-.06-.56.07-.72.35-.05.09-.1.17-.13.26-.1.27-.05.82-.08,1.11-.03,0-.48-.28-.51-.28-.06-.54.09-1.03.42-1.48.1-.18.14-.13.05-.18-.33-.19-.58-.1-.88.09-.8.49-1.2,1.12-1.29,2.06-.02.22,0,.35.08.56.04.11,0,.39-.12.51-.03-.06-.03-.07-.11-.07-.09,0-.03-.02-.05.07-.14.6-.02.97.37,1.43.18.2.37.39.68.34.03,0,.07,0,.11.01.02,0,.08,0,.11,0,.6.07.95-.4,1.33-.85,0,.23-.15.58-.21.72-.11.11-.22.07-.18.27.11.6.52.84,1.1.64.26-.05.4-.22.59-.39.62-.54.59-.66.17-1.37-.02-.03-.04-.03-.05-.05-.04-.07-.19-.11-.23-.18-.06-.22-.14-.43-.3-.57-.18-.17-.3-.18-.59-.09Z"/>
  <path class="cls-12" d="m52.1,61.75c-.11.02-.2,0-.19-.14,0-.08,0-.16,0-.24.01-5.43.02-10.86.03-16.29.02-6.62.04-13.23.06-19.85.01-3.59.03-7.17.04-10.76,0-.04,0-.08,0-.12,0-.09-.01-.21.12-.2.11.01.06.13.06.19,0,.89,0,1.77,0,2.66,0,.05,0,.1,0,.15,0,.12,0,.24,0,.36-.01,2.42-.02,4.84-.03,7.26,0,1.38,0,2.77,0,4.15,0,.15-.01.3-.02.45,0,2.53-.01,5.07-.01,7.6,0,.11,0,.22,0,.33,0,.12,0,.24,0,.36-.01,2.44-.02,4.88-.03,7.32,0,1.38,0,2.77,0,4.15,0,.18-.01.36-.02.54,0,2.51-.01,5.01-.01,7.52,0,.11,0,.22.01.33,0,1.41-.01,2.83-.02,4.24Z"/>
  <path class="cls-15" d="m63.24,12.16c-.25-.63-.87-1.01-1.52-.94-.5.06-.98.17-1.38.49-.04,0-.08.11-.07.06.01-.04.03-.07.03-.09.04-.38.35-.79.46-1.16-.09,0-.28-.03-.34-.05-.29-.09-.37.24-.4.48-.03.31-.08.54-.15.88-.04-.06-.03-.02-.03-.03-.11-.67-.61-.99-1.25-.78-.07.02-.14.1-.15.15-.09.4-.23.83-.04,1.21.08.18.05.23-.09.36-.91.83-1.49,1.86-1.64,3.09.02.28,0,.55-.06.83.02.14.06.33.09.46.18.78.44,1.58,1.05,2.14.26.23.7.41,1.06.34.3-.05.6-.17.87-.35.1-.07.17-.16.31-.18.58-.08,1.12-.35,1.53-.77.37-.39.63-.82.88-1.29.45-.87.79-1.83.96-2.79.13-.66.15-1.4-.1-2.05Zm-4.08-.83c.05.01-.14.05-.13.11l.28-.08c.37.18.36.52.43.85-.11-.04-.16-.14-.18-.27l-.06-.07c-.08.06.06-.15.06-.15-.05,0-.14,0-.13-.05,0,0-.35-.07-.35-.09-.14-.02-.18.14-.15.19.12.23.35.43.59.55.06.03.15.07.01.12-.72.26-1.02.02-.96-.8,0-.45.06-.47.59-.31Zm3.87,2.78c-.21,1.21-.57,2.35-1.26,3.38-.4.6-.81,1.1-1.59,1.21h-.08c.04-.14.15-.06.25-.13.04-.03.14-.14.11-.22-.04-.08-.22-.1-.28-.07-.15.08-.33.2-.44.33-.19.23-.4.3-.67.41-.31.13-.52.24-.82.03-.6-.31-.81-.85-1.04-1.44-.47-1.25-.42-2.39.28-3.52.25-.53.68-.87,1.11-1.25.04-.04.1-.09.13-.08.4.11.61-.04.98-.14-.3.11-.4.15-.64.22.41.19,1.3.16,1.58-.61-.19-.03-.25.09-.41.1-.07-.25.02-.27.24-.43.53-.38,1.05-.38,1.65-.31.44.05.69.31.84.72.22.6.19,1.16.08,1.78Z"/>
  <path class="cls-12" d="m56.1,43.23c-.16.01-.26-.06-.27-.22-.02-.2.06-.35.27-.4.35-.08.7-.15,1.05-.23,2.17-.45,4.34-.9,6.52-1.34.19-.04.43-.17.52.15.07.24-.09.43-.42.49-2.33.47-4.66.94-6.99,1.41-.22.05-.45.09-.67.13Z"/>
  <path class="cls-12" d="m63.99,43.21c-.16-.02,1.17-.21,1.01-.23-.26-.02-.6.73-.92.19-1.28.24-3.77.72-5.05.96-.94.17-1.88.35-2.81.53-.19.04-.35.05-.39-.18-.03-.22.07-.38.31-.43.6-.12,1.21-.24,1.81-.35,1.9-.37,3.81-.74,5.71-1.1.17-.03.37-.14.49.06.12.22,0,.4-.16.55Z"/>
  <path class="cls-15" d="m41.53,54.39c-.02-.67-.08-1.34.2-1.98.03,0,.06,0,.09,0-.01.07-.03.13-.04.2-.08.29-.02.54.06.84.02.09.03.16.05.25.03.12.02.23.05.35.22.72.69,1.26,1.37,1.52.55.21,1.12.08,1.71.02.6-.06,1.12-.26,1.71-.35.58-.09,1.14-.14,1.67-.4.31-.16.55-.32.58-.69.07-.95-.29-1.6-1.12-2.07-.36-.21-.79-.37-1.11-.64-1.01-.83-2.05-.96-3.27-.6-.45.13-.87.24-1.12.67l.08.04c-.22.12-.22.42-.36.61-.03,0-.53-.16-.56-.16.39-.96,1.69-1.89,2.72-1.92.7-.02,1.46-.15,2.09.22.14.08.36.26.48.36.4.32.82.84,1.28,1.06.9.43,1.44,1.83,1.12,2.83-.38,1.21-1.29,1.94-2.45,2.25-.55.15-1.12.3-1.68.41-1.7.34-2.98-.34-3.43-2.16.1-.02.11.05.12.11.12.24.17.52.34.74.02.04.04.07.07.11.01.02.03.05.04.07.37.61.93.89,1.62.97.03,0,.05,0,.08,0,.18,0,.36,0,.53,0,1.17-.07,2.15-.51,3.2-1.02.33-.16.58-.21.78-.52,0-.02,0-.04,0-.04-.03-.02-.21.18-.08.07-.16.05-.28.06-.48-.03.3-.11.55-.16.74-.41.05-.02.13-.04.1-.08-.03-.03-.02-.04-.03,0-.22.12-.37.23-.62.29-.47.17-.98.29-1.48.38-.64.12-1.25.21-1.9.31-.35,0-.89.08-1.22,0-1.02-.26-1.64-.88-1.88-1.92,0-.09.08-.12-.02-.2-.08.09.03-.04.05.05,0,.08,0,.16.01.24-.05.07.01.19-.09.24Z"/>
  <path class="cls-15" d="m43.16,21.84c.09-.19.28-.3.43-.25.14.04.27.33.26.46,0,.14-.11.27-.11.47.15-.1.07-.26.1-.35.07-.25.18-.49.32-.71.28-.43.5-.52,1-.38.59.17,1.22.45,1.86.44.15,0,.42-.02.57.03.48.18.9.43,1.42.49.17.02.49.53.51.7.02.17-.13.36-.3.37-.2.01-.32.02-.45.15-.46.45-1.12.65-1.72.75-.46.08-.9.13-1.36.19-.3.04-.54.14-.81.27-.17.08-.33.22-.5.28-.32.11-.65-.09-.76-.42-.1-.32-.01-.68.03-1,.03-.26-.02-.13-.19-.05-.02-.02-.06-.15-.08-.17.03-.23.28-.1.36-.23.03-.08.15-.19,0-.23-.18-.05-.09-.16-.1-.25.11-.19.06-.36-.06-.52-.1-.14-.23-.05-.35,0-.02-.02-.04-.03-.06-.05Zm5.72.61s-.04,0-.06-.03h.02c-.19-.16-.24-.17-.45-.07-.04.02-.13-.03-.17,0,0-.18-.07-.27-.26-.24-.13.02-.27-.03-.36-.09-.25-.17-.53-.2-.81-.25-.17-.03-.29.01-.37.17h-.09c.05-.1-.09.1-.24.1-.19,0-.26-.23-.43-.29-.21-.08-.27-.31-.52-.23-.03,0-.27-.05-.3-.05.07-.19-.03-.08-.13-.09-.18-.01-.25-.03-.33.13h0c-.06.03-.1.07-.11.14-.02.03-.04.07-.06.1-.08.04-.07.12-.1.19-.03.12-.1.22-.08.35-.11.13.09.37,0,.5-.18.47-.07.43,0,.94.13-.04-.24.3-.13.26,0,.12.36-.13.35-.02,0,.12-.26.26-.14.27.32.04.34.02.59-.12.16-.09.26-.15.27-.29,0-.08.03-.15.07-.22.03,0,.06,0,.09,0,0,.12.1.2.09.32,0,.08.06,0,.16-.03.54-.2.9-.1,1.46-.2.21-.04.29-.06.27-.24.02-.04,0-.14.09-.06-.07.27.03.28.29.22.47-.11.77-.28,1.17-.65l.03-.16s.11,0,.13,0c-.02.1-.02.12.07.07.13-.07.13-.06.2-.19.05-.1,0-.09-.1-.15v-.03s-.04-.02-.09-.03l-.04-.02Z"/>
  <path class="cls-15" d="m47.51,37.35c-.14-.16-.12-.37-.17-.55-.16-.62-.38-1.18-.86-1.66-.51-.5-.73-1.17-.84-1.87-.07-.43-.15-.86-.24-1.28-.02-.09-.01-.24-.13-.23-.1,0-.14.12-.16.23-.12.2-.22.41-.16.64.04.15.02.28-.05.39-.1.16-.11.3-.02.46.05.09.1.22.02.3-.15.14-.16.13-.09.28.05.1.11.19.17.28.05.17.09.35.14.52.03.19-.21.15-.24.28-.17.02-.22-.12-.3-.22,0-.08,0-.16.01-.25.09.07.05.25.18.22.12-.03.05-.17.06-.26.01-.12-.07-.2-.15-.28-.12-.1-.27-.19-.35-.32-.18-.27-.35-.24-.55-.05-.02-.02-.04-.04-.06-.06.06-.05.11-.11.17-.16.15-.13.28-.13.39.05.1.16.24.29.39.37.04-.4,0-.8.14-1.2.09-.25,0-.55.13-.81.09-.2.13-.53.36-.53.25,0,.21.33.26.53.09.37.16.75.22,1.13.12.77.45,1.43,1.01,1.98.43.43.54,1,.69,1.56.05.17.08.35.05.53Z"/>
  <path class="cls-20" d="m45.01,26.58c.01.17-.22.47-.39.53-.74.28-1.56.58-2.3.86-.1.04-.42-.01-.5-.13-.09-.13.12-.48.19-.59.06-.09.28-.2.37-.24.72-.28,1.43-.38,2.15-.67.22-.09.49.01.48.24Z"/>
  <path class="cls-15" d="m47.6,41.62c.26-.16.23-.38.15-.62-.15-.45-.22-.91-.22-1.38.03,0,.06,0,.09,0,0,.46.1.9.23,1.34.14.49-.08,1.34-.5,1.62-.08.05-.27.11-.38.09-.94-.14-1.93-.33-2.81-.7-.28-.12-.56-.3-.7-.62.03,0,.12,0,.16,0,.31.38.75.53,1.19.66.6.18,1.22.31,1.84.42.43.08.95-.28,1.05-.74,0,0-.05-.02-.07-.03,0-.01-.02-.03-.03-.04Z"/>
  <path class="cls-10" d="m52.13,49.13c0-1.38,0-2.77,0-4.15,0-2.44.02-4.88.03-7.32,0-.12,0-.24,0-.36.08.09.05.21.05.31,0,3.73,0,7.47,0,11.2,0,.11.06.25-.09.32Z"/>
  <path class="cls-10" d="m52.19,28.92c0-1.38,0-2.77,0-4.15,0-2.42.02-4.84.03-7.26,0-.12,0-.24,0-.36.08.09.05.21.05.31,0,3.71,0,7.43,0,11.14,0,.11.06.25-.09.32Z"/>
  <path class="cls-15" d="m43.37,23.47c-.16.24-.4.53-.68.65-.21.09-.65.13-.73-.08-.06-.15.03-.15-.16-.12-.12.02-.4-.16-.42-.26-.02-.16.11-.28-.05-.28-.36,0-.42-.27-.38-.68.26.21.33-.22.46-.45.17-.3.53-.14.81-.2.02.02.08.17.1.19-.07.08-.01.37-.2.34-.05-.19-.07.04-.17.1-.19.11-.37.09-.49.28-.12-.02-.13-.03-.26,0,.12.14.13.18.34.1.06-.03.24-.04.3.1-.05.14-.04.2.08.28.11.06.15,0,.22-.09.02,0,.08-.02.1-.04.08.04.1.17.11.24.05.33.07.37.36.19.17-.11.27-.3.41-.43.02.02.23.15.25.17Z"/>
  <path class="cls-15" d="m42.92,36.12c-.05.16-.03.36-.26.39.19-.2.11-.42.05-.64-.15-.58.06-1.09.34-1.57.12-.21.36-.22.56-.3.02.02.03.03.05.05-.05.13.03.14.12.16.06.21-.1.12-.15.09-.28-.18-.43-.02-.56.19-.32.5-.39,1.04-.18,1.6,0,.01.02.02.03.04Z"/>
  <path class="cls-10" d="m52.1,61.75c0-1.41.01-2.83.02-4.24.07.08.05.17.05.26,0,1.23,0,2.47,0,3.7,0,.1.02.2-.07.28Z"/>
  <path class="cls-15" d="m42.27,22.19s-.01-.12.01-.16c.08-.14.2-.43.39-.43.21,0,.21.1.3.25.06-.09.14-.12.2-.21.02.02.04.23.06.25,0,.03-.01.07-.02.1-.04.03-.06.07-.06.12h0s-.05.03-.05.07h0c-.06.02-.06.07-.07.12-.07.1-.14.21-.21.31-.04-.09.02-.17.03-.25.01-.15.07-.31-.11-.41-.28-.09-.26.21-.4.31-.02-.02-.04-.04-.05-.06Z"/>
  <path class="cls-12" d="m41.78,55.16c-.02-.06-.03-.14-.12-.11-.14-.2-.01-.45-.13-.66.11-.05.05-.16.09-.24.04.34.16.67.16,1.01Z"/>
  <path class="cls-15" d="m47.61,39.62s-.06,0-.09,0c-.02-.26-.03-.52,0-.77.03,0,.06,0,.09,0,0,.25,0,.51,0,.76Z"/>
  <path class="cls-15" d="m47.62,38.86s-.06,0-.09,0c.03-.28.09-.56-.02-.84-.03-.07-.04-.18.05-.24.15.36.03.73.06,1.1Z"/>
  <path class="cls-6" d="m41.86,52.06s.06,0,.09,0c-.04.11-.09.23-.13.34-.03,0-.06,0-.09,0,.01-.13.05-.24.13-.35Z"/>
  <path class="cls-15" d="m56.75,15.82c.07.27.08.54-.02.84-.03-.28-.04-.56.02-.84Z"/>
  <path class="cls-15" d="m43.45,23.22c-.06.1-.08.21-.14.31-.02-.02-.11-.1-.13-.12.06-.1.12-.2.18-.3.02.02.07.09.09.11Z"/>
  <path class="cls-15" d="m43.61,34s.06-.06.09-.09c.02.02.04.04.06.06-.03.03-.07.05-.1.08-.02-.02-.03-.03-.05-.05Z"/>
  <path class="cls-15" d="m18.16,62.68c-1.23.06-2.25-.27-3.11-1.03-.56-.49-.93-1.11-.95-1.88-.01-.52.2-.99.55-1.38.51-.57,1.15-.86,1.89-1.02.86-.18,1.67-.06,2.46.23.77.28,1.42.74,1.83,1.48.46.84.35,2.1-.5,2.78-.66.53-1.41.81-2.18.82Zm-.81-4.25c-.29,0-.41-.06-.69,0-.68.14-.78.03-1.18.6-.4.58.08.52.45,1.16.43.76-.03,1.33.78,1.58.98.3,1.8.34,2.74-.11,1.39-.67,1.05-1.35,0-2.34-.74-.69-1.12-.81-2.09-.89Z"/>
  <path class="cls-15" d="m16.98,50.66c.05-.3.15-.48.23-.45.08.02.04.1.04.15,0,.78-.02,1.57,0,2.35.02,1.25.21,2.47.23,2.88,0,.07,0,.15-.09.16-.07,0-.12-.04-.14-.12-.5-1.72-.4-4.22-.28-4.97Z"/>
  <path class="cls-18" d="m43.07,34.48c.14-.21.28-.38.56-.19.05.03.2.12.15-.09-.07-.12.05-.24.16-.25.11-.01.2.09.22.19.01.09.03.1.11.1.17,0,.27.14.27.29,0,.13-.15.29.03.37.08.1.14.24.3.22.18-.03.39-.15.48.14,0,.04-.01.07-.02.11-.07.15-.11.23-.05.37.04.14-.04.32.13.43.09.06.26-.04.28-.08.17-.31.23.27.35.26,0,.15.02.38.03.53-.03,0-.07-.07-.1-.07-.03-.04-.06-.11-.1-.08-.06.06,0,.12.03.18.06.08.12.17.17.25.11.24.04.22.23.3,0,0,.02-.06.03-.06,0,0,0,0,0,0,0-.12.06-.03.15-.11.14.28.14.62.03.86-.13.29.02.43.18.49.24.09.22.24.21.42q-.03.51.16.98c.07-.11-.04-.25.06-.39v1.36c-.12-.01-.17-.1-.2-.19-.06-.17-.16-.29-.31-.39-.28-.2-.21-.52-.24-.79-.03-.39-.07-.79-.17-1.17v1.24c-.31-.36-.42-.69-.43-1.07-.02-.49-.06-.98-.14-1.46-.02-.22-.04-.36-.06-.33-.04,0-.03.08-.04.44-.02.53.08.86.05,1.36-.25-.4-.46-.73-.44-1.18.03-.63.04-1.26-.08-1.94-.11.65-.07,1.25-.09,1.9-.55-.62-.22-1.4-.44-2.11-.08.35.01.64-.1.94-.15-.15-.19-.31-.18-.5,0-.29.03-.58-.05-.86-.04-.14-.08-.29-.24-.35,0,0-.01,0-.02-.01,0,0,.01,0,.02,0,.04.32.16.63.09,1.01-.24-.31-.35-.7-.75-.82.17.25.33.5.41.81-.19.04-.32-.16-.51-.08.19.45.87.49.92,1.08-.24-.02-.49-.08-.76.03.14.13.29.21.43.22.6.04.68.51.85.96-.33-.02-.62-.17-.92-.03-.05,0-.1,0-.15,0-.25.07-.22-.06-.16-.22.14-.38.13-.38-.24-.52-.18-.07-.3-.17-.13-.37.06-.08.09-.19.13-.29.09-.22,0-.36-.21-.45-.01-.01-.05-.13-.04-.15.24-.43.07-.71.15-1.23Z"/>
  <path class="cls-18" d="m44.98,34.32c-.06-.09-.12-.18-.17-.28-.07-.15-.06-.14.09-.28.08-.08.04-.21-.02-.3-.1-.16-.09-.3.02-.46.07-.11.09-.24.05-.39-.06-.22.04-.44.16-.64q.15.08-.05.42c.15,0,.34-.02.34.17,0,.26.25.6-.22.76.45.01.37.37.45.6.03.09-.03.12-.11.14-.12.04-.22.09-.23.24,0,0-.02.02-.03.03l.03-.02c.14.02.32-.14.42,0,.15.21.24.45.35.69.03.07-.05.09-.11.12-.12.06-.25.13-.3.29.12.03.21-.04.31-.06.14-.03.28-.14.41.02.1.12.25.22.31.36.08.2-.21.15-.25.3,0,.03-.03.06-.05.11.54-.06.54-.06.71.48.03.11.1.22.05.34q-.27-.07-.53,0c.84.32.81.99.78,1.67-.11-.03-.14-.16-.27-.15,0,.13.06.25.13.35.2.28.13.59.14.89,0,.08-.05.07-.1.05-.04-.19.04-.4-.05-.6-.16.09,0,.34-.28.44.02-.25.02-.5.04-.73,0-.13.03-.26-.14-.29-.21-.04-.25-.17-.24-.32,0-.27.07-.58.03-.84-.02-.13-.01-.24-.18-.26-.29-.03-.36-.24-.37-.48,0-.24,0-.51,0-.73.08-.04,0-.06-.06-.17-.06-.09.06-.07-.05-.01-.07.03-.17-.02-.21.06-.32-.05-.39-.13-.3-.43.05-.18.04-.35.04-.52.07-.05.14-.11.04-.18-.2-.12-.41-.22-.57-.35Z"/>
  <path class="cls-15" d="m46.1,35.93c.08.23.03.47.04.71,0,.24.05.43.34.46.16.02.19.15.21.29.03.27-.01.54-.02.8,0,.15,0,.3.2.34.17.03.18.17.17.3-.01.23-.04.45-.06.7.17-.09.1-.29.26-.39.09.2.01.4.05.6,0,.07,0,.15-.01.22-.09.31-.07.61.02.91-.02.13.14.22.1.36h0s-.13-.14-.11.03c.01.12.04.24.07.37l-.02.02c-.17-.19-.15-.43-.19-.65,0-.45,0-.89,0-1.36-.1.14,0,.28-.06.39q-.2-.46-.16-.98c.01-.18.04-.33-.21-.42-.16-.06-.31-.2-.18-.49.11-.24.11-.58-.03-.86-.14-.04-.28-.08-.42-.12-.06-.08-.12-.17-.17-.25.02-.02.04-.03.07-.05.03.01.05.02.08.03,0-.03,0-.05,0-.08,0-.15,0-.31,0-.46.02-.31-.14-.46-.55-.44-.18,0-.06.17-.08.26-.17-.11-.09-.28-.13-.43.08-.11.06-.24.05-.37,0-.04.01-.07.02-.11.1-.15.03-.32.06-.48.07-.03.06.05.1.06,0,.18.02.34-.04.52-.09.3-.02.38.3.43.11.04.21.09.32.13Z"/>
  <path class="cls-18" d="m42.54,38.07s.02-.1.04-.14c.03-.07.02-.21.15-.18.1.02.11.13.12.22,0,.08,0,.16.05.23.03.04.08.12.12.01.04-.09.1-.16.2-.08.1.07.11.16.04.25-.02.02-.04.04-.06.06,0,0,0,0,0,0-.2.25-.16.56-.18.85-.01.12,0,.24,0,.4-.26-.13-.46-.27-.47-.56-.01-.35,0-.7,0-1.04Z"/>
  <path class="cls-18" d="m47.29,40.89c-.09-.3-.11-.61-.02-.91.23.3.09.61.02.91Z"/>
  <path class="cls-15" d="m41.76,38.13s.04.08.06.12c-.04-.03-.1-.05-.06-.12Z"/>
  <path class="cls-15" d="m47.34,41.64s.04.05.03.09c0,0-.01.01-.02.02-.01-.03-.02-.06-.03-.09l.02-.02Z"/>
  <path class="cls-15" d="m41.64,38.02s.04-.05.06,0c0,.02,0,.05,0,.07-.05,0-.06-.02-.06-.06Z"/>
  <path class="cls-15" d="m47.38,41.25s.03,0,.04,0c0,.01,0,.02,0,.04,0-.01-.02-.03-.03-.04,0,0,0,0,0,0Z"/>
  <path class="cls-15" d="m41.7,38.08c.07-.03.06.03.07.06-.06.02-.06-.02-.07-.06Z"/>
  <path class="cls-15" d="m47.49,41.76s.03-.05.05-.07c.01.01.02.03.04.04-.02.02-.04.04-.06.06,0,0-.02-.02-.03-.03Z"/>
  <path class="cls-15" d="m47.51,41.78s-.03.04-.05.06c-.04-.04-.01-.06.02-.09,0,0,.02.02.03.03Z"/>
  <path class="cls-18" d="m45.44,41.82s0,.04,0,.06c-.01,0-.03-.01-.04-.02.01-.01.03-.03.04-.04Z"/>
  <path class="cls-15" d="m47.63,41.66s-.04.04-.06.06c-.01-.01-.02-.02-.04-.04.02-.02.04-.04.06-.06.01.01.02.03.03.04Z"/>
  <path class="cls-2" d="m43.2,38.43s.04-.04.06-.06c0,.02.07.04.07.05-.02,0-.11,0-.13,0Z"/>
  <path class="cls-15" d="m42.95,35.82s0,.03.02.04c-.02.09.03.18-.04.26-.01-.01-.02-.02-.03-.04.02-.09-.03-.19.06-.26Z"/>
  <path class="cls-13" d="m61.73,51.35c0,.2,0,.4,0,.6-.22,0-.44,0-.65,0-.13,0-.28.08-.32-.1-.03-.16.05-.31.22-.38.24-.09.49-.14.76-.12Z"/>
  <path class="cls-13" d="m63.7,55.83c-.02.17-.14.25-.29.28-.12.02-.18-.07-.18-.18,0-.16.08-.26.24-.28.12-.01.21.03.23.18Z"/>
  <path class="cls-12" d="m55.96,51.52c-.1.02-.25.07-.34.08-.11,0-.25,0-.25-.19.22.12.52-.09.77-.01-.07.04-.14.1-.18.13Z"/>
  <path class="cls-8" d="m28.45,17.53c-.3.13-.39.14-.67.28.13-.29.26-.58.42-.94.1.27.17.47.24.66Z"/>
  <path class="cls-8" d="m27.78,17.8s-.04.04-.06.07c.02-.02.04-.04.06-.07Z"/>
  <path class="cls-18" d="m60.06,35.68c.42.71.39.93-.23,1.47-.19.17-.39.33-.66.39-.84.01-1.14-.49-.97-1.09.06-.14.2-.24.21-.48-.37.45-.72.85-1.33.78-.02-.03-.05-.03-.07,0-.03,0-.07-.01-.1-.02,0-.05-.04-.19-.04-.24.61.12.97-.2,1.29-.65.06-.09.14,0,.03-.08-.12-.08-.05.03-.11.11-.29.38-.58.63-1.11.57-.22-.03-.11.04-.1.11-.07.02-.14,0-.2-.04-.5-.27-.82-1.2-.6-1.75.13-.12.04-.26,0-.37-.07-.21-.09-.42-.07-.63.1-.02.07-.12.09-.2.09-.4.28-.83.53-1.15.48-.62,1.25-1,1.84-.62-.33.45-.42.95-.35,1.49,0,.06.01.14.08.13.04,0,.02-.08.01-.13.03-.29.05-.57.15-.85.03-.09.07-.19.11-.27.16-.29.53-.48.79-.41.23.06.43.39.46.7.11,1.12-.61,1.99-1.72,2.17.31.19.58.02.86-.05.14.11.34.12.49.21.23.13.24.57.55.59.04.07.08.15.12.22.02.03.03.05.05.08Zm-1.09-1.89c.08.05-.05.08,0,.06.44-.4.77-1.2.35-1.66-.16-.18-.22-.3-.37-.06.41-.03.52.21.5.64-.03.49-.07.72-.48,1.02Zm-2.37.53c-.14.04-.18.11-.19.21-.02.42.07.81.31,1.15.14.2.31.36.57.39.05,0,.1,0,.13-.05.03-.06-.03-.08-.07-.1-.1-.04-.18-.11-.26-.19-.38-.38-.51-.86-.5-1.4Zm1.93,2.27c.02.26.05.5.35.58.27.08.47,0,.64-.21-.4.06-.78.1-.99-.37Zm1.47-.12c-.14.29-.06.08-.26.36.14-.09.13.07.26-.36Z"/>
  <path class="cls-19" d="m60.11,35.15c-.26-.34-.45-.73-.94-.83.26-.3.51-.56.61-.92.05-.2.22-.2.38-.14.47.18.9.41,1.2.83.06.08.13.15.26.29,0-.87.03-1.66.41-2.41.16.14.27.36.49.43-.02.09-.03.18-.05.26-.25,1.05-.21,2.08.22,3.09.26.6.55,1.19.61,1.86-.38.56-.87.98-1.52,1.2-.12.04-.23.04-.35.04-.15-.19-.33-.37-.35-.63-.02-.23-.05-.45-.06-.68-.03-.82-.31-1.55-.74-2.23-.04-.07-.07-.15-.17-.14Zm1.09,2.97c.1-.68.12-1.36-.17-1.99h-.08c.08.67.17,1.33.25,1.99Zm-.56-3.18c-.02.21.07.34.19.52.01-.23.04-.41-.19-.52Z"/>
  <g>
    <path class="cls-18" d="m59.94,30.49s-.11.16-.13.16c-.35.26-.08.42.03.95-.13-.43-.06-.77.1-1.11Z"/>
    <path class="cls-18" d="m62.22,28.64c-.09-.55-.77-1.11-1.44-.85-.71.38-1.12.4-1.46.78-.56.63-1.05,1.29-1.17,2.11-.02.11.08.46.06.57.12.09.27.12.38.22.22.2.49.07.53-.22.02-.13.03-.25.07-.38.1-.35.23-.69.53-.95.15-.13.33-.12.5-.09.1.02.16.11.13.23-.35-.15-.68.01-.83.39-.09.23-.17.47-.22.71-.02.1-.08.27.08.34.18.07.26.23.39.35.48.27.8.15,1.17-.1.16-.11.35-.42.57-.43.01-.02.03-.04.04-.06.02-.03.04-.05.06-.07.01-.01.02-.02.02-.03.02-.03.03-.05.05-.08.46-.75.69-1.55.54-2.44Zm-2.38,2.96c-.11-.53-.38-.69-.03-.95.02,0,.09-.11.13-.16-.16.34-.23.68-.1,1.11Zm1.07-.38c-.05.07-.09.11-.21.11.09-.04.16-.07.21-.11.03-.03.05-.07.09-.11.03-.04.06-.08.09-.11-.02.08-.07.15-.18.22Zm.19-.24c.04-.12.04-.26.12-.45-.05.24-.03.31-.12.45Z"/>
    <path class="cls-18" d="m59.84,31.6c-.11-.53-.38-.69-.03-.95.02,0,.09-.11.13-.16-.16.34-.23.68-.1,1.11Z"/>
  </g>
  <path class="cls-18" d="m64.18,29.89c.09.73-.06,1.4-.54,1.97-.38.44-.89.48-1.27.11-.19-.18-.23-.41-.32-.73-.14.33-.14.63-.31.86-.06.04-.06.2-.09.26-.13.29-.14.65-.17.97-.01.13-.26.18-.38.05-.34-.36-.68-.57-1.15-.56-.02-.12-.03-.2.14-.26,1.47-.48,2.13-1.59,2.37-3.04.02-.1.04-.19.06-.29.2-.17.21-.2.25-.23.44-.21.96-.12,1.14.28.03.03.06.11.1.13,0,0,0,0,0,0,0,.05.02.09.06.12,0,0,0,0,0,0,0,.05.02.09.06.12,0,.01.01.03.01.04-.01.07,0,.14.04.19Zm-.23.88c.09-.37.12-.46-.06-.94-.02-.05.08-.13,0-.11-.06.02-.03.05,0,.11.17.44.05.49.06.94Zm-1.48.84c.04.27.24.2.49.26.27.07.11.06.36-.11-.43.13-.54.22-.86-.16Z"/>
  <path class="cls-19" d="m63.3,37.6c-.06-.67-.35-1.26-.61-1.86-.43-1-.47-2.03-.22-3.09.02-.09.03-.17.05-.26.13.03.22.08.16.24-.38,1-.14,1.94.33,2.84.22.43.48.84.51,1.35.02.29-.04.55-.22.77Z"/>
  <path class="cls-18" d="m63.1,32.49c.21-.09.42-.18.58-.35.17-.2.25-.04.27.1.1.78-.07,1.48-.61,2.07-.1.11-.23.19-.4.17-.2-.18-.27-1.41.16-1.98Zm.36,1.12c.2-.33.21-.4.22-.88,0-.08.1-.08-.01-.08-.1,0-.04.05-.04.12-.04.43,0,.42-.16.84Z"/>
  <path class="cls-2" d="m60.78,27.79c-.52.3-1.03.59-1.47,1.01-.61.59-.93,1.3-1.05,2.12-.02.11-.04.22-.06.32-.18.03-.19-.08-.19-.22-.01-.67.22-1.27.6-1.8.48-.66,1.05-1.22,1.89-1.42.09-.02.17-.05.26-.03Z"/>
  <path class="cls-19" d="m60.11,35.15c.1,0,.13.07.17.14.43.68.71,1.41.74,2.23,0,.23.04.45.06.68.02.26.19.44.35.63-.43-.01-.56-.14-.58-.56-.03-1.09-.19-2.16-.74-3.13Z"/>
  <path class="cls-2" d="m58.46,31.8c-.77-.23-1.32.09-1.8.71-.25.32-.45.68-.54,1.08-.02.08-.02.16-.12.18.08-.94.54-1.65,1.34-2.13.3-.19.63-.27.96-.08.08.05.25.07.15.24Z"/>
  <path class="cls-2" d="m59.95,32.81c.47,0,.9.08,1.24.44.12.12.17.04.18-.08.03-.32.11-.62.24-.92.03-.07.06-.12.12-.16-.16.54-.25,1.09-.29,1.71-.45-.41-.86-.77-1.43-.85-.07-.01-.09-.07-.08-.14Z"/>
  <path class="cls-2" d="m56.89,36.57c0,.05,0,.11.01.16-.32.05-.54-.13-.72-.34-.4-.46-.52-1-.38-1.6.02-.08.05-.17.14-.17.08,0,.09.09.12.16-.22.54.09,1.47.6,1.75.06.03.13.06.2.04.01,0,.03,0,.04.01Z"/>
  <path class="cls-2" d="m59.77,31.85c.48.27.85.01,1.23-.25.16-.11.3-.27.51-.28-.32.47-.78.75-1.3.93-.37.12-.36-.19-.44-.4Z"/>
  <path class="cls-2" d="m58.2,36.45c0,.65.39.96.97,1.09-.58.2-1.08-.1-1.19-.7-.04-.2.11-.28.22-.39Z"/>
  <path class="cls-2" d="m64.18,29.93s-.05-.22-.31-.59c-.36-.4-.74-.51-1.36-.12.12-.3.4-.48.71-.47.36.01.91.29.96,1.17Z"/>
  <path class="cls-2" d="m63.1,32.49c-.23.65-.31,1.31-.16,1.98-.23-.09-.17-.31-.2-.48-.09-.41-.06-.81.07-1.2.05-.15.12-.28.29-.3Z"/>
  <path class="cls-2" d="m59.89,35.38c-.31-.01-.4-.34-.62-.47-.15-.09-.28-.22-.42-.33.29-.09.5.09.69.26.16.14.3.32.36.54Z"/>
  <path class="cls-15" d="m58.2,33.29s.03.13-.01.13c-.07,0-.08-.07-.08-.13.03,0,.06,0,.09,0Z"/>
  <path class="cls-2" d="m61.55,31.26s.04-.04.05-.06c-.02.02-.04.04-.05.06Z"/>
  <path class="cls-2" d="m61.63,31.16s.03-.05.05-.08c-.02.03-.03.05-.05.08Z"/>
  <path class="cls-2" d="m57.01,36.75s.05-.03.07,0c-.02,0-.05,0-.07,0Z"/>
  <path class="cls-2" d="m60.06,35.68s-.03-.05-.05-.08c.02.03.03.05.05.08Z"/>
  <g>
    <path class="cls-9" d="m58.09,14.11c-.07-.06-.13,0-.18.05-.22.19-.38.43-.48.71-.19.54-.24,1.09-.05,1.64.1-.78.17-1.56.68-2.22.04-.05.1-.12.03-.18Z"/>
    <path class="cls-9" d="m62.96,12.22c-.24-.58-1-.74-1.45-.29-.4.4-.73.69-1.23.97-.37.21-.76.45-1.19.41-.56-.05-.96.12-1.34.55-.04.04-.21.21-.26.24-.7,1.13-.84,2.32-.37,3.57.23.59.48,1.17,1.08,1.48.06-.09.24.03.33.04.39.05.67-.18.91-.44.39-.43.77-.63,1.37-.59.42.03.67-.28.89-.57.34-.46.62-1.08.78-1.63.28-.98.57-1.88.53-2.92,0-.19.01-.64-.05-.82Zm-4.9,2.07c-.51.66-.58,1.44-.68,2.22-.19-.55-.14-1.1.05-1.64.1-.28.26-.52.48-.71.05-.05.11-.11.18-.05.07.06,0,.13-.03.18Z"/>
    <path class="cls-9" d="m58.06,14.29c-.51.66-.58,1.44-.68,2.22-.19-.55-.14-1.1.05-1.64.1-.28.26-.52.48-.71.05-.05.11-.11.18-.05.07.06,0,.13-.03.18Z"/>
  </g>
  <path class="cls-1" d="m58.2,19.15c.06-.09.15-.1.24-.09.39.05.67-.15.92-.41.39-.43.85-.66,1.45-.62.42.03.65-.3.87-.6.34-.46.55-.99.7-1.54.28-.98.53-1.97.5-3.01,0-.19-.04-.38-.11-.55-.23-.58-.75-.7-1.19-.25-.4.4-.82.78-1.31,1.07-.37.21-.75.38-1.18.35-.56-.05-1.04.1-1.42.53-.04.04-.1.05-.16.08.25-.53.65-.94,1.09-1.32.04-.03.09-.07.13-.07.4.1.76-.04,1.13-.15-.17.21-.42.23-.67.3.41.19,1.1-.09,1.45-.6-.18-.04-.27.16-.43.17-.06-.25.02-.39.24-.55.53-.38,1.12-.4,1.71-.33.44.05.73.35.88.76.22.6.19,1.22.08,1.83-.21,1.22-.6,2.37-1.29,3.4-.4.6-.88,1.11-1.65,1.22-.04,0-.08,0-.12,0,.04-.14.17-.16.27-.23.05-.03.13-.05.09-.13-.04-.09-.12-.05-.18-.02-.15.08-.27.2-.38.33-.19.23-.43.39-.7.5-.31.13-.64.15-.94-.06Zm2.64-7.08s-.06.01-.09.02c-.03.02-.05.05-.08.07,0,.02-.03.06-.03.06.03.03.06,0,.08-.02.02-.02.04-.04.06-.06.02-.02.03-.05.05-.07,0,0,.02,0,.02-.01,0,0,0-.01,0-.02,0,.01-.01.02-.02.03Z"/>
  <path class="cls-18" d="m58.57,11.65c0-.45.14-.53.67-.37.04.02.1.05.13.07,0,0,.15.17.15.17.03.17.09.13.1.31,0,.09.05.16-.12.19,0,0,0,0,0,0-.02-.07-.46-.39-.46-.37-.14-.02-.03.04.04.13.14.17.18.42.43.54.06.03.15.06.01.12-.17.01-.42.05-.58-.02-.33-.14-.36-.47-.38-.77Z"/>
  <path class="cls-13" d="m60.49,10.82c-.28.49-.42,1.02-.45,1.61-.14-.07-.12-.19-.1-.27.11-.4.16-.82.3-1.21.04-.11.1-.15.2-.17.01.02.03.03.04.04Z"/>
  <path class="cls-2" d="m58.57,11.65c.09.28.14.59.47.73.16.07.33.05.49.07-.72.27-1.02.02-.96-.79Z"/>
  <path class="cls-10" d="m69.21,52.57V3.16c0-.12-.01-.26,0-.38.02-.23-.05-.26-.25-.16-.78.39-1.57.77-2.36,1.16-1.46.72-2.93,1.44-4.39,2.16-1.74.86-3.47,1.72-5.2,2.57-1.28.63-2.56,1.26-3.83,1.89-3.05,1.51-6.11,3.03-9.16,4.55-.14.07-.3.14-.4.29v.06s-.04.04-.06.06c-.02.02-.04.03-.06.05-.02.02-.04.04-.06.07-.14.31-.31.61-.42.94-.22.72-.1,1.41.1,2.1.15.54.38,1.04.67,1.52.09.15.08.22-.09.28-1.3.38-2.48,1-3.53,1.87-.04.23.11.41.15.62.26,1.22.39,2.45.35,3.7-.01.16.03.28.13.4.46.59.82,1.25,1.08,1.94.03.08.04.16.12.19-.05-.28.1-.41.35-.5,1.9-.7,3.8-1.41,5.7-2.12.11-.04.25-.14.34.02.09.14.02.28-.07.41-.04.07-.12.09-.2.12-1.99.73-3.99,1.46-5.99,2.19-.03.01-.08.01-.12.01.04.24.16.44.23.66,1.28-.46,2.57-.91,3.85-1.36.66-.24,1.31-.48,1.97-.71.1-.04.22-.13.32.01.1.14.04.28-.05.41-.06.08-.14.11-.22.14-1.88.66-3.76,1.32-5.63,1.98-.03.01-.06.02-.09.02-.03.12.02.22.04.32.08.42.19,1.1.22,1.81.07.56.03,1.13-.04,1.69-.1.89-.25,1.76-.56,2.61-.08.22.03.38.28.37.11,0,.21-.01.33-.02-.05-.2-.15-.4,0-.6.18-.19.1-.41.05-.63-.14-.58.06-1.08.34-1.57.12-.21.36-.22.56-.3.03-.03.06-.06.09-.09.06-.05.12-.11.18-.16.14-.13.27-.14.39.04.1.16.24.29.39.37.04-.4,0-.8.14-1.2.08-.25,0-.55.13-.81.09-.2.12-.53.35-.53.25,0,.22.34.26.54.09.37.16.75.22,1.13.12.77.45,1.43,1.01,1.97.43.43.54,1.01.69,1.56.04.17.07.35.04.53.16.12.04.28.06.42.15.35.04.73.06,1.09,0,.25-.01.51-.01.76,0,.46.11.9.23,1.34.14.48-.17,1.28-.58,1.56-.09.06-.18.11-.28.09-.94-.14-1.88-.31-2.76-.68-.28-.12-.57-.25-.7-.56-.13-.25-.12-.52-.2-.79-.11.02-.1-.09-.14-.15-.23-.26-.48-.5-.74-.73-.37-.34-.69-.72-.85-1.21-.05-.13-.09-.26-.15-.43-.31.53-.62,1-1.01,1.43.13,0,.25.02.36,0,.81-.16,1.46.22,1.66,1,.06.22.09.45.09.67,0,.19.04.3.21.41.8.53,1.24,1.27,1.24,2.24.14-.03.28-.06.43-.09.13-.03.28-.07.33.13.03.16,0,.32-.19.38-.17.04-.34.08-.51.12-.01.24-.11.47-.07.71.51-.01.98-.16,1.46-.25.85-.16,1.7-.35,2.54-.53.15-.02.31-.09.36.13.04.2,0,.38-.25.43-.52.11-1.05.22-1.57.32-.87.17-1.74.34-2.6.51-.08.25-.16.51-.23.77.69-.06,1.36-.25,2.05-.37.74-.13,1.48-.29,2.22-.43.16-.03.34-.09.38.14s-.05.38-.3.43c-1.06.19-2.13.4-3.19.6-.45.08-.9.2-1.35.23-.17.32-.33.66-.51.97-1.09,1.9-2.44,3.58-4.28,4.81.01,3.85.01,7.7.01,11.54q0,.44.44.44h25.61c-.19-1.26-.4-2.56-.59-3.81-.15.14-.43-.16-.62-.15-1.99.08-3.54.18-5.52.29-.52.03-1.02,0-1.53.04-.21.02-.38.19-.38-.05s.19-.04.43-.05l7.46-.27s.08-.27.09-.28c-.07-.46-.1-.63-.14-.99-1.43.07-3.26,0-4.68.07-.49.03-1.1,0-1.59.03-.68.04-.45.15-1.13.19-.21.01-.18.06-.18-.2-.01-.24-.43.06-.2.04,2.16-.12,4.28-.26,6.44-.38,0-.46-.02-1.15,0-1.61.02-.35.01-.65-.42-.71-.05-.01-.09-.05-.13-.07-.41-.22-.79-.46-1.19-.68-.36-.19-.63-.42-.85-.75-.24-.36-.33-.78-.61-1.1-.2-.22-.36-.47-.47-.75-.62-1.46-2.29-2.05-3.45-1.66-.17.06-.29.06-.39-.07-.11-.13-.17-.26-.1-.46.11-.29.29-.54.43-.81.07-.12.11-.22.08-.36-.04-.12-.01-.26-.02-.38-.02-.3.09-.52.37-.62.2-.07.51.13.61.42.27.79.89,1.19,1.58,1.54.37.18.72.14,1.1-.01.83-.34,1.61-.84,2.56-.7.03-.06.08-.04.12-.05-.03-.27.03-.44.37-.49.8-.12,1.59-.16,2.39.01.87.19,1.51.66,1.9,1.48.34.72.58,1.47.55,2.29-.01.21-.05.39-.19.55,0,.11.05.2.11.29.5.7,1,1.41,1.39,2.17.03.07.08.05.16.03s.03-.02.01-.08c-.09-.25-.06-.52-.1-.78-.12-.65-.18-1.31-.29-1.95-.21-1.18-.53-2.32-.8-3.48-.15-.61-.33-1.22-.64-1.78-.36.34-.82.36-1.26.28-.69-.14-1.3-.48-1.87-.89-.97-.71-1.31-1.66-1.17-2.82.04-.29.07-.59.16-.87.03-.18.06-.36.18-.51-.02-.08-.01-.15.06-.21,0-.06,0-.11.06-.15v-.12c-1.28.24-2.56.48-3.84.71-.94.18-1.88.35-2.81.54-.19.03-.36.05-.39-.19-.03-.22.07-.38.31-.43.6-.11,1.21-.23,1.82-.35,1.9-.37,3.8-.74,5.7-1.1.17-.03.37-.14.49.06.13.22,0,.4-.16.55.45.1.91.2,1.35.35,1.17.43,1.79,1.27,1.95,2.48.09.63.1,1.25-.06,1.87-.04.15-.06.32-.23.4,0,.29.19.51.3.75.32.72.59,1.46.8,2.21.32,1.14.59,2.3.75,3.48.05,0,.08.07.14.04.03-.2.04-.39.07-.59.07-.39.15-.78.22-1.17-.13-.14-.07-.31-.07-.46Zm-24.62-25.61c-.74.28-1.49.56-2.23.84-.1.04-.21.1-.3-.02-.09-.13-.03-.25.05-.36.06-.08.16-.12.25-.16.72-.27,1.45-.54,2.17-.83.21-.08.3-.03.29.19.01.17-.07.28-.23.34Zm4.58,27.53c-.32,1.23-.89,1.74-2.31,2.24-.61.21-1.3.39-1.93.48-1.41.2-2.82-.33-3.27-2.15-.13-.2-.01-.45-.12-.66-.03-.67-.08-1.34.2-1.98.02-.12.05-.24.12-.34.4-.96,1.35-1.6,2.38-1.63.7-.02,1.4-.04,2.04.33.13.08.28.15.4.25.4.32.82.61,1.28.83.96.46,1.49,1.63,1.22,2.64Zm.02-31.49c-.2,0-.38.08-.51.21-.46.45-1.05.57-1.65.68-.45.08-.91.13-1.37.2-.3.04-.56.21-.82.33-.17.09-.34.18-.51.24-.33.11-.56-.03-.67-.35-.1-.32-.07-.66-.03-.98.04-.26-.04-.24-.21-.16-.06.09-.12.19-.18.29-.16.24-.35.45-.63.57-.2.09-.34.06-.41-.15-.06-.15-.13-.25-.32-.21-.12.02-.19-.06-.21-.17-.02-.16-.09-.2-.25-.2-.35.01-.5-.18-.46-.6.25.21.42.09.56-.15.16-.3.47-.3.75-.36.02-.04.04-.09.07-.13.08-.14.14-.3.33-.31.21,0,.23.2.31.35.06-.1.12-.18.18-.26.09-.19.26-.17.41-.13.14.05.17.18.17.32v.48c.15-.1.14-.22.17-.31.07-.25.17-.48.31-.7.29-.43.43-.55.94-.35.58.23,1.13.49,1.77.49.15,0,.31.03.46.08.48.19.97.33,1.48.39.17.02.52.42.54.6.02.16-.05.27-.22.29Zm3,5.92c0,.15,0,.3,0,.45-.01,2.53-.01,5.07-.02,7.6,0,.11.01.22.01.33.09.09.06.21.06.31,0,3.74,0,7.47-.01,11.2,0,.11.06.25-.09.32,0,.18,0,.35,0,.53-.01,2.51-.01,5.01-.02,7.52,0,.11.01.22.02.33.06.07.05.17.05.25v3.71c0,.09.02.2-.07.28-.11.02-.2,0-.19-.15.01-.08,0-.16,0-.24.01-5.43.02-10.86.04-16.29.01-6.61.03-13.23.06-19.84.01-3.59.02-7.18.04-10.76v-.12c0-.09-.01-.21.11-.2.11.01.06.13.06.19.01.89,0,1.78,0,2.66,0,.05.01.1.01.15.09.1.06.21.06.32,0,3.71,0,7.42-.01,11.14,0,.1.06.24-.09.31Zm4.56-13.1c.15-1.24.73-2.25,1.65-3.08.14-.13.16-.21.08-.39-.19-.38-.1-.78,0-1.18.01-.05.04-.1.11-.12.64-.2,1.13.1,1.24.77,0,.01.02.03.06.08.07-.34.16-.65.2-.96.03-.24.07-.4.36-.31.06.02.14,0,.23,0-.11.37-.37.67-.41,1.04-.02.07-.03.19-.02.18.03-.05.04-.05.07-.08l.02-.03c.41-.31.88-.41,1.37-.47.66-.07,1.23.28,1.48.92.25.64.19,1.31.07,1.97-.17.96-.47,1.9-.92,2.78-.24.47-.52.91-.89,1.29-.41.43-.89.68-1.47.76-.14.02-.25.1-.35.17-.27.17-.57.3-.87.35-.36.07-.68-.12-.94-.36-.61-.56-.86-1.31-1.04-2.09-.03-.13-.03-.27-.05-.41-.03-.28-.04-.57.02-.84Zm-.85,6.42c.05-.14.15-.23.29-.28,1.01-.39,2.02-.78,3.03-1.16.22-.09.3,0,.31.21.01.2-.1.33-.27.39-1.02.39-2.04.78-3.06,1.17-.1.03-.2.04-.28-.04-.07-.09-.05-.19-.02-.29Zm.38,1.13c1.54-.58,3.09-1.15,4.64-1.73.95-.35,1.9-.7,2.85-1.05.13-.05.29-.16.4.02s.02.34-.1.49c-.07.07-.17.1-.26.13-2.52.92-5.04,1.85-7.56,2.77-.27.1-.37.04-.38-.21,0-.24.18-.34.41-.42Zm-.04,1.45c1.51-.53,3.01-1.08,4.52-1.62.99-.35,1.99-.71,2.98-1.07.15-.05.34-.18.44.05.1.23-.03.41-.22.53-.05.03-.11.04-.17.06-2.51.89-5.03,1.78-7.54,2.67-.19.07-.36.12-.38-.17,0-.25.15-.37.37-.45Zm7.52,16.87c-2.33.47-4.66.94-6.99,1.41-.22.04-.45.09-.67.13-.16.01-.25-.06-.27-.21-.02-.2.07-.36.27-.41.35-.08.7-.15,1.05-.22,2.17-.45,4.35-.9,6.52-1.34.19-.04.43-.17.51.15.07.24-.09.42-.42.49Zm-5.08-.72c-.17.07-.21.12-.4.16-.84.18-.79.22-1.64.4-.03,0-.04-.11-.04-.11-.14.01-.26.23-.31.13-.06-.1-.49-.11-.42-.21.09-.12.2-.18.35-.21.97-.21,1.94-.42,2.91-.63.18-.04-.21.05-.16.25.05.2-.09.16-.29.22Zm5.35-9.31c-.05.08-.01.13.01.2.26.93.06,1.76-.5,2.52-.11.15-.25.27-.42.33-.16.05-.17.13-.1.26.19.35.35.72.54,1.07.35.65.23,1.27-.18,1.84-.47.67-1.11,1.1-1.92,1.26-.39.07-.78-.3-.82-.7-.06-.57,0-1.15-.21-1.72-.25.35-.49.7-.88.91-.55.29-1.04.37-1.4-.03-.2-.22-.3-.48-.39-.75-1.07.46-1.89-.12-2.17-1.15-.09-.35-.05-.73.13-1.06.1-.18.1-.36.1-.55,0-1.33.64-2.33,1.87-2.85.12-.05.17-.12.15-.25-.13-1.39,1.46-3.17,2.63-3.42.55-.12,1.1-.2,1.57.24.25.22.37.51.41.83.01.15.06.19.18.08.47-.43,1.24-.21,1.53.4.21.42.23.85.22,1.3-.02.46-.12.86-.35,1.24Z"/>
  <path class="cls-10" d="m47.99,61.44v.07c.02.24-.36.09-.6.1-1.33.05-1.87.03-3.21.09-.58.02-1.01.16-1.59.19-.18.01-.15.13-.16-.09,0-.02,0-.03-.01-.04.88-.04,1.54-.12,2.44-.16h.11c.98-.06,1.93-.05,2.92-.11.07,0,.1-.03.1-.05Z"/>
  <path class="cls-10" d="m59.35,11.35s-.08-.05-.11-.07c0,0,.36.1.43.49s.07.45.08.47c0,0-.15.02-.25-.12s-.37-.46-.51-.47c0,0,.13-.18.51.33,0,0,.03.03.06.02.03-.01.05-.03.03-.14,0,0-.06-.33-.25-.51Z"/>
  <path class="cls-13" d="m60.45,10.78s.04,0,.06,0c0,.01-.02.03-.03.04-.01-.01-.03-.03-.04-.04Z"/>
  <path class="cls-16" d="m41.82,52.41c.04-.11.09-.23.13-.34.13-.19.18-.43.4-.56.06.17,0,.3-.06.42-.16.33-.09.46.07.81.15.32.2.28.5.1.08-.05.12.02.18-.04.11-.11.29-.12.44-.05.14.07.08.06.14-.07.06-.12-.13-.11-.27-.2-.18-.12-.13-.37-.08-.53.06-.23.2-.35-.02-.51-.2-.16-.26.03-.49.08-.16.04-.22.02-.41,0,.25-.43.67-.64,1.12-.78,1.22-.36,2.36-.24,3.38.6.32.27.69.46,1.06.67.83.47,1.22,1.2,1.15,2.15-.03.37-.29.6-.61.76-.53.26-1.11.4-1.69.49-.59.09-1.17.23-1.77.29-.59.06-1.2.13-1.74-.08-.68-.26-1.16-.79-1.38-1.51-.03-.11-.05-.23-.08-.35.02-.01.03-.02.05-.03.09.13.07.33.31.44-.2-.42-.27-.81-.27-1.21-.09-.1.25-.32-.1-.35.01-.07.03-.13.04-.2Zm2.11-.63c0,.09,0,.16.01.25.02.22.05.1.22-.04.23-.18.79-.12.97.03.36.29.45.39.87.53.33.11.47.07.64-.23.22-.38.28-.41-.03-.68-.69-.59-1.33-.76-2.24-.7-.16.01-.16.03-.27.15-.25.25-.16.42-.17.7Zm1.22,3.52c.42.03.69-.45,1.07-.56.29-.09.27.02.16-.23-.12-.26-.03-.32-.03-.6,0-.34-.01-.44-.33-.36-.19.04-.4.06-.57,0-.29-.11-.48-.4-.72-.59-.26-.21-.41-.2-.59-.01-.22.23-.06.25.09.45.32.43.51.92.4,1.47-.06.31.03.21.35.25.09.01.08.2.17.2Zm2.69-.55c.69-.02.91-.49.82-1.22-.1-.79-.51-.95-1.16-1.28-.22-.11-.15-.1-.18.1-.06.32-.16.6-.48.74-.23.1-.15.11.08.18.4.13.32.45.27.79-.07.44.22.71.66.69Zm-3.92-.22c0-.32.03-.39-.19-.59-.2-.19-.31-.15-.56-.29-.03-.02-.04-.02-.07-.01-.22.08-.26.11-.41.29-.12.13-.12.12-.07.32.11.46.03.62.44.86.52.3.82.45.98-.38.01-.06-.12-.15-.11-.2Z"/>
  <path class="cls-16" d="m41.69,55.22c0-.34-.07-.76-.1-1.1,0-.08.02-.13.02-.2.03,0,0-.29.02-.29.23,1.33.95,1.98,1.97,2.24.33.08.69.02,1.04.02,1.46-.02,2.16.04,3.19-.54.06-.03.2-.02.21-.1.25-.06.46-.19.69-.31.1-.04.11,0,.05.07-.19.25-.45.4-.75.5.2.09.34-.05.5-.1.06-.04.1-.07.04.04-.19.31-.45.55-.79.71-1.05.51-2.15.83-3.31.9-.08-.25-.36-.14-.57-.15-.19,0-.49,0-.63-.13-.33-.35-.71-.4-1.07-.66-.01-.02-.08-.04-.09-.06,0-.05.03-.06-.03-.07-.16-.22-.26-.51-.39-.75Z"/>
  <path class="cls-5" d="m48.04,55.24c-.01.08-.07.11-.13.15-1.02.59-2.11.72-3.26.5.64-.1,1.29-.17,1.93-.29.49-.09.99-.18,1.46-.35Z"/>
  <path class="cls-5" d="m42.23,56.08c.36.26.87.23,1.2.57.13.14.34.13.53.14.2,0,.42,0,.5.26-.18,0-.36,0-.53,0-.03,0-.05,0-.08,0-.69-.08-1.25-.36-1.62-.97Z"/>
  <path class="cls-16" d="m41.78,52.61c.35.03.13.33.23.43-.1.17-.06.48-.18.45-.03,0-.05,0-.08,0-.08-.3-.04-.59.04-.89Z"/>
  <path class="cls-16" d="m41.74,53.49s.05,0,.08,0c0,.08.01.16.02.23-.02.01-.03.02-.05.03-.02-.09-.03-.18-.05-.27Z"/>
  <path class="cls-5" d="m42.12,55.9c.05.02.06.06.07.11-.02-.04-.04-.07-.07-.11Z"/>
  <path class="cls-12" d="m43.85,57.05s.05,0,.08,0c-.03,0-.05,0-.08,0Z"/>
  <path class="cls-5" d="m47.22,23.48c-.09-.08-.05-.03-.07,0-.28-.04-.6.03-.89.04-.35.02-.77.03-1.11-.12-.02-.04.1-.21.03-.2-.07,0-.04.12-.07.16-.29-.06-.52.26-.75.39-.24.13-.57-.06-.6-.33-.02-.2.16-.49.16-.69.09-.14.02-.32.13-.45.22.11.17-.1.2-.18.1-.29.25-.51.59-.51-.15.45-.35.89-.29,1.39.12-.53.23-1.05.5-1.52.25-.08.47.06.68.13.17.06.33.16.52.16.15,0,.13.08.08.17-.02.02-.05.05-.07.07-.02.02.02.09,0,.11,0,0-.03.02-.03.02-.17,0-.35-.07-.51-.11-.09-.02-.14-.12-.17,0-.03.11.09.1.18.13.16.05.32.02.49.05,0,.26-.19.6-.04.93.04-.34.05-.62.15-.89.23,0,.52.05.67.19.32.3.52.61,1,.53.02.03.02.07.07.05.06,0,.12.02.18.03-.02.13-.04.24-.13.28-.25.11-.62.16-.88.16Z"/>
  <g>
    <path class="cls-18" d="m42.47,22.27c-.14.26-.29.53-.43.79.02.01.04.02.07.04.22-.23.36-.49.36-.83Z"/>
    <path class="cls-18" d="m43.72,22.88c-.27-.03-.41.07-.55.33-.07.14-.23.3-.34.42-.1.11-.27.19-.43.13-.14-.05-.13-.24-.14-.36,0-.03.06-.11-.03-.09-.03.01-.04.06-.06.09-.02.02-.12.05-.14.06-.18,0-.21-.12-.29-.28-.06-.14-.19-.07-.25-.05-.2.09-.31-.02-.44-.16.13-.02.22-.1.35-.08.15-.11.23-.2.31-.3.1-.12.28-.17.39-.11.19.03.15-.15.21-.24.14-.09.12-.39.4-.3,0,.13.05.27.04.39-.01.16-.19.3-.08.47.04.22-.02.1-.02.31.29-.12.52-.48.53-.82.01-.16.02-.17-.05-.18-.01-.05.02-.09.06-.12.3-.03.44.08.47.34.01.09-.13.28.05.32.16.05.03.15,0,.23Z"/>
  </g>
  <path class="cls-9" d="m43.92,22.73c0,.2-.01.4.01.6.03.27.17.33.41.2.24-.13.47-.26.76-.2-.01.09-.02.19-.03.28-.05.07-.07.14-.07.22-.01.14.08.32-.08.41-.26.15-.51.32-.83.28-.12-.01-.17-.08-.17-.2,0-.11,0-.22,0-.34-.11.04-.02.17-.16.21-.08-.51-.02-.99.15-1.46Z"/>
  <path class="cls-9" d="m45.24,23.31c.34.14.69.08,1.04.07.29-.01.57.01.85.06.02.18-.03.29-.24.33-.55.1-1.13.1-1.66.3-.1.04-.12-.03-.11-.11,0-.12.02-.24.03-.36.03-.1.06-.19.09-.29Z"/>
  <path class="cls-5" d="m46.42,21.93c.08-.16.2-.2.37-.17.28.06.56.08.81.25.1.07.23.11.36.09.19-.03.26.06.26.24,0,0,0,0,0,0-.14-.01-.13.28-.21.32-.31.01-.63-.04-.88-.27-.23-.21-.46-.36-.76-.36.01-.04.02-.07.04-.11Z"/>
  <path class="cls-9" d="m47.23,23.37c.26,0,.53-.01.78-.12.09-.04.2-.09.22-.22.09-.03.2-.02.28-.1.14-.17.12,0,.18,0-.28.42-.71.58-1.17.69-.26.06-.36,0-.29-.27Z"/>
  <path class="cls-5" d="m48.69,22.94s-.06,0-.09,0c-.03,0-.18,0-.21,0,.12-.37-.01-.15-.21-.41.01-.06.03-.12.04-.18,0,0,0,0,0,0,.04-.02.08-.05.12-.07.2.02.4.05.6.07,0,0,0,0,0,0,.02.02.04.04.07.06,0,0,0,0,0,0,.05.05.06.05.08.09,0,0,.01.02.01.02.02.23-.1.34-.33.32-.02-.02-.04-.03-.06-.05,0,.05-.02.11-.03.16Z"/>
  <path class="cls-2" d="m42.18,23.4s.04-.09.06-.09c.09-.02.06.05.06.09,0,.12-.02.25.12.31.15.06.27-.03.37-.14.12-.12.26-.23.34-.37.13-.26.33-.34.6-.32-.09.13-.34,0-.36.23-.06.1-.12.2-.18.3-.14.14-.25.3-.42.41-.29.18-.46.1-.51-.23,0-.07,0-.14-.07-.18Z"/>
  <path class="cls-15" d="m45.04,21.46c-.27.47-.39,1-.5,1.52-.06-.5.14-.94.29-1.39h0s.08-.09.12-.14h.09Z"/>
  <path class="cls-16" d="m44.83,21.58c-.34,0-.49.22-.59.51-.03.07.02.29-.2.18-.01-.13.05-.23.08-.35.09-.03.14-.09.1-.19.02-.03.04-.07.06-.1.08-.01.13-.05.11-.14,0,0,0,0,0,0,.14.04.34-.18.44.08h0Z"/>
  <path class="cls-15" d="m46.42,21.93s-.02.07-.04.11c-.02.06-.05.13-.07.19-.1.26-.11.54-.15.89-.15-.32-.01-.58-.02-.84.05-.07.1-.14.06-.23,0,0,0,0,0,0,.06.02.05-.03.06-.06.02-.02.05-.05.07-.07.03,0,.06,0,.09.01Z"/>
  <path class="cls-5" d="m44.83,21.58c-.11-.26-.3-.04-.44-.08.08-.16.2-.28.38-.27.1,0,.26.03.19.21-.04.04-.08.09-.12.13Z"/>
  <path class="cls-2" d="m43.62,22.52c.03-.23-.07-.66-.54-.48,0-.03.13-.13.14-.16.11-.11.27-.18.38-.05.12.16.14.5.03.69Z"/>
  <path class="cls-1" d="m48.78,22.83c.23.01.27-.16.33-.32.11.06.22.18.17.27-.07.13-.26.08-.39.15-.09.05-.13,0-.11-.09Z"/>
  <path class="cls-15" d="m45.24,23.31c-.03.1-.06.19-.09.29-.03,0-.06,0-.09,0,.01-.09.02-.19.03-.28.03-.04.02-.12.09-.12.06,0,.04.07.06.1Z"/>
  <path class="cls-5" d="m48.94,22.35c-.2-.02-.4-.05-.6-.07.21-.11.41-.08.6.07Z"/>
  <path class="cls-16" d="m44.22,21.74c.05.1,0,.16-.1.19.02-.07.02-.15.1-.19Z"/>
  <path class="cls-16" d="m44.39,21.5c.02.09-.03.13-.11.14,0-.07.05-.11.11-.14Z"/>
  <path class="cls-1" d="m49.01,22.41s-.04-.04-.07-.06c.02.02.04.04.07.06Z"/>
  <path class="cls-2" d="m44.57,34.91c-.18-.08-.1-.24-.1-.37,0-.15-.04-.25-.22-.24-.08,0-.13-.03-.15-.11-.02-.09-.06-.18-.17-.17-.11.01-.14.1-.15.19-.09-.01-.18-.03-.12-.16.03-.03.07-.05.1-.08.2-.19.37-.23.55.05.08.13.23.21.35.32.09.07.16.15.15.28,0,.09.06.23-.06.26-.13.04-.09-.14-.18-.22,0,.09,0,.17-.01.25Z"/>
  <path class="cls-2" d="m45.51,34.85s-.04-.09-.1-.06h0c.02-.05,0-.1-.05-.11-.08-.01-.13.02-.13.11h0c-.07-.03-.1,0-.12.06,0,0,0,0,0,0-.05-.17-.09-.35-.14-.52.27-.01.42.22.62.33.1.06-.01.15-.09.19Z"/>
  <path class="cls-2" d="m45.41,34.78c-.03.16.04.33-.06.48-.09-.29-.34-.05-.48-.14.04-.13.27-.09.24-.28,0,0,0,0,0,0,.07.05.1,0,.12-.06h0c.06,0,.12,0,.18,0h0Z"/>
  <path class="cls-2" d="m42.11,22.48c-.18-.01-.29.08-.4.21-.08.1-.15.21-.3.2.12-.18.24-.36.43-.48.11-.06.22-.13.27.07Z"/>
  <path class="cls-2" d="m41.75,23.19c.08.16.2.24.38.24-.07.1-.17.15-.28.09-.12-.07-.15-.2-.1-.33Z"/>
  <path class="cls-21" d="m42.95,35.82c-.08.07-.04.17-.06.26-.21-.56-.14-1.1.18-1.6,0,.45.12.91-.12,1.34Z"/>
  <path class="cls-19" d="m43.14,22.11c.07.01.18-.04.17.12-.01.35-.49,1-.84,1.11,0-.21.24-.32.2-.54.07-.05.14-.1.12-.2.07-.1.14-.21.21-.31.06-.02.09-.06.07-.12,0,0,0,0,0,0,.04,0,.05-.03.05-.07h0Z"/>
  <path class="cls-2" d="m42.8,22.6c.01.1-.05.15-.12.2-.11-.17.02-.32.04-.48.01-.13,0-.26,0-.39.18.1.15.2.11.41-.02.2-.06.16-.03.25Z"/>
  <path class="cls-18" d="m43.09,22.18c.01.06-.01.1-.07.12.01-.05.01-.1.07-.12Z"/>
  <path class="cls-18" d="m43.14,22.11s-.01.06-.05.07c0-.04,0-.07.05-.07Z"/>
  <path class="cls-20" d="m17.38,57.68c.97.08,1.88.3,2.62,1,1.05.99.92,2.54-.47,3.21-.94.46-1.91.49-2.89.18-.81-.25-1.47-.7-1.9-1.46-.36-.64-.29-1.25.12-1.82.4-.58.99-.86,1.67-1,.28-.06.56-.11.85-.11Z"/>
  <path class="cls-2" d="m45.42,36.17c.02-.09-.1-.25.08-.26.4-.02.57.13.55.44-.12.02-.2-.34-.37-.03-.02.04-.18-.08-.26-.15Z"/>
  <path class="cls-21" d="m46.08,37.16c.14.04.28.08.42.12-.09.08-.13.18-.12.3h0c-.19-.08-.31-.21-.29-.43Z"/>
  <path class="cls-2" d="m45.34,35.37c.01.13.03.25-.05.37-.06-.13-.11-.26.05-.37Z"/>
  <path class="cls-15" d="m45.91,36.91c-.03-.06-.1-.13-.03-.18.04-.03.07.05.1.08,0,.02,0,.03,0,.05-.02.02-.04.03-.07.05Z"/>
  <path class="cls-2" d="m45.97,36.86s0-.03,0-.05c.03,0,.06,0,.08,0,0,.03,0,.05,0,.08-.03-.01-.05-.02-.08-.03Z"/>
  <path class="cls-21" d="m46.37,37.59s.01,0,.02.01c0,0-.01,0-.02,0,0,0,0,0,0,0Z"/>
  <path class="cls-19" d="m43.98,34.54s-.01,0-.02,0c0,0,.01,0,.02.01,0,0,0,0,0,0Z"/>
  <path class="cls-2" d="m46.1,35.93c-.11-.04-.21-.09-.32-.13.04-.07.11-.11.18-.14.11-.05.19,0,.25.08.07.11-.03.15-.1.19Z"/>
  <path class="cls-19" d="m45.3,34.31l-.03.02s.02-.02.03-.03c0,0,0,0,0,0Z"/>
  <path class="cls-19" d="m58.73,33.96c.41-.3.58-.72.6-1.21.03-.43-.14-.61-.56-.58.14-.23.4-.28.57-.1.42.46.14,1.67-.44,1.91-.05.02-.09.03-.18-.02Z"/>
  <path class="cls-15" d="m56.6,34.33c-.01.55.11,1.02.5,1.4.08.08.15.15.26.19.04.02.1.04.07.1-.02.05-.07.05-.13.05-.26-.03-.43-.19-.57-.39-.24-.34-.34-.73-.31-1.15,0-.1.05-.17.19-.21Z"/>
  <path class="cls-19" d="m56.89,36.57s-.02,0-.04-.01c-.01-.07-.18-.2.05-.18.53.06.86-.23,1.15-.61.06-.08.11-.26.22-.18.11.08,0,.23-.06.31-.32.45-.72.78-1.33.66Z"/>
  <path class="cls-15" d="m58.53,36.6c.21.47.59.43.99.37-.17.21-.37.29-.64.21-.3-.09-.33-.32-.35-.58Z"/>
  <path class="cls-19" d="m60.1,36.23c.02.37-.16.64-.54.78.2-.29.4-.49.54-.78Z"/>
  <path class="cls-15" d="m61.2,38.13c-.08-.66-.17-1.32-.25-1.98h.08c.29.62.27,1.3.17,1.98Z"/>
  <path class="cls-15" d="m60.64,34.95c.24.11.21.29.19.52-.12-.17-.22-.31-.19-.52Z"/>
  <path class="cls-19" d="m61.53,30.83c.35-.83.5-1.63.23-2.48.51.22.39,1.97-.23,2.48Z"/>
  <path class="cls-15" d="m61.24,30.38c.08.35-.06.63-.27.88-.1.13-.24.22-.51.13.51-.21.62-.62.78-1.01Z"/>
  <path class="cls-19" d="m59.95,30.48c-.16.34-.24.68-.1,1.12-.32-.43-.27-.87.09-1.14l.02.02Z"/>
  <path class="cls-19" d="m59.93,30.47h.04s-.01,0-.02.02c0,0-.02-.02-.02-.02Z"/>
  <path class="cls-15" d="m63.88,31.1c0-.45.09-.9-.07-1.34-.02-.06-.02-.13.05-.15.07-.02.1.05.12.1.18.48.13.94-.1,1.39Z"/>
  <path class="cls-19" d="m62.35,31.44c.32.38.71.37,1.14.25-.17.26-.42.33-.69.26-.25-.06-.41-.24-.45-.51Z"/>
  <path class="cls-19" d="m63.27,33.98c.16-.41.24-.84.28-1.27,0-.08.02-.18.12-.18.11,0,.09.11.09.19,0,.48-.19.9-.5,1.26Z"/>
  <path class="cls-16" d="m57.38,16.51c-.19-.55-.14-1.1.05-1.64.1-.28.26-.51.48-.71.05-.04.11-.11.18-.05.07.06.01.13-.03.18-.51.65-.58,1.43-.68,2.21Z"/>
  <path class="cls-16" d="m61.51,12.78c.16-.26.31-.51.47-.79.11.34-.12.7-.47.79Z"/>
  <path class="cls-15" d="m60.79,12.14s-.04.04-.06.06c-.02-.01-.04-.03-.06-.04.03-.02.05-.05.08-.07.01.02.03.03.04.05Z"/>
  <path class="cls-15" d="m60.84,12.07s-.03.05-.05.07c-.01-.02-.03-.03-.04-.05.03,0,.06-.02.09-.02,0,0,0,0,0,0Z"/>
  <path class="cls-15" d="m60.84,12.07s.01-.02.02-.03c0,0,0,.01,0,.02,0,0-.01,0-.02.01,0,0,0,0,0,0Z"/>
  <path class="cls-15" d="m60.73,12.2s-.05.06-.08.02c0,0,.02-.04.03-.06.02.01.04.03.06.04Z"/>
  <path class="cls-10" d="m59.05,11.59s0,0,0,0c0,0,0,0,0,0Z"/>
  <path class="cls-1" d="m43.8,51.75c0-.28-.11-.57.14-.82.11-.11.22-.19.38-.2.9-.06,1.71.17,2.41.76.32.27.36.61.14.98-.17.3-.57.45-.9.34-.42-.14-.85-.28-1.2-.58-.18-.15-.39-.21-.62-.03-.18.14-.32.04-.34-.18,0-.09,0-.18,0-.27Z"/>
  <path class="cls-1" d="m45.16,55.41c-.09,0-.18,0-.27,0-.31-.04-.47-.23-.4-.54.11-.55-.05-1.02-.37-1.45-.15-.2-.28-.4-.05-.63.18-.19.43-.17.69.04.24.19.47.4.77.51.17.06.33.1.52.06.32-.07.46.05.47.39,0,.28.03.55.15.81.11.25,0,.49-.3.58-.39.11-.77.27-1.19.24Z"/>
  <path class="cls-1" d="m47.77,54.94c-.44.01-.78-.35-.72-.79.05-.34.05-.6-.35-.72-.22-.07-.22-.39,0-.49.32-.14.45-.4.52-.71.04-.19.13-.33.35-.23.65.33,1.19.76,1.29,1.55.09.73-.4,1.37-1.09,1.39Z"/>
  <path class="cls-1" d="m44.22,54.62s-.02.11-.03.17c-.15.83-.65.79-1.17.49-.41-.24-.65-.63-.76-1.09-.05-.2.08-.34.2-.47.16-.17.37-.26.59-.34.04-.01.09-.03.12-.01.25.14.53.25.74.44.22.2.32.5.32.82Z"/>
  <path class="cls-1" d="m42.36,51.51c.19.03.27-.16.43-.2.22-.05.45-.15.65.01.21.17.17.4.11.63-.04.16-.07.33.11.45.13.09.13.22.06.34-.06.13-.18.19-.32.12-.15-.07-.27-.02-.37.09-.06.06-.13.13-.2.17-.3.18-.51.1-.66-.22-.16-.35-.12-.67.04-1,.06-.12.2-.22.14-.39,0,0,0,0,0,0Z"/>
  <path class="cls-16" d="m41.84,53.73c0-.08-.01-.16-.02-.23-.03-.18-.05-.36.05-.53.16.31.42.2.29,1.28-.24-.12-.24-.38-.33-.51Z"/>
  <path class="cls-16" d="m46.31,22.24c.02-.06.05-.13.07-.19.3,0,.57.07.79.28.25.23.56.22.87.21.03.08-.07.16,0,.24h0c-.12.02-.03.12-.07.18-.47.08-.81-.16-1.12-.46-.15-.14-.32-.27-.54-.26Z"/>
  <path class="cls-16" d="m48.19,22.53c.42.01.45.04.33.41-.08.08-.19.07-.28.1-.06,0-.12-.02-.18-.03,0-.08,0-.16,0-.24,0,0,0,0,0,0,.11-.05.07-.18.14-.25Z"/>
  <path class="cls-16" d="m46.25,22.05c.04.09-.06.16-.11.23-.16-.03-.33-.05-.49-.1-.09-.03-.22-.08-.2-.19.03-.12.17-.06.26-.04.16.04.37.1.54.1Z"/>
  <path class="cls-15" d="m48.05,22.76c0,.08,0,.16,0,.24-.05.02-.06-.02-.07-.05.04-.06-.05-.16.07-.19Z"/>
  <path class="cls-19" d="m42.47,22.27c0,.34-.15.6-.36.83-.02.01-.04.03-.06,0,0,0-.01-.03,0-.04.14-.26.29-.53.43-.79Z"/>
  <path class="cls-15" d="m48.19,22.53c-.07.07-.03.2-.14.25-.07-.08.03-.16,0-.24.08-.04.04-.2.18-.18-.01.06-.03.12-.04.18Z"/>
  <path class="cls-15" d="m45.42,34.79c-.06,0-.12,0-.18,0,0-.09.06-.12.13-.11.06,0,.07.06.05.11Z"/>
  <path class="cls-15" d="m45.24,34.78c-.02.07-.05.11-.12.06.03-.05.06-.09.12-.06Z"/>
  <path class="cls-8" d="m5.54,49.05s-5.36,1.27-4.14-4.25c0,0,2.52-.31,3.65,1.04s.85,2.87.49,3.21Z"/>
  <path class="cls-18" d="m5.6,48.68s-4.81,1.43-4.19-3.88c0,0,2.43-.74,3.56.61s1,2.94.63,3.27Z"/>
  <g>
    <path class="cls-15" d="m2.03,45.36s2.97,2.19,4.38,5.45h.53s-1.81-3.8-4.91-5.45Z"/>
    <path class="cls-15" d="m4.82,48.05s-.87-.2-1.41.29c0,0,1.51-.48,1.89.46l-.14-.52"/>
    <path class="cls-15" d="m3.41,46.47s-.71-.31-1.77.1c0,0,1.18-.35,2.21.39l-.44-.49Z"/>
    <path class="cls-15" d="m3.34,45.18s-.36.37-.15,1.06l.29.26s-.36-.85-.14-1.31Z"/>
    <path class="cls-15" d="m4.57,45.9s-.45.42-.28,1.27l.38.37s-.43-.92-.1-1.64Z"/>
  </g>
  <path class="cls-15" d="m2.17,40.78s2.59-.62,3.94,4.34l.03-.9s-.72-2.24-2.18-3.18c-.53-.34-1.15-.44-1.79-.25Z"/>
  <path class="cls-15" d="m5.33,42.78s-.84-.31-1.61.09c0,0,1.27-.3,1.85.44l-.24-.53Z"/>
  <path class="cls-15" d="m5.15,42.32s-.31-.75.38-1.85l-.22.18s-.45.38-.44,1.19.28.48.28.48Z"/>
  <path class="cls-15" d="m4.48,39.46s-.58.98-.01,2.07l-.33-.3s-.36-.84.22-2.03l.12.25Z"/>
  <path class="cls-15" d="m4.85,42.13s-1.48-1.86-2.69-2.56c0,0,1.79.46,3.48,3.51l-.16.1-.62-1.05Z"/>
  <path class="cls-11" d="m46.86,41.85c-.19-.04-.43-.08-.59-.2-.14-.1-.11-.29-.25-.4-.15-.12-.41-.07-.59-.05-.31.04-.18-.31-.11-.49.01-.03.01-.07-.02-.09-.19-.09-.41-.11-.59-.21-.11-.06-.17-.15-.17-.28,0-.15.14-.29.13-.42,0-.1-.11-.17-.2-.18-.08-.01-.1.03-.17-.03-.06-.05-.06-.11-.06-.18s.01-.15,0-.22c-.02-.17-.18-.29-.32-.37-.2-.1-.3-.23-.29-.48,0-.09.06-.19.01-.28-.1-.18-.39-.1-.51-.3-.1-.15-.06-.28-.07-.44,0-.04,0-.06-.03-.09-.09-.1-.33-.12-.45-.12-.17,0-.33.06-.38.24h.11c-.12-.22-.36-.54-.61-.31-.36.33-.21.9,0,1.25.04.07.15,0,.11-.06-.18-.3-.31-.7-.1-1.02.17-.25.38.01.48.19.03.05.1.04.11-.01.05-.21.55-.18.61-.06,0,.02-.01.13-.01.15,0,.07.02.14.04.2.03.1.09.21.17.28.1.08.25.06.35.13.1.08.03.3.05.41.02.13.08.27.19.36.13.1.3.1.38.27s-.03.39.1.56c.05.06.08.06.15.07.07-.01.14,0,.2.04.02.02.01.05-.02.06,0,.05-.06.15-.07.19-.15.57.42.58.79.76l-.02-.09c-.06.15-.14.34-.11.5.06.31.43.14.64.15.3.02.22.27.41.43.18.14.44.2.66.24.08.01.11-.11.03-.12h0Z"/>
  <path class="cls-11" d="m45.69,40.74s-.01,0-.02,0c0,0-.03,0,0,0,0,0-.02,0-.03,0-.05,0-.1-.02-.15-.03-.16-.04-.3-.1-.44-.19-.07-.04-.13.06-.06.11.21.13.46.22.7.24.03,0,.06-.03.06-.06,0-.04-.03-.06-.06-.06h0Z"/>
  <path class="cls-11" d="m47.33,42.39l-.07-.1s.8-.54.36-1.67c-.01-.04-.21-.84-.09-1.98.12-1.17-.39-2.97-.95-3.38l.07-.1c.65.47,1.12,2.37,1,3.49-.12,1.11.09,1.92.09,1.93.47,1.22-.4,1.81-.41,1.81Z"/>
  <path class="cls-11" d="m44.54,34.68c0,.1.02.21.07.3.12.18.31.07.45-.02.08-.06.17-.14.27-.17.07-.02.09.07.09.13,0,.2-.08.39-.1.58-.04.26-.03.54.12.77.04.07.15,0,.11-.06-.13-.2-.14-.45-.11-.68.03-.19.1-.38.11-.58,0-.15-.07-.32-.24-.27-.1.03-.18.1-.26.16-.06.04-.18.15-.26.13-.09-.02-.1-.2-.1-.27,0-.08-.12-.08-.12,0h0Z"/>
  <path class="cls-11" d="m42.71,37.19c-.39-.48.08-.96.09-.96l.07.07s-.41.42-.08.83l-.08.06Z"/>
  <path class="cls-15" d="m44.13,57.24c-.67,0-1.18-.19-1.62-.58-.81-.71-1.02-1.86-1.05-2.71-.07-1.87.92-2.71.96-2.74l-.06.3s-.79.67-.72,2.44c.03.81.23,1.92.99,2.58.49.43,1.15.6,1.95.52l.02.17c-.14.01-.33.02-.46.02Z"/>
  <g>
    <path class="cls-15" d="m48.21,22.16s-.36.64-.16.97c0,0-.03-.44.34-.9l-.18-.07Z"/>
    <path class="cls-15" d="m46.65,21.75s-.41.16-.49,1.38c0,0-.31-.5.19-1.33l.13-.06h.16Z"/>
    <path class="cls-15" d="m45.08,21.44s-.34.43-.54,1.53c0,0-.16-.75.43-1.64l.13-.02v.13Z"/>
  </g>
  <path class="cls-15" d="m48.76,22.61s-.07.22-.09.42l.12-.03s-.04-.2-.03-.39Z"/>
  <path class="cls-15" d="m44.69,21.22s-.92.86-.93,2.97c0,0-.12.04-.16-.14,0-.03-.13-1.28.74-2.7l.29-.1.06-.02Z"/>
  <path class="cls-15" d="m45.38,22.83s-.54.71-.38,1.33l.16-.07s-.07-.49.22-1.27Z"/>
  <path class="cls-15" d="m47.22,23.09s-.12.44-.12.62h.17s-.07-.37-.04-.62Z"/>
  <path class="cls-11" d="m43.73,22.63s-.05,0-.06-.02c-.02-.01-.05-.04-.05-.09,0-.03,0-.07.01-.11.03-.17.07-.46-.11-.59-.04-.03-.08-.04-.12-.03-.13.03-.16.22-.3.46-.13.22-.28.32-.3.35l.08-.35s.05-.07.07-.12c.12-.19.25-.41.43-.44.07-.01.13,0,.2.05.23.17.18.51.15.69,0,.04-.01.08-.01.1.01.01.08,0,.13-.03l.05.09s-.1.05-.16.05Z"/>
  <g>
    <path class="cls-8" d="m65.67,48.16s-5.26.51-3.38-4.58c0,0,2.43.03,3.33,1.47s.44,2.84.05,3.11Z"/>
    <path class="cls-18" d="m65.77,47.82s-4.76.74-3.48-4.24c0,0,2.41-.39,3.31,1.04s.57,2.93.18,3.19Z"/>
    <path class="cls-8" d="m65.66,54.26s-5.09,1.42-4.13-3.91c0,0,2.4-.4,3.54.86s.93,2.72.59,3.06Z"/>
    <path class="cls-18" d="m65.7,53.9s-4.56,1.56-4.17-3.56c0,0,2.3-.81,3.44.45s1.07,2.78.73,3.11Z"/>
    <path class="cls-8" d="m70.96,47.49s5.23.74,3.58-4.42c0,0-2.43-.08-3.4,1.32s-.56,2.82-.18,3.11Z"/>
    <path class="cls-18" d="m70.87,47.14s4.73.95,3.67-4.08c0,0-2.39-.5-3.35.9s-.7,2.9-.32,3.18Z"/>
    <path class="cls-8" d="m70.64,54.44s5.23.74,3.58-4.42c0,0-2.43-.08-3.4,1.32s-.56,2.82-.18,3.11Z"/>
    <path class="cls-18" d="m70.56,54.1s4.73.95,3.67-4.08c0,0-2.39-.5-3.35.9-.96,1.39-.7,2.9-.32,3.18Z"/>
    <g>
      <path class="cls-15" d="m67.53,57c-.38-.81-.47-.85-.96-1.69-1.49-2.57-4.28-4.42-4.45-4.53,2.7,1.26,4.53,3.52,5.73,5.65-.18-2.11-.56-4.21-1.27-6.47-.89-2.83-3.19-5.26-3.34-5.41,3.54,2.76,4.66,7.28,5.02,10.01.45-2.95,1.78-8.27,5.64-11.02-.15.14-2.56,2.46-3.57,5.26-.92,2.54-1.41,4.88-1.66,7.28,1.13-2.05,2.82-4.17,5.3-5.45-.17.12-2.88,2.07-4.28,4.7-.44.82-.62.96-.96,1.76"/>
      <g>
        <path class="cls-15" d="m70.88,51.21s.39,1.15.14,1.7l.28-.13s.26-.95-.41-1.57Z"/>
        <path class="cls-15" d="m70.66,53.8s.89-.15,1.67-.06c0,0-.09-.36-1.45-.25,0,0-.1-.09-.23.32Z"/>
        <path class="cls-15" d="m72.17,50.23s.2,1.35-.17,1.76l.36-.21s.27-1.03-.2-1.55Z"/>
        <path class="cls-15" d="m74.22,51.6s-1.6-.06-1.96.41c0,0,.24-.89,1.96-.41Z"/>
      </g>
      <g>
        <path class="cls-15" d="m71.16,44.34s.49,1.11.29,1.69l.26-.15s.17-.97-.55-1.53Z"/>
        <path class="cls-15" d="m71.17,46.95s.88-.23,1.66-.21c0,0-.12-.35-1.46-.12,0,0-.11-.08-.2.34Z"/>
        <path class="cls-15" d="m72.35,43.26s.32,1.33,0,1.77l.34-.24s.17-1.05-.33-1.52Z"/>
        <path class="cls-15" d="m74.51,44.44s-1.6.09-1.92.58c0,0,.16-.9,1.92-.58Z"/>
      </g>
      <g>
        <path class="cls-15" d="m65.7,45.11s-.49,1.11-.29,1.69l-.26-.15s-.17-.97.55-1.53Z"/>
        <path class="cls-15" d="m65.69,47.71s-.63-.41-1.66-.21c0,0,.56-.43,1.46-.12,0,0,.11-.08.2.34Z"/>
        <path class="cls-15" d="m64.51,44.02s-.32,1.33,0,1.77l-.34-.24s-.17-1.05.33-1.52Z"/>
        <path class="cls-15" d="m62.34,45.2s1.76.2,2.08.7c0,0-.32-1.02-2.08-.7Z"/>
      </g>
      <g>
        <path class="cls-15" d="m65.14,51.2s-.27,1.19.04,1.71l-.29-.1s-.35-.92.25-1.61Z"/>
        <path class="cls-15" d="m65.62,53.76s-.7-.28-1.67.11c0,0,.47-.53,1.41-.4,0,0,.09-.1.26.29Z"/>
        <path class="cls-15" d="m63.76,50.36s-.06,1.37.34,1.73l-.38-.18s-.37-.99.04-1.56Z"/>
        <path class="cls-15" d="m61.86,51.93s1.76-.14,2.17.29c0,0-.5-.94-2.17-.29Z"/>
      </g>
    </g>
  </g>
  <path class="cls-10" d="m65.08,42.63s-.98.57-1.37.65.76.33.81.34.76-.4.76-.4l-.2-.59Z"/>
  <path class="cls-15" d="m42.72,39.95s.63.61.64.93h.13s.04-.27-.26-.56l-.22-.19-.29-.17Z"/>
  <path class="cls-15" d="m47.12,40.97s.02.64.24.79c0,0,.1.11-.04-.3,0,0-.06-.19-.03-.26,0,0,.1.13.13.08s-.02-.17-.1-.29-.12-.55-.11-.72-.02-.13-.02-.1-.01.55,0,.58-.06.22-.06.22Z"/>
  <path class="cls-15" d="m43.76,42.69s.51.9.2,2.69-.79,2.26-.79,2.26l-.07-.94.39-1.43.11-1.48-.17-.9.32-.2Z"/>
  <path class="cls-15" d="m30.88,17.33s-4.18-.72-5.31,3.33h.2s.57-1.03.57-1.03l.53-.61.52-.46.44-.2.77-.33.69-.17.91-.11.88-.09-.2-.33Z"/>
  <path class="cls-8" d="m30.95,15.5s1.24.64,1.05,1.58c0,0-.01.2-.13.28v-.18s-.02-.4-.02-.4l-.18-.37-.46-.44-.38-.29.11-.18Z"/>
  <path class="cls-8" d="m30.95,15.5s.63-.55-.03-1.13-1.27-.39-1.27-.39l-.03.22.44-.03.51.16.35.25.04.52-.17.4h.15Z"/>
  <path class="cls-8" d="m24.93,13.32s-.04-.61,1.21-.38l.37.3s-.73-.18-.75-.18-.51.13-.51.13l-.31.14Z"/>
  <path class="cls-8" d="m23.29,14.1s-.15-.96,1.64-.78l.12.14-.28.12s-.5-.06-.53-.05-.46.21-.46.21l-.2.2-.28.16Z"/>
  <path class="cls-8" d="m27.66,13.69s.03-.46.94-.19c.62.18.5.62.5.62l.13-.06-.08-.4s-.23-.31-.27-.31-.53-.05-.53-.05c0,0-.56-.07-.6-.02s-.16.21-.17.26.08.15.08.15Z"/>
  <path class="cls-15" d="m40.8,26.91s1.92,1.97,1.88,6.23l-.24-.13s-.07-1.01-.08-1.09-.23-.88-.23-1.21-.22-1.27-.26-1.37-.58-.94-.58-.98-.58-1.01-.58-1.01l.09-.45Z"/>
  <path class="cls-11" d="m40,27.24c1.04,1.29,1.77,2.85,1.95,4.5.15,1.29,0,2.59-.35,3.84-.23.8-.51,1.53-.91,2.25-.36.65-.87,1.21-1.39,1.74-1.68,1.72-3.82,2.94-6.04,3.82s-4.4,1.42-6.68,1.8c-1.65.28-3.33.45-5,.52-1.26.06-2.5.01-3.76-.12-2.64-.27-5.27-.93-7.64-2.14-1.71-.87-3.26-2.01-4.56-3.42-.85-.93-1.57-1.93-2.15-3.1-.09-.18-.18-.37-.26-.56,0-.02-.02-.04-.03-.06-.03-.07.04.09.01.03-.02-.04-.03-.08-.05-.12-.03-.06-.05-.13-.07-.19-.08-.22-.16-.45-.23-.67-1-3.01-1.18-6.26-.44-9.35.33-1.37.77-2.55,1.44-3.75,1.18-2.13,2.95-3.86,5.01-5.13,1.92-1.19,4.05-2,6.23-2.55,1.81-.46,3.63-.74,5.48-.88.96-.07,1.92-.11,2.88-.08.6.02,1.2.06,1.79.13.75.08,1.49.19,2.29.35.99.2,1.97.45,2.94.76,2.13.69,4.21,1.71,5.9,3.2.9.8,1.68,1.72,2.28,2.76.18.31.34.63.49.95.05.1-.02-.07.03.08.03.07.06.15.08.22.07.2.13.39.19.59.39,1.39.49,2.85.41,4.28-.03.56.84.56.87,0,.13-2.28-.18-4.61-1.35-6.6-1.26-2.14-3.2-3.79-5.37-4.94-1.94-1.03-4.05-1.7-6.2-2.13-1.32-.26-2.66-.45-4.01-.51-.47-.02-.95-.02-1.42-.02-1.59.03-3.17.18-4.74.42-2.17.34-4.31.89-6.34,1.74-2.26.95-4.39,2.25-6.09,4.03-1.15,1.21-2.11,2.63-2.77,4.17-1,2.32-1.46,4.88-1.37,7.41.07,1.98.47,3.96,1.17,5.81.36.94.85,1.84,1.43,2.67.98,1.42,2.2,2.65,3.58,3.68,1.91,1.42,4.12,2.41,6.41,3.04,2.17.59,4.48.92,6.73.91,1.26,0,2.53-.1,3.78-.23,2.18-.23,4.36-.61,6.47-1.2,2.38-.67,4.73-1.61,6.8-2.98,1.04-.69,2.01-1.5,2.85-2.43.47-.53.92-1.08,1.24-1.71,1.08-2.1,1.57-4.53,1.19-6.87-.28-1.7-1.06-3.24-2.13-4.57-.35-.44-.97.18-.62.62Z"/>
  <path class="cls-11" d="m6.7,17.52c-1.14-.03-2.36.36-3.33.94s-1.68,1.35-2.2,2.28c-.69,1.23-1.1,2.76-.83,4.16.15.78.56,1.59,1.21,2.08.19.14.49.03.6-.16.13-.22.03-.46-.16-.6.18.13.02.01-.02-.02-.09-.09-.18-.18-.26-.28.04.05-.07-.1-.09-.13-.05-.08-.1-.16-.14-.24-.1-.19-.18-.4-.24-.61-.33-1.2.04-2.56.61-3.64.8-1.51,2.2-2.49,3.84-2.82.09-.02.17-.03.26-.05.02,0,.05,0,.07-.01.13-.02-.03,0,.05,0,.11-.01.22-.02.32-.03s.21-.01.31,0c.56.02.56-.86,0-.87h0Z"/>
  <path class="cls-11" d="m9.74,48.24c-.5.98-.79,2.09-.97,3.17-.4,2.44-.1,4.94.93,7.19.8,1.74,2.02,3.25,3.43,4.53.42.38,1.03-.24.62-.62-2.19-1.98-3.82-4.55-4.2-7.51-.23-1.81-.02-3.66.56-5.39.05-.15.1-.29.16-.44.02-.06.05-.12.07-.18.05-.14-.03.06.03-.06.04-.09.08-.18.12-.26.26-.5-.5-.94-.75-.44h0Z"/>
  <path class="cls-11" d="m10.34,43.78c-1.95,1.49-3.67,4.01-3.34,6.56.16,1.21.76,2.28,1.56,3.18.37.42.99-.2.62-.62-.63-.72-1.12-1.55-1.29-2.5-.14-.74-.04-1.51.2-2.22.4-1.2,1.21-2.26,2.11-3.13.15-.15.31-.29.47-.43.05-.04.3-.24.11-.09.19-.14.28-.37.16-.6-.11-.19-.41-.3-.6-.16h0Z"/>
  <path class="cls-11" d="m11.28,61.29c-.17,1.42.35,2.99,1.25,4.08.95,1.15,2.35,1.72,3.78,1.99s2.89.34,4.21-.2c.56-.23,1.16-.58,1.49-1.1.3-.48-.45-.91-.75-.44-.05.08,0,0,.01-.01-.06.06-.11.12-.16.18-.04.04-.08.07-.12.11-.03.02-.05.04-.08.07,0,0,.04-.03-.03.02-.14.1-.29.19-.44.26-.98.5-2.27.51-3.39.36-1.36-.19-2.74-.6-3.7-1.63-.62-.65-.97-1.46-1.13-2.33-.04-.24-.05-.26-.07-.49-.01-.15-.02-.3-.02-.45,0-.14,0-.28.02-.41.03-.24-.22-.43-.44-.44-.26,0-.41.2-.44.44h0Z"/>
  <path class="cls-11" d="m21.37,65.94c.38,1.72,1.97,3.04,3.59,3.53,1.77.53,3.78.29,5.53-.21,1.48-.43,2.9-1.19,3.79-2.48,1.03-1.49,1.08-3.38.75-5.1-.1-.55-.94-.32-.84.23.25,1.36.25,2.85-.45,4.09-.66,1.16-1.84,1.88-3.08,2.29-1.58.53-3.43.81-5.08.45-.61-.14-1.18-.36-1.7-.71-.35-.23-.77-.63-.98-.91-.13-.17-.25-.36-.36-.55-.05-.08-.09-.16-.13-.25-.02-.04-.04-.08-.06-.12-.05-.1.01.03,0-.02-.06-.15-.12-.3-.15-.46-.12-.55-.96-.32-.84.23h0Z"/>
  <path class="cls-11" d="m36.32,53.61c.04.66-.02,1.34-.11,2-.2,1.53-.63,3.05-1.32,4.43-.5,1.02-1.14,1.96-1.91,2.8-.38.41.24,1.03.62.62,2.26-2.47,3.46-5.78,3.59-9.1,0-.25.02-.5,0-.75-.03-.56-.9-.56-.87,0h0Z"/>
  <path class="cls-11" d="m15.98,64.46c.73.47,1.6.78,2.42,1.03,1.99.6,4.12.75,6.18.49,1.64-.21,3.22-.68,4.74-1.33.22-.09.26-.41.16-.6-.13-.23-.38-.25-.6-.16-2.35,1-4.9,1.5-7.45,1.29-1.47-.12-3.04-.51-4.3-1.1-.24-.11-.49-.23-.71-.38-.47-.3-.91.45-.44.75h0Z"/>
  <path class="cls-11" d="m32.55,43.64c-.28.08-.55.21-.8.35-.56.31-1.05.74-1.43,1.25-.27.36-.47.77-.6,1.19-.07.22.08.49.3.54.24.05.46-.07.54-.3.03-.09.06-.17.09-.26.02-.06-.03.06,0,0,0-.02.01-.03.02-.05.02-.05.04-.1.07-.14.08-.15.17-.3.27-.44.02-.03.05-.06.07-.09.03-.05-.05.06-.01.01.01-.01.02-.02.03-.04.05-.06.11-.12.16-.18.1-.11.21-.21.32-.31.02-.02.05-.04.07-.06.01-.01.03-.02.04-.03.06-.05-.02.02-.03.02.06-.03.11-.08.17-.12.1-.07.2-.13.31-.19.09-.05.18-.1.28-.14.04-.02.07-.03.11-.05.03-.02.12-.04-.03.01.02,0,.03-.01.05-.02.08-.03.16-.06.24-.08.22-.06.38-.31.3-.54s-.3-.37-.54-.3h0Z"/>
  <path class="cls-11" d="m39.24,40.85c.1-.06.2-.12.3-.18.11-.06.22-.12.33-.18.06-.03.12-.06.18-.09.03-.01.06-.03.09-.04.12-.05-.07.03.04-.02.14-.06.28-.11.43-.15.07-.02.14-.04.21-.05,0,0,.12-.02.12-.02,0,.01-.11.01-.05,0,.02,0,.05,0,.07,0,.07,0,.14,0,.21,0,.02,0,.07.02.1,0-.06.02-.1-.02-.05,0,.02,0,.05,0,.07.02.03,0,.06.02.09.03.1.03-.08-.05,0,0,.03.02.05.03.08.04.01,0,.03.02.04.03.03.01-.08-.08-.02-.02.03.03.06.06.08.08.05.05-.03-.04-.03-.04,0,0,.03.05.04.06.03.04.05.09.07.13.02.03,0,.06-.01-.03,0,.03.02.05.03.08.02.05.03.1.04.16,0,.03.03.21.02.09.02.14.02.28.02.42,0,.24.2.44.44.44s.43-.2.44-.44c0-.51-.08-1.05-.41-1.46-.25-.31-.62-.45-1.01-.47-.68-.05-1.38.27-1.97.59-.15.08-.29.16-.43.26-.19.13-.28.38-.16.6.11.19.4.29.6.16h0Z"/>
  <path class="cls-11" d="m41.13,41.82s.04-.01.07-.02.04,0,.07-.01c.05-.01-.08,0,.03,0,.23-.01.34-.01.56.06.57.18.92.77,1.1,1.26.4,1.02.39,2.09.06,3.14-.53,1.73-1.77,3.26-3.07,4.49-1.19,1.12-2.61,1.99-4.19,2.45-.73.21-1.41.36-2.16.31-.56-.04-.56.83,0,.87.72.05,1.48-.1,2.17-.28,1.71-.45,3.28-1.36,4.59-2.54,2.27-2.05,4.66-5.41,3.45-8.61-.3-.79-.78-1.54-1.6-1.86-.4-.16-1.08-.07-1.34.24-.11.13-.15.23-.16.34-.01.14.1.28.41.18h0Z"/>
  <path class="cls-8" d="m32,17.15c-.1.1-.09.32-.33.27-.53-.11-1.4-.03-1.94-.03-.08-.34-.26-.99-.4-1.36.2.13.8.23.94.33.35.23.44.38.85.49.14.04.2.23.31.11.12-.12.05-.16,0-.31-.12-.32-.62-.11-.87-.31-.29-.24-.39-.8-.74-1.02.21-.06.37-.15.53-.22.25-.09.08-.06-.07-.27-.15-.2-.09-.14-.33-.2-.26-.07-.35,0-.6,0-.21.01-.76.02-.74-.2.03-.29.06-.32-.18-.4-.31-.1-.24-.25-.56-.04-.03.02-.08-.05-.09-.02-.05.22-.64.08-.78,0-.56-.31-.47-.49-1.11-.49-.07.01.03-.09,0,0-.02.08,0,0,.07.04.15.15.3.5.45.69-.14.02-.51.2-.62.18-.46-.09-.27-.15-.74-.13-.24.01-.12-.27-.18.02-.05.28-.16-.17.04-.09.49.2.54.45,1.11.58-.39.11-.73.51-1.07.62-.37.12-.78.29-1.07.56-.15.14-.17-.04-.11.18.06.2.19.12.38.16.18.05.18-.09.36-.11.4-.05.72-.13,1.11-.25.28-.08.77.03,1.11-.07-.23.36-.36.89-.49,1.23-.31.83.09,1.26.98,1.36-.09.11-.6.31-.72.39-.76-.16-1.12-.63-1.07-1.4.01-.18.1-.34.15-.51.05-.17.02-.21-.16-.17-.46.11-.92.24-1.4.22-.43-.02-.83-.26-.94-.6-.12-.36.05-.75.41-1.03.24-.18.51-.29.78-.43-1.02-.38-1.19-.65-.83-1.29.03-.02.05-.04.08-.05.32-.18.68-.22,1.03-.18.31.03.47-.08.52-.37.44-.21.9-.11,1.34-.04.19.04.38.09.55.16.26.1.48.12.76-.01.52-.25,1.45.13,1.66.62.02.14.09.23.25.22.24-.02.47.04.7.07.3.17.6.34.76.67.05.1.05.22.08.32-.05.11-.07.25-.15.32-.16.14-.05.19.05.27.17.13.36.23.5.4.03.01.06.03.08.04h0s.02-.02.02-.02c0,.27.3.42.28.69.03.14.07.27.03.42Z"/>
  <path class="cls-18" d="m26.83,18.53c-.89-.09-1.22-.63-.91-1.46.13-.34.33-.63.56-.99-.34.1-.61.18-.89.27-.39.12-.79.2-1.2.25-.18.02-.36.01-.53-.03-.19-.05-.37-.12-.43-.32-.06-.22.05-.39.2-.53.29-.27.65-.42,1.02-.54.34-.11.68-.21,1.07-.32-.57-.12-1.1-.18-1.6-.39-.2-.08-.51-.14-.45-.43.05-.28.35-.28.59-.29.47-.02.93.06,1.39.15.11.02.21.04.35.02-.15-.19-.37-.24-.52-.39-.06-.05-.15-.1-.13-.19.03-.09.13-.07.21-.07.64,0,1.25.13,1.81.44.14.08.25.13.3-.09,0-.04.04-.07.07-.09.32-.21.64-.07.94.03.24.08.44.23.41.52-.02.22.06.27.26.26.26,0,.52-.04.77.02.24.06.44.19.59.39.16.21.12.37-.13.47-.16.07-.34.1-.55.16.34.22.68.4.97.63.25.2.48.42.6.73.06.15.07.29-.05.42-.11.12-.25.11-.39.08-.41-.11-.77-.33-1.12-.56-.15-.1-.29-.2-.5-.33.15.38.4.63.48.97-.54,0-1.07.12-1.6.21-.07-.2-.15-.39-.24-.66-.16.36-.29.65-.42.94h0s-.04.04-.06.06c-.3.22-.59.44-.89.66Zm.87-4.07c-.21.02-.46.04-.55.29-.1.25.07.44.24.59.28.25.62.39,1.01.37.21-.01.39-.08.48-.29.09-.21,0-.39-.14-.54-.27-.3-.62-.41-1.04-.43Z"/>
  <path class="cls-20" d="m27.7,14.45c.41.02.77.13,1.04.43.14.15.23.33.14.54-.09.21-.28.28-.48.29-.39.02-.72-.12-1.01-.37-.17-.15-.34-.34-.24-.59.1-.25.34-.27.55-.29Z"/>
  <path class="cls-11" d="m26,20.77c.02-.06-.02.05-.03.06.02-.04.03-.08.05-.12.06-.12.12-.24.19-.36.25-.42.46-.7.81-1.05,1.03-1.01,2.42-1.4,3.85-1.23,3.34.38,7.02,3.07,7.29,6.64.07.94-.11,1.9-.63,2.7-.18.28-.41.53-.66.74-.02.02-.04.03-.06.05.04-.03.02-.02-.01,0-.03.02-.07.05-.1.07s-.07.04-.1.06c-.5.26-.06,1.01.44.75,1.28-.67,1.92-2.28,2.01-3.64.11-1.79-.66-3.54-1.8-4.88-1.37-1.63-3.34-2.72-5.4-3.2-1.76-.41-3.59-.19-5.03.96-.71.57-1.33,1.36-1.66,2.21-.2.52.64.75.84.23h0Z"/>
  <path class="cls-11" d="m34.29,54.08c.17.4.21.87.25,1.3.12,1.47-.07,2.97-.36,4.42-.11.53.04.98.66,1.01.32.02.32-.48,0-.5-.28-.01-.21-.21-.18-.38.11-.53.2-1.07.26-1.61.11-.83.17-1.66.13-2.5-.02-.61-.05-1.31-.29-1.88-.12-.29-.6-.16-.48.13h0Z"/>
  <path class="cls-15" d="m60.89,12.01s-.11.03-.17.08-.1.12-.07.15.12-.05.12-.05l.07-.09.05-.09Z"/>
  <g>
    <path class="cls-12" d="m55.88,23.79c0-.24.18-.34.4-.43,1.55-.57,3.09-1.15,4.64-1.72.95-.35,1.9-.71,2.85-1.06.13-.05.29-.16.4.02.11.18.02.34-.1.49-.07.08-.17.1-.26.14-2.52.92-5.04,1.85-7.56,2.77-.26.1-.37.04-.37-.21Z"/>
    <path class="cls-12" d="m55.87,25.27c0-.25.15-.37.37-.45,1.51-.54,3.02-1.08,4.52-1.62.99-.36,1.99-.71,2.98-1.07.15-.05.34-.19.44.05.1.23-.03.4-.22.52-.05.03-.11.05-.17.07-2.51.89-5.03,1.78-7.54,2.67-.18.07-.36.12-.38-.17Z"/>
    <path class="cls-20" d="m59.53,21.01c.01.2-.1.33-.26.39-1.02.39-2.04.78-3.06,1.17-.09.04-.2.05-.28-.04-.07-.08-.06-.19-.02-.28.05-.14.15-.23.29-.28,1.01-.39,2.02-.77,3.03-1.16.22-.08.3,0,.3.21Z"/>
  </g>
  <path class="cls-20" d="m56.13,41.77c-.14.01-.23-.02-.28-.12-.06-.1-.05-.21.02-.31.09-.12.2-.19.35-.22.97-.21,1.94-.41,2.91-.63.18-.04.33-.04.38.16.05.2-.03.36-.23.43-.18.06-.37.09-.55.13-.84.18-1.69.36-2.53.54-.03,0-.06.01-.06.01Z"/>
  <path class="cls-12" d="m64.19,61.03c-.15.14-.32.17-.52.18-1.99.08-3.98.15-5.96.26-.52.03-1.03.01-1.55.05-.21.02-.37-.03-.37-.27,0-.25.14-.34.38-.35,2.62-.13,5.24-.26,7.86-.39.02,0,.08,0,.08,0,.02.16.05.36.07.52Z"/>
  <path class="cls-12" d="m63.98,59.6c-1.42.07-2.83.15-4.26.23-.5.03-.99.06-1.48.09-.67.04-1.35.08-2.02.12-.22.01-.38-.03-.39-.29,0-.24.12-.34.35-.35,2.16-.13,4.31-.25,6.47-.38.05.19.19.26.38.25.21,0,.41.02.62,0,.28-.03.31.06.34.34Z"/>
  <path class="cls-20" d="m56.37,58.55s-.14,0-.23,0c-.19.01-.3-.06-.3-.27,0-.2.08-.32.29-.33.85-.06,1.7-.12,2.55-.18.16-.01.31-.04.47-.05.22-.02.36.09.37.3,0,.2-.11.34-.33.35-.57.04-1.15.08-1.72.12-.36.02-.71.04-1.11.06Z"/>
  <path class="cls-12" d="m42.33,60.86c-.07,0-.14,0-.21,0-.2.02-.28-.09-.28-.27,0-.16.08-.27.27-.28.82-.05,1.64-.11,2.46-.16,1.11-.07,2.22-.13,3.34-.19.19-.01.37-.01.38.25,0,.25-.14.32-.36.34-1.19.06-2.38.13-3.58.2-.68.04-1.35.08-2.03.11,0,0,0,0,0,0Z"/>
  <path class="cls-12" d="m44.98,61.47c.98-.06,1.96-.11,2.95-.17.19-.01.34.02.36.24.02.24-.1.34-.33.35-1.33.05-2.67.11-4,.17-.59.03-1.17.05-1.76.07-.17,0-.34,0-.35-.22,0-.21.1-.32.33-.33.93-.04,1.87-.09,2.8-.13,0,0,0,0,0,.01Z"/>
  <path class="cls-20" d="m44.7,59.09c0,.21-.08.31-.28.33-.77.05-1.54.11-2.31.17-.16.01-.21-.07-.22-.21-.01-.19.03-.35.25-.37.27-.03.53-.01.8-.05.51-.06,1.03-.08,1.54-.11.17,0,.21.11.22.24Z"/>
  <path class="cls-15" d="m43.62,41.35s-.07,0-.1.01c-.13-.25-.15-.38-.18-.65.17.01.13.08.16.2.04.15.06.3.12.44Z"/>
</svg>