<?xml version="1.0" encoding="UTF-8"?>
<svg id="Layer_1" data-name="Layer 1" xmlns="http://www.w3.org/2000/svg" viewBox="0 0 69.46 66.63">
  <defs>
    <style>
      .cls-1 {
        fill: #fff;
      }

      .cls-2 {
        fill: #3c2424;
      }

      .cls-3 {
        fill: #74551f;
      }

      .cls-4 {
        fill: #f4bdbf;
      }

      .cls-5 {
        fill: #3d8b23;
      }

      .cls-6 {
        fill: #feedec;
      }

      .cls-7 {
        fill: #3c2415;
      }

      .cls-8 {
        isolation: isolate;
        opacity: .2;
      }

      .cls-9 {
        fill: #9dc97c;
      }

      .cls-10 {
        fill: #fdfdfd;
      }

      .cls-11 {
        fill: #004a6d;
      }

      .cls-12 {
        fill: #fdeced;
      }

      .cls-13 {
        fill: #3d2424;
      }

      .cls-14 {
        fill: #a48144;
      }

      .cls-15 {
        fill: #3d8d23;
      }

      .cls-16 {
        fill: #99e280;
      }

      .cls-17 {
        fill: #001722;
      }
    </style>
  </defs>
  <path class="cls-8" d="m4.11,52.98c.08.32.1.34.45.34h6.74c.04.14.09.26.1.41-.17.07-.35.05-.52.06-1.11.06-2.22.1-3.32.05-.54-.02-1.08-.02-1.62-.07-.48-.05-.97-.05-1.44-.13-.32-.05-.65-.09-.96-.2-.1-.04-.22-.06-.27-.21.24-.17.54-.2.84-.25Z"/>
  <path class="cls-8" d="m58.76,63.49c1.73,0,3.46,0,5.19.01h1.56c.58.07,1.11-.48,1.07-1.04-.02-.34,0-.69.01-1.03.39.02.74.18,1.11.3.35.12.7.28,1.02.47.24.15.5.28.64.56.16.32.13.51-.1.78-.31.36-.7.58-1.12.75-.84.34-1.72.6-2.6.79-.63.14-1.26.27-1.9.36-.49.07-.97.19-1.45.25-.24.03-.48.1-.72.08-.19-.01-.37.04-.55.08-.48.09-.96.11-1.44.17-.31.04-.64.06-.95.09-.36.04-.73.01-1.08.12-.02.01-.04.01-.07,0-.44-.04-.89.04-1.32.09-.48.05-.97-.01-1.45.11-.02.01-.04,0-.07,0-.62-.04-1.24.05-1.86.08-.98.04-1.95.02-2.93.07-2.1.11-4.2.02-6.3.05-.77-.12-1.55-.01-2.32-.08-.51-.05-1.02,0-1.52-.06-.44-.05-.89-.01-1.32-.07-.33-.04-.66-.02-.99-.06-.6-.07-1.21-.09-1.81-.14-.5-.04-1.01-.1-1.51-.14-.41-.03-.83-.08-1.24-.13-.58-.08-1.17-.13-1.76-.24-.33-.06-.67-.09-1.01-.15-.81-.13-1.62-.27-2.42-.44-.66-.15-1.32-.31-1.97-.51-.61-.19-1.2-.43-1.74-.78-.19-.13-.35-.29-.44-.49-.1-.22-.09-.46.07-.66.1-.13.22-.24.36-.34.53-.37,1.13-.58,1.73-.79.1-.03.2-.07.32-.1-.03-.02-.04-.03-.04-.03-.55.01-7.1-.52-7.41-.56-2-.16-4.68-.68-5.2-.79-.91-.2-1.82-.4-2.66-.81-.21-.1-.4-.23-.56-.4-.24-.25-.21-.63.07-.83.29-.2.6-.36.93-.49.6-.24,1.22-.41,1.86-.54.03,0,.05-.04.07-.07.36.33.71.65,1.13.92.76.49,1.59.77,2.47.96,1.08.23,2.18.24,3.27.18,1.1-.07,2.18-.25,3.18-.77.55-.28,1-.69,1.38-1.17.02-.02.05-.04.06-.05.11-.02.12.06.16.11.38.44.81.82,1.32,1.09.08.04.16.08.25.08,0,.12.01.24.01.37,0,1.25.02,2.51-.01,3.76-.01.6.51,1.14,1.08,1.07h1.7c1.71,0,3.41,0,5.12-.01h2.53c.09,0,.18.01.27.01h19.12c.09,0,.18,0,.27-.01.82.02,1.67.02,2.51.02Z"/>
  <path class="cls-11" d="m65.56,63.49c-9.92,0-19.35,0-29.28.01-3.29,0-5.84-.01-9.13-.01,0-.13-.72-.26-.72-.39v-24.18c0-.13.01-.27.02-.4,6.71,0,13.37-.1,20.03-.22,4.83.04,9.66.02,14.5.02h5.02c.01.13.03.27.03.4v20.82c0,1.3-.48,2.63-.47,3.95Z"/>
  <path class="cls-14" d="m8.3,44.47H1.86v2.11h1.25l1.04,6.62h7.04v-2.38s-.24-1.34-.18-1.54c.06-.21-.62-1.16-.62-1.31s-.59-1.46-.62-1.54c-.03-.09-.53-1.1-.53-1.1l-.94-.86Z"/>
  <path class="cls-2" d="m23.77,56.63c.15.29.36.55.56.79.45.53,1.02.93,1.66,1.19.43.18.9.26,1.37.26.39,0,.77-.35.75-.75-.02-.41-.33-.75-.75-.75-.09,0-.18,0-.27,0-.03,0-.18-.02-.04,0s-.02,0-.06,0c-.17-.03-.33-.08-.49-.14-.03,0-.15-.06-.03,0,.13.05-.01,0-.04-.02-.07-.03-.13-.07-.2-.1-.13-.07-.25-.16-.37-.24-.1-.07.14.12.05.04-.03-.02-.06-.05-.08-.07-.05-.04-.1-.09-.14-.13-.09-.09-.18-.17-.26-.27-.04-.04-.07-.08-.1-.12-.01-.02-.03-.04-.04-.05-.06-.08.13.17.06.07-.05-.07-.1-.14-.15-.21s-.09-.14-.13-.22c-.18-.35-.7-.48-1.03-.27-.35.23-.46.65-.27,1.02h0Z"/>
  <g>
    <path class="cls-5" d="m52.19,28.43s-6.47.62-4.16-5.63c0,0,3,.04,4.1,1.8s.54,3.49.06,3.83Z"/>
    <path class="cls-16" d="m52.32,28.01s-5.86.91-4.28-5.21c0,0,2.96-.48,4.07,1.28,1.1,1.76.69,3.6.21,3.93Z"/>
    <path class="cls-5" d="m52.17,35.93s-6.26,1.75-5.08-4.82c0,0,2.96-.49,4.36,1.06,1.39,1.54,1.14,3.35.72,3.76Z"/>
    <path class="cls-16" d="m52.22,35.49s-5.61,1.92-5.13-4.38c0,0,2.83-.99,4.23.55,1.4,1.55,1.32,3.42.9,3.83Z"/>
    <path class="cls-5" d="m58.69,27.6s6.44.91,4.41-5.44c0,0-2.99-.09-4.18,1.62-1.19,1.71-.69,3.47-.23,3.82Z"/>
    <path class="cls-16" d="m58.59,27.18s5.82,1.16,4.51-5.02c0,0-2.94-.61-4.12,1.1-1.19,1.71-.86,3.56-.39,3.92Z"/>
    <path class="cls-5" d="m58.31,36.16s6.44.91,4.41-5.44c0,0-2.99-.09-4.18,1.62-1.19,1.71-.7,3.47-.23,3.82Z"/>
    <path class="cls-16" d="m58.2,35.74s5.82,1.16,4.51-5.02c0,0-2.94-.61-4.12,1.1-1.18,1.71-.85,3.57-.39,3.92Z"/>
    <g>
      <path class="cls-13" d="m54.47,39.31c-.46-1-.58-1.05-1.18-2.07-1.84-3.16-5.26-5.44-5.48-5.58,3.32,1.56,5.57,4.34,7.05,6.96-.22-2.6-.69-5.19-1.56-7.97-1.09-3.49-3.93-6.47-4.11-6.66,4.36,3.4,5.74,8.96,6.18,12.32.56-3.63,2.19-10.18,6.95-13.56-.19.17-3.15,3.03-4.39,6.47-1.13,3.12-1.73,6.01-2.04,8.96,1.39-2.52,3.47-5.13,6.52-6.7-.21.15-3.55,2.55-5.27,5.78-.54,1.01-.76,1.18-1.18,2.17"/>
      <g>
        <path class="cls-13" d="m58.6,32.18s.48,1.42.17,2.1l.34-.16s.32-1.18-.51-1.94Z"/>
        <path class="cls-13" d="m58.33,35.37s1.1-.18,2.06-.08c0,0-.11-.44-1.78-.31,0,0-.13-.11-.28.39Z"/>
        <path class="cls-13" d="m60.18,30.98s.24,1.67-.2,2.16l.45-.26s.32-1.26-.25-1.9Z"/>
        <path class="cls-13" d="m62.71,32.66s-1.97-.07-2.41.51c0,0,.28-1.09,2.41-.51Z"/>
      </g>
      <g>
        <path class="cls-13" d="m58.94,23.73s.61,1.37.35,2.07l.33-.19s.21-1.2-.68-1.88Z"/>
        <path class="cls-13" d="m58.95,26.94s1.08-.28,2.04-.26c0,0-.15-.43-1.8-.15,0-.01-.13-.1-.24.41Z"/>
        <path class="cls-13" d="m60.41,22.4s.39,1.64,0,2.17l.42-.3s.21-1.29-.41-1.87Z"/>
        <path class="cls-13" d="m63.07,23.85s-1.97.11-2.36.72c0,0,.19-1.12,2.36-.72Z"/>
      </g>
      <g>
        <path class="cls-13" d="m52.22,24.67s-.61,1.37-.35,2.07l-.33-.19s-.21-1.19.68-1.88Z"/>
        <path class="cls-13" d="m52.21,27.88s-.78-.5-2.04-.26c0,0,.69-.53,1.8-.15,0,0,.13-.1.24.41Z"/>
        <path class="cls-13" d="m50.76,23.34s-.39,1.64,0,2.17l-.42-.3s-.22-1.29.41-1.87Z"/>
        <path class="cls-13" d="m48.09,24.79s2.16.24,2.56.86c0,0-.39-1.25-2.56-.86Z"/>
      </g>
      <g>
        <path class="cls-13" d="m51.53,32.17s-.34,1.46.04,2.1l-.36-.13s-.43-1.13.32-1.97Z"/>
        <path class="cls-13" d="m52.13,35.32s-.86-.35-2.05.13c0,0,.58-.65,1.74-.49-.01,0,.1-.12.31.36Z"/>
        <path class="cls-13" d="m49.84,31.14s-.07,1.68.42,2.13l-.47-.22s-.45-1.22.05-1.91Z"/>
        <path class="cls-13" d="m47.5,33.07s2.17-.17,2.67.36c0,0-.62-1.16-2.67-.36Z"/>
      </g>
    </g>
  </g>
  <g>
    <path class="cls-5" d="m5.04,35.81s-6.21.6-3.99-5.41c0,0,2.88.04,3.94,1.73,1.06,1.69.52,3.36.05,3.68Z"/>
    <path class="cls-16" d="m5.16,35.4s-5.63.87-4.11-5c0,0,2.84-.46,3.9,1.23,1.07,1.69.67,3.46.21,3.77Z"/>
    <path class="cls-5" d="m5.02,43.01s-6.01,1.68-4.88-4.62c0,0,2.84-.47,4.18,1.01,1.35,1.48,1.1,3.21.7,3.61Z"/>
    <path class="cls-16" d="m5.07,42.59S-.32,44.43.14,38.38c0,0,2.72-.95,4.06.53,1.35,1.48,1.27,3.29.87,3.68Z"/>
    <path class="cls-5" d="m11.28,35.01s6.18.87,4.23-5.23c0,0-2.87-.09-4.01,1.56-1.14,1.65-.67,3.34-.22,3.67Z"/>
    <path class="cls-16" d="m11.18,34.61s5.58,1.12,4.33-4.82c0,0-2.82-.59-3.96,1.06s-.82,3.42-.37,3.76Z"/>
    <path class="cls-5" d="m10.91,43.23s6.18.87,4.23-5.23c0,0-2.87-.09-4.01,1.56s-.67,3.33-.22,3.67Z"/>
    <path class="cls-16" d="m10.81,42.82s5.58,1.12,4.33-4.82c0,0-2.82-.59-3.96,1.06s-.82,3.43-.37,3.76Z"/>
    <g>
      <path class="cls-13" d="m7.23,46.25c-.45-.96-.56-1.01-1.13-1.99-1.76-3.03-5.05-5.22-5.26-5.35,3.19,1.49,5.35,4.16,6.77,6.68-.21-2.49-.66-4.98-1.5-7.65-1.05-3.35-3.77-6.21-3.94-6.39,4.18,3.26,5.51,8.6,5.93,11.82.53-3.48,2.11-9.77,6.67-13.02-.18.17-3.02,2.91-4.22,6.21-1.08,3-1.66,5.77-1.96,8.6,1.33-2.42,3.33-4.93,6.26-6.43-.2.14-3.41,2.45-5.06,5.55-.52.97-.73,1.14-1.13,2.08"/>
      <g>
        <path class="cls-13" d="m11.2,39.41s.46,1.36.16,2.01l.33-.15s.3-1.13-.49-1.86Z"/>
        <path class="cls-13" d="m10.93,42.47s1.06-.17,1.97-.07c0,0-.11-.42-1.71-.3.01,0-.11-.11-.26.37Z"/>
        <path class="cls-13" d="m12.71,38.26s.23,1.6-.2,2.08l.43-.25s.32-1.22-.23-1.83Z"/>
        <path class="cls-13" d="m15.13,39.87s-1.89-.07-2.32.49c.01,0,.29-1.05,2.32-.49Z"/>
      </g>
      <g>
        <path class="cls-13" d="m11.52,31.3s.58,1.32.34,1.99l.31-.18s.21-1.15-.65-1.81Z"/>
        <path class="cls-13" d="m11.53,34.38s1.04-.27,1.96-.25c0,0-.14-.41-1.73-.15,0,0-.12-.09-.23.4Z"/>
        <path class="cls-13" d="m12.93,30.02s.37,1.57-.01,2.09l.4-.29s.21-1.24-.39-1.8Z"/>
        <path class="cls-13" d="m15.48,31.41s-1.89.1-2.26.69c0,0,.19-1.07,2.26-.69Z"/>
      </g>
      <g>
        <path class="cls-13" d="m5.07,32.2s-.58,1.32-.34,1.99l-.31-.18s-.21-1.15.65-1.81Z"/>
        <path class="cls-13" d="m5.06,35.28s-.75-.48-1.96-.25c0,0,.66-.51,1.73-.15,0,0,.12-.09.23.4Z"/>
        <path class="cls-13" d="m3.66,30.92s-.37,1.57.01,2.09l-.4-.29s-.21-1.23.39-1.8Z"/>
        <path class="cls-13" d="m1.11,32.32s2.08.23,2.45.82c0,0-.37-1.2-2.45-.82Z"/>
      </g>
      <g>
        <path class="cls-13" d="m4.41,39.4s-.32,1.4.04,2.02l-.34-.12s-.42-1.09.3-1.9Z"/>
        <path class="cls-13" d="m4.98,42.43s-.82-.33-1.97.12c0,0,.55-.62,1.67-.47,0,0,.1-.11.3.35Z"/>
        <path class="cls-13" d="m2.79,38.41s-.07,1.61.4,2.05l-.45-.21s-.44-1.17.05-1.84Z"/>
        <path class="cls-13" d="m.54,40.26s2.08-.16,2.56.34c0,.01-.59-1.1-2.56-.34Z"/>
      </g>
    </g>
  </g>
  <path class="cls-17" d="m49.83,37.36s7.38-.11,8.94.51v3.49s-1.31-1.45-1.31-1.61-.87-1.42-.87-1.42l-1.66-.51-5.08-.09-.02-.37Z"/>
  <path class="cls-2" d="m6.82,38.19c.02.06.06.11.11.21.5-2.09,1.48-3.85,3.08-5.23.01-.11-.06-.14-.1-.18-1.85-1.56-3.29-3.44-4.28-5.66-.47-1.05-.78-2.15-1.02-3.28-.3-1.42-.38-2.86-.31-4.3.03-.71.12-1.41.24-2.11.19-1.08.44-2.14.8-3.17.23-.67.51-1.32.84-1.95l.18-.36c-.42-.48-.79-.99-1.14-1.51s-.55-1.1-.67-1.72c-.2-1.05.02-2.05.4-3.02.38-1,1.01-1.86,1.76-2.62,1.25-1.27,2.71-2.21,4.41-2.74C12.12.24,13.14.03,14.19.1c1.29.09,2.48.45,3.46,1.34.32.29.57.65.79,1.02.16.27.33.52.41.83-.33.33-.44.34-.79.09-.01-.01-.02-.01-.03-.01,0-.04.01-.09-.01-.13-.33-.67-.77-1.24-1.41-1.66-.8-.52-1.7-.66-2.62-.74-.26-.02-.49-.02-.8,0-.75.05-1.27.21-1.87.41-1.23.41-2.35,1.03-3.35,1.87s-1.82,1.82-2.34,3.04c-.2.46-.37.95-.42,1.44-.05.48-.06.98.07,1.45.06.23.12.47.24.68.29.55.64,1.06,1.04,1.55.05.07.09.16.17.17.06-.01.07-.06.1-.1.48-.75,1.01-1.47,1.6-2.13.14-.15.12-.29.06-.46-.14-.35-.14-.73-.06-1.08.19-.86.63-1.58,1.3-2.16.77-.67,1.65-1.11,2.69-1.24.83-.1,1.58.01,2.27.48.09.06.17.11.28.08-.04.27.07.48.36.62-.3.17-.48.39-.59.67-.01.02-.03.04-.04.05-.54.24-1.21.55-1.67.94.04.1.29.04.39.02.44-.11.89-.22,1.33-.33.21.15.46.21.68.32-.82.27-1.65.51-2.5.7-.35.08-.7.21-1.06.19-.1-.01-.29-.05-.33-.16-.04-.1.06-.2.11-.27.13-.18.35-.37.58-.53.05-.04.22-.15.21-.16-.03-.04-.08,0-.12.04-.03.02-.05.03-.08.05-.04.03-.09.05-.13.08-.04.02-.08.04-.12.06-3.01,1.98-5.06,4.72-6.16,8.18-.1.31-.2.63-.28.95-.15.6-.26,1.2-.35,1.8-.03.17-.01.36-.07.52-.1.32,0,.66-.12.97.03,1.11-.07,2.23.13,3.34.06.34.07.7.16,1.03.21.81.4,1.63.72,2.42.99,2.5,2.54,4.57,4.61,6.27,1.88,1.54,4,2.65,6.28,3.46.75.27,1.52.5,2.29.71.31.09.64.11.95.21.31.09.62.14.93.2.48.09.97.17,1.46.23.58.07,1.15.16,1.73.19.06,0,.11,0,.17,0,.41.09.83.11,1.24.11,1.17,0,2.35.05,3.52-.06.14,0,.29.03.43,0,.46-.1.93-.12,1.4-.18.67-.09,1.34-.23,2-.37.93-.2,1.84-.48,2.73-.82.26-.1.49-.18.54-.51.03-.16.14-.3.23-.44.36-.59.86-1.04,1.44-1.41.87-.56,1.85-.82,2.85-1,.3-.05.56-.13.78-.37.27-.31.56-.6.82-.92,1.17-1.43,2.06-3.02,2.61-4.78.08-.25.15-.5.24-.75.21-.6.31-1.22.41-1.84.07-.42.13-.84.16-1.27.04-.65.12-1.29.13-1.94,0-.2-.07-.39-.07-.59,0-.34,0-.68-.05-1.02-.07-.43-.14-.86-.2-1.29-.13-.89-.41-1.73-.72-2.56-.76-2.01-1.94-3.77-3.45-5.3-1.36-1.37-2.92-2.46-4.63-3.35-.9-.47-1.84-.88-2.8-1.2-.62-.21-1.25-.4-1.88-.58-.69-.19-1.38-.33-2.08-.49-.47-.1-.95-.18-1.44-.24-.44-.05-.89-.11-1.33-.17-.5-.07-1-.09-1.51-.13-.49-.04-.99-.03-1.49-.06-.83-.05-1.66-.03-2.49.05-.41-.23-.84-.38-1.32-.35,0-.12-.19-.19-.19-.28.57-.06,1.17-.12,1.92-.17.62.01,1.19-.02,1.91.01.73.02,1.15.04,1.75.08.55.04,1.1.08,1.64.14.91.09,1.82.23,2.72.42.75.16,1.5.33,2.25.53.92.25,1.82.54,2.71.91.24-.33.47-.67.73-.98.64-.78,1.43-1.32,2.42-1.55,1.07-.25,2.13-.21,3.19.07,1.36.36,2.56,1.03,3.64,1.92,1.17.97,2.12,2.12,2.79,3.48.38.76.6,1.56.73,2.4.16,1.07,0,2.1-.48,3.07-.34.7-.89,1.24-1.47,1.74-.23.2-.45.4-.7.56-.14.08-.1.2-.07.32.12.43.24.87.33,1.32.17.85.3,1.69.33,2.56.02.59.06,1.17.04,1.76-.02.57-.1,1.14-.18,1.72-.11.81-.28,1.61-.49,2.4-.4,1.53-1.01,2.97-1.86,4.31-.25.39-.51.78-.79,1.15-.27.36-.56.71-.88,1.06.08.06.16.03.23.03.66,0,1.03.17,1.68.26,1.05.15,2.26.35,3.21.88.22.12.4.21.56.42.02.02,0,.17.03.18.23.2.41.24.61.48.13.16.05.37.25.43m.12.35c.12.28.19.56.27.86s-1.47.78-1.44,1.08c-.04.02,1.83-.31,1.83-.26,0,.33-.16.59-.34.85-.1.11-.18.22-.29.31-.6.53-1.33.83-2.09,1.01-.68.16-1.36.31-2.07.36-.5.03-1.01.11-1.51.12-1.01,0-2.01.02-3.02-.12-.45-.06-.89-.11-1.33-.21-.58-.14-1.15-.27-1.69-.54-.3-.15-.54-.39-.84-.53-.11-.15-.21-.3-.33-.44-.13-.17-.15-.39-.28-.56-.03-.22-.06-.44-.09-.68-.85.33-1.71.56-2.6.79.19.19.21-.31.37-.16-.2,0-1.2-.05-1.41-.05-.21-.31,1.88,2.55,1.52,2.7-.03,0-1.5-2.27-1.53-2.26-.52.08-1.04.17-1.55.25-1.15.12-2.29.23-3.45.22-.24,0-.49,0-.73,0-.48-.02-.97,0-1.46-.05-.53-.07-1.07-.09-1.61-.14-.45-.04-.9-.1-1.34-.16-.46-.07-.92-.14-1.38-.25-.44-.1-.89-.14-1.32-.28-.61-.19-1.25-.27-1.84-.52-.21-.09-.37-.04-.55.08-.43.3-.85.6-1.26.94-.79.66-1.43,1.46-2.01,2.3-.28.42-.49.89-.67,1.36-.34.85-.53,1.74-.55,2.66,0,.31,0,.61.04.92.04.26.06.53.11.78.12.57.3,1.12.56,1.65.22.45.45.9.73,1.31.33.48.69.93,1.09,1.35,1.21,1.24,2.65,2.12,4.25,2.75.5.2,1.02.37,1.54.49.51.12,1.02.25,1.55.3.42.04.85.11,1.28.13.52,0,1.05,0,1.57,0,.31,0,.61-.06.91-.13v.46c-.43-.02-.86.05-1.29.06-.64,0-1.28.04-1.92-.05-.4-.05-.81-.08-1.2-.16-.6-.12-1.2-.26-1.78-.46-1.19-.39-2.32-.9-3.35-1.6-1.51-1.02-2.75-2.3-3.58-3.95-.25-.49-.44-.99-.6-1.52-.09-.31-.16-.63-.19-.96-.03-.3-.11-.6-.12-.91-.01-.56.05-1.12.13-1.68.1-.68.32-1.32.58-1.93.29-.67.66-1.31,1.12-1.89.49-.61,1.02-1.18,1.61-1.69.37-.32.77-.6,1.19-.89-1.13-.39-2.2-.84-3.23-1.38-1.05-.54-2.03-1.18-2.97-1.88-.92.74-1.6,1.64-2.16,2.62-.33.57-.51,1.2-.72,1.81-.19.56-.25,1.15-.28,1.74-.01.33.02.66.05.99.04.57.18,1.12.38,1.64.26.69.6,1.34,1.04,1.94.03.04.05.1.12.07.08-.25-.05-.48-.05-.72-.01-.6.05-1.19.13-1.78.1-.75.32-1.46.56-2.16.1-.28.2-.58.37-.84.07-.11.13-.16.24-.15.05.08.06.15.03.21-.16.38-.25.78-.35,1.18-.12.45-.21.92-.23,1.38-.02.5-.04,1-.02,1.5.02.52.05,1.03.13,1.54.09.54.22,1.08.39,1.6.18.56.41,1.1.68,1.63.34.68.74,1.33,1.19,1.94.88,1.2,1.96,2.22,3.17,3.09.07.05.15.1.21.16.08.08.1.18.04.27-.06.1-.15.07-.23.03-.34-.18-.7-.33-1.01-.54-.85-.58-1.65-1.21-2.32-2-.05-.06-.11-.11-.2-.09-.05.06-.04.13-.03.19.03.44,0,.88.06,1.32.06.42.1.84.22,1.25.2.71.43,1.4.84,2.03.78,1.23,1.86,2.04,3.26,2.46.64.19,1.3.3,1.95.34,1.14.07,2.27.03,3.39-.27.64-.17,1.26-.39,1.8-.79.29-.21.53-.46.73-.8-.26.03-.47-.07-.68-.07-.23,0-.46-.05-.68-.09-.54-.11-1.14-.23-1.67-.39-.1-.03-.26-.09-.34-.16-.1-.09-.12-.34-.03-.47.12-.06.31.06.41.06.52-.02.99.22,1.51.27.31.03.64.09.95.09.93.02,1.86.08,2.79-.07v.7c-.38,0-.73.14-1.12.14.2.35.45.61.81.85.1.06.18.17.32.15,0,.29-.01.58-.01.87-.09,0-.17-.03-.25-.08-.51-.28-.94-.65-1.32-1.09-.04-.05-.05-.13-.16-.11-.01,0-.04.03-.06.05-.39.48-.83.88-1.38,1.17-1,.51-2.08.7-3.18.77-1.09.07-2.19.05-3.27-.18-.88-.19-1.71-.47-2.47-.96-.41-.27-.77-.59-1.13-.92-.48-.52-.88-1.1-1.17-1.75-.2-.45-.38-.91-.51-1.38,0-.14-.06-.27-.1-.41h-6.74c-.35,0-.38-.02-.45-.34-.13-.83-.25-1.66-.39-2.48-.12-.76-.26-1.52-.38-2.28-.08-.51-.15-1.02-.23-1.57h-.83c-.36,0-.42-.07-.43-.43,0-.49,0-.98,0-1.47,0-.31.11-.45.46-.44,1.4,0,2.8,0,4.2,0h1.82l.4-1.85.34-3,1.35-1.9,1.59-.28,5.82-2.24s4.07.77,4.17,1.72c.09.95,0,2.88-.49,3.95m-18,6.8s-.01.09,0,.13c.09.43.13.87.21,1.3.08.44.14.89.21,1.33.08.52.16,1.03.25,1.53.08.43.1.87.22,1.3h6.78c.05-.32-.05-.6-.09-.89-.04-.33-.13-.65-.11-.98.01-.2-.01-.4,0-.6.01-.32-.05-.64.06-.96.03-.09-.01-.19-.07-.28-.3-.54-.66-1.05-.87-1.63-.04-.1-.07-.22-.19-.26,0-.29-.16-.52-.24-.77H3.3c.08.27.13.52.17.78Zm39.57-14.03c-.55-.02-1.07.04-1.58.11-.42.06-.85.11-1.26.22-.78.2-1.52.49-2.16.98-.61.47-1.07,1.05-1.24,1.81-.06.28-.09.59,0,.85.1.31.31.58.59.79.53.38,1.13.61,1.76.77.41.1.82.12,1.23.2.43.09.88.11,1.31.12.83,0,1.66.04,2.49-.03.66-.06,1.32-.1,1.97-.22.51-.09,1.01-.21,1.49-.4.43-.17.84-.36,1.16-.7.17-.19.3-.39.34-.66.04-.22,0-.43,0-.64,0-.38-.15-.71-.33-1.03-.36-.62-.89-1.04-1.52-1.36-.88-.45-1.84-.64-2.8-.73-.49-.06-.97-.14-1.43-.08Zm-7.11-27.77c1.11.5,2.16,1.06,3.15,1.71.34-.23.71-.36,1.09-.4.76-.07,1.47.12,2.14.46.73.37,1.33.89,1.8,1.56.39.56.65,1.16.74,1.85.08.67,0,1.26-.4,1.82-.02.04-.04.08-.07.13.51.84.93,1.71,1.28,2.66.44-.31.79-.65,1.14-.98.87-.8,1.17-1.83,1.23-2.96.02-.33-.07-.66-.11-.98-.06-.43-.17-.85-.33-1.25-.81-2.05-2.24-3.58-4.09-4.74-.7-.44-1.46-.73-2.24-.94-.39-.11-.8-.17-1.21-.16-.23.01-.47.01-.7,0-.35-.02-.68.07-1,.17-1.09.32-1.81,1.1-2.42,2.05ZM2.08,46.44h7.5c-.1-.14-.08-.28-.18-.38-.44-.42-.79-.92-1.15-1.39H2.09c-.01.59-.01,1.17-.01,1.77ZM44.19,12.54c.06-.04.08-.04.1-.06.03-.04.06-.09.09-.14.33-.6.33-1.23.14-1.86-.47-1.54-1.53-2.52-3.02-3.05-.53-.19-1.09-.19-1.63-.07-.17.04-.35.09-.52.24,1.94,1.35,3.57,2.96,4.84,4.94ZM14.54,4.99c-.31-.23-.61-.36-.94-.43-.66-.14-1.3-.07-1.93.14-1.15.38-2.06,1.08-2.65,2.15-.31.56-.44,1.15-.27,1.79.01.05.02.11.11.13,1.6-1.65,3.5-2.87,5.68-3.78Z"/>
  <path class="cls-11" d="m62.04,38.3h3.15c.11,0,.22,0,.33,0v25.18h-1.56c-1.73,0-3.46,0-5.19-.01v-25.18c.62,0,1.25,0,1.87,0,.47.01.93.01,1.4.01Z"/>
  <path class="cls-17" d="m58.76,63.49h-2.53v-24.78c0-.13.02-.26-.03-.41h-6.78c.18-.26.33-.53.34-.85,0-.05.04-.07.08-.09,1,0,2,.11,3,.08.17-.05.32.11.49.04.3.03.6.05.9.08.38,0,.76.02,1.14.02.21.11.44.03.66.05.18.1.35.11.53,0,.02.06.07.07.13.07h.47s.05.06.07.06c.25,0,.49.04.74,0,.19.08.39.09.59.07.1,0,.23,0,.22.15,0,.11-.12.21,0,.32v24.78c0,.14-.01.28-.01.41Z"/>
  <path class="cls-17" d="m66.6,61.42c0,.34-.03.69-.01,1.03.03.56-.5,1.11-1.07,1.04v-25.18c.55-.08,1.08.44,1.08,1.08-.02,3.26-.01,6.52-.01,9.78v11.85c-.01.13,0,.27.01.4Z"/>
  <path class="cls-11" d="m49.41,38.3h6.78c.05.14.03.28.03.41v24.78c-.09,0-.18.01-.27.01h-19.12c-.09,0-.18,0-.27-.01v-24.79c.3.14.54.38.84.53.54.27,1.11.4,1.69.54.44.1.88.15,1.33.21,1,.14,2.01.13,3.02.12.51,0,1.01-.08,1.51-.12.71-.05,1.39-.2,2.07-.36.76-.18,1.49-.49,2.09-1.01.12-.08.21-.2.3-.31Zm4.28,8.83c-.08-.05-.15,0-.22.02-.81.24-1.63.3-2.47.19-.54-.07-1.09-.06-1.62.07-1.07.26-1.97.82-2.66,1.7-.56.72-.87,1.55-.98,2.43-.09.69.02,1.39.29,2.04.03.07,0,.19.12.21.11-.06.13-.18.17-.27.98-2.02,2.49-3.49,4.54-4.41.86-.39,1.65-.87,2.35-1.5.16-.15.36-.28.48-.48,0,0,.02-.02.04-.03,0,0-.02,0-.04,0v.04Zm-7.66,2.51c.06-.1.08-.15.11-.2.57-.96,1.37-1.66,2.4-2.08.5-.2,1.01-.35,1.55-.31.44.03.88-.02,1.32.05.31.05.63,0,.95-.04.73-.1,1.42-.31,2.07-.67.36-.2.7-.42.99-.72-.08-.05-.16-.04-.21,0-.22.1-.45.08-.68.11-.52.08-1.04-.02-1.53-.14-.55-.14-1.1-.35-1.6-.65-.55-.33-1.15-.5-1.8-.47-.28,0-.56-.03-.83.02-.63.11-1.2.39-1.69.81-.68.58-1.09,1.33-1.28,2.2-.15.72-.04,1.39.23,2.1Zm-.99-.82c.07-.02.1-.09.14-.14.21-.3.23-.63.23-.98,0-.69-.42-1.29-1.09-1.5-.44-.14-.88-.12-1.29.09-.57.3-1.17.55-1.78.69-.86.2-1.73.35-2.63.28-.2,0-.39,0-.59,0,.28.15.54.3.82.39.68.23,1.37.39,2.08.48.43.06.86.1,1.29.05.36-.04.73-.05,1.09-.06.57,0,1.06.18,1.5.52.07.07.13.16.23.18Zm-5.86-.7s.06.07.09.1c.85.83,1.83,1.44,2.91,1.9.44.18.88.33,1.34.41.62.1,1.14.36,1.57.81.05.05.08.14.19.14.23-.44.1-.91.12-1.37-.34-1.23-1.31-1.75-2.38-1.71-.12,0-.23.07-.35.07-.53,0-1.07,0-1.6,0-.24,0-.49-.03-.72-.09-.39-.1-.78-.17-1.17-.25Zm11.44,8.36v2.14c.19,0,.35.02.53,0v-2.14h.82c.07-.12,0-.23.07-.31.07,0,.09.06.11.11.18.32.35.64.55.95.13.21.21.43.19.69-.02.23,0,.46,0,.71.11,0,.18,0,.26,0,.09,0,.18.03.28-.04,0-.04,0-.1,0-.15-.07-.52.07-.98.38-1.4.15-.2.26-.44.38-.66.05-.09.12-.16.11-.28-.17-.04-.34-.03-.52,0-.19.36-.37.71-.56,1.08-.21-.39-.39-.73-.58-1.07h-2.89c0,.14-.02.25.02.38h.85Zm-9.94-.39v2.52h1.86c-.02-.13.03-.25-.04-.37-.43-.03-.86.02-1.3-.03,0-.23-.03-.43.04-.66h1.18c-.03-.15.03-.27-.05-.38-.39-.04-.78.03-1.15-.03v-.65h1.25c0-.15.03-.27-.02-.39-.6-.01-1.18-.01-1.77-.01Zm7.79.84c-.06-.45-.3-.8-.63-.83-.24-.02-.47-.11-.74-.04-.36.09-.62.26-.8.58-.21.37-.21.76-.12,1.15.02.09.04.18.09.27.27.46.67.65,1.19.62.55-.03.95-.4.97-.92-.07-.04-.15-.02-.23-.02-.09,0-.18-.02-.25.02-.04.09-.07.18-.11.25-.2.32-.67.37-.92.09-.37-.41-.36-1.13,0-1.52.29-.31.79-.22.98.16.03.06,0,.14.09.19h.48Zm-8.3.21h-1.18c0-.24-.02-.44.02-.68h1.29v-.36h-1.84v2.52h.52c0-.19,0-.36,0-.54,0-.17-.03-.35.04-.54h1.14c0-.13,0-.24,0-.4Zm4.62,1.05h-1.33v-2.12c-.19,0-.36-.03-.52.03v2.51h1.85c0-.13,0-.25,0-.42Zm.36-2.11v2.53c.18.02.34.02.5,0v-2.53h-.5Zm3.74,0v2.53c.18.02.34.02.5,0v-2.53h-.5Z"/>
  <path class="cls-6" d="m26.44,39.68c.01,4.79-.24,9.67-.24,14.46-.3.07-.6.11-.91.11-.53,0-1.06.08-1.58.07-.43,0-.89-.03-1.32-.07-.53-.05-1.01-.21-1.51-.33-.52-.12-1.08-.31-1.59-.51-1.6-.64-3.15-1.46-4.36-2.7-.41-.41-.74-.88-1.07-1.36-.29-.41-.45-.91-.67-1.36-.26-.52-.38-1.28-.5-1.84-.06-.26-.08-.53-.12-.78-.04-.31-.05-.62-.04-.93.01-.92.1-1.82.44-2.67.19-.47.4-.97.68-1.38.57-.85,1.21-1.68,2-2.34.4-.34.93-.7,1.36-.99.18-.13.34-.05.55.03.59.25,1.23.34,1.84.53.43.13.88.17,1.32.27.46.11.92.19,1.38.25.44.07.89.12,1.34.16.54.05,1.08.07,1.61.14.49.06,1.16.02,1.64.04-.28.33-.26.76-.26,1.19Z"/>
  <path class="cls-11" d="m34.04,63.49c-1.71,0-3.41,0-5.12.01h-1.7v-25.1c1.15,0,2,0,3.14-.12.83.04,1.96.02,2.8.02h.86v21.22c.02,1.32.02,2.65.02,3.97Z"/>
  <path class="cls-10" d="m26.15,55.59c-.93.15-1.86.08-2.79.07-.31,0-.63-.06-.95-.09-.52-.05-.66-.05-1.54-.22-.19-.03-.24-.11-.3-.05-.09.13-.03.24.08.33.08.07.18.14.28.18.53.16,1.06.35,1.6.45.22.04.45.09.68.09s.43.09.68.07c-.2.34-.44.59-.73.8-.54.4-1.16.62-1.8.79-1.11.3-2.25.34-3.39.27-.66-.04-1.31-.15-1.95-.34-1.39-.42-2.47-1.23-3.26-2.46-.4-.63-.64-1.32-.84-2.03-.11-.41-.15-.83-.22-1.25-.06-.44-.04-.88-.06-1.32,0-.06-.02-.13.03-.19.09-.02.14.02.2.09.67.78,1.47,1.42,2.32,2,.31.21.67.36,1.01.54.08.04.17.08.23-.03.06-.09.04-.2-.04-.27-.07-.06-.14-.11-.21-.16-1.21-.87-2.28-1.88-3.17-3.09-.45-.61-.85-1.26-1.19-1.94-.26-.53-.5-1.07-.68-1.63-.17-.52-.29-1.06-.39-1.6-.09-.51-.11-1.02-.13-1.54-.02-.5,0-1,.02-1.5.02-.46.11-.93.23-1.38.11-.4.19-.8.35-1.18.02-.06.02-.13-.03-.21-.11,0,.1.27.03.38-.17.26-.27.43-.37.71-.24.7-.39,1.47-.49,2.22-.08.59-.22,1.02-.21,1.62,0,.24-.14.47-.21.72-.07.03-.09-.04-.12-.07-.44-.6-.78-1.25-1.04-1.94-.2-.52-.34-1.07-.38-1.64-.02-.33-.06-.66-.05-.99.03-.59.09-1.18.28-1.74.21-.61.39-1.24.72-1.81.57-.99,1.25-1.88,2.16-2.62.94.7,1.93,1.34,2.97,1.88,1.04.53,2.4,1,3.52,1.39-.42.3-1.02.74-1.39,1.06-.59.51-1.11,1.13-1.6,1.74-.46.58-.75,1.18-1.04,1.85-.27.61-.45,1.19-.55,1.87-.08.56-.03,1.01-.02,1.57,0,.31.02.54.06.85.04.33.05.64.14.95.16.52.3,1.08.55,1.57.83,1.65,1.9,2.92,3.42,3.94,1.04.7,2.17,1.21,3.35,1.6.58.19,1.18.34,1.78.46.39.08.8.11,1.2.16.64.08,1.28.05,1.92.05.43,0,.88-.19,1.31-.17.05.33.02.82.02,1.19Z"/>
  <path class="cls-17" d="m34.04,63.49v-25.19c.02-.13-.02-.26.04-.38.59-.05,1.17-.1,1.75-.15.05,0,.1-.04.14-.07.13.17.15.39.28.56.11.14.22.29.33.44v24.79c-.85,0-1.69,0-2.54,0Z"/>
  <path class="cls-1" d="m42.94,33.5c.46-.06.94.02,1.42.07.97.1,1.92.28,2.8.73.62.32,1.16.75,1.52,1.36.18.32.32.65.33,1.03,0,.21.04.42,0,.64-.04.28-.17.48-.34.66-.32.34-.73.54-1.16.7-.48.19-.98.31-1.49.4-.65.12-1.31.16-1.97.22-.83.07-1.66.05-2.49.03-.43,0-.88-.03-1.31-.12-.41-.08-.83-.1-1.23-.2-.63-.16-1.23-.39-1.76-.77-.28-.2-.49-.47-.59-.79-.09-.27-.06-.57,0-.85.17-.77.63-1.35,1.24-1.81.65-.49,1.39-.78,2.16-.98.41-.11.84-.16,1.26-.22.53-.06,1.04-.12,1.59-.1Z"/>
  <path class="cls-1" d="m35.83,5.73c.61-.95,1.33-1.73,2.42-2.06.32-.1.61-.17.96-.19.3-.02.45-.03.76-.01.43.03.79.08,1.18.19.79.21,1.55.51,2.24.94,1.85,1.16,3.27,2.68,4.09,4.74.16.4.26.8.34,1.25.06.36.12.65.1.98-.06,1.13-.36,2.16-1.23,2.96-.36.33-.7.68-1.14.98-.34-.95-.77-1.82-1.28-2.66.03-.05.04-.09.07-.13.38-.55.48-1.15.4-1.82-.09-.7-.35-1.29-.74-1.85-.47-.67-1.07-1.19-1.8-1.56-.67-.34-1.38-.53-2.14-.46-.38.04-.75.17-1.09.4-.98-.65-2.04-1.21-3.14-1.7Z"/>
  <path class="cls-1" d="m17.94,3.36c-.11,0-.22-.01-.33-.01-.39.02-.71.16-.88.53-.08.17-.18.24-.36.21-.22-.03-.44.04-.65.09-.38.09-.62.36-.85.65-.11.03-.19-.02-.28-.08-.69-.48-1.44-.59-2.27-.48-1.04.13-1.91.57-2.69,1.24-.67.58-1.11,1.3-1.3,2.16-.07.34-.07.72.06,1.08.06.16.08.3-.06.46-.59.66-1.12,1.38-1.6,2.13-.02.04-.03.08-.1.1-.09-.01-.12-.11-.17-.17-.39-.48-.74-1-1.04-1.55-.11-.21-.18-.45-.24-.68-.13-.47-.12-.97-.07-1.45.05-.5.22-.98.42-1.44.52-1.21,1.34-2.19,2.34-3.04.99-.84,2.12-1.46,3.35-1.87.61-.2,1.1-.36,1.85-.43.34-.03.56,0,.83,0,.92.08,1.82.23,2.62.74.64.41,1.08.99,1.41,1.66.02.04,0,.09,0,.14Z"/>
  <path class="cls-14" d="m9.79,47.52c.12.05.15.17.19.26.22.59.57,1.09.87,1.63.05.09.1.19.07.28-.11.31-.05.64-.06.96-.01.2.01.4,0,.6-.02.33.07.65.11.98.03.29.14.58.09.89h-6.78c-.12-.43-.15-.87-.22-1.3-.11-.5-.19-1.01-.27-1.52-.07-.45-.13-.89-.21-1.33-.08-.43-.12-.87-.21-1.3-.01-.04,0-.09,0-.13h5.26c.39-.02.78-.02,1.16-.02Z"/>
  <path class="cls-17" d="m26.15,55.59c0-.37,0-.76.01-1.13v-.46c0-4.79.01-9.58,0-14.37,0-.43.07-.81.35-1.14.24,0,.49,0,.73,0v24.98c-.57.07-1.09-.47-1.08-1.07.03-1.25.01-2.51.01-3.76,0-.12,0-.24-.01-.37,0-.29.01-.58.01-.87,0-.38,0-.75-.01-1.13-.01-.22-.01-.45-.01-.69Z"/>
  <path class="cls-14" d="m1.98,46.44v-1.77h6.16c.36.46.71.96,1.15,1.39.11.1.09.24.18.38H1.98Z"/>
  <path class="cls-4" d="m44.09,12.54c-1.27-1.98-2.9-3.6-4.85-4.93.16-.14.34-.2.52-.24.55-.12,1.1-.12,1.63.07,1.49.53,2.55,1.51,3.02,3.05.19.62.19,1.26-.14,1.86-.03.05-.06.1-.09.14-.01,0-.03.02-.09.05Z"/>
  <path class="cls-4" d="m14.44,4.99c-2.18.91-4.08,2.14-5.68,3.78-.09-.02-.1-.07-.11-.13-.17-.64-.03-1.23.27-1.79.59-1.08,1.5-1.77,2.65-2.15.63-.21,1.27-.28,1.93-.14.33.07.63.19.94.43Z"/>
  <path class="cls-3" d="m9.79,47.52c-.39,0-.78,0-1.16,0H3.37c-.05-.25-.1-.51-.15-.78h6.33c.09.25.25.48.24.77Z"/>
  <path class="cls-10" d="m35.97,37.7s-.09.06-.14.07c-.58.05-1.16.1-1.75.15-.06.12-.02.25-.04.38h-.25c-.16-.15-.31-.31-.5-.5.89-.23,1.75-.46,2.6-.79.03.25.06.47.08.69Z"/>
  <path class="cls-10" d="m26.15,56.29c0,.38,0,.87.01,1.25-.46-.17-1.17-.86-1.24-1.16.39,0,.95-.03,1.23-.09Z"/>
  <path class="cls-10" d="m14.6,6.19c-.07.17.14.18.06.62-.45.11-.89.21-1.33.33-.2.05-.36.03-.25-.09.44-.38.98-.62,1.52-.86Z"/>
  <path class="cls-12" d="m32.95,38.3c-.83,0-1.94.01-2.77-.03.52-.08,1.44-.29,1.95-.37.03,0,.17.13.2.12.36-.15.32-.02.62.28Z"/>
  <path class="cls-1" d="m46.16,21.38c0,.65-.12,1.29-.16,1.94-.03.43-.02,1.01-.09,1.43-.1.62-.37,1.18-.58,1.78-.09.24-.14.62-.22.87-.56,1.77-1.62,2.84-2.8,4.27-.26.32-.55.61-.82.92-.21.24-.47.32-.77.37-1.01.18-1.99.45-2.86,1-.58.37-1.08.82-1.44,1.41-.09.14-.2.29-.23.44-.06.33-.29.41-.54.51-.89.34-1.81.62-2.74.82-.66.15-1.32.28-2,.37-.46.07-.93.08-1.39.19-.14.03-.3,0-.44,0-1.17.11-2.35.07-3.52.06-.41,0-.83-.03-1.24-.11-.06-.02-.11,0-.17,0-.58-.03-1.15-.13-1.73-.19-.49-.06-.97-.15-1.45-.23-.31-.06-.63-.1-.94-.2-.3-.1-.63-.12-.95-.21-.77-.21-1.54-.45-2.29-.72-2.28-.8-4.82-1.58-6.7-3.12-2.07-1.7-3.44-3.98-4.43-6.48-.31-.78-.56-1.48-.78-2.29-.08-.33.02-.95-.04-1.29-.19-1.11-.15-2.21-.18-3.32.12-.32.1-.66.2-.98.05-.16.04-.42.07-.6.09-.6.37-1.14.52-1.73.08-.32.18-.64.28-.95,1.1-3.46,3.14-6.2,6.18-8.19.04-.02.08-.04.12-.06s.09-.05.13-.08c.03-.01.05-.03.08-.05.32-.17.43-.21.33-.13-.18.2-.45.28-.95.79-.06.06-.12.14-.08.24.04.11.14.12.25.13.36.02.7-.06,1.05-.14.85-.19,1.68-.43,2.5-.7.21-.05.42-.11.63-.17.05.1.03.17,0,.27-.13.44.12.94.57,1.17.39.19.89.16,1.21-.28.13-.18.23-.36.35-.56.15.3.33.56.58.76.42.34,1.06.32,1.43-.04.15-.14.23-.31.24-.53,0-.3-.03-.6-.1-.89.01-.02.03-.03.05-.05.2.01.39.09.59.1.13.02.26.01.39-.02.65-.12.73-.79.52-1.16-.11-.19-.27-.31-.47-.46.13-.04.24-.07.35-.11.31-.12.42-.4.25-.7-.05-.1-.13-.2-.19-.3.82-.08,1.66-.1,2.48-.05.5.03,1,.02,1.49.06.51.04,1.04-.14,1.54-.07.44.06,1.03.11,1.47.16.49.05,1.07.15,1.54.25.69.15,1.43.29,2.12.49.63.18,1.16.37,1.78.58.97.32,1.99.71,2.9,1.18,1.7.89,2.96,2.21,4.32,3.58,1.52,1.53,2.84,3.2,3.61,5.22.31.83.68,1.76.82,2.65.06.43.18.84.25,1.27.05.34.09.73.09,1.07,0,.2.02.64.02.85Z"/>
  <path class="cls-1" d="m20.25,6.86s-.04-.05-.02-.07c.03-.02.05,0,.07.02-.02.02-.04.03-.05.05Z"/>
  <path class="cls-12" d="m32.32,25.18c-.21-.67-.57-1.25-1-1.8-.47-.6-1.03-1.09-1.66-1.51-.5-.33-1.05-.59-1.61-.83-.98-.42-2.02-.63-3.08-.7-.81-.06-1.63-.01-2.43.18-.19.04-.38.11-.58.08-.25.15-.54.18-.8.29-.61.24-1.19.52-1.73.91-.05.03-.09.06-.15.06-.03.13-.16.13-.24.21-.65.62-1.28,1.25-1.63,2.11-.24.58-.4,1.18-.41,1.81,0,.28.01.55.06.82.08.51.22,1.01.45,1.47.46.95,1.14,1.73,1.97,2.37.73.55,1.54.97,2.4,1.28,1.09.38,2.21.56,3.36.56.48,0,.96-.05,1.44-.13.46-.07.92-.18,1.37-.31.51-.15.99-.39,1.47-.63.37-.19.71-.4,1.01-.68.64-.58,1.24-1.19,1.59-2.01.22-.52.38-1.05.44-1.6.07-.66-.03-1.32-.24-1.95Zm-3.22.9h-.01c.03.16-.09.26-.17.37-.65.87-1.48,1.49-2.48,1.9-.48.2-.99.33-1.5.38-.48.05-.98.05-1.48-.03-.38-.07-.74-.19-1.09-.33.75-.06,1.5.06,2.26-.11-.03-.41-.07-.59-.08-.87-.02-.58-.05-1.17-.08-1.75-.01-.24-.06-.48-.05-.74-.45-.17-.86-.41-1.23-.72-.26-.22-.5-.47-.66-.78-.2-.38-.14-.65.21-.9.34-.23.73-.36,1.15-.37.24,0,.47-.09.72-.07.69.08,1.38.11,2.03.41.19.08.38.18.55.31.52.39.58.85.11,1.3-.45.43-.97.71-1.56.85-.11.03-.22.04-.31.13,0,.24-.01.47.04.72.05.27.01.55.02.83.03.44.02.67.07,1.32-.01.06.04.1.08.13.27-.09.54-.18.81-.29.85-.34,1.61-.85,2.3-1.44.11-.09.2-.2.34-.25h0s.01-.01.01-.01c.01-.01.02-.02.03-.04.02.04,0,.06-.03.05Z"/>
  <path class="cls-12" d="m29.09,26.08c.03.16-.09.26-.17.37-.65.87-1.48,1.49-2.48,1.9-.48.2-.99.33-1.5.38-.48.05-.98.05-1.48-.03-.38-.07-.74-.19-1.09-.33.75-.06,1.5.06,2.26-.11-.11-.3-.07-.59-.08-.87-.02-.58-.05-1.17-.08-1.75-.01-.24-.06-.48-.05-.74-.45-.17-.86-.41-1.23-.72-.26-.22-.5-.47-.66-.78-.2-.38-.14-.65.21-.9.34-.23.73-.36,1.15-.37.24,0,.47-.09.72-.07.69.08,1.38.11,2.03.41.19.08.38.18.55.31.52.39.58.85.11,1.3-.45.43-.97.71-1.56.85-.11.03-.22.04-.31.13,0,.24-.01.47.04.72.05.27.01.55.02.83.03.44.11.88.07,1.32-.01.06.04.1.08.13.27-.09.54-.18.81-.29.85-.34,1.61-.85,2.3-1.44.11-.09.2-.2.34-.25Z"/>
  <path class="cls-4" d="m33.87,23.2c.83.02,1.63.2,2.39.54.66.29,1.25.69,1.76,1.21.21.21.37.46.52.72.03.06.07.12.09.18.08.26-.02.39-.28.37-.22-.02-.43-.11-.62-.2-.5-.23-.99-.47-1.49-.71-.71-.35-1.44-.64-2.21-.84-.35-.09-.69-.21-1.01-.39-.08-.04-.15-.09-.22-.14-.26-.18-.13-.41.06-.52.21-.12.45-.18.69-.2.1-.02.21-.02.32-.02Z"/>
  <path class="cls-4" d="m11.7,23.47c-.08,0-.13.01-.19,0-.21-.03-.29-.18-.2-.38.15-.33.42-.53.7-.73.71-.51,1.5-.8,2.36-.96.49-.09.99-.1,1.49-.06.49.04.98.1,1.42.36.08.05.15.09.21.15.19.2.16.37-.07.5-.17.1-.35.15-.53.16-.26.01-.53.06-.79.09-.54.06-1.08.13-1.62.23-.74.14-1.46.37-2.19.53-.2.06-.4.14-.59.11Z"/>
  <path class="cls-2" d="m21.96,20.6c-.24.15-.53.19-.79.29-.61.24-1.2.53-1.73.91-.04.03-.09.07-.15.06-.13-.15-.27-.29-.38-.46-.56-.91-.03-2.15,1.01-2.42.68-.17,1.5.18,1.81.74.13.27.23.56.23.88Z"/>
  <path class="cls-2" d="m32.49,21.73c-.66-.42-1.17-.81-2.16-.65.5.2.89.47,1.23.82.08.08.14.16.16.28,0,.09-.02.15-.09.19-.06.04-.13.03-.19-.01-.05-.04-.1-.09-.14-.14-.47-.5-1.03-.82-1.72-.9-.15-.02-.3-.05-.45-.06-.13-.01-.21-.07-.22-.2-.01-.1.04-.16.14-.2.51-.22.94-.23,1.51-.24.15,0,.3.01.41.03.57.09,1.09.3,1.56.62.16.11.26.24.19.38-.02.05-.14.12-.23.08Z"/>
  <path class="cls-2" d="m32.48,17.86s.05,0,.07.01c.33.11.62.3.84.57.04.05.08.11.03.18-.07.08-.14.03-.2-.03-.2-.22-.43-.38-.71-.48-.03-.01-.06-.03-.09-.05-.04-.03-.05-.07-.04-.12.02-.05.06-.07.1-.08Z"/>
  <path class="cls-2" d="m19.47,13.42c0,.06-.04.09-.08.11-.3.12-.57.29-.79.54-.04.05-.1.06-.15.02-.06-.05-.06-.11-.01-.17.23-.29.52-.48.86-.59.09-.03.16,0,.17.09Z"/>
  <path class="cls-10" d="m46.03,49.64c-.27-.72-.38-1.39-.22-2.09.19-.88.6-1.62,1.28-2.2.49-.42,1.06-.7,1.69-.81.27-.05.55,0,.83-.02.65-.03,1.25.14,1.8.47.5.3,1.04.51,1.6.65.49.13,1.02.22,1.53.14.22-.03.46,0,.68-.11.06-.02.13-.03.21,0-.29.31-.63.52-.99.72-.64.36-1.33.57-2.07.67-.32.04-.65.09-.95.04-.44-.08-.88-.02-1.32-.05-.55-.04-1.06.11-1.55.31-1.03.42-1.83,1.12-2.4,2.08-.04.04-.07.09-.12.19Z"/>
  <path class="cls-10" d="m53.68,47.32c-.12.21-.31.34-.48.49-.7.63-1.49,1.12-2.35,1.5-2.05.92-3.56,2.39-4.54,4.41-.05.1-.06.22-.17.27-.12-.03-.09-.14-.12-.21-.26-.66-.37-1.35-.29-2.04.11-.89.42-1.71.98-2.43.69-.88,1.58-1.44,2.66-1.7.53-.13,1.08-.14,1.62-.07.84.11,1.66.05,2.47-.19.08-.02.15-.07.22-.03h0Z"/>
  <path class="cls-10" d="m45.04,48.82c-.1-.02-.16-.11-.23-.17-.44-.34-.93-.53-1.5-.52-.36,0-.73.02-1.09.06-.43.04-.86,0-1.29-.05-.71-.09-1.41-.26-2.08-.48-.28-.09-.54-.24-.82-.39.2,0,.39,0,.59,0,.89.06,1.77-.08,2.63-.28.62-.15,1.22-.39,1.78-.69.41-.22.85-.24,1.29-.09.66.21,1.07.81,1.09,1.5,0,.35-.02.69-.23.98-.04.04-.07.1-.14.13Z"/>
  <path class="cls-10" d="m39.18,48.32c.39.09.78.15,1.16.24.23.06.48.08.72.09.53.02,1.07,0,1.6,0,.13,0,.23-.06.35-.07,1.07-.04,2.04.48,2.38,1.71,0,.46.11.93-.12,1.37-.11,0-.14-.09-.19-.14-.43-.45-.95-.7-1.57-.81-.46-.08-.91-.22-1.34-.41-1.09-.46-2.07-1.08-2.91-1.9-.03-.03-.05-.06-.08-.09Z"/>
  <path class="cls-10" d="m50.62,56.48h-.86c-.04-.13-.02-.25-.02-.38h2.89c.18.34.37.69.58,1.07.2-.38.38-.73.56-1.08.18-.02.35-.03.52,0,0,.12-.07.2-.11.28-.12.22-.23.46-.38.66-.31.42-.45.88-.38,1.4,0,.05,0,.11,0,.15-.1.07-.19.03-.28.04-.08,0-.15,0-.26,0,0-.24,0-.48,0-.71.02-.26-.05-.47-.19-.69-.19-.31-.37-.63-.55-.95-.03-.05-.05-.1-.11-.11-.07.08,0,.19-.07.31h-.82v2.14c-.18.03-.34.02-.53,0,0-.71,0-1.41,0-2.14Z"/>
  <path class="cls-10" d="m40.68,56.09h1.76c.05.12.02.24.02.39h-1.25v.65c.37.06.76,0,1.15.03.08.11.02.23.05.38h-1.18c-.07.23-.02.44-.04.66.44.05.87,0,1.3.03.06.12.02.24.04.37h-1.86c.01-.82.01-1.65.01-2.51Z"/>
  <path class="cls-10" d="m48.47,56.93h-.47c-.08-.05-.06-.13-.09-.19-.19-.38-.69-.47-.98-.16-.37.4-.37,1.12,0,1.52.25.28.72.23.92-.09.05-.07.07-.16.11-.25.07-.05.16-.02.25-.02.08,0,.16-.02.23.02-.02.53-.42.89-.97.92-.52.03-.92-.17-1.19-.62-.06-.09-.07-.18-.09-.27-.09-.4-.09-.79.12-1.15.18-.31.44-.48.8-.58.27-.07.5.02.74.04.32.03.56.38.62.83Z"/>
  <path class="cls-10" d="m40.17,57.14v.4h-1.14c-.07.19-.03.36-.04.54,0,.18,0,.35,0,.54h-.52v-2.52h1.84v.36h-1.29c-.04.24-.02.44-.02.68.38,0,.77,0,1.17,0Z"/>
  <path class="cls-1" d="m44.79,58.19v.42h-1.85v-2.51c.16-.06.33,0,.52-.03v2.12h1.33Z"/>
  <path class="cls-1" d="m45.15,56.08h.5v2.53c-.16.02-.32.02-.5,0v-2.53Z"/>
  <path class="cls-1" d="m48.89,56.08h.5v2.53c-.16.02-.32.02-.5,0v-2.53Z"/>
  <path class="cls-2" d="m24.33,51.79c.18-.44.38-.82.71-1.11.05-.04.18-.08.23,0,.14.21-.15.48-.31.67-.31.41-.69.62-.63.43Z"/>
  <path class="cls-2" d="m25.78,50.94c.3-.09.01.51-.5.75-.09.03-.11-.06-.08-.12.12-.25.25-.51.58-.63Z"/>
  <path class="cls-2" d="m29.09,26.07c.04.17-.09.27-.17.37-.65.87-1.48,1.49-2.48,1.9-.48.2-.99.33-1.49.38-.49.05-.99.05-1.49-.03-.38-.07-.73-.18-1.09-.32.75-.07,1.5.06,2.26-.11-.05-.35-.07-.58-.08-.87-.02-.59-.06-1.17-.08-1.75-.01-.24-.05-.48-.04-.74-.45-.17-.86-.41-1.23-.72-.27-.22-.51-.47-.67-.78-.2-.38-.14-.65.21-.89.34-.24.49-.28,1.01-.39.39-.05.46-.06.86-.05.69.01,1.38.11,2.03.4.19.09.38.19.55.31.53.39.58.85.11,1.3-.44.43-.97.71-1.56.85-.11.03-.21.04-.3.13,0,.23.17,2.42.13,2.87-.01.06,0,.11,0,.16.27-.1.62-.21.89-.32.86-.34,1.61-.85,2.31-1.44.09-.09.18-.21.32-.26h0Z"/>
  <path class="cls-2" d="m29.1,26.08s.02-.03.03-.05c.02.04,0,.06-.03.05h0Z"/>
  <path class="cls-2" d="m10.01,33.06c-.83.67-1.53,1.56-2.09,2.45-1.16,1.85-1.67,4.05-1.17,6.2.39,1.67,1.33,3.15,2.46,4.42.39.44,1.02-.2.64-.64-1.67-1.88-2.8-4.3-2.26-6.85.34-1.6,1.21-3.05,2.29-4.21.24-.26.49-.51.77-.74.45-.36-.19-.99-.64-.63h0Z"/>
  <path class="cls-2" d="m10.12,38.76c-.53,1.02-.8,2.21-.95,3.34-.32,2.47.2,4.99,1.52,7.11,1.08,1.74,2.6,3.14,4.28,4.28.48.33.93-.45.46-.78-2.52-1.72-4.62-4.11-5.26-7.16-.38-1.81-.22-3.65.34-5.38.05-.15.1-.3.16-.44.02-.06.05-.12.07-.18.01-.03.02-.06.03-.08.03-.07-.05.1-.01.02.04-.09.08-.19.13-.28.27-.51-.51-.97-.77-.45h0Z"/>
  <path class="cls-2" d="m10.77,49.4c-.03.74.04,1.48.14,2.21.2,1.45.59,2.9,1.32,4.18.87,1.53,2.25,2.7,3.97,3.15,1.17.31,2.43.3,3.63.2,1.02-.08,2.03-.27,2.96-.7.71-.33,1.64-1,1.77-1.85.04-.24-.06-.48-.32-.55-.21-.06-.52.07-.55.32-.01.04-.02.08-.03.12-.01.02-.02.04-.02.06-.03.09.05-.1.01-.03-.03.06-.06.13-.1.19-.04.06-.08.12-.13.18.08-.11-.02.02-.04.04-.04.05-.09.09-.13.14-.21.2-.28.25-.55.41-.69.4-1.5.6-2.3.71-1.14.15-2.39.2-3.52,0-1.58-.3-2.88-1.23-3.73-2.59-.73-1.18-1.12-2.53-1.33-3.9-.04-.28-.07-.51-.1-.85-.02-.25-.04-.49-.05-.74-.01-.23-.01-.46-.01-.69.04-.59-.87-.58-.89,0h0Z"/>
  <path class="cls-2" d="m36,36.1c-2.54.98-5.23,1.37-7.94,1.48-1.14.05-2.29.11-3.42.05-2.17-.11-4.26-.49-6.39-1.1-3.31-.96-6.5-2.54-8.96-4.99-2.81-2.81-4.36-6.61-4.36-10.59s1.36-7.71,3.76-10.71c1.18-1.47,2.6-2.74,4.24-3.69,1.67-.96,3.51-1.47,5.4-1.81,3.62-.65,7.42-.74,11.05-.12,3.88.66,7.62,2.19,10.65,4.75.87.74,1.68,1.54,2.42,2.41.51.6,1.04,1.23,1.44,1.91.51.87.85,1.77,1.16,2.73.61,1.88.9,3.86.83,5.84-.1,2.63-.92,5.18-2.3,7.42-.68,1.11-1.48,2.13-2.4,3.05-.41.41.23,1.05.64.64,1.99-1.99,3.52-4.49,4.32-7.19.69-2.32.81-4.76.45-7.14-.25-1.65-.73-3.26-1.41-4.78-.5-1.1-1.19-2.03-1.97-2.96-2.79-3.33-6.55-5.67-10.71-6.88-3.39-.99-6.98-1.26-10.49-1.02-2.21.15-4.45.45-6.58,1.09-1.97.59-3.78,1.64-5.34,2.98-3.03,2.62-5.07,6.38-5.78,10.31-.74,4.07-.05,8.35,2.25,11.83,2.12,3.21,5.33,5.46,8.86,6.89,2.59,1.05,5.36,1.68,8.14,1.95.5.05,1,.09,1.49.1,2.37.02,4.78-.08,7.12-.48,1.39-.23,2.75-.59,4.06-1.1.55-.21.31-1.08-.23-.87h0Z"/>
  <path class="cls-2" d="m42.81,32.61c-.82,0-1.67.1-2.47.27-1.4.29-2.87.86-3.76,2.03-.83,1.08-1.04,2.69-.08,3.75.86.95,2.28,1.26,3.5,1.42,1.52.2,3.09.17,4.62.05,2.19-.17,6.08-.98,5.08-4.03-.89-2.73-4.13-3.55-6.7-3.49-.07,0-.13,0-.19,0-.58.03-.58.94,0,.9.71-.04,1.46.02,2.12.14,1.25.22,2.6.69,3.4,1.74.38.5.67,1.18.62,1.79-.02.18-.08.37-.21.57-.07.12-.3.35-.42.44-.88.65-2.14.88-3.16.99-1.3.15-2.68.19-3.99.12-1.12-.06-2.36-.21-3.34-.74-.44-.23-.77-.5-.97-.94-.07-.15-.12-.41-.12-.63,0-.3.06-.59.18-.89.45-1.2,1.73-1.82,2.88-2.15.96-.28,1.85-.4,2.84-.42h.16c.59-.01.59-.91,0-.92Z"/>
  <path class="cls-7" d="m35.78,5.91c.31-.65.77-1.15,1.34-1.58,1.41-1.04,3.15-.99,4.74-.39,1.95.74,3.73,2.11,4.84,3.88.79,1.26,1.33,2.81,1.15,4.31-.1.85-.59,1.81-1.2,2.48-.26.28-.54.53-.87.73-.1.06-.19.1-.29.16-.12.06.09-.03-.02.01-.55.19-.31,1.06.24.87,1.45-.5,2.54-2.11,2.92-3.53.42-1.59-.02-3.34-.75-4.77-1.01-1.99-2.74-3.57-4.73-4.55-1.86-.92-4.05-1.36-5.96-.32-.89.49-1.75,1.31-2.19,2.24-.25.53.53.98.78.46h0Z"/>
  <path class="cls-7" d="m6.9,11.75c-.94-.96-1.71-2.38-1.7-3.76.01-1.54,1.06-3.05,2.07-4.13,1.4-1.49,3.22-2.53,5.25-2.86,1.54-.25,3.26-.07,4.42,1.04.39.37.65.74.89,1.24.02.05.04.09.06.14-.05-.12.01.01.02.05.02.07.05.13.07.2.02.06.04.12.05.18.13.57,1,.33.87-.24-.16-.72-.6-1.42-1.09-1.96C16.66.36,14.9-.09,13.22.02c-2.3.16-4.45,1.17-6.13,2.74-1.22,1.15-2.39,2.72-2.71,4.41-.36,1.88.59,3.89,1.88,5.22.41.41,1.05-.23.64-.64h0Z"/>
  <path class="cls-15" d="m21.8,5.73c.21.37.13,1.04-.52,1.16-.13.03-.26.04-.39.02-.2-.01-.49-.07-.71-.13-.02-.02.07-.02.05,0-.03.02-.03-.09-.01-.07.12.44.15.78.13,1.03-.01.22-.09.38-.24.53-.37.36-1.01.38-1.43.04-.25-.2-.43-.46-.58-.77-.12.21-.22.4-.35.57-.32.44-.82.47-1.21.28-.45-.23-.7-.73-.56-1.18.02-.09.04-.16-.01-.26-.21.06-.42.12-.63.17-.2.01-.47-.03-.69-.31-.14-.27-.11-.56-.05-.69.14-.27.33-.5.63-.66-.3-.14-.4-.35-.36-.63.07-.35.46-.57.84-.65.22-.05.43-.12.66-.1.17.03.28-.04.35-.21.17-.37.5-.52.89-.53.11-.01.22,0,.33.01,0,0,.25.06.42.14,0,0,.26-.16.4-.22.74-.38,1.86-.09,1.66.53.48-.03,1.21.13,1.51.65.17.3.06.58-.25.7-.11.04-.22.07-.36.11.21.15.37.27.48.46Z"/>
  <path class="cls-9" d="m20.61,5.07c-.09,0-.19.03-.3.05.23.1.45.2.68.29.19.08.33.21.48.35.2.18.2.39.12.61-.08.22-.26.27-.48.28-.41.02-.78-.13-1.15-.27-.08-.03-.14-.1-.26-.06.12.29.24.57.33.87.07.21.07.42.04.62-.04.33-.51.56-.87.46-.45-.12-.68-.47-.86-.85-.09-.18-.15-.38-.25-.62-.09.21-.15.37-.22.53-.11.27-.23.52-.45.73-.23.21-.47.22-.73.1-.24-.11-.41-.29-.43-.58-.03-.32.06-.61.18-.9.03-.07.09-.13.08-.25-.19.07-.37.13-.54.21-.24.12-.49.14-.74.13-.28-.02-.44-.24-.35-.51.07-.2.18-.38.37-.5.25-.17.52-.29.83-.45-.35-.04-.85.05-.94-.27-.06-.29.25-.44.49-.53.23-.09.48-.17.74-.16.07,0,.13-.01.2-.02.21-.03.34-.1.42-.33.12-.35.56-.48.92-.33.14.06.26.17.4.24.3-.19.6-.37.95-.46.27-.06.6-.05.76.06s.17.21.04.37c-.06.06-.14.1-.17.21h.79c.25,0,.48.07.7.19.09.05.17.11.23.19.21.25.18.38-.13.47-.19.05-.71.12-.88.13Z"/>
  <path class="cls-10" d="m17.94,5.7c-.18.02-.35-.03-.51-.12-.33-.19-.39-.52-.13-.8.25-.26.56-.39.91-.41.22-.01.43,0,.64.12.39.21.35.58.13.8-.28.28-.64.4-1.04.41Z"/>
  <path class="cls-2" d="m14.88,5.29c-.5-.86-1.59-1.25-2.54-1.15-1.11.12-2.21.75-3.02,1.5-.65.6-1.11,1.41-1.11,2.31,0,.44.09.94.32,1.32.13.21.46.02.33-.2-.55-.92-.23-2.12.44-2.87.7-.79,1.76-1.44,2.8-1.65.63-.13,1.28-.04,1.82.31.24.16.48.38.61.61.14.23.48.03.35-.18h0Z"/>
  <path class="cls-2" d="m39.01,7.85s-.02.02,0-.01c.04-.03.09-.06.13-.09.15-.09.31-.16.47-.22.54-.19,1.12-.2,1.67-.05.95.26,1.73.96,2.34,1.71.59.72,1,1.64.79,2.59-.09.4-.28.83-.57,1.12-.18.18.1.45.27.27,1-1.01.89-2.61.17-3.73-.95-1.48-2.71-2.83-4.56-2.34-.35.09-.71.25-1,.48-.18.15.09.42.28.27h0Z"/>
  <path class="cls-2" d="m26.15,54.04c-1.99.37-4.08.14-5.99-.48-2.12-.68-4.13-1.87-5.58-3.58-1.48-1.74-2.15-3.98-1.93-6.25.19-1.9,1.1-3.64,2.45-4.98.7-.7,1.52-1.35,2.42-1.77.23-.11.03-.44-.2-.33h0c-.8.37-1.54.94-2.19,1.53-1.39,1.27-2.42,2.94-2.77,4.8-.43,2.3.07,4.73,1.43,6.63,1.33,1.86,3.3,3.2,5.42,4.03,2.18.85,4.62,1.21,6.94.8"/>
</svg>