<svg width="187" height="153" viewBox="0 0 212 161" fill="none" xmlns="http://www.w3.org/2000/svg">
<rect width="118" height="123" transform="translate(52 13)" fill="white"/>
<path d="M17.0217 70.759C56.5217 42.259 69.783 0.759005 96.0218 0.759033C120 0.759059 157.67 9.64597 181.522 42.259C206.022 75.759 211.022 91.2589 211.022 125.759C211.022 160.259 158.022 160.259 145.022 160.259C132.022 160.259 74.0217 146.759 45.5217 146.759C-9.98726 146.759 -8.5489 89.2087 17.0217 70.759Z" fill="#B4DBCA"/>
<path d="M170.773 107.18C168.935 105.54 166.627 104.784 164.276 105.054C162.195 105.292 159.774 105.702 157.149 106.201V40.7717C157.149 36.3174 153.525 32.6934 149.071 32.6934H136.135V24.8684C136.135 15.0025 128.108 6.97589 118.243 6.97589C108.376 6.97589 100.35 15.0025 100.35 24.8684V32.6937H87.4148C82.9605 32.6937 79.3366 36.3174 79.3366 40.7717V82.6816C73.6361 83.6769 66.3473 85.9208 60.4589 90.9431C58.5147 92.6014 56.9684 94.1684 55.7352 95.5923C54.4308 93.9622 52.4262 92.9149 50.1807 92.9149H40.0451C38.3633 92.9149 37 94.2783 37 95.96V138.979C37 139.786 37.321 140.561 37.8918 141.132C38.4631 141.703 39.2377 142.024 40.0451 142.024L50.1801 142.024C54.1025 142.024 57.2935 138.833 57.2935 134.91V132.57C60.3244 132.761 67.193 133.51 81.73 136.24C98.8969 139.463 109.609 140.555 118.048 140.555C124.097 140.555 128.979 139.994 134.231 139.255C140.724 138.341 148.889 136.031 156.094 133.993C159.429 133.049 162.579 132.159 165.367 131.456C172.878 129.561 174 124.824 174 122.169V114.412C174 111.686 172.794 108.982 170.773 107.18ZM106.44 24.8684C106.44 18.3605 111.734 13.0661 118.242 13.0661C124.75 13.0661 130.045 18.3605 130.045 24.8684V32.6934L106.439 32.6937V24.8684H106.44ZM85.4265 40.7717C85.4265 39.6757 86.3183 38.7839 87.4145 38.7839H100.35V45.5043C100.35 47.1861 101.713 48.5494 103.395 48.5494C105.077 48.5494 106.44 47.1861 106.44 45.5043V38.7839L130.045 38.7836V45.5043C130.045 47.1861 131.409 48.5494 133.09 48.5494C134.772 48.5494 136.135 47.1861 136.135 45.5043V38.7836H149.071C150.167 38.7836 151.058 39.6754 151.058 40.7717V107.122C151.058 107.221 151.064 107.319 151.073 107.415C150.613 107.51 150.152 107.605 149.687 107.701C142.297 109.225 134.656 110.801 128.805 111.166C123.752 111.483 114.548 110.165 111.821 108.736C109.982 107.773 108.953 106.591 108.377 105.547H119.719C124.398 105.547 128.205 101.74 128.205 97.0612V90.3976C128.205 85.7186 124.398 81.9122 119.719 81.9122H88.6276C88.3104 81.9027 87.1526 81.8786 85.4265 81.9766V40.7717ZM51.2035 134.911C51.2035 135.475 50.7445 135.934 50.1804 135.934L43.0902 135.934V99.0054H50.1801C50.7442 99.0054 51.2033 99.4642 51.2033 100.028V134.911H51.2035ZM167.91 122.17C167.91 122.816 167.91 124.533 163.878 125.55C161.006 126.275 157.815 127.177 154.436 128.133C147.419 130.118 139.465 132.368 133.382 133.224C121.4 134.911 111.409 135.616 82.8538 130.254C68.1677 127.497 60.8789 126.663 57.2935 126.472V103.863C57.4022 103.727 57.5031 103.582 57.5896 103.424C58.3697 102.001 60.2933 99.0887 64.4109 95.5766C73.7994 87.5683 88.313 87.9946 88.4565 88.0001C88.496 88.0016 88.5354 88.0024 88.5749 88.0024H119.719C121.04 88.0024 122.115 89.0769 122.115 90.3976V97.0612C122.115 98.3822 121.04 99.4567 119.719 99.4567H88.5749C86.8931 99.4567 85.5297 100.82 85.5297 102.502C85.5297 104.184 86.8931 105.547 88.5749 105.547H101.909C102.535 108.044 104.262 111.652 108.995 114.131C113.323 116.399 124.059 117.567 129.184 117.245C135.464 116.852 143.32 115.232 150.917 113.665C156.252 112.565 161.291 111.525 164.968 111.105C165.744 111.018 166.348 111.393 166.719 111.724C167.454 112.38 167.91 113.41 167.91 114.412V122.17H167.91Z" fill="#2B657D"/>
</svg>
