<?xml version="1.0" encoding="UTF-8"?>
<svg id="Layer_1" data-name="Layer 1" xmlns="http://www.w3.org/2000/svg" viewBox="0 0 39.86 57.59">
  <defs>
    <style>
      .cls-1 {
        fill: #447f2f;
      }

      .cls-2 {
        fill: #1e3340;
      }

      .cls-3 {
        fill: #3b2223;
      }

      .cls-4 {
        fill: #fff;
      }

      .cls-5 {
        fill: #ddd5cb;
      }

      .cls-6 {
        fill: #4f606a;
      }

      .cls-7 {
        fill: #3c2415;
      }

      .cls-8 {
        fill: #88cc86;
      }

      .cls-9 {
        fill: #3c2324;
      }

      .cls-10 {
        fill: #efefef;
      }

      .cls-11 {
        fill: #80bb44;
      }

      .cls-12 {
        fill: #41a8a4;
      }

      .cls-13 {
        fill: #255b7c;
      }

      .cls-14 {
        fill: #010101;
      }

      .cls-15 {
        fill: #fefefe;
      }
    </style>
  </defs>
  <path class="cls-13" d="m.84,5.08l.31,3.21,1.11,7.44,2.94-.8s8.6-2.63,8.73-2.63,19.78,3.25,19.78,3.25c0,0,2.72-8.11,1.92-9.89,0,0-1.02-3.39-11.45-1.34l-9.13.45-3.43-.89-2.05.09s-2.32-.67-4.54-.22c-2.22.45-4.19,1.33-4.19,1.33Z"/>
  <path class="cls-12" d="m2.91,33.92l-.16,2.02.03,1.75-.25,1.37,1.28.34,2.73-.13s.71,0,.76-.03.42-1.63.42-1.63l-.79-.31-2.33-1.84-1.04-1.01-.64-.52h-.01Z"/>
  <path class="cls-12" d="m2.21,41.86l2.84-.77,2.54.5,1.2,3.19,1.31,2.05s1.53,1.56,1.72,1.66.91.73.91.73c0,0-.13.67-.12.73s-4.74,1.32-4.74,1.32l-3.42-.74s-2.6.1-2.78.1-.53-.42-.52-.46,1.05-8.32,1.05-8.32h0Z"/>
  <path class="cls-12" d="m34.48,41.25l1.13,9.42-1.54.53s-8.15.36-8.14.25.48-1.44.48-1.44l1.77-2.18s.4-1.51.45-1.63-.07-1.31-.07-1.31l-.18-.52s1.26-2.06,1.29-2.12.31-.79.31-.79l4.51-.27"/>
  <path class="cls-8" d="m11.69,34.46s-.55.08-.49.31.28.4.28.4l-.02.3-.04.61.12.41.35.2.45.12.39-.08.46-.19.49.21.48.2.66.13.4-.08.13-.12.48.14.5.33.49.25.72.28.57.06s.3-.09.38-.16.28-.26.28-.26l.07-.29-.19-.32s-.42-.39-.39-.61l.33-.09s.41-.28.45-.3.29-.33.29-.33l-.1-.38-1.49-.09-4.24-.56-1.57-.26-.21.14-.03.03Z"/>
  <polyline class="cls-1" points="36.8 33.3 39.74 26.48 33.9 24.14 33.66 24.61 30.83 24.55 30.57 24.04 26.18 25.94 25.75 25.54 21.46 30.19 21.69 30.46 19.97 35.51 28.02 37.96 28 36.04 28.42 34.82 28.97 34.02 29.53 33.25 30.41 32.59 31.3 32.09 32.18 31.7 33.04 31.54 34.06 31.51 34.79 31.75 35.58 32.18 36.66 33.03 36.78 33.35"/>
  <g>
    <path class="cls-2" d="m32.45,15.52s-2.96-.69-6.22-.45-6.24.82-6.24,1.43,1.02,3.83,1.02,3.83c0,0,.67,1.31,1.2,1.51s3.83.22,3.83.22h2.03l1.43-1.58s2.72-3.45,2.83-3.54.74-1.34.11-1.43h0Z"/>
    <path class="cls-2" d="m4.5,15.52s2.96-.69,6.22-.45,6.24.82,6.24,1.43-1.02,3.83-1.02,3.83c0,0-.67,1.31-1.2,1.51s-3.83.22-3.83.22h-2.03l-1.43-1.58s-2.72-3.45-2.83-3.54-.74-1.34-.11-1.43h0Z"/>
  </g>
  <path class="cls-13" d="m34.46,39.18c.15,1.5.29,3,.47,4.49.24,2.07.52,4.14.84,6.2.23,1.47.47,2.94.74,4.41.04.2.07.42-.17.56-.1.06-.05.15-.03.23.09.33.19.66.27.99.13.57-.08,1.04-.44,1.46-.04.05-.09.09-.16.06-.07-.04-.07-.09-.04-.16.21-.62.1-1.21-.11-1.8-.07-.2-.13-.4-.15-.61,0-.13-.08-.19-.21-.21-.07,0-.14,0-.21-.03-.45-.09-.47-.08-.3.36.22.58.26,1.13-.11,1.67-.07.1-.15.2-.23.29-.03.04-.07.09-.14.05-.05-.03-.05-.08-.03-.12.24-.7.06-1.36-.17-2.02,0-.03-.02-.06-.03-.09-.07-.14,0-.35-.14-.43-.2-.11-.44-.16-.66-.22-.15-.04-.09.08-.07.15.08.27.18.53.23.8.1.54-.04,1.02-.4,1.43-.05.06-.11.15-.21.09-.11-.06-.03-.15,0-.23.15-.51.09-1.02-.07-1.51-.08-.25-.18-.5-.22-.76v-.02c0-.1-.08-.13-.17-.12-.2.02-.41-.12-.61,0-.04.03,0,.1.01.15.07.25.15.51.22.76.2.64,0,1.18-.43,1.65-.03.04-.07.1-.13.07-.08-.04-.04-.1-.03-.16.18-.6.1-1.18-.11-1.76-.06-.17-.12-.35-.15-.54-.02-.12-.07-.16-.19-.14h-.07c-.56.14-.6,0-.41.65.11.39.27.78.24,1.2-.03.39-.2.71-.45,1-.05.05-.1.11-.18.07-.09-.04-.05-.11-.03-.18.16-.56.11-1.11-.08-1.65-.07-.2-.14-.41-.18-.63-.03-.15-.08-.13-.18-.1-.1.04-.21.07-.31.1-.35.11-.36.11-.26.48.11.42.31.81.28,1.27-.03.43-.22.77-.51,1.07-.04.04-.08.09-.14.05s-.04-.09-.02-.14c.2-.62.1-1.21-.12-1.8-.06-.15-.12-.31-.13-.47,0-.23-.13-.24-.3-.22-.1,0-.2.03-.3.04q-.32.02-.23.34c.1.36.27.71.26,1.11,0,.45-.19.81-.49,1.13-.04.04-.08.11-.15.08-.09-.04-.04-.12-.02-.18.16-.54.11-1.07-.07-1.6-.08-.24-.18-.48-.21-.74,0-.03,0-.06-.03-.09-.03-.04-.73-.15-.77-.11-.07.05-.03.11-.02.17.07.24.16.47.21.71.14.56.02,1.06-.36,1.5-.06.07-.12.17-.23.11-.11-.06-.03-.15,0-.23.15-.55.08-1.08-.1-1.6-.08-.23-.15-.46-.19-.7,0-.04-.01-.08-.03-.11-.02-.05-.76-.3-.8-.29-.08.03-.05.08-.04.13.06.21.13.41.19.62.17.64.06,1.2-.42,1.67-.04.04-.08.11-.16.07-.08-.05-.03-.11-.01-.17.18-.58.09-1.15-.1-1.72-.08-.23-.17-.45-.19-.7,0-.09-.05-.14-.14-.15h-.02c-.8-.11-.65-.12-.48.55.08.29.19.57.19.88,0,.46-.22.82-.51,1.14-.03.04-.07.1-.13.06-.08-.04-.04-.11-.02-.16.18-.56.1-1.1-.07-1.65-.08-.25-.18-.5-.21-.76,0-.09-.05-.12-.14-.11-.18.02-.35.04-.53.06-.15.02-.2.09-.16.24.08.27.16.54.24.8.18.61.11,1.17-.32,1.66-.06.07-.11.17-.23.12-.13-.07-.03-.17,0-.25.13-.49.09-.97-.06-1.45-.08-.26-.17-.52-.23-.78-.03-.12-.07-.13-.17-.09-.17.07-.33.13-.51.18-.18.04-.21.15-.17.29.08.28.17.57.25.85.17.6.1,1.16-.32,1.64-.06.07-.12.18-.22.12-.09-.05-.04-.16-.02-.23.16-.58.05-1.14-.13-1.69-.07-.21-.15-.41-.17-.63,0-.12-.07-.14-.17-.13-.22.03-.43.06-.65.08-.12,0-.12.06-.09.15.07.25.14.49.22.74.2.64.1,1.21-.37,1.71-.05.06-.1.14-.19.09s-.03-.13,0-.19c.15-.5.11-1-.04-1.49-.09-.3-.22-.58-.25-.9,0-.06-.03-.1-.1-.11-.25-.03-.49-.06-.74-.08-.14,0-.09.09-.07.16.08.26.19.51.24.78.12.59-.03,1.11-.47,1.53-.04.04-.07.1-.14.06-.06-.03-.04-.1-.03-.15.22-.71,0-1.37-.19-2.05-.1-.37-.23-.58-.61-.63-.13-.02-.29-.18-.38-.1-.11.1.03.27.07.41.12.39.26.76.18,1.18-.06.33-.22.61-.44.86-.05.06-.12.11-.2.06-.09-.05-.03-.13-.01-.19.16-.53.11-1.05-.06-1.56-.09-.29-.2-.57-.23-.88,0-.05-.01-.1-.06-.12-.22-.06-.44-.11-.66-.09-.12,0-.07.13-.06.19.07.27.17.53.24.8.16.62-.03,1.15-.46,1.6-.03.03-.07.07-.12.05-.07-.03-.06-.09-.04-.14.28-.85-.04-1.63-.3-2.4-.09-.26-.41-.04-.62-.05-.14,0-.19.09-.16.22.05.2.1.41.16.61.06.23.15.46.18.7.07.53-.13.96-.46,1.34-.05.06-.11.08-.19.04-.07-.04-.04-.1-.02-.16.15-.5.13-1-.02-1.49-.09-.3-.21-.6-.26-.92-.02-.11-.06-.14-.15-.1-.18.06-.37.13-.55.2-.14.05-.1.16-.09.25.05.29.16.57.25.85.2.62.08,1.18-.34,1.68-.05.06-.11.17-.2.12-.1-.05-.03-.15-.01-.23.13-.55.08-1.09-.11-1.63-.08-.24-.17-.47-.2-.72-.01-.11-.06-.13-.16-.12-.18.02-.37.04-.56.06-.14.02-.15.11-.12.22.09.33.2.65.27.99.1.53-.08,1-.42,1.4-.04.05-.11.11-.18.07-.1-.05-.05-.13-.03-.2.15-.58.09-1.14-.11-1.69-.06-.16-.1-.33-.15-.49-.02-.06-.02-.12-.05-.18-.03-.08-.74-.16-.78-.09-.03.06,0,.14.02.2.09.28.2.56.23.85.06.51-.13.93-.45,1.3-.04.05-.11.1-.18.07-.08-.04-.05-.13-.04-.19.18-.63.05-1.22-.12-1.83-.12-.43-.29-.7-.76-.73-.08,0-.15-.04-.24-.07-.03.18.06.32.11.47.16.45.21.91.01,1.36-.08.2-.21.36-.35.52-.04.05-.1.08-.17.05-.06-.03-.06-.1-.04-.14.24-.71.04-1.38-.19-2.04,0,0,0-.03-.01-.05-.07-.13,0-.34-.14-.4-.19-.08-.4-.1-.61-.13-.14-.02-.09.11-.07.17.06.23.12.47.2.69.22.63.09,1.19-.34,1.69-.05.06-.1.17-.2.11-.08-.05-.02-.14,0-.21.12-.5.1-1-.05-1.49-.09-.3-.21-.59-.25-.9-.01-.09-.05-.12-.13-.12-.18.02-.36.03-.53.04-.15,0-.2.08-.16.23.11.4.23.79.32,1.19.12.55-.13,1-.49,1.39-.04.04-.08.08-.14.05-.06-.03-.05-.1-.03-.15.2-.67.08-1.31-.15-1.94-.06-.15-.1-.31-.12-.47-.02-.13-.08-.15-.19-.11-.2.07-.41.15-.61.22-.1.04-.09.1-.07.19.07.41.26.78.33,1.19.08.53-.09.98-.43,1.38-.05.06-.11.12-.2.07-.08-.04-.04-.13-.03-.19.14-.58.11-1.15-.1-1.72-.06-.17-.11-.36-.14-.54-.02-.13-.08-.17-.21-.15-.18.03-.37.07-.55.09-.12,0-.11.06-.1.15.07.39.25.75.31,1.14.08.53-.09.98-.43,1.37-.05.06-.12.12-.2.07-.07-.05-.04-.13-.02-.19.13-.57.11-1.14-.1-1.69-.07-.2-.13-.4-.16-.61,0-.1-.04-.19-.15-.24-.12-.05-.12-.17-.12-.28.02-.42.13-.83.21-1.24.26-1.44.51-2.89.73-4.34.17-1.15.35-2.3.5-3.46.14-1.1.27-2.2.39-3.31.13-1.2.25-2.39.36-3.59.07-.76.1-1.52.16-2.28.07-.92.13-1.84.14-2.77.15.24.31.49.46.73-.03.6-.05,1.21-.11,1.81-.02.24-.03.48-.04.72-.06.69-.11,1.38-.17,2.08,0,.16-.05.32-.06.48,0,.41-.06.81-.1,1.22-.05.47-.14.94-.13,1.42-.03.21-.07.43-.09.64-.11.96-.21,1.92-.34,2.88-.17,1.29-.37,2.57-.55,3.86-.09.64-.06.68.55.41,1.01-.44,2.06-.61,3.16-.57.74.03,1.46.17,2.16.44,1.01.39,2.03.45,3.09.29.72-.11,1.36-.48,2.07-.63.04.3.11.6.2.89.25.87.65,1.66,1.27,2.33.56.61,1.24,1.03,1.98,1.38,1.43.68,2.92.82,4.44.44.75-.18,1.35-.6,1.65-1.35.04-.1.13-.11.2-.13,1.05-.28,2-.76,2.87-1.41.6-.45,1.15-.95,1.7-1.45h.82c.72,0,1.41-.12,2.07-.4,1.26-.53,2.54-.55,3.85-.23.52.13,1.01.35,1.53.51.14.04.2.05.17-.14-.21-1.39-.41-2.79-.59-4.19-.15-1.21-.3-2.43-.43-3.65,0-.02-.03-.04-.03-.06-.04-.45-.09-.9-.13-1.35-.03-.37-.08-.73-.09-1.1.12-.14.28-.21.45-.28l-.08.09Z"/>
  <path class="cls-13" d="m1.02,7.8c-.09-.53-.18-1.05-.27-1.58-.12-.7-.24-1.41-.36-2.11-.02-.12-.05-.25.03-.34.17-.2.11-.4.06-.61-.04-.16-.08-.32-.13-.47-.18-.62-.04-1.18.27-1.72.04-.07.08-.17.19-.11.1.05.03.14,0,.21-.14.4-.09.8.02,1.19.11.36.24.72.29,1.1.02.11.05.15.16.11.1-.03.21-.04.32-.06q.39-.09.3-.48c-.09-.35-.18-.71-.16-1.08.03-.39.12-.77.32-1.11.03-.05.06-.15.15-.11.09.04.05.12.03.18-.15.45-.07.89.06,1.33.08.28.2.56.24.85,0,.08.05.11.13.08.22-.06.43-.12.65-.18.13-.03.11-.12.09-.22-.06-.27-.13-.54-.18-.82-.11-.55.06-1.03.37-1.47.03-.04.06-.11.12-.09.08.03.03.11.02.16-.13.43-.08.85.05,1.26.1.3.21.6.25.92.01.13.1.13.18.11.16-.03.32-.05.49-.04.15,0,.2-.06.17-.19-.05-.25-.11-.5-.15-.75-.08-.43-.06-.85.1-1.26.01-.04.02-.08.04-.11.07-.1.14-.29.28-.24.14.05.01.2,0,.3-.07.36,0,.71.1,1.06.1.34.23.68.27,1.04.01.13.06.21.22.21.12,0,.25.02.37.06.2.06.22-.03.19-.19-.07-.32-.15-.63-.2-.96-.09-.51.05-.97.36-1.37.03-.04.07-.1.13-.07.08.03.04.11.02.16-.15.49-.06.97.1,1.44.12.35.23.69.24,1.06,0,.1.04.14.13.17.22.07.44.15.66.22.11.04.15.02.12-.1-.06-.27-.12-.54-.18-.82-.08-.36-.1-.72-.03-1.09.05-.24.19-.42.34-.6.04-.05.09-.1.16-.06.08.04.04.1.02.16-.15.42-.12.84.01,1.26.13.43.29.85.31,1.31,0,.1.06.14.15.14.14,0,.28.04.42.05.33.02.34,0,.27-.32-.05-.23-.13-.46-.19-.7-.18-.6-.07-1.14.34-1.61.05-.05.09-.15.18-.1.09.05.01.12,0,.18-.14.42-.09.83.03,1.24.11.36.26.72.29,1.1,0,.12.07.16.2.16.67-.03.75-.13.53-.77-.21-.62-.23-1.2.18-1.75,0,0,.02-.03.03-.04.07-.06.11-.22.22-.17.12.06.01.18,0,.27-.08.34-.07.68.02,1.01s.19.66.28.99c.03.12.08.13.18.09.16-.06.32-.12.49-.16.13-.03.18-.1.14-.23-.07-.25-.15-.49-.21-.74-.15-.61,0-1.14.44-1.58.02-.02.05-.04.07-.06.01,0,.03,0,.04,0,0,0,.03.02.03.03-.21.57-.12,1.13.08,1.69.06.18.12.37.16.56.03.12.06.21.21.14h.07c.39-.04.54-.25.45-.63-.08-.34-.22-.66-.2-1.02.02-.4.2-.73.46-1.02.03-.04.07-.1.13-.06.06.03.02.1,0,.15-.14.47-.09.94.06,1.4.11.32.22.63.24.97,0,.12.07.17.19.18.16,0,.32.04.48.07.13.02.18-.02.14-.15-.06-.24-.12-.48-.19-.72-.18-.61-.07-1.15.36-1.63.04-.04.08-.12.15-.08s.03.11,0,.17c-.14.47-.08.94.08,1.4.11.32.22.63.24.97.01.15.07.23.23.26.2.04.39.11.58.19.14.05.17,0,.14-.12-.08-.3-.17-.6-.24-.9-.12-.54.03-1.02.38-1.43.04-.05.08-.14.16-.11.09.04.02.12,0,.18-.11.4-.1.8.03,1.2.13.42.27.83.31,1.26.01.12.06.18.19.19.19.02.37.05.55.08.13.02.18-.03.17-.17-.03-.3-.14-.57-.22-.86-.16-.59-.03-1.11.36-1.57.04-.04.08-.12.15-.09.08.04.04.12.02.19-.13.43-.09.86.05,1.28.11.33.22.66.26,1.01.01.14.06.23.23.17.11-.04.23-.03.34-.05q.36-.07.27-.44c-.09-.38-.25-.75-.22-1.16.02-.41.2-.74.45-1.05.03-.04.06-.07.12-.05.07.03.06.09.04.14-.17.51-.09,1.01.08,1.51.07.2.12.42.17.63.03.17.11.2.25.13.11-.05.22-.09.33-.13q.32-.11.26-.44c-.07-.34-.2-.67-.24-1.02-.06-.51.15-.92.48-1.29.03-.03.05-.06.1-.04.06.02.06.07.04.12-.21.6-.06,1.16.14,1.73.07.19.11.39.14.59.02.1.06.13.16.12.07,0,.14-.03.21-.04q.52-.05.39-.57c-.06-.25-.16-.48-.19-.74-.06-.52.11-.95.45-1.32.03-.04.07-.1.13-.06s.03.1.01.15c-.15.47-.1.94.06,1.4.11.32.21.63.24.97,0,.1.06.13.15.13.16,0,.33.02.49.05.13.02.16,0,.13-.13-.06-.36-.2-.7-.27-1.06-.09-.54.14-.97.45-1.37.03-.05.08-.08.14-.04.04.03.03.08.02.13-.18.53-.08,1.04.09,1.55.1.3.2.61.21.93,0,.1.04.16.14.18.18.04.36.11.54.16.11.03.16.02.13-.12-.04-.22-.11-.44-.18-.65-.17-.62-.09-1.18.34-1.68.04-.05.07-.12.15-.08s.04.1.02.16c-.15.45-.1.9.04,1.35.12.38.26.75.27,1.15,0,.08.04.14.11.15.18.04.37.07.55.11.16.03.19-.05.16-.18-.05-.27-.14-.53-.22-.78-.2-.59-.12-1.13.29-1.61.06-.06.11-.16.21-.12.13.05.03.15.01.22-.09.44-.08.88.07,1.31.12.35.24.71.26,1.08,0,.1.05.14.14.13.21-.02.42-.03.63-.05.12,0,.11-.1.1-.19-.05-.4-.23-.76-.28-1.15-.07-.52.12-.96.45-1.35.03-.04.07-.07.12-.05.07.03.05.08.03.14-.16.5-.1,1,.08,1.48.09.24.16.49.2.74.02.16.07.23.25.16.69-.26.62-.04.45-.84-.04-.2-.12-.4-.17-.61-.13-.56.09-1.02.43-1.44.03-.04.08-.09.14-.05s.03.09,0,.14c-.18.44-.12.87.02,1.29.1.31.21.62.25.94.02.13.07.2.22.14.06-.03.14-.03.21-.04q.38-.08.3-.47c-.07-.33-.21-.64-.25-.97-.06-.51.13-.94.46-1.32.03-.03.07-.07.12-.05.07.03.04.09.02.14-.19.55-.06,1.07.11,1.59.09.27.18.53.19.81,0,.11.04.15.15.15h.49c.13,0,.15-.04.13-.17-.06-.35-.18-.68-.26-1.01-.14-.56.06-1.02.4-1.44.04-.05.08-.11.15-.08.09.04.03.11,0,.16-.15.48-.09.95.07,1.42.12.35.24.71.25,1.09,0,.1.05.14.14.16.1.02.2.04.3.06.27.06.36-.05.29-.32-.06-.21-.13-.42-.17-.63-.13-.56.08-1.02.45-1.43.03-.03.06-.05.1-.04,0,0,.02.03.02.04-.21.66,0,1.27.19,1.89.06.18.12.36.12.54,0,.23.11.3.29.33.16.03.37.19.48.08.11-.12-.02-.34-.07-.5-.13-.4-.24-.79-.12-1.21.09-.31.26-.57.52-.8.02.04.04.06.04.08-.18.57-.06,1.12.12,1.67.08.23.15.46.18.7,0,.11.03.21.18.26.19.06.2.27.17.44-.16.89-.32,1.79-.48,2.68-.05.27-.06.54-.15.8-.04-.04-.09-.07-.12-.11-.69-.94-1.55-1.7-2.55-2.29-1.38-.82-2.84-1.32-4.48-1.11-.82.1-1.56.41-2.16,1-.65.65-1.1,1.42-1.36,2.3-.04.15-.07.43-.24.38-1.77-.49-3.7-.87-5.53-.94-1.27-.04-2.44-.08-3.7.04-1.17.12-2.34.3-3.48.58-.17.04-.24.02-.28-.15-.12-.42-.29-.82-.52-1.19-.3-.51-.65-.99-1.13-1.35-1.03-.76-2.2-.91-3.42-.72-1.74.27-3.22,1.11-4.5,2.3-.5.47-.93,1-1.32,1.57h0Z"/>
  <path class="cls-9" d="m3.13,34.32c-.15-.24-.31-.49-.46-.73-.54-.94-.98-1.93-1.26-2.98-.46-1.73-.57-3.46.03-5.18.04-.12.02-.23,0-.34-.27-.93-.42-1.88-.5-2.84-.08-.91-.03-1.82,0-2.72,0-.32.09-.63.14-.94.14-.27.41-.43.58-.68.04-.06.09-.11.17-.1v.12c-.18.75-.29,1.52-.32,2.29-.04,1.08-.02,2.17.17,3.25.17.9.39,1.78.73,2.63.74,1.88,1.89,3.48,3.43,4.78,1.86,1.58,4.01,2.59,6.36,3.2.7.18,1.4.34,2.11.45.48.07.95.15,1.43.19.53.04,1.05.12,1.58.13.95.02,1.91.02,2.86-.04-.05.17-.11.34-.16.51-.02.08-.06.16.04.2.22.09.45.17.68.25,0,.08.06.1.11.14.4.3.77.63,1.12.99.77.77,1.38,1.63,1.66,2.7.15.61.2,1.21.08,1.84-.07.36-.16.72-.26,1.07.16.02.3.07.46.06.12,0,.33.02.33.12,0,.16-.19.16-.32.16-.67.02-1.33.14-1.97.34-1.68.54-2.89,1.62-3.63,3.23-.29.63-.41,1.29-.34,1.98.08.76.35,1.46.65,2.15.26.6.61,1.15,1.12,1.59.36.31.77.51,1.27.48.58-.03,1.13-.16,1.66-.36,1.85-.69,3.29-1.91,4.47-3.46.57-.75,1.14-1.51,1.21-2.51.02-.34.06-.68-.03-1.02-.05-.18-.1-.22-.26-.07-.61.59-1.28,1.11-2.03,1.53-.34.19-.72.26-1.09.37-.06.02-.17.05-.21-.04-.04-.09,0-.18.09-.24.02,0,.04-.02.06-.04,1.06-.67,2.09-1.36,2.98-2.27.78-.8,1.29-1.74,1.69-2.75.24-.59.34-1.22.45-1.84.02-.1,0-.13-.1-.17-.83-.32-1.44-.89-1.87-1.68-.03-.07-.06-.14-.09-.21-.05-.21-.1-.42-.2-.62,0-.11.03-.23-.04-.33-.02-.47,0-.94.12-1.41.2-.85.65-1.57,1.19-2.24.09-.09.18-.18.28-.27.14-.13.28-.25.42-.38.05-.04.1-.09.14-.13.28-.19.56-.37.85-.56.1-.03.2-.06.27-.15.21-.05.4-.15.6-.24.07-.02.13-.05.2-.07.2-.05.4-.11.6-.16.11-.02.22-.04.33-.05.2-.02.4-.03.6-.05h.24c.28,0,.56.05.83.09.09.06.18.05.28.06.2.08.41.15.61.23.11.09.23.15.37.19.19.16.38.31.56.47.06.1.14.17.23.24.13.19.25.37.38.56.04.07.07.13.11.2.72,1.85.13,3.4-1.08,4.81-.39.46-.88.81-1.37,1.15-.16.07-.33.15-.45.28-.06-.09-.11,0-.16,0-.79.37-1.61.58-2.49.56-.22,0-.44-.04-.67-.05-.07,0-.15-.02-.16.11-.06.62-.21,1.23-.41,1.82-.02.06-.04.12-.06.18-.37.88-.8,1.72-1.42,2.45-.08.1-.13.17,0,.28.15.13.23.31.26.51.09.52.01,1.02-.08,1.53-.13.73-.56,1.31-.96,1.9-.31.46-.68.89-1.02,1.33-.55.5-1.1,1-1.7,1.45-.87.65-1.82,1.13-2.87,1.41-.08.02-.16.03-.2.13-.3.75-.9,1.16-1.65,1.35-1.53.38-3.01.23-4.44-.44-.74-.35-1.42-.76-1.98-1.38-.62-.68-1.01-1.46-1.27-2.33-.08-.29-.15-.58-.2-.89-.02-.11-.11-.14-.19-.19-1.95-1.42-3.44-3.2-4.34-5.46-.21-.53-.34-1.07-.51-1.61,0-.06,0-.12-.02-.18-.12-.45-.17-.92-.21-1.39-.05-.51-.03-1.02-.03-1.53.04-.41.08-.82.12-1.22.02-.13-.02-.2-.15-.23-1.23-.34-2.21-1.07-3.07-1.97-.38-.39-.68-.84-1.03-1.26l.02-.04Zm10.42,2.21s.03.03.05.04c.41.27.86.39,1.35.41.26,0,.31-.06.17-.29-.24-.4-.22-.78.05-1.14.19-.26.2-.26-.13-.31-.48-.04-.96-.14-1.44-.22-.24-.04-.32,0-.37.24-.04.19-.07.38-.11.57-.09.34.02.53.43.7h0Zm-.74-1.12c-.1-.08-.26-.07-.36-.18.15-.05.28,0,.4,0,.09-.05.12-.06.19,0,.06-.1-.01-.13-.09-.17-.03-.02-.07-.02-.11-.03-.42-.22-.83-.3-1.32-.28-.15,0-.17,0-.11.13.04.09.03.21.15.2.14,0,.11.07.1.14-.01.08-.04.15-.06.22-.13.21-.16.43-.08.66.02.06.02.15.09.14.07,0,.09-.05.1-.12.14-.19.35-.12.52-.05s.34.13.51.2c.14.05.26.1.19-.15-.03-.1-.02-.22,0-.32.06-.19,0-.31-.15-.41h.03Zm2.89,1.5c.58.28,1.21.26,1.82.21.41-.04.67.07.78.47.05.19.12.19.24.07.21-.27.22-.39,0-.63-.18-.21-.39-.4-.44-.69-.02-.09-.05-.2.1-.25,0,.14.06.21.2.12.24-.15.47-.3.71-.45.11-.07.1-.14-.02-.2-.11-.05-.23-.08-.36-.08-.87,0-1.74,0-2.6-.09-.17,0-.34-.05-.5.04-.19.07-.27.23-.34.4.09.05.17.02.26.03.13.02.26.06.39.17-.19.05-.37-.04-.52.07-.13.02-.27.07-.22.23.17.18.06.36.35.46l.14.13ZM1.69,26.76v.19s-.05.09-.03.14c-.14.92-.02,1.84.18,2.73.28,1.22.72,2.39,1.38,3.47.54.89,1.13,1.74,1.91,2.43.64.58,1.34,1.07,2.2,1.28.21.05.24-.02.29-.19.28-.94.67-1.83,1.26-2.62.06-.08.1-.21.23-.12.11.08.02.17-.03.24-.39.67-.68,1.39-.89,2.13-.25.86-.39,1.73-.4,2.63-.02.94.01,1.87.22,2.78.24,1.06.61,2.08,1.16,3.03,1.48,2.54,3.6,4.33,6.34,5.38.11.04.31.07.26.23-.06.16-.22.04-.34.02h-.02c-.73-.21-1.43-.5-2.11-.85-.06-.03-.12-.1-.19-.03-.06.05.01.11.02.17.04.24.14.47.22.7.25.72.63,1.37,1.21,1.88.51.46,1.08.82,1.72,1.09.6.26,1.2.49,1.86.53.76.04,1.53.05,2.27-.18.4-.12.75-.33,1.04-.69h-.52c-.35,0-.69-.03-1.02-.18-.57-.26-.95-.72-1.31-1.2-.49-.67-.79-1.43-1.01-2.23-.03-.1,0-.25-.16-.28-.46-.08-.9-.19-1.34-.34-2.24-.72-4.07-1.97-5.37-3.96-.58-.88-.99-1.84-1.27-2.86s-.42-2.05-.38-3.11c.01-.33.06-.66.09-.99.07-.6.25-1.18.46-1.75.25-.66.57-1.29.98-1.87.06-.08.07-.13-.04-.16-.98-.33-1.91-.76-2.81-1.27-2.6-1.48-4.58-3.54-5.77-6.3-.04-.1-.04-.28-.16-.27-.14.02-.04.2-.09.3-.05.02-.04.06-.02.1h-.02Zm15.65,21.53c.06-.19.03-.38.01-.57,0-.32.07-.63.15-.93.54-1.89,2.37-4.05,5.19-4.25.15,0,.38.07.47-.18.24-.67.37-1.35.29-2.07-.09-.85-.41-1.59-.89-2.26-.76-1.07-1.77-1.85-2.87-2.52-.04-.03-.1-.05-.15-.05s-.12-.02-.08.08c.06.19-.06.29-.2.38-.24.15-.48.3-.72.44-.17.1-.12.17.03.31.1.1.21.17.31.27.23.24.14.57-.1.8-.32.3-.72.37-1.13.28-.7-.16-1.35-.46-1.96-.84-.15-.09-.28-.17-.43,0-.06.06-.15.03-.23.03-.56.03-1.04-.2-1.53-.41-.2-.09-.41-.09-.61,0-.26.11-.51.12-.78.09-.45-.05-.74-.28-.81-.62-.04-.2,0-.39.05-.58.07-.25.02-.47-.17-.66-.3-.32-.27-.36.03-.54-.25-.15-.26-.13-.36.02-.89,1.28-1.4,2.71-1.52,4.27-.07.9.02,1.79.22,2.67.37,1.61,1.01,3.09,2.09,4.35,1.49,1.75,3.44,2.7,5.64,3.2.06,0,.15.03.11-.07-.07-.19-.05-.38-.06-.58v-.04Zm10.86-11.88c.04.25.01.45.06.65.23,1.15.93,1.89,2.01,2.26.75.26,1.51.25,2.28.07,1.15-.27,2.12-.84,2.9-1.71.84-.94,1.36-2,1.22-3.31-.09-.9-.51-1.6-1.25-2.09-.93-.62-1.98-.67-3.02-.45-1.13.24-2.11.82-2.9,1.67-.77.84-1.25,1.81-1.31,2.91h0Zm-11.59.94c.4.26.82.41,1.28.44.1,0,.22.04.26-.09.04-.11-.01-.21-.08-.3-.08-.11-.2-.17-.32-.16-.38.04-.76.08-1.15.11h0Zm-3.65-.83c-.34-.13-.62-.23-.91-.34-.15-.05-.22.02-.24.16-.03.18.08.27.23.32.31.1.59.03.92-.14Z"/>
  <path class="cls-3" d="m1.02,7.8c.39-.56.81-1.1,1.32-1.57,1.28-1.19,2.75-2.03,4.5-2.3,1.22-.19,2.39-.04,3.42.72.48.36.83.83,1.13,1.35.22.38.4.77.52,1.19.05.17.12.19.28.15,1.15-.28,2.31-.47,3.48-.58,1.26-.13,2.53-.16,3.79-.12,1.83.06,3.66.53,5.43,1.02.16.05.19-.24.24-.38.26-.88.7-1.66,1.36-2.3.6-.59,1.34-.89,2.16-1,1.63-.21,3.1.29,4.48,1.11,1,.6,1.86,1.35,2.55,2.29.03.04.08.07.12.11.26.47.57.91.77,1.41.44,1.1.62,2.21.21,3.36-.21.6-.62,1.07-1.03,1.54-.29.33-.62.61-.94.91-.26.1-.08.22,0,.34.2.46.41.92.57,1.4.03.09.04.18.07.27-.13-.05-.15-.18-.22-.28-.23-.33-.43-.69-.72-.98,0-.14-.07-.23-.21-.23-.08,0-.12-.06-.17-.1.03-.09-.04-.15-.07-.21-.63-1.21-1.45-2.28-2.44-3.22-2.17-2.06-4.79-3.23-7.67-3.88-1.04-.24-2.1-.37-3.17-.48-.67-.07-1.34-.04-2.02-.08-.8-.05-1.61,0-2.41.08-.69.07-1.39.13-2.08.23-1.38.2-2.72.54-4.02,1.03-2.01.75-3.8,1.84-5.29,3.39-.91.94-1.64,2.01-2.19,3.19-.12.07-.3.08-.29.29-.22.23-.38.5-.56.75-.14.2-.23.44-.42.6.11-.52.34-1,.51-1.5.08-.17.16-.33.25-.5.05-.1.04-.17-.06-.24-.1-.06-.17-.16-.28-.2h0s-.02-.03-.03-.05c-.28-.29-.56-.58-.83-.88C.05,12.33-.16,11.04.21,9.62c.17-.65.47-1.25.81-1.83h0Zm-.37,3.08c-.03.4.05.78.2,1.14.35.83.98,1.43,1.62,2.02.11.1.16.07.22-.04.3-.54.65-1.06,1.05-1.54.11-.14.1-.2-.03-.31-.53-.49-.66-1.13-.57-1.8.1-.72.45-1.35.96-1.86.97-.97,2.08-1.56,3.51-1.29.62.12,1.11.43,1.4.99.09.17.16.19.33.11.49-.23,1.01-.4,1.52-.57.15-.05.36-.06.45-.17.11-.14-.06-.31-.11-.46-.24-.72-.62-1.36-1.21-1.85-1.01-.84-2.21-.9-3.4-.64-1.97.42-3.55,1.51-4.76,3.11-.7.93-1.17,1.96-1.19,3.15h.01Zm33.7,3.38c.51-.37.92-.84,1.33-1.32.49-.57.69-1.25.71-1.98,0-.6-.13-1.17-.36-1.73-.56-1.36-1.49-2.41-2.68-3.25-1.39-.99-2.91-1.58-4.65-1.38-.82.09-1.53.45-2.06,1.11-.31.38-.56.8-.76,1.25-.08.19-.17.37-.2.58-.01.1,0,.16.12.19.66.19,1.3.43,1.93.72.14.07.2.06.26-.1.22-.55.64-.9,1.2-1.09.59-.21,1.17-.15,1.75,0,.67.17,1.25.5,1.76.96.72.65,1.2,1.44,1.25,2.43.03.66-.2,1.25-.75,1.67-.08.06-.15.09-.05.21.45.55.85,1.13,1.21,1.75v-.02Zm-4.43-6.96c-.7.03-1.38.3-1.76,1.09-.07.14-.06.22.1.3,1.74.85,3.27,1.97,4.55,3.43.11.12.18.1.28.02.66-.53.77-1.24.6-2.01-.34-1.51-1.98-2.81-3.77-2.83ZM3.31,10.51c0,.66.15,1.12.54,1.5.09.09.15.12.25,0,1.3-1.5,2.88-2.62,4.67-3.46.16-.08.18-.14.1-.29-.39-.72-1.23-1.03-2.1-.95-.94.09-1.74.51-2.4,1.17-.6.59-1,1.3-1.05,2.04h-.01Z"/>
  <path class="cls-1" d="m27.94,37.85c.03.07.06.14.09.21-.07-.02-.15-.04-.22-.07-2.36-.75-4.71-1.49-7.07-2.24-.23-.08-.46-.16-.68-.25-.1-.04-.07-.12-.04-.2.05-.17.11-.34.16-.51.03-.21.14-.4.21-.6.25-.67.47-1.36.73-2.03.18-.47.27-.98.51-1.43.09-.17.03-.28-.11-.37-.17-.1-.13-.2-.02-.32.28-.29.55-.59.83-.88.36-.36.69-.75,1.04-1.11.55-.55,1.03-1.16,1.58-1.71.24-.24.47-.48.68-.73.11-.14.22-.18.34,0,.14.2.31.25.52.12.04-.02.09-.03.13-.05.9-.43,1.86-.73,2.72-1.25.4,0,.72-.27,1.08-.4.18-.07.27-.07.31.13.04.21.16.28.39.29.75.03,1.51,0,2.26.04.2.01.33-.03.36-.24.03-.19.12-.21.29-.14.36.15.71.33,1.09.4h.62c.03.28.24.35.47.43,1.15.44,2.3.89,3.45,1.33.19.07.22.14.14.33-.91,2.09-1.8,4.18-2.7,6.27-.05.11-.11.22-.16.33-.04-.07-.07-.13-.11-.2.26-.46.43-.96.64-1.44.69-1.59,1.36-3.19,2.05-4.78.14-.33.15-.33-.19-.46-1.04-.4-2.09-.8-3.13-1.21-.12-.04-.25-.15-.34-.12-.13.04-.03.22-.08.33-.07.17,0,.24.17.3.56.2,1.12.43,1.68.64.12.04.13.09.09.21-.14.49,0,.9.47,1.1.27.11.21.24.13.42-.24.56-.47,1.12-.71,1.67-.39.92-.78,1.85-1.17,2.77-.09-.07-.17-.14-.23-.24,0-.02,0-.05.02-.07.57-1.37,1.13-2.74,1.71-4.11.06-.14.05-.22-.08-.31-.37-.24-.55-.58-.52-1.02,0-.1,0-.19-.11-.23-.44-.17-.88-.34-1.32-.51-.11-.04-.14,0-.17.12-.04.21-.02.42-.04.63s.04.28.26.28c.49,0,.8.58.54,1-.13.21-.41.31-.69.26-.06-.01-.18-.12-.2.04-.03.19-.03.39-.05.58,0,.09.04.13.12.18.26.16.49.35.65.62.51.82.19,1.81-.68,2.09-.14-.04-.26-.1-.37-.19,0-.6.05-1.19.09-1.79.05-.75.05-1.5.11-2.25.02-.33.02-.65.05-.98.05-.56.08-1.11.09-1.67,0-.13-.04-.18-.17-.18-1.45,0-2.9-.03-4.36-.09-.11,0-.17.02-.12.15.07.17.14.34.23.56.03-.16.11-.15.2-.15.18.01.36.03.53.04.56,0,1.12.01,1.68,0,.16,0,.23.03.23.22,0,.46.55.36,1.01.36.22,0,.24.54.23.74-.04.95-.25,1.88-.31,2.82-.04.53-.04,1.07-.05,1.61,0,.13,0,.26-.05.39-.1,0-.2,0-.28-.06.02-.62.03-1.24.06-1.86.04-.9-.11-1.7-.06-2.6,0-.13-.04-.05-.18-.08-.47-.08-.54-.61-.67-1.06-.03-.11-.09-.14-.2-.15-.52-.06-1.04-.03-1.56-.04-.23,0-.41.22-.34.44.1.3.23.6.35.91.28-.35.46-.43.81-.42.28.02.56.25.62.52.05.25-.09.51-.34.66-.24.13-.48.1-.72.03,0,0-.02-.01-.03-.02,0,0,0,.02.02.03.02.26.18.48.25.72.02.08.1.06.16.07.21.04.43.07.63.14.78.29,1.19,1.05.98,1.8-.1.34-.33.59-.6.81h-.24c-.04-.11-.08-.22-.12-.33-.85-2.14-1.69-4.29-2.54-6.43-.11-.27-.1-.27-.38-.15-.89.38-1.78.77-2.67,1.15-.41.18-.82.36-1.24.55.06.06.09.1.13.14.31.32.31.31.71.13.59-.26,1.18-.51,1.77-.77.11-.05.16-.02.23.08.3.48.6.59,1.16.41.15-.05.21-.04.28.12.69,1.72,1.39,3.44,2.09,5.16-.11.02-.22.04-.33.05v-.05c-.65-1.6-1.31-3.21-1.96-4.81-.06-.15-.14-.14-.27-.11-.44.11-.81-.04-1.09-.38-.08-.1-.14-.11-.25-.06-.49.22-.98.44-1.48.64-.22.09-.19.23-.09.33.23.26.49.48.74.73.05-.16.12-.3.24-.41.27-.25.71-.27.96-.05.27.24.3.57.07.87-.11.15-.27.21-.43.26-.15.04-.13.1-.05.19l.33.33c.09.1.19.12.31.07.3-.11.61-.12.94-.08.79.09,1.53.94,1.15,1.82-.17.39-.06.6.22.81.02.02.05.04.07.06-.07.02-.13.05-.2.07-.06-.06-.11-.13-.17-.19-1.12-1.12-2.23-2.24-3.35-3.35-.69-.69-1.39-1.38-2.08-2.08-.13-.13-.22-.14-.34,0-.14.17-.3.34-.45.5-.66.69-1.33,1.37-1.97,2.08-.29.32-.63.59-.87.98.41.16.81.32,1.24.49-.04-.22-.1-.39-.24-.51-.13-.11-.11-.19,0-.3.32-.33.64-.67.96-1.01.19-.2.38-.41.57-.62.07-.08.13-.1.23-.01.35.3.65.31,1.07.09.13-.07.19-.32.38-.22.14.07.25.21.37.32l.02.02c1.3,1.29,2.59,2.58,3.88,3.88.05.05.1.12.15.17-.07.08-.17.11-.27.15-.54-.58-1.12-1.12-1.69-1.67-.8-.77-1.56-1.58-2.38-2.33-.09-.08-.17-.17-.3-.07-.38.28-.78.32-1.2.1-.1-.05-.17-.05-.25.04-.38.41-.76.82-1.14,1.23-.03.03-.08.08-.06.12.15.23.2.48.25.74,0,.03.06.07.11.08.66.27,1.33.53,1.99.79.1.04.15.02.21-.06.31-.45.73-.74,1.27-.88.43-.11,1.17.08,1.45.51.31.46.34.94.17,1.44-.06.18-.01.25.16.3.19.06.37.15.56.23-.05.04-.1.09-.14.13-.04-.06-.1-.07-.16-.09-.79-.31-1.57-.62-2.36-.93-1.61-.64-3.22-1.28-4.83-1.92-.14-.06-.19-.02-.24.11-.3.86-.62,1.73-.92,2.59-.32.9-.63,1.8-.95,2.7q-.12.33.22.44c1.77.56,3.54,1.13,5.31,1.69.72.23,1.42.49,2.16.67h-.06Zm.07-6.14c-.09-.16-.16-.26-.21-.37-.04-.08-.04-.17.05-.23s.16-.02.23.03c.09.06.1.15.09.25-.03.18.14.22.22.24.11.03.13-.12.15-.21.02-.11.02-.22-.05-.31s-.09-.17.02-.24c.06-.04.04-.1,0-.14-.04-.04-.09-.08-.13-.02-.08.12-.17.08-.28.04-.26-.08-.68.07-.76.43-.03.16-.02.28.17.34.15.04.3.11.51.2h-.01Zm5.24-1.14c.04-.06.05-.1.08-.13.09-.11.07-.34.31-.3.04,0,.04-.06.04-.1,0-.07-.03-.08-.09-.08-.12.02-.14-.05-.18-.15-.09-.28-.3-.39-.6-.35,0,.2.23.32.24.49,0,.2.09.37.19.61h0Zm-3.3-.95c.15.14.21.28.39.32.07.01.12.07.14.15.03.13.14.2.22.29.03.03.05.09.11.06.04-.02.03-.07.03-.1,0-.15-.06-.31.16-.37.04-.01.03-.1.01-.15-.03-.07-.08-.06-.13-.03-.05.02-.11.07-.17,0-.19-.25-.45-.18-.76-.16h0Zm5.5,1.46c.18-.05.23-.33.46-.18.04.02.05-.06.07-.1.03-.05.02-.1-.04-.11-.18-.03-.17-.15-.17-.29,0-.18-.09-.31-.27-.39-.06.36-.07.69-.06,1.05v.02Zm-.87-6.59c-.22-.1-.39-.17-.55-.24-.06-.03-.11-.03-.14.03-.03.05-.07.11-.05.17.02.05.08.04.12.04h.62Zm-12.68,5.38c-.1.1-.18.17-.24.25-.06.09,0,.15.08.18.09.04.07-.05.08-.09.03-.1.09-.19.08-.34Z"/>
  <path class="cls-3" d="m35.73,24.52h-.62c0-.08,0-.17.03-.25.25-.99.31-2.01.36-3.02.02-.42,0-.85-.04-1.27-.04-.34-.07-.68-.12-1.02-.06-.4-.18-.79-.22-1.19.31.25.57.55.79.88.31,1.98.25,3.94-.18,5.89v-.02Z"/>
  <path class="cls-13" d="m1.91,14.38c.12.04.19.14.28.2.1.07.11.14.06.24-.09.16-.17.33-.25.5-.06-.31-.1-.62-.09-.93h0Z"/>
  <path class="cls-13" d="m34.78,15.04c-.06-.12-.25-.24,0-.34,0,.11,0,.23,0,.34Z"/>
  <path class="cls-3" d="m35.46,16.81s-.05-.06-.05-.1c.05.02.04.06.05.1Z"/>
  <path class="cls-13" d="m1.88,14.33s.02.03.03.05c0-.02-.02-.03-.03-.05Z"/>
  <path class="cls-12" d="m7.52,42.11c.17.54.3,1.08.51,1.61.89,2.26,2.39,4.04,4.34,5.46.07.05.17.09.19.19-.71.15-1.34.52-2.07.63-1.06.16-2.08.11-3.09-.29-.69-.27-1.41-.41-2.16-.44-1.1-.05-2.15.12-3.16.57-.61.27-.65.23-.55-.41.19-1.29.38-2.57.55-3.86.13-.96.23-1.92.34-2.88.03-.22.06-.43.09-.64h.05c1.11-.5,2.27-.54,3.45-.33.51.09,1,.28,1.51.4h0Z"/>
  <path class="cls-12" d="m26.86,50.07c.34-.44.71-.86,1.02-1.33.4-.59.83-1.17.96-1.9.09-.51.17-1.01.08-1.53-.04-.2-.11-.38-.26-.51-.13-.11-.09-.18,0-.28.62-.73,1.05-1.57,1.42-2.45.02-.06.04-.12.06-.18.05,0,.11-.02.16-.04.94-.34,1.91-.38,2.89-.2.38.07.72.22,1.09.32.12,1.22.27,2.43.43,3.65.18,1.4.45,2.78.67,4.18.03.19-.11.19-.25.15-.51-.15-1-.38-1.53-.51-1.31-.32-2.59-.3-3.85.23-.65.28-1.35.41-2.07.4h-.82Z"/>
  <path class="cls-4" d="m7.52,42.11c-.5-.13-.99-.31-1.51-.4-1.18-.21-2.34-.17-3.45.33h-.05c0-.48.08-.95.13-1.42.04-.41.08-.81.1-1.22.02-.16.04-.27.06-.48,1.49-.45,2.98-.41,4.45.09,0,.51-.01,1.02.03,1.53.04.46.09.93.21,1.39.02.06.01.12.02.18h0Z"/>
  <path class="cls-12" d="m7.26,39.01c-1.47-.5-2.96-.54-4.45-.09.06-.69.11-1.38.17-2.08.02-.24.02-.48.04-.72.05-.6.07-1.2.11-1.81.34.42.65.87,1.03,1.26.87.9,1.84,1.64,3.07,1.97.13.04.17.1.15.23-.05.41-.08.82-.12,1.22v.02Z"/>
  <path class="cls-15" d="m34.35,41.98c-.38-.1-.73-.25-1.1-.32-1-.18-1.98-.14-2.95.2-.05.02-.1.03-.16.04.2-.59.36-1.19.42-1.82.01-.13.09-.11.16-.11.22,0,.45.05.68.05.9.02,1.74-.19,2.54-.56.04-.02.1-.1.16,0,.02.37.06.74.09,1.1.04.45.12.9.15,1.35,0,.06,0,.07,0,.07Z"/>
  <path class="cls-4" d="m1.86,17.7c.41-.45.88-.84,1.31-1.26.05.03.11.06.15.1,1.5,1.33,2.76,2.87,3.96,4.47-.36.19-.74.36-1.05.62-.4.34-.69.85-.14,1.29.12.09.25.15.39.2.55.17,1.11.21,1.7.15.62-.07,1.22-.19,1.8-.44.29-.13.61-.23.81-.51.51-.01,1.03-.02,1.54-.03.02.11-.03.2-.06.29-.29.88-.3,1.75,0,2.62.45,1.25,1.33,2.14,2.48,2.76,1.55.84,3.21,1.11,4.96.85,1.67-.25,3.15-.9,4.25-2.23.84-1.01,1.21-2.16.94-3.47-.05-.27-.13-.54-.19-.81.5,0,1,.01,1.49.02.09.16.26.23.42.31.93.48,1.92.69,2.96.65.42-.02.83-.09,1.21-.3.42-.24.53-.64.26-1.04-.25-.37-.61-.58-1-.77-.12-.06-.27-.09-.35-.22,1.17-1.56,2.4-3.06,3.85-4.37.06-.06.12-.12.21-.15.38.35.76.71,1.13,1.06.08.07.14.16.21.24.04.4.16.79.22,1.19.05.34.08.68.12,1.02.04.42.06.85.04,1.27-.05,1.02-.1,2.03-.36,3.02-.02.08-.02.17-.03.25-.39-.07-.74-.25-1.09-.4-.16-.07-.26-.05-.29.14-.03.21-.16.26-.36.24-.75-.04-1.51-.01-2.26-.04-.23,0-.34-.08-.39-.29-.04-.2-.13-.2-.31-.13-.36.13-.67.39-1.08.4-.86.52-1.82.83-2.72,1.25-.04.02-.09.03-.13.05-.21.14-.38.09-.52-.12-.12-.17-.22-.13-.34,0-.21.26-.44.5-.68.73-.55.55-1.04,1.16-1.58,1.71-.36.36-.68.75-1.04,1.11-.29.28-.55.59-.83.88-.11.12-.15.22.02.32.14.09.2.2.11.37-.25.45-.33.96-.51,1.43-.26.67-.48,1.35-.73,2.03-.07.2-.18.39-.21.6-.95.06-1.91.06-2.86.04-.53,0-1.05-.09-1.58-.13-.48-.03-.95-.11-1.43-.19-.71-.11-1.41-.27-2.11-.45-2.35-.62-4.5-1.62-6.36-3.2-1.54-1.31-2.69-2.9-3.43-4.78-.33-.85-.56-1.73-.73-2.63-.2-1.08-.22-2.16-.17-3.25.03-.77.13-1.54.32-2.29v-.12h0s.05-.06.04-.1l.02.04Z"/>
  <path class="cls-5" d="m17.52,48.32c0,.19.06.45.13.64.04.1-.3.21-.36.19-2.2-.5-4.18-1.57-5.67-3.31-1.08-1.26-1.86-2.83-2.23-4.44-.2-.88-.22-1.91-.15-2.81.12-1.55.55-2.89,1.44-4.17.1-.14.31-.1.56.05-.3.18-.31.24-.05.51.19.19.24.41.17.66-.05.19-.09.38-.05.58.07.34.36.57.81.62.26.03.52.02.78-.09.2-.08.41-.07.61,0,.49.21.98.44,1.53.41.08,0,.17.02.23-.03.16-.16.29-.07.43,0,.61.38,1.26.68,1.96.84.4.09.8.03,1.13-.28.24-.23.25-.5.02-.74-.1-.1-.2-.19-.31-.29-.15-.14-.12-.25.04-.35.24-.14.48-.29.72-.44.14-.09.2-.19.14-.38-.03-.1.1-.09.14-.08.05,0,.11.03.15.05,1.1.68,2.25,1.3,3.01,2.37.48.68.85,1.68.94,2.52.08.73-.13,1.46-.36,2.13-.09.25-.29.16-.44.17-2.82.2-4.61,2.28-5.15,4.17-.09.31-.13.51-.12.83.36.19.39.43-.04.62v.03Zm-.86-1.94s-.03.11.04.13c.07.02.09-.05.11-.1.1-.27.21-.54.31-.81.02-.05.04-.12-.01-.15-.07-.04-.12.02-.15.07-.16.26-.24.54-.29.85h-.01Zm-.26-.03c.2-.25.28-.54.35-.83.01-.05.01-.11-.05-.14-.06-.02-.11.02-.13.07-.15.28-.19.59-.17.9Z"/>
  <path class="cls-15" d="m20.74,35.75c2.36.75,4.71,1.49,7.07,2.24.07.02.15.04.22.07.42.78,1.03,1.35,1.87,1.68.09.04.11.07.1.17-.11.62-.22,1.25-.45,1.84-.4,1.01-.91,1.96-1.69,2.75-.89.91-1.92,1.6-2.98,2.27-.02,0-.04.02-.06.04-.09.06-.13.15-.09.24.04.09.15.06.21.04.36-.11.74-.18,1.09-.37.75-.41,1.41-.94,2.03-1.53.16-.16.21-.11.26.07.09.34.05.68.03,1.02-.07,1-.64,1.76-1.21,2.51-1.18,1.55-2.62,2.77-4.47,3.46-.53.2-1.09.33-1.66.36-.5.03-.91-.17-1.27-.48-.5-.44-.85-.99-1.12-1.59-.3-.69-.57-1.4-.65-2.15-.07-.69.05-1.35.34-1.98.74-1.6,1.95-2.69,3.63-3.23.64-.2,1.3-.32,1.97-.34.13,0,.33,0,.32-.16,0-.1-.2-.13-.33-.12-.16,0-.3-.04-.46-.06.1-.36.2-.71.26-1.07.12-.63.08-1.23-.08-1.84-.27-1.07-.89-1.93-1.66-2.7-.35-.35-.72-.68-1.12-.99-.05-.04-.12-.06-.11-.14h.01Z"/>
  <path class="cls-15" d="m1.71,26.67c.05-.1-.05-.28.09-.3.13-.02.12.17.16.27,1.2,2.77,3.17,4.82,5.77,6.3.9.51,1.83.93,2.81,1.27.11.04.1.08.04.16-.41.58-.73,1.21-.98,1.87-.21.56-.39,1.14-.46,1.75-.04.33-.08.65-.09.99-.04,1.06.1,2.1.38,3.11.28,1.01.7,1.97,1.27,2.86,1.29,1.99,3.13,3.25,5.37,3.96.44.14.89.25,1.34.34.16.03.13.18.16.28.22.8.52,1.56,1.01,2.23.36.48.74.94,1.31,1.2.32.15.67.18,1.02.18h.52c-.29.36-.64.57-1.04.69-.74.23-1.51.22-2.27.18-.65-.03-1.26-.27-1.86-.53-.64-.27-1.21-.63-1.72-1.09-.58-.51-.95-1.15-1.21-1.88-.08-.23-.18-.46-.22-.7,0-.06-.08-.12-.02-.17.07-.06.13,0,.19.03.67.35,1.37.64,2.11.85h.02c.12,0,.28.14.34-.02.05-.16-.15-.19-.26-.23-2.74-1.06-4.86-2.85-6.34-5.38-.55-.94-.92-1.96-1.16-3.03-.2-.91-.24-1.85-.22-2.78.02-.89.16-1.77.4-2.63.21-.74.5-1.46.89-2.13.04-.07.14-.16.03-.24-.13-.09-.17.04-.23.12-.59.79-.98,1.68-1.26,2.62-.05.17-.08.24-.29.19-.86-.21-1.56-.71-2.2-1.28-.78-.7-1.37-1.55-1.91-2.43-.66-1.08-1.1-2.24-1.38-3.47-.2-.89-.32-1.81-.18-2.73.08-.03.08-.08.03-.14v-.19c.07-.02.1-.05.02-.1h.02Z"/>
  <path class="cls-4" d="m28.2,36.41c.06-1.11.54-2.08,1.31-2.91.79-.86,1.76-1.44,2.9-1.67,1.04-.22,2.09-.17,3.02.45.74.49,1.15,1.19,1.25,2.09.14,1.31-.39,2.38-1.22,3.31-.78.88-1.76,1.44-2.9,1.71-.77.18-1.53.19-2.28-.07-1.09-.38-1.78-1.11-2.01-2.26-.04-.2-.01-.4-.06-.65h0Z"/>
  <path class="cls-11" d="m29.01,33.26c-.54.67-.98,1.39-1.19,2.24-.11.46-.14.93-.12,1.41-.47-.15-.94-.31-1.42-.46-1.28-.42-2.55-.84-3.83-1.26-.15-.05-.26-.1-.23-.29.09-.46-.08-.82-.46-1.08-.09-.07-.12-.14-.07-.26.18-.48.35-.96.52-1.45.05-.15.13-.22.3-.21.42.02.76-.15.96-.53.09-.17.2-.17.36-.11.8.31,1.61.62,2.41.93.92.35,1.84.71,2.76,1.07h.01Zm-4.36,1.19c0,.48.08.71.33,1.07.3.43.91.64,1.4.49,1.09-.34,1.66-1.54,1.22-2.59-.31-.75-1.12-1.08-1.85-.73-.74.35-1.07.97-1.1,1.76Zm-1.24-.44c.39,0,.69-.33.69-.76,0-.36-.27-.65-.59-.65-.37,0-.72.37-.71.75,0,.36.28.65.62.65h-.01Z"/>
  <path class="cls-11" d="m29.85,32.47c-.19-.08-.37-.17-.56-.23-.17-.05-.22-.12-.16-.3.16-.5.13-.99-.17-1.44-.29-.43-1.03-.62-1.45-.51-.54.14-.96.43-1.27.88-.06.09-.11.1-.21.06-.66-.27-1.33-.53-1.99-.79-.04-.02-.1-.05-.11-.08-.04-.26-.1-.52-.25-.74-.03-.04.02-.08.06-.12.38-.41.76-.82,1.14-1.23.08-.08.15-.09.25-.04.42.22.82.18,1.2-.1.13-.1.21-.01.3.07.82.75,1.58,1.56,2.38,2.33.57.55,1.15,1.09,1.69,1.67-.28.19-.56.37-.85.56h0Zm-4.3-3.5c-.41,0-.75.34-.75.73,0,.35.26.63.59.62.38,0,.75-.38.76-.78,0-.31-.27-.58-.6-.58h0Z"/>
  <path class="cls-11" d="m30.97,31.76c-.05-.06-.1-.12-.15-.17-1.29-1.29-2.59-2.58-3.88-3.88l-.02-.02c-.12-.11-.23-.25-.37-.32-.2-.1-.25.15-.38.22-.42.22-.72.21-1.07-.09-.1-.09-.15-.07-.23.01-.19.21-.38.41-.57.62-.32.34-.64.68-.96,1.01-.1.11-.13.19,0,.3.14.12.2.29.24.51-.43-.17-.83-.33-1.24-.49.24-.39.59-.66.87-.98.64-.71,1.31-1.39,1.97-2.08.15-.16.31-.33.45-.5.12-.14.21-.14.34,0,.69.7,1.38,1.39,2.08,2.08,1.12,1.12,2.23,2.24,3.35,3.35.06.06.11.13.17.19-.2.08-.39.19-.6.24Z"/>
  <path class="cls-11" d="m32.7,31.24c-.7-1.72-1.4-3.44-2.09-5.16-.06-.16-.13-.17-.28-.12-.56.18-.86.08-1.16-.41-.06-.1-.12-.12-.23-.08-.59.26-1.18.51-1.77.77-.4.18-.39.19-.71-.13-.04-.04-.07-.08-.13-.14.43-.19.83-.37,1.24-.55.89-.39,1.78-.77,2.67-1.15.28-.12.27-.12.38.15.85,2.14,1.69,4.29,2.54,6.43.04.11.08.22.12.33-.2.02-.4.03-.6.05h.02Z"/>
  <path class="cls-11" d="m31.77,31.46s-.05-.04-.07-.06c-.28-.21-.39-.42-.22-.81.38-.88-.36-1.73-1.15-1.82-.33-.04-.63-.03-.94.08-.12.05-.22.03-.31-.07-.1-.12-.22-.22-.33-.33-.09-.09-.1-.15.05-.19.16-.04.33-.11.43-.26.23-.3.2-.63-.07-.87-.25-.22-.69-.2-.96.05-.12.11-.18.25-.24.41-.25-.24-.51-.47-.74-.73-.1-.11-.13-.25.09-.33.5-.19.99-.42,1.48-.64.11-.05.18-.03.25.06.28.35.65.49,1.09.38.13-.03.21-.04.27.11.65,1.61,1.31,3.21,1.96,4.81v.05c-.2.05-.4.11-.6.16h0Z"/>
  <path class="cls-11" d="m34.66,31.35c.04-.13.05-.26.05-.39,0-.54.02-1.07.05-1.61.06-.94.1-1.89.14-2.83,0-.19-.03-.27-.25-.27-.47,0-.81-.34-.83-.81,0-.18-.07-.22-.23-.22h-1.68c-.18,0-.36-.02-.53-.04-.08,0-.17,0-.2.15-.09-.22-.16-.39-.23-.56-.05-.13,0-.15.12-.15,1.45.06,2.9.09,4.36.09.13,0,.17.05.17.18,0,.56-.04,1.12-.09,1.67-.03.32-.02.65-.05.98-.06.75-.06,1.5-.11,2.25-.04.6-.09,1.19-.09,1.79-.2-.08-.41-.15-.61-.23h.01Z"/>
  <path class="cls-11" d="m33.54,31.2c.27-.22.5-.47.6-.81.22-.75-.2-1.5-.98-1.8-.2-.08-.42-.11-.63-.14-.06-.01-.13,0-.16-.07-.07-.24-.23-.46-.25-.72h0c.24.05.49.09.72-.04.25-.14.39-.41.34-.66-.06-.27-.34-.51-.62-.52-.35-.02-.53.07-.81.42-.12-.31-.25-.61-.35-.91-.07-.22.11-.44.34-.44.52,0,1.04-.02,1.56.04.11.01.17.04.2.15.13.45.42.74.88.82.14.03.17.09.16.22-.05.9-.1,1.8-.13,2.69-.03.62-.04,1.24-.06,1.86-.28-.04-.55-.09-.83-.09h.01Z"/>
  <path class="cls-11" d="m36.43,32.46c.39-.92.78-1.85,1.17-2.77.24-.56.47-1.12.71-1.67.08-.19.14-.31-.13-.42-.46-.2-.62-.61-.47-1.1.03-.11.03-.16-.09-.21-.56-.21-1.11-.43-1.68-.64-.17-.06-.24-.14-.17-.3.05-.11-.05-.29.08-.33.09-.03.23.07.34.12,1.04.4,2.09.8,3.13,1.21.34.13.33.13.19.46-.68,1.59-1.36,3.19-2.05,4.78-.21.48-.39.98-.64,1.44-.13-.19-.25-.37-.38-.56h0Z"/>
  <path class="cls-11" d="m35.64,31.76c.88-.28,1.2-1.26.68-2.09-.16-.26-.39-.46-.65-.62-.08-.05-.13-.09-.12-.18.02-.19.02-.39.05-.58.02-.16.14-.05.2-.04.28.05.57-.05.69-.26.25-.42-.05-1-.54-1-.22,0-.28-.07-.26-.28.02-.21,0-.42.04-.63.02-.11.06-.16.17-.12.44.17.88.34,1.32.51.12.04.11.13.11.23-.03.44.15.78.52,1.02.13.09.14.17.08.31-.57,1.37-1.14,2.74-1.71,4.11,0,.02,0,.05-.02.07-.19-.16-.38-.31-.56-.47v.02Z"/>
  <path class="cls-1" d="m27.74,37.23c-.84-.27-1.69-.53-2.53-.81-1.06-.35-2.12-.7-3.19-1.04-.14-.05-.18-.09-.13-.24.19-.6.04-.91-.53-1.17-.09-.04-.1-.07-.07-.15.27-.74.54-1.49.8-2.24.03-.09.08-.09.16-.07.59.13.86.01,1.11-.54.08-.18.15-.19.33-.12,1.76.69,3.52,1.37,5.27,2.06.1.04.2.08.31.07-.09.09-.18.18-.28.27-.92-.36-1.84-.71-2.76-1.07-.8-.31-1.61-.62-2.41-.93-.16-.06-.27-.06-.36.11-.2.38-.54.55-.96.53-.17,0-.25.05-.3.21-.17.48-.34.97-.52,1.45-.04.12-.02.19.07.26.37.27.54.62.46,1.08-.04.19.08.24.23.29,1.28.42,2.55.84,3.83,1.26.47.16.94.31,1.42.46.07.1.03.22.04.33h.01Z"/>
  <path class="cls-8" d="m15.63,35.4c.16-.09.33-.05.5-.04.87.08,1.73.1,2.6.09.13,0,.25.03.36.08.12.06.13.13.02.2-.23.15-.47.3-.71.45-.14.09-.2.02-.2-.12.03-.1-.03-.15-.11-.17-.09-.03-.15.02-.19.1-.11.2-.07.41.03.6.1.18.23.33.38.47.17.16.25.35.22.58-.12.13-.18.13-.24-.07-.11-.4-.38-.51-.78-.47-.62.06-1.24.07-1.82-.21-.18-.25-.33-.51-.28-.84.15-.1.33-.02.52-.07-.13-.11-.26-.14-.39-.17.01-.15.13-.27.09-.43v.02Z"/>
  <path class="cls-8" d="m14.94,36.98c-.48-.02-.94-.14-1.35-.41-.02,0-.03-.03-.05-.04h0c-.14-.24-.36-.42-.43-.7.04-.19.07-.38.11-.57.05-.24.14-.28.37-.24.48.08.96.17,1.44.22v.07c-.16.12-.28.25-.19.47-.05.41.03.8.09,1.2h.01Z"/>
  <path class="cls-8" d="m11.61,35.45c.02-.07.05-.15.06-.22,0-.07.03-.16-.1-.14-.12,0-.16-.11-.2-.2-.06-.12-.03-.17.12-.18.49-.02.93.11,1.36.33v.19c-.13,0-.26-.04-.4,0,.1.11.26.09.36.18-.04.29-.06.58-.05.88-.17-.07-.34-.13-.51-.2s-.34-.15-.53.02c-.05-.22-.1-.43-.09-.65h-.02Z"/>
  <path class="cls-1" d="m16.59,37.34c.4-.04.78-.07,1.17-.11.12-.01.24.05.32.16.07.09.12.19.08.3-.05.12-.17.11-.26.11-.47-.03-.9-.2-1.3-.47h-.01Z"/>
  <path class="cls-1" d="m18.54,37.65c.02-.23-.06-.44-.22-.59-.15-.14-.28-.29-.38-.47-.1-.19-.14-.39-.03-.6.04-.07.1-.12.19-.1.08.02.13.09.1.19-.12.06-.07.15-.05.23.06.29.26.49.44.7.21.24.19.46-.05.64Z"/>
  <path class="cls-1" d="m12.97,36.52c-.33.17-.64.24-.95.14-.16-.05-.26-.16-.23-.34.02-.14.12-.19.27-.14.29.11.57.21.91.34Z"/>
  <path class="cls-1" d="m14.94,36.98c-.23-.38-.19-.75-.09-1.2h0c.02-.08.01-.08.04-.12v-.02c.02-.05,0-.01.03-.05h-.01s.04-.03,0-.05c0-.09.11-.13.12-.23v-.07q.33.05.13.31c-.27.37-.27.74-.03,1.14.14.23.06.31-.19.29h-.01Z"/>
  <path class="cls-1" d="m12.75,36.29c-.01-.29,0-.6.05-.89.15.1.21.23.15.42-.03.1-.04.22,0,.32.07.24-.06.2-.19.15h-.01Z"/>
  <path class="cls-1" d="m15.41,36.05c-.04.33.12.6.29.85-.29-.1-.43-.35-.51-.61-.05-.16.09-.21.22-.24Z"/>
  <path class="cls-1" d="m11.61,35.45c0,.23.06.44.11.65,0,.07-.04.15-.11.15s-.09-.07-.11-.12c-.08-.23-.02-.47.1-.68h.01Z"/>
  <path class="cls-1" d="m13.11,35.83c.07.28.29.46.43.7-.41-.17-.53-.36-.43-.7Z"/>
  <path class="cls-1" d="m15.64,35.39c.04.16-.08.3-.09.45-.08,0-.18.02-.27-.04.07-.17.15-.34.35-.41h.01Z"/>
  <path class="cls-6" d="m17.34,48.29c.49-.19.43-.39.01-.57.02.19.05.38-.01.57Z"/>
  <path class="cls-1" d="m12.83,35.23c0-.06.01-.14.01-.2.05.01.07.02.12.04.1.04.15.08.09.18-.07.11,0,.02-.18-.01h-.04Z"/>
  <path class="cls-5" d="m1.68,26.95c.06.06.05.11-.03.14-.02-.05,0-.1.03-.14Z"/>
  <path class="cls-5" d="m1.71,26.67c.08.05.04.08-.02.1-.02-.04-.03-.07.02-.1Z"/>
  <path class="cls-1" d="m13.54,36.53s.03.03.05.04c-.02,0-.03-.03-.05-.04Z"/>
  <path class="cls-4" d="m2.75,15.17c.55-1.19,1.29-2.25,2.19-3.19,1.49-1.55,3.28-2.64,5.29-3.39,1.3-.49,2.64-.83,4.02-1.03.69-.1,1.38-.17,2.08-.23.8-.08,1.61-.13,2.41-.08.67.04,1.34,0,2.02.08,1.06.12,2.12.24,3.17.48,2.87.66,5.5,1.82,7.67,3.88.99.94,1.81,2.01,2.44,3.22.03.07.1.13.07.21-.56.01-1.11-.09-1.67-.14-.61-.05-1.22-.04-1.82-.08-.62-.04-1.25-.02-1.88-.05-1.03-.05-2.07,0-3.1.06-.71.04-1.42.1-2.12.21-.99.14-1.97.3-2.93.57-.43.12-.86.23-1.19.57-.08,0-.15,0-.23-.03-.52-.11-1.03-.1-1.55.03-.17-.16-.36-.3-.58-.37-.92-.3-1.86-.52-2.82-.66-.85-.12-1.71-.21-2.58-.28-.7-.06-1.41-.08-2.11-.09-.86,0-1.72-.02-2.58.03-.75.04-1.49.06-2.24.09-.65.03-1.3.09-1.94.19h-.02Zm22.19-3.03c-.1,0-.18,0-.18.1,0,.08.05.12.13.13.29.04.57.14.8.34.06.05.12.05.16-.01.05-.06.02-.12-.03-.16-.26-.22-.57-.35-.88-.39h0Zm-12.67.12c-.02-.07-.07-.1-.14-.09-.34.04-.65.14-.92.36-.05.04-.09.1-.03.16.05.06.11.04.17,0,.24-.17.49-.28.78-.3.07,0,.14-.04.14-.13Z"/>
  <path class="cls-15" d="m.44,10.85c.02-1.19.57-2.27,1.28-3.2,1.21-1.6,2.82-2.8,4.79-3.22,1.2-.26,2.64-.2,3.64.64.58.49,1.03,1.26,1.27,1.98.05.15.15.49.03.62-.09.11-.44.26-.59.31-.51.17-1.05.43-1.54.66-.17.08-.34-.28-.43-.45-.29-.57-.59-.73-1.21-.85-1.43-.27-2.54.23-3.5,1.2-.51.51-.82,1.05-.92,1.77-.09.67.04,1.16.57,1.65.12.11.17.38.05.52-.4.48-.8,1.12-1.1,1.67-.06.11-.29.06-.4-.04-.65-.59-1.31-1.18-1.65-2.01-.15-.36-.31-.85-.28-1.25h0Z"/>
  <path class="cls-15" d="m34.35,14.24c-.36-.62-.76-1.21-1.21-1.75-.1-.12-.12-.16-.04-.22.56-.42.8-1.01.77-1.67-.04-.99-.51-1.62-1.23-2.27-.51-.46-1.16-.87-1.83-1.03-.58-.14-1.04-.27-1.62-.06-.56.2-.98.54-1.2,1.09-.06.16-.19.31-.33.24-.62-.29-1.38-.51-2.04-.69-.11-.03.06-.25.07-.35.02-.21.05-.43.14-.62.2-.45.39-.87.69-1.25.53-.66,1.41-1.24,2.24-1.33,1.74-.2,3.29.53,4.68,1.52,1.18.84,2.04,2.02,2.59,3.38.23.55.37,1.13.36,1.73-.02.73-.22,1.41-.71,1.98-.4.47-.81.94-1.33,1.32v-.02Z"/>
  <path class="cls-5" d="m29.93,7.28c1.79.02,3.42,1.32,3.77,2.83.18.77.06,1.48-.6,2.01-.11.09-.32.21-.43.09-1.28-1.46-2.84-2.64-4.58-3.49-.16-.08,0-.2.07-.35.38-.79,1.06-1.06,1.76-1.09h0Z"/>
  <path class="cls-5" d="m3.31,10.51c.05-.74.45-1.44,1.05-2.04.67-.66,1.46-1.08,2.4-1.17.87-.08,1.7.23,2.1.95.08.15.14.29-.03.37-1.79.84-3.4,2.01-4.7,3.5-.1.12-.2-.03-.29-.12-.38-.38-.54-.84-.54-1.5h0Z"/>
  <path class="cls-15" d="m28.01,31.73c-.21-.08-.35-.16-.51-.2-.2-.05-.21-.18-.17-.34.07-.36.5-.51.76-.43.11.03.2.08.28-.04.04-.07.09-.02.13.02.04.04.06.1,0,.14-.11.08-.09.15-.02.24s.07.21.05.31c-.02.09-.03.25-.15.21-.08-.02-.26-.06-.22-.24.02-.09,0-.19-.09-.25-.07-.05-.15-.09-.23-.03s-.09.14-.05.23c.06.11.12.21.21.37h.01Z"/>
  <path class="cls-15" d="m33.25,30.59c-.11-.24-.18-.41-.19-.61,0-.17-.23-.29-.24-.49.3-.04.51.07.6.35.03.1.05.17.18.15.05,0,.09.01.09.08,0,.04,0,.1-.04.1-.24-.04-.22.19-.31.3-.02.03-.04.07-.08.13h0Z"/>
  <path class="cls-15" d="m29.95,29.63c.31-.02.57-.09.76.16.05.07.11.02.17,0,.05-.02.1-.04.13.03.02.05.03.14-.01.15-.22.06-.16.22-.16.37,0,.04.01.08-.03.1-.06.03-.08-.03-.11-.06-.08-.09-.19-.16-.22-.29-.02-.07-.07-.13-.14-.15-.17-.03-.24-.18-.39-.32h0Z"/>
  <path class="cls-15" d="m35.45,31.11c0-.36,0-.7.06-1.05.17.08.26.21.27.39,0,.14,0,.26.17.29.06,0,.07.06.04.11-.02.04-.04.13-.07.1-.23-.16-.29.13-.46.18v-.02Z"/>
  <path class="cls-11" d="m34.57,24.52h-.61s-.1.01-.12-.04c-.03-.07.02-.12.05-.17.03-.06.08-.05.14-.03.16.07.32.14.55.24h0Z"/>
  <path class="cls-11" d="m21.89,29.89c.01.15-.05.24-.08.34-.01.04,0,.13-.08.09-.07-.03-.14-.1-.08-.18s.14-.15.24-.25Z"/>
  <path class="cls-11" d="m32.13,27.66s0-.02-.02-.03c0,0,.02.01.03.02h0Z"/>
  <path class="cls-9" d="m1.86,17.7s0,.08-.04.1c0-.04,0-.07.04-.1Z"/>
  <path class="cls-5" d="m20.34,19.05c.19.63.41,1.24.68,1.84.11.25.25.5.4.74.2.34.5.5.87.55.49.07.98.11,1.47.1.32,0,.63.02.95.03.07.27.14.54.19.81.26,1.31-.1,2.46-.94,3.47-1.11,1.33-2.58,1.98-4.25,2.23-1.74.26-3.4,0-4.96-.85-1.15-.62-2.03-1.51-2.48-2.76-.31-.87-.3-1.75,0-2.62.03-.09.08-.19.06-.29.24,0,.48,0,.72-.02.64-.02,1.28-.01,1.9-.19.24-.07.42-.22.56-.43.53-.8.82-1.69,1.12-2.59,0-.03.03-.05.04-.08.05.07.12.07.19.06.21-.04.42-.09.64-.11.55-.06,1.1-.09,1.66-.04.4.04.79.12,1.19.16h-.01Zm-6.03,5.89c.88.91,2.83,1.69,4.75,1.53,1.51-.12,3.18-.89,3.66-1.53-.09-.02-.17.04-.24.07-1.07.43-2.16.76-3.32.83-.16,0-.22-.02-.22-.19,0-.85.01-1.7,0-2.55,0-.2.07-.27.26-.32.61-.18,1.12-.51,1.51-1.01.36-.45.29-.82-.19-1.13-.16-.1-.32-.19-.5-.24-.65-.17-1.3-.28-1.98-.2-.48.05-.95.13-1.38.35-.67.35-.75.79-.22,1.33.42.43.93.72,1.51.9.1.03.17.05.17.17v2.76c0,.09-.02.14-.13.14-.4,0-.79-.06-1.17-.14-.76-.16-1.49-.4-2.21-.7-.08-.03-.15-.08-.27-.07h-.03Z"/>
  <path class="cls-10" d="m26.2,22.33c.37,0,.75-.02,1.12,0s.72-.04,1.09-.06c.24,0,.42-.18.56-.37.24-.31.49-.62.73-.93.08.14.23.16.35.22.38.19.75.4,1,.77.27.4.16.8-.26,1.04-.38.21-.79.28-1.21.3-1.04.04-2.03-.17-2.96-.65-.15-.08-.32-.15-.42-.31h0Z"/>
  <path class="cls-10" d="m7.28,21.01c.22.29.45.57.67.86.22.28.48.42.85.42.66,0,1.32.02,1.98.04-.2.28-.52.38-.81.51-.57.25-1.18.37-1.8.44-.58.07-1.14.03-1.7-.15-.14-.04-.28-.1-.39-.2-.55-.44-.26-.95.14-1.29.32-.27.69-.44,1.05-.62h0Z"/>
  <path class="cls-9" d="m16.67,46.38c.05-.3.13-.59.29-.85.03-.05.08-.11.15-.07.06.03.03.1.01.15-.1.27-.2.54-.31.81-.02.05-.04.12-.11.1s-.02-.09-.04-.13h.01Z"/>
  <path class="cls-9" d="m16.41,46.34c-.02-.32.02-.62.17-.9.03-.05.07-.09.13-.07s.06.08.05.14c-.07.29-.16.58-.35.83Z"/>
  <path class="cls-1" d="m24.65,34.45c.03-.8.37-1.41,1.1-1.76s1.54-.02,1.85.73c.44,1.06-.13,2.26-1.22,2.59-.5.15-1.11-.06-1.4-.49-.25-.36-.32-.59-.33-1.07Zm2.19-.45c.2,0,.23-.04.18-.22-.04-.12-.09-.23-.2-.3-.08-.05-.14-.1-.08-.21.04-.07.03-.11-.05-.14-.07-.03-.12-.02-.15.06-.04.1-.1.18-.22.16-.3-.04-.42.2-.51.4-.09.19-.03.41.15.57.11.09.23.18.35.27.07.06.11.13.06.22-.05.09-.12.14-.23.12-.15-.03-.29-.1-.3-.25-.02-.27-.22-.17-.33-.15-.13.02-.06.16-.05.25.03.15.11.27.25.35.08.05.1.11.06.19-.02.06-.09.13.03.17.09.03.15,0,.17-.09.02-.08.04-.11.15-.09.27.03.56-.19.66-.45.09-.27.01-.5-.24-.69-.09-.07-.19-.13-.28-.21-.05-.05-.08-.12-.03-.19.04-.06.1-.1.18-.08.11.02.22.07.24.19s.08.16.18.14v-.02Z"/>
  <path class="cls-1" d="m23.42,34.01c-.34,0-.61-.29-.62-.65,0-.38.34-.75.71-.75.33,0,.59.29.59.65,0,.43-.3.76-.69.76h.01Z"/>
  <path class="cls-1" d="m25.55,28.95c.33,0,.61.27.6.58-.01.4-.38.77-.76.78-.33,0-.59-.27-.59-.62,0-.39.34-.73.75-.73h0Z"/>
  <path class="cls-9" d="m15.04,35.3c.09.12-.02.16-.09.29h0c-.03.06-.05.1-.05.1-.02.07-.04.07-.05.1h0c-.09-.22.03-.35.19-.47v-.02Z"/>
  <path class="cls-2" d="m19.38,16.26c.35.2.26.42-.09.68-.53-.12-1.06-.1-1.59-.04-.26-.13-.33-.36-.09-.65.51-.12,1.03-.13,1.55-.03.07.02.15.02.23.03h0Z"/>
  <path class="cls-9" d="m24.95,12.14c.31.04.62.17.88.39.05.04.08.1.03.16-.05.06-.11.06-.16.01-.23-.19-.5-.29-.8-.34-.08-.01-.14-.05-.13-.13,0-.09.08-.1.18-.1h0Z"/>
  <path class="cls-9" d="m12.28,12.28c0,.09-.07.12-.14.13-.29.02-.55.14-.78.3-.06.04-.11.06-.17,0-.05-.06-.02-.12.03-.16.27-.22.58-.32.92-.36.07,0,.12.02.14.09Z"/>
  <path class="cls-2" d="m14.15,18.01c-.71,1.24-1.43,2.47-2.14,3.71-.43,0-.85.02-1.28-.01h0c.44-.86.94-1.67,1.42-2.49.65-1.13,1.3-2.25,1.95-3.38v-.05c.38.08.76.16,1.13.29-.32.67-.72,1.29-1.08,1.93Z"/>
  <path class="cls-2" d="m16.47,17.21c-.3,1.24-.63,2.46-1.11,3.65-.13.32-.3.6-.6.78-.12.07-.25.12-.39.12h-1.33s-.11,0-.15-.04c0-.02,0-.05.02-.07,1.02-1.77,2.05-3.54,3.07-5.31.5.16.61.37.49.87Z"/>
  <path class="cls-2" d="m11.11,15.75c-.67,1.17-1.34,2.34-2.02,3.5-.33.56-.62,1.14-.99,1.68-.17-.1-.24-.28-.34-.42-.91-1.31-1.8-2.65-2.6-4.03-.22-.37-.11-.65.32-.74.67-.15,1.35-.24,2.04-.28.75-.05,1.5-.1,2.25-.08.43,0,.87.04,1.3.04.06,0,.12.03.18.04-.02.11-.08.2-.14.29Z"/>
  <path class="cls-6" d="m8.11,20.93c.37-.54.66-1.12.99-1.68.68-1.16,1.35-2.33,2.02-3.5.05-.09.12-.18.14-.29.96,0,1.91.14,2.84.33v.05c-.65,1.13-1.3,2.25-1.95,3.38-.47.83-.97,1.64-1.42,2.48-.54.04-1.09,0-1.63-.04-.44-.04-.78-.32-.99-.73Z"/>
  <path class="cls-15" d="m17.7,16.9c.53-.06,1.06-.08,1.59.04.34.06.5.3.59.59.16.5.3,1.01.45,1.52-.4-.03-.79-.12-1.19-.16-.56-.05-1.11-.02-1.66.04-.21.02-.42.08-.64.11-.07.01-.14.02-.19-.06.11-.5.28-.97.44-1.45.1-.3.3-.52.6-.63h0Z"/>
  <path class="cls-6" d="m12.01,21.71c.71-1.24,1.44-2.47,2.14-3.71.36-.64.77-1.26,1.08-1.93.26.05.51.13.75.27-1.02,1.77-2.05,3.54-3.07,5.31-.01.02-.01.04-.02.07h-.88Z"/>
  <path class="cls-6" d="m25.46,15.46c.97-.11,1.93-.11,2.9-.09.06,0,.12.02.18.03-.19.32-.37.65-.56.97-.72,1.24-1.44,2.48-2.15,3.73-.3.53-.64,1.04-.9,1.6-.78.06-1.57.05-2.35.05-.22,0-.41-.1-.55-.27.19-.34.37-.68.57-1.02.67-1.17,1.35-2.34,2.02-3.51.29-.5.6-.98.84-1.5h0Z"/>
  <path class="cls-2" d="m25.46,15.46c-.24.52-.55,1-.84,1.5-.67,1.17-1.35,2.34-2.02,3.51-.19.34-.38.68-.57,1.02-.24-.19-.34-.46-.44-.73-.48-1.22-.8-2.49-1.08-3.77-.06-.28.1-.5.46-.64.67-.27,1.36-.46,2.07-.6.8-.15,1.6-.28,2.42-.29Z"/>
  <path class="cls-2" d="m24.94,21.71c.25-.56.59-1.07.9-1.6.71-1.25,1.44-2.49,2.15-3.73.19-.32.37-.65.56-.97.58,0,1.15.03,1.72.14-.17.4-.42.76-.63,1.13-.74,1.29-1.49,2.58-2.23,3.87-.22.38-.48.74-.64,1.16h-1.83Z"/>
  <path class="cls-2" d="m31.06,15.64c.16.03.32.06.48.1.4.1.51.36.3.72-.2.35-.4.7-.62,1.04-.73,1.15-1.47,2.29-2.27,3.38-.19.26-.41.5-.71.66-.19.1-.39.16-.6.13.19-.43.46-.83.69-1.24.67-1.17,1.35-2.33,2.02-3.51.24-.42.53-.82.7-1.28h.01Z"/>
  <path class="cls-6" d="m31.06,15.64c-.18.46-.46.86-.7,1.28-.67,1.17-1.35,2.34-2.02,3.51-.24.41-.5.8-.69,1.24-.29.07-.59.04-.88.04.15-.42.42-.78.64-1.16.74-1.3,1.49-2.58,2.23-3.87.22-.38.46-.74.63-1.13.27,0,.53.04.8.1h0Z"/>
  <path class="cls-3" d="m14.31,24.95c.12-.01.19.04.27.07.72.3,1.45.54,2.21.7.38.08.78.13,1.17.14.11,0,.13-.05.13-.14v-2.76c0-.13-.07-.15-.17-.17-.58-.17-1.09-.47-1.51-.9-.53-.54-.45-.98.22-1.33.43-.22.9-.3,1.38-.35.68-.08,1.33.03,1.98.2.18.05.35.13.5.24.48.32.55.68.19,1.13-.39.5-.9.83-1.51,1.01-.18.05-.26.12-.26.32.01.85,0,1.7,0,2.55,0,.17.05.2.22.19,1.16-.07,2.25-.4,3.32-.83.08-.03.15-.08.24-.07-.48.64-2.15,1.41-3.66,1.53-1.92.15-3.86-.62-4.75-1.53h.03Z"/>
  <path class="cls-15" d="m26.84,34c-.1.02-.16,0-.18-.14-.02-.12-.13-.17-.24-.19-.08,0-.13.02-.18.08-.05.07-.02.14.03.19.08.08.18.14.28.21.25.19.33.42.24.69s-.39.49-.66.45c-.11,0-.13.02-.15.09-.02.1-.07.13-.17.09-.11-.04-.05-.11-.03-.17.04-.09.02-.14-.06-.19-.13-.08-.21-.2-.25-.35-.02-.09-.08-.23.05-.25.1,0,.3-.11.33.15.01.15.15.23.3.25.11.02.18-.03.23-.12s.01-.17-.06-.22c-.12-.09-.24-.18-.35-.27-.18-.15-.24-.37-.15-.57s.21-.44.51-.4c.13.02.18-.06.22-.16.03-.08.08-.09.15-.06.08.03.09.07.05.14-.06.1,0,.16.08.21.11.07.17.18.2.3.06.18.02.22-.18.22v.02Z"/>
  <g>
    <path class="cls-9" d="m20.01,34.77c-.54.06-1.08.08-1.62.08-1.34,0-2.68-.09-4-.32-2.78-.47-5.5-1.45-7.8-3.11-.04-.03-.08-.06-.11-.08-.02-.02-.05-.04-.07-.05-.07-.05,0,0-.02-.02-.11-.09-.23-.18-.34-.28-.28-.24-.56-.49-.82-.76-.72-.73-1.35-1.53-1.89-2.41-1.57-2.59-2.1-5.64-1.71-8.63.03-.27.09-.54.12-.82,0-.07,0,.05,0,.04,0-.03,0-.05,0-.08.03-.19.07-.38.11-.57.17-.73.43-1.48.72-2.12,1.07-2.37,2.84-4.34,5.05-5.7,2.91-1.8,6.42-2.56,9.82-2.67s6.73.41,9.79,1.73c1.39.6,2.73,1.37,3.88,2.36,1.31,1.12,2.3,2.5,3.04,4.05,1.25,2.61,1.7,5.73,1.02,8.55-.04.15-.07.3-.13.45-.14.42.52.59.66.18.21-.62.3-1.29.38-1.93.17-1.55.06-3.14-.29-4.65-.46-1.98-1.36-3.9-2.62-5.5-.94-1.2-2.14-2.19-3.44-2.99-2.87-1.76-6.26-2.63-9.6-2.87s-7.09.16-10.33,1.45c-2.87,1.14-5.38,3.07-7.02,5.71-.81,1.31-1.45,2.81-1.69,4.34-.18,1.17-.32,2.41-.26,3.64.07,1.55.39,3.09.99,4.52.81,1.97,2.09,3.76,3.72,5.14,1.74,1.48,3.9,2.48,6.07,3.13,2.56.76,5.32,1.08,7.99.9.14,0,.28-.02.42-.04.18-.02.34-.14.34-.34,0-.17-.16-.36-.34-.34h-.03Z"/>
    <path class="cls-9" d="m1.43,25.35c-.18.3-.29.67-.36,1.01-.21.96-.17,1.95-.02,2.91.12.73.32,1.45.57,2.15.3.85.66,1.7,1.12,2.48.69,1.17,1.67,2.14,2.8,2.88.59.38,1.24.74,1.92.95.42.13.6-.53.18-.66-.14-.04-.27-.1-.41-.15,0,0,.02,0-.04-.02-.04-.02-.08-.03-.12-.05-.09-.04-.17-.08-.26-.12-.19-.09-.38-.2-.56-.3-1.03-.61-1.96-1.42-2.64-2.41-.47-.69-.83-1.46-1.14-2.23-.28-.7-.51-1.42-.67-2.16-.2-.92-.28-1.97-.12-2.85.05-.29.13-.57.23-.85.04-.11-.02.04.02-.05,0-.03.03-.06.04-.09,0-.02.02-.05.04-.07.23-.37-.36-.72-.59-.34h0v-.03Z"/>
    <path class="cls-9" d="m8.62,34.16c-.37.52-.63,1.14-.85,1.73-.52,1.44-.71,3-.56,4.52.2,2.15,1,4.3,2.26,6.06.98,1.36,2.26,2.49,3.72,3.32.73.42,1.54.8,2.36,1.01.43.11.61-.55.18-.66-.64-.16-1.19-.41-1.76-.71-1.35-.69-2.56-1.64-3.53-2.82-1.31-1.59-2.17-3.63-2.48-5.66-.23-1.5-.11-3.06.35-4.51.22-.68.48-1.35.9-1.95.26-.36-.34-.7-.59-.34h0Z"/>
    <path class="cls-9" d="m30.01,39.71c0,.06-.02.17,0,.07-.02.13-.04.26-.07.39-.09.45-.21.88-.36,1.31-.46,1.31-1.2,2.53-2.22,3.49-.74.7-1.62,1.24-2.56,1.61-.4.16-.23.82.18.66,1.73-.68,3.18-1.84,4.2-3.39.67-1.02,1.14-2.18,1.39-3.37.05-.25.1-.5.12-.75.04-.44-.64-.43-.68,0h0v-.02Z"/>
    <path class="cls-9" d="m24.2,42.4c-1.34-.19-2.82.2-3.97.89s-2.09,1.73-2.58,2.96c-.45,1.13-.41,2.4-.06,3.56.28.9.73,1.78,1.36,2.48.44.49,1.04.78,1.69.87.94.13,1.87-.13,2.72-.51,1.32-.59,2.54-1.52,3.55-2.55.83-.85,1.54-1.85,1.91-2.99.22-.68.34-1.5.07-2.18-.05-.13-.11-.25-.19-.37-.11-.15-.29-.22-.47-.12-.15.08-.23.32-.12.47.15.2.19.33.23.61.03.22.02.61-.04.88-.18.95-.68,1.82-1.28,2.56-.86,1.06-1.96,1.97-3.14,2.66-.79.46-1.69.86-2.63.89-.33,0-.61-.02-.92-.11-.21-.06-.49-.21-.62-.32-.55-.46-.94-1.15-1.22-1.8-.41-.94-.61-2.01-.41-3.03.23-1.21,1-2.25,1.96-3,.8-.62,1.77-1.01,2.78-1.15.29-.04.61-.06.91-.05.09,0,.18,0,.27,0,.05,0,.2.03.03,0,.18.03.36-.05.42-.24.05-.16-.06-.39-.24-.42h-.01Z"/>
    <path class="cls-9" d="m12.35,49.29c.07,1,.55,2.02,1.15,2.8s1.4,1.41,2.3,1.83c1.17.54,2.51.85,3.81.72,1.02-.11,2.19-.51,2.55-1.58.14-.42-.52-.6-.66-.18-.25.74-1.2,1-1.89,1.08-1.15.12-2.35-.12-3.39-.59-1.4-.63-2.52-1.78-2.99-3.24-.07-.21-.12-.43-.16-.65,0-.04-.01-.07-.02-.11-.02-.11,0,.06,0,0v-.07c-.03-.43-.71-.44-.68,0h-.02Z"/>
    <path class="cls-9" d="m2.7,14.23s-.03-.02-.04-.03c-.02-.01-.03-.02-.05-.04-.08-.06,0,0-.03-.02-.15-.12-.3-.25-.44-.38-.41-.39-.77-.83-1.04-1.33-.33-.6-.48-1.27-.41-1.96.06-.59.26-1.17.52-1.69.65-1.31,1.72-2.41,2.97-3.18,1.33-.81,3.05-1.4,4.59-.94,1.37.4,2.28,1.62,2.58,2.98.1.43.75.25.66-.18-.3-1.36-1.16-2.62-2.44-3.22-1.64-.76-3.51-.35-5.07.41-1.48.73-2.77,1.89-3.61,3.31-.74,1.25-1.19,2.78-.66,4.2.4,1.06,1.19,2.02,2.12,2.66.36.25.7-.34.34-.59h.01Z"/>
    <path class="cls-9" d="m4.28,12.27c-.45-.42-.83-.97-.82-1.61,0-.54.27-1.07.58-1.51.37-.52.87-.95,1.43-1.26.61-.33,1.36-.57,2.05-.42.62.14,1.1.59,1.34,1.17.09.23.47.13.38-.1-.24-.59-.67-1.08-1.26-1.33-.73-.3-1.55-.16-2.26.13-1.26.52-2.44,1.69-2.63,3.09-.11.83.32,1.57.91,2.11.18.17.46-.11.28-.28h0Z"/>
    <path class="cls-9" d="m34.69,14.82c.78-.53,1.47-1.3,1.9-2.14.35-.69.53-1.45.44-2.23-.08-.7-.3-1.38-.62-2.01-.72-1.45-1.92-2.66-3.3-3.48-1.49-.88-3.41-1.48-5.11-.93-1.55.5-2.62,1.86-2.97,3.42-.1.43.56.61.66.18.27-1.2.99-2.28,2.13-2.81,1.44-.67,3.17-.21,4.51.48,1.34.69,2.49,1.73,3.26,3.02.65,1.11,1.05,2.43.56,3.67-.24.62-.65,1.17-1.12,1.64-.16.16-.33.31-.51.46-.02.02-.11.08-.04.03-.02.02-.05.04-.07.05-.02.02-.04.03-.06.04-.36.25-.02.84.34.59h0v.02Z"/>
    <path class="cls-9" d="m33.04,12.55c.53-.48.95-1.14.93-1.88-.02-.63-.3-1.26-.67-1.76-.85-1.17-2.52-2.2-4.01-1.77-.71.2-1.22.74-1.49,1.41-.1.23.28.33.38.1.2-.5.59-.92,1.1-1.1.67-.24,1.41-.07,2.03.22,1.06.49,2.05,1.48,2.24,2.67.12.73-.28,1.36-.8,1.84-.19.17.09.44.28.28h0Z"/>
    <path class="cls-9" d="m10.72,34.02c-.42.48-.73,1.07-.98,1.65-.61,1.39-.85,2.92-.71,4.43.31,3.38,2.25,6.55,5.26,8.16,1.11.59,2.34,1,3.6,1.1.25.02.25-.37,0-.39-2.39-.19-4.69-1.5-6.2-3.33-2.12-2.56-2.93-6.29-1.75-9.43.19-.5.43-.99.72-1.44.12-.19.24-.36.34-.48.16-.19-.11-.47-.28-.28h0Z"/>
    <path class="cls-9" d="m19.53,35.47c2.16,1.11,4.22,3.28,3.86,5.89-.05.39-.16.84-.39,1.17-.14.21.19.4.34.2.21-.3.32-.69.4-1.05.17-.86.08-1.78-.21-2.61-.5-1.41-1.65-2.51-2.85-3.35-.3-.21-.62-.42-.95-.59-.22-.11-.42.22-.2.34h0Z"/>
  </g>
  <polygon class="cls-1" points="31.61 31.64 25.76 25.7 21.62 30.2 21.87 30.43 21.74 30.58 21.34 30.21 25.76 25.42 31.75 31.5 31.61 31.64"/>
  <polygon class="cls-1" points="33.23 31.14 30.54 24.18 26.19 26.02 26.12 25.84 30.65 23.92 33.42 31.07 33.23 31.14"/>
  <polygon class="cls-1" points="35.46 31.69 35.26 31.68 35.58 24.75 30.78 24.61 30.78 24.42 35.79 24.56 35.46 31.69"/>
  <polygon class="cls-1" points="36.88 33.3 36.71 33.22 39.6 26.51 33.92 24.25 33.81 24.59 33.63 24.53 33.8 23.99 39.86 26.4 36.88 33.3"/>
  <path class="cls-2" d="m35.91,18.63c-.22-.33-.48-.63-.79-.88-.07-.08-.14-.17-.21-.24-.38-.36-.76-.71-1.13-1.06-.58-.46-.06-.53.11-.63.15-.09.27-.03.27-.2,0-.08.33-.07.33-.16.29.29.48.65.72.98.07.1.1.23.22.28h0s0,.08.05.1c.32.49.52,1.02.55,1.62,0,.07.07.2-.1.2h-.02Z"/>
  <path class="cls-2" d="m1.49,16.81c.19-.17.27-.4.42-.6.18-.25.35-.52.56-.75.47-.09.49.24.83.38.12.05-.19.48-.12.6-.44.42-.91.81-1.31,1.26-.04.02-.04.06-.04.1h0c-.08,0-.13.04-.17.1-.17.25-.43.41-.58.68-.13,0-.1-.1-.09-.16.04-.45.1-.9.35-1.3.06-.1.1-.2.15-.31Z"/>
  <path class="cls-14" d="m2.75,15.17c.64-.1,1.29-.16,1.94-.19.75-.04,1.5-.05,2.24-.09.86-.05,1.72-.04,2.58-.03.7,0,1.41.03,2.11.09.86.07,1.72.16,2.58.28.96.14,1.9.36,2.82.66.22.07.41.21.58.37.17.19.15.42.09.65-.3.11-.5.33-.6.63-.16.48-.33.96-.44,1.45-.01.03-.03.05-.04.08-.3.9-.59,1.79-1.12,2.59-.14.21-.31.36-.56.43-.62.17-1.26.16-1.9.19-.24,0-.48.01-.72.02-.51.01-1.03.02-1.54.03-.66-.01-1.32-.04-1.98-.04-.37,0-.64-.14-.85-.42-.22-.29-.45-.57-.67-.86-1.19-1.6-2.46-3.14-3.96-4.47-.05-.04-.1-.07-.15-.1-.07-.13-.2-.21-.32-.26-.34-.14-.44-.38-.39-.72-.02-.21.17-.22.29-.29h.01Zm9.25,6.54h.88s.1.04.15.04h1.33c.14,0,.27-.05.39-.12.3-.18.47-.46.6-.78.48-1.18.81-2.41,1.11-3.65.12-.5,0-.71-.49-.87-.23-.13-.49-.21-.75-.27-.37-.13-.75-.21-1.13-.29-.94-.19-1.88-.33-2.84-.33-.06-.02-.12-.04-.18-.04-.43,0-.87-.03-1.3-.04-.75-.02-1.5.03-2.25.08-.69.05-1.37.13-2.04.28-.43.1-.54.37-.32.74.8,1.38,1.69,2.71,2.6,4.03.1.15.17.33.35.42.22.4.56.69.99.73.54.05,1.08.08,1.63.04.43.03.85.02,1.28.01v.02Z"/>
  <path class="cls-14" d="m19.38,16.26c.33-.33.76-.45,1.19-.57.96-.27,1.94-.43,2.93-.57.71-.1,1.42-.17,2.12-.21,1.03-.05,2.07-.1,3.1-.06.63.03,1.25,0,1.88.05.61.04,1.22.03,1.82.08.56.05,1.11.15,1.67.14.05.04.09.1.17.1.15,0,.21.09.21.23v.25c0,.17-.07.28-.22.37-.18.1-.37.19-.49.37-.09.02-.14.09-.21.15-1.45,1.31-2.69,2.81-3.85,4.37-.24.31-.49.62-.73.93-.15.19-.33.36-.56.37-.36.01-.72.08-1.09.06s-.75,0-1.12,0c-.5,0-1-.01-1.49-.02-.32-.01-.63-.04-.95-.03-.49,0-.98-.04-1.47-.1-.37-.05-.67-.21-.87-.55-.14-.24-.28-.48-.4-.74-.27-.6-.5-1.21-.68-1.84-.15-.51-.29-1.02-.45-1.52-.09-.29-.26-.53-.59-.59-.09-.24-.04-.47.09-.68h0Zm11.68-.61c-.26-.06-.52-.11-.8-.1-.57-.11-1.14-.14-1.72-.14-.06-.01-.12-.03-.18-.03-.97-.01-1.94-.02-2.9.09-.82.01-1.62.14-2.42.29-.71.13-1.4.33-2.07.6-.35.14-.52.36-.46.64.28,1.28.6,2.55,1.08,3.77.11.27.2.54.44.73.14.17.33.27.55.27.79,0,1.57.01,2.35-.05h1.83c.29,0,.59.03.88-.04.22.03.41-.03.6-.13.3-.16.51-.4.71-.66.8-1.1,1.54-2.24,2.27-3.38.22-.34.42-.69.62-1.04.21-.36.1-.62-.3-.72-.16-.04-.32-.06-.48-.1Z"/>
  <path class="cls-11" d="m27.94,37.85c-.73-.17-1.44-.44-2.16-.67-1.77-.56-3.86-1.06-5.63-1.62-.35-.11-.09-.35.03-.68.32-.9.63-1.65.95-2.55,0,0,.57-1.72.88-2.58.05-.14.2-.26.34-.21,1.61.64,3.23,1.4,4.84,2.04.79.31,1.57.62,2.36.93.06.02.12.04.16.09-.14.13-.28.25-.42.38-.11,0-.21-.04-.31-.07-1.76-.68-3.52-1.36-5.27-2.06-.18-.07-.25-.05-.33.12-.26.55-.52.67-1.11.54-.08-.02-.13-.02-.16.07-.27.75-.53,1.49-.8,2.24-.03.08-.02.11.07.15.57.26.72.57.53,1.17-.05.15-.01.19.13.24,1.06.34,2.13.7,3.19,1.04.84.27,1.69.54,2.53.81.09.2.15.41.2.62h-.02Z"/>
  <polygon class="cls-1" points="28.05 38.07 19.83 35.57 22.1 29.31 29.89 32.5 29.82 32.68 22.21 29.57 20.08 35.44 28.1 37.88 28.05 38.07"/>
  <path class="cls-7" d="m29.12,38.57c-3.24-3.29,2.92-8.69,6.26-6.33,4.24,2.99-2.79,9.75-6.26,6.33-.31-.31-.79.17-.48.48,4.01,3.96,11.97-3.44,7.35-7.21-3.93-3.21-11.24,3.26-7.35,7.21.31.31.78-.17.48-.48Z"/>
</svg>