<svg width="35" height="35" viewBox="0 0 55 55" fill="none" xmlns="http://www.w3.org/2000/svg">
<path d="M38.5946 17.6786H16.4043L27.4994 27.1888L38.5946 17.6786Z" fill="#C7C7C7"/>
<path d="M27.5003 29.4643C27.2658 29.4643 27.0389 29.3803 26.861 29.2274L14.7324 18.8314V37.3214H40.2681V18.8314L28.1395 29.2274C27.9616 29.3803 27.7348 29.4643 27.5003 29.4643Z" fill="#C7C7C7"/>
<path d="M27.5 0C12.3123 0 0 12.3123 0 27.5C0 42.6877 12.3123 55 27.5 55C42.6877 55 55 42.6877 55 27.5C54.9827 12.3195 42.6805 0.0172642 27.5 0ZM42.2321 38.3036C42.2321 38.846 41.7924 39.2857 41.25 39.2857H13.75C13.2076 39.2857 12.7679 38.846 12.7679 38.3036V16.6964C12.7679 16.154 13.2076 15.7143 13.75 15.7143H41.25C41.7924 15.7143 42.2321 16.154 42.2321 16.6964V38.3036Z" fill="#C7C7C7"/>
</svg>
