<?xml version="1.0" encoding="utf-8"?>
<!-- Generator: Adobe Illustrator 25.2.0, SVG Export Plug-In . SVG Version: 6.00 Build 0)  -->
<svg version="1.1" id="Layer_1" xmlns="http://www.w3.org/2000/svg" xmlns:xlink="http://www.w3.org/1999/xlink" x="0px" y="0px"
	 viewBox="0 0 313.9 199.6" style="enable-background:new 0 0 313.9 199.6;" xml:space="preserve">
<style type="text/css">
	.st0{clip-path:url(#SVGID_2_);fill:#BE995F;}
	.st1{clip-path:url(#SVGID_2_);}
	.st2{fill:#FFCD80;}
	.st3{fill:#FFCE80;}
	.st4{fill:#FFD584;}
	.st5{fill:#E3B772;}
	.st6{fill:#E1B571;}
	.st7{fill:#D5AC6B;}
	.st8{fill:#D8AE6C;}
	.st9{fill:#E9BC74;}
	.st10{fill:#FFE18C;}
	.st11{fill:#FAC97D;}
	.st12{fill:#CCA466;}
	.st13{fill:#FFDF8A;}
	.st14{fill:#D2A969;}
	.st15{fill:#FFE48E;}
	.st16{fill:#E6B973;}
	.st17{fill:#DEB36F;}
	.st18{fill:#FFDB88;}
	.st19{fill:#FFF296;}
	.st20{fill:#FFD081;}
	.st21{fill:#FFD484;}
	.st22{fill:#C69F63;}
	.st23{fill:#F6C67B;}
</style>
<g>
	<defs>
		<path id="SVGID_1_" d="M283.4,186.9H30.5c-9.1,0-16.5-7.4-16.5-16.5V29.1c0-9.1,7.4-16.5,16.5-16.5h252.9
			c9.1,0,16.5,7.4,16.5,16.5v141.3C299.9,179.6,292.5,186.9,283.4,186.9z"/>
	</defs>
	<clipPath id="SVGID_2_">
		<use xlink:href="#SVGID_1_"  style="overflow:visible;"/>
	</clipPath>
	<path class="st0" d="M283.4,186.9H30.5c-9.1,0-16.5-7.4-16.5-16.5V29.1c0-9.1,7.4-16.5,16.5-16.5h252.9c9.1,0,16.5,7.4,16.5,16.5
		v141.3C299.9,179.6,292.5,186.9,283.4,186.9z"/>
	<g class="st1">
		<polygon class="st2" points="30.3,115.5 -28.9,144.6 -47.2,64.7 		"/>
		<polygon class="st3" points="294.8,-42.9 298,17.1 276.3,-48.9 		"/>
		<polygon class="st4" points="276.3,54.3 315,80.8 300.1,110.8 		"/>
		<polygon class="st5" points="276.3,54.3 315,80.8 311.5,56.7 		"/>
		<polygon class="st6" points="145.7,6.4 86.4,68.6 169.4,35.2 		"/>
		<polygon class="st7" points="169.4,35.2 86.4,68.6 110.5,107.4 		"/>
		<polygon class="st8" points="86.4,68.6 30.3,115.5 110.5,107.4 		"/>
		<polygon class="st5" points="169.4,35.2 110.5,107.4 162.9,108 		"/>
		<polygon class="st9" points="145.7,6.4 86.4,68.6 101.9,5.8 		"/>
		<polygon class="st10" points="63.5,50.3 86.4,68.6 101.9,5.8 		"/>
		<polygon class="st11" points="124.9,-50.4 145.7,6.4 101.9,5.8 		"/>
		<polygon class="st3" points="-22.7,-15.2 45.3,-14.6 53.9,32 		"/>
		<polygon class="st12" points="257.6,35.2 276.3,54.3 220.3,57.2 		"/>
		<polygon class="st13" points="217.6,-35.1 191.4,-30.8 234.9,22.4 		"/>
		<polygon class="st14" points="257.6,35.2 220.3,57.2 234.9,22.4 		"/>
		<polygon class="st5" points="276.3,-48.9 217.6,-35.1 234.9,22.4 		"/>
		<polygon class="st13" points="276.3,-48.9 298,17.1 234.9,22.4 		"/>
		<polygon class="st15" points="-22.7,-15.2 53.9,32 27.7,70.2 		"/>
		<polygon class="st4" points="-22.7,-15.2 -43.2,61.2 27.7,70.2 		"/>
		<polygon class="st16" points="53.9,32 63.5,50.3 27.7,70.2 		"/>
		<polygon class="st4" points="63.5,50.3 86.4,68.6 27.7,70.2 		"/>
		<polygon class="st7" points="-43.2,61.2 -47.2,64.7 27.7,70.2 		"/>
		<polygon class="st4" points="-47.2,64.7 30.3,115.5 27.7,70.2 		"/>
		<polygon class="st9" points="86.4,68.6 30.3,115.5 27.7,70.2 		"/>
		<polygon class="st3" points="169.4,35.2 162.9,108 197.8,59.6 		"/>
		<polygon class="st17" points="220.3,57.2 210.9,122.7 197.8,59.6 		"/>
		<polygon class="st11" points="162.9,108 210.9,122.7 197.8,59.6 		"/>
		<polygon class="st5" points="276.3,54.3 220.3,57.2 257.6,119.4 		"/>
		<polygon class="st11" points="276.3,54.3 300.1,110.8 257.6,119.4 		"/>
		<polygon class="st11" points="220.3,57.2 210.9,122.7 257.6,119.4 		"/>
		<polygon class="st18" points="298,17.1 234.9,22.4 274.1,32.8 		"/>
		<polygon class="st19" points="298,17.1 311.5,56.7 274.1,32.8 		"/>
		<polygon class="st17" points="234.9,22.4 257.6,35.2 274.1,32.8 		"/>
		<polygon class="st9" points="257.6,35.2 276.3,54.3 274.1,32.8 		"/>
		<polygon class="st13" points="276.3,54.3 311.5,56.7 274.1,32.8 		"/>
		<polygon class="st5" points="191.4,-30.8 145.7,6.4 179.7,17.6 		"/>
		<polygon class="st20" points="191.4,-30.8 234.9,22.4 179.7,17.6 		"/>
		<polygon class="st21" points="145.7,6.4 169.4,35.2 179.7,17.6 		"/>
		<polygon class="st22" points="234.9,22.4 220.3,57.2 179.7,17.6 		"/>
		<polygon class="st16" points="169.4,35.2 197.8,59.6 179.7,17.6 		"/>
		<polygon class="st14" points="220.3,57.2 197.8,59.6 179.7,17.6 		"/>
		<polygon class="st23" points="45.3,-14.6 53.9,32 67.9,10.9 		"/>
		<polygon class="st3" points="101.9,5.8 63.5,50.3 67.9,10.9 		"/>
		<polygon class="st15" points="53.9,32 63.5,50.3 67.9,10.9 		"/>
		<polygon class="st6" points="83,-42.7 45.3,-14.6 67.9,10.9 		"/>
		<polygon class="st3" points="83,-42.7 101.9,5.8 67.9,10.9 		"/>
	</g>
</g>
</svg>
