<?xml version="1.0" encoding="UTF-8"?>
<svg id="Layer_1" data-name="Layer 1" xmlns="http://www.w3.org/2000/svg" viewBox="0 0 88.82 67.8">
  <defs>
    <style>
      .cls-1 {
        fill: #fffef3;
      }

      .cls-2 {
        fill: #fff;
      }

      .cls-3 {
        fill: #feecec;
      }

      .cls-4 {
        opacity: .2;
      }

      .cls-5 {
        fill: #8d499c;
      }

      .cls-6 {
        fill: #ddd5cb;
      }

      .cls-7 {
        fill: #ee5858;
      }

      .cls-8 {
        fill: #245a7c;
      }

      .cls-9 {
        fill: #fdbfbf;
      }

      .cls-10 {
        fill: #fdbb82;
      }

      .cls-11 {
        fill: #8ecb90;
      }

      .cls-12, .cls-13 {
        fill: #3b2122;
      }

      .cls-14 {
        fill: #efefef;
      }

      .cls-15 {
        fill: #41a8a4;
      }

      .cls-16 {
        fill: #99e080;
      }

      .cls-17 {
        fill: #408d25;
      }

      .cls-13 {
        stroke: #3b2122;
        stroke-miterlimit: 10;
        stroke-width: .4px;
      }

      .cls-18 {
        fill: #fc8e83;
      }
    </style>
  </defs>
  <ellipse class="cls-4" cx="23.89" cy="65.62" rx="10.05" ry="2.05" transform="translate(-4.87 1.98) rotate(-4.31)"/>
  <ellipse class="cls-4" cx="66.67" cy="65.62" rx="2.05" ry="10.05" transform="translate(-3.78 127.17) rotate(-85.69)"/>
  <g>
    <path class="cls-12" d="m48.75,17.37l.25,1.66.46.74s-.21,1.41-.25,1.5-.49,1.29-.52,1.6.18,4.3.18,4.3l.61,1.63-.86,1.2s-1.47,2.12-1.41,3.99,1.5,4.76,2.39,5.56,4.36,3.32,5.71,3.93,1.66.71,1.66.71c0,0-6.36.74-6.39,5.53,0,0,.03,2.49,2.79,3.87,0,0,.92,2.95,2.92,3.75,0,0,.43,2.18,1.93,4.24,0,0,.4,4.24,5.93,3.25,0,0,2.33,1.78,5.96,1.38,3.62-.4,6.36-2.58,5.96-6.69,0,0,3.1-3.38,3.16-7.43.06-4.05-2.24-8.01-2.24-8.01,0,0,4.02-1.66,5.16-2.82s5.07-4.54,5.93-10.5c.86-5.96-1.69-10.07-1.69-10.07,0,0,.71-4.48-2.7-7.03s-7-2-7-2c0,0-8.9-4.39-20.11.61,0,0-2.89-2.06-5.77.37s-2.06,4.76-2.06,4.76Z"/>
    <path class="cls-12" d="m30.94,5.03l-1.66-2.27-2.27-1.04-3.19-1.04-3.87.18-4.11.8-3.75,1.9-1.9,1.9-.74,2.39-.49,1.96-2.03,1.54-2.58,1.35-1.47,2.33-1.11,2.33s-.37,2.76-.31,2.95-.43,2.15-.43,2.15c0,0-.55,5.34-.31,6.32s1.47,4.42,1.66,4.61,1.6,2.33,1.6,2.33l2.95,3.13,3.25,1.9,2.27,1.17-.25.8s-2.46,4.3-2.15,7.31,1.66,6.39,3.38,9.33c0,0-1.04,6.02,6.63,6.75,0,0,3.13.98,7.25-2.76,0,0,1.96.68,3.25,0s3.25-2.27,3.13-4.79l.74-.49.18-1.72,1.72-.25.92-1.72s.86-1.47.86-1.72-.18-3.07-.18-3.07l-.8-2.03-1.84-2.95-2.03-2.09,4.05-2.03,2.46-2.76,1.66-2.64.61-1.96.43-1.9-.55-1.78-1.66-1.96-.25-.61.8-1.04.12-2.15-.12-1.84-.43-3.01-.06-1.11.55-1.23.06-2.21-.92-2.03-1.54-1.47-1.96-.86h-.98l-1.35.55-1.29.43-.98-.61.37-.8-.25-1.35-.31-1.35-.8-1.78Z"/>
    <path class="cls-12" d="m42.88,32.02c0-.41-.04-.83-.11-1.25-.11-.77-.33-1.5-.77-2.16-.28-.42-.61-.8-.98-1.13-.11-.1-.16-.18-.11-.34.25-.77.47-1.55.59-2.36.17-1.09.21-2.17.1-3.26-.09-1.03-.28-2.06-.63-3.04-.05-.15-.03-.28.04-.41.5-.98.66-2.01.54-3.11-.11-.93-.34-1.81-.82-2.61-1.12-1.89-2.74-3.06-4.98-3.22-.93-.07-1.82.18-2.61.7-.08.06-.15.18-.28.13-.08-.22.07-.41.05-.62-.05-.61-.09-1.22-.19-1.84-.24-1.46-.8-2.77-1.7-3.93-1.28-1.64-3.04-2.51-5-3.03-1.3-.35-2.64-.47-3.98-.52-.63-.02-1.26-.01-1.89.04-.71.05-1.41.12-2.1.24-1.68.27-3.32.73-4.83,1.53-3.13,1.66-5.01,4.13-4.95,7.82,0,.17-.06.23-.21.27-1.78.53-3.3,1.48-4.52,2.87-1.46,1.66-2.31,3.59-2.37,5.83,0,.39-.06.75-.2,1.13-.54,1.48-.83,3.03-.93,4.59-.08,1.23-.08,2.49.13,3.72.21,1.25.51,2.48.97,3.68,1.11,2.91,2.88,5.34,5.27,7.33,1.59,1.32,3.36,2.33,5.37,2.94-.03.06-.04.09-.05.12-1.41,1.95-2.07,4.17-2.24,6.53-.06.89-.06,1.8.04,2.7.11,1.04.3,2.05.61,3.04.53,1.62,1.33,3.1,2.44,4.39.11.14.17.27.17.44.01.61-.03,1.22.07,1.83.28,1.91,1.18,3.44,2.83,4.48,1.29.81,2.73,1.16,4.23,1.23,1.24.06,2.48.03,3.7-.25,1.31-.3,2.51-.81,3.44-1.82.22-.24.39-.39.78-.35.8.08,1.61.04,2.41-.17,2.04-.54,3.32-1.82,3.93-3.83.18-.58.33-1.16.38-1.75.02-.19.25-.19.22-.4-.08-.58.44-.89.65-1.34.03-.07.12-.05.18-.06,1.8-.16,2.87-1.74,2.98-3.32.04-.61.1-1.23.02-1.85-.06-.5-.07-1.01-.16-1.51-.35-1.9-1.1-3.63-2.27-5.18-.58-.77-1.23-1.46-1.98-2.12.59-.27,1.16-.52,1.7-.83,3.25-1.87,5.71-4.38,6.73-8.09.17-.62.29-1.15.29-1.88Zm-6.94-21.52c1.03.11,1.88.54,2.62,1.23.97.91,1.55,2.02,1.68,3.36.04.4.04.79-.04,1.25-.18-.41-.42-.73-.48-1.14-.11-.66-.54-1.13-.98-1.58-1.16-1.19-2.52-2.12-4.02-2.84-.07-.03-.14-.06-.26-.12.53-.15.98-.22,1.49-.16Zm.84,3.16c-.12,0-.17.01-.2,0-2.42-.78-4.7-.35-6.9.76-.7.35-1.34.79-1.95,1.28-.64.53-1.12.51-1.76-.03-1.22-1.03-2.62-1.72-4.13-2.22-.12-.04-.26-.04-.39-.19,2.55-1.56,5.27-2.49,8.27-2.39,2.64.08,4.95,1.13,7.08,2.78ZM21.12,1.34c2.08,0,4.13.18,6.08,1,2.45,1.03,3.78,2.92,4.25,5.47.1.54.13,1.08.14,1.63,0,.26-.09.3-.32.25-.67-.13-1.35-.19-2.03-.2-3.21.15-6.18,1.05-8.83,2.89-.22.15-.29.14-.4-.1-.78-1.75-1.21-3.58-1.37-5.48-.1-1.21-.08-2.41.29-3.57.13-.4.32-.76.58-1.09.41-.51.93-.8,1.61-.8Zm-10,3.81c1.33-1.66,3.16-2.48,5.13-3.08.77-.23,1.55-.37,2.34-.52.13-.03.28-.02.52-.03-.55.43-.89.91-1.19,1.41-.39.66-.54,1.39-.59,2.13-.2,2.56.37,4.99,1.29,7.35.03.09.15.18.06.27-.07.07-.19,0-.29,0-.77.06-1.2-.38-1.69-.92-1.04-1.16-2.46-1.73-3.97-2.06-.94-.21-1.89-.29-2.85-.15-.18.03-.26-.03-.26-.23,0-1.58.52-2.96,1.51-4.18Zm23.07,52.68c-.19.25-.66.17-1.01.23-1.49.25-2.97.5-4.46.73-.97.15-1.94.28-2.91.41h-.03c-.24.05-.59.25-.71.09-.17-.25-.05-.63-.05-.95,0-.2.19-.16.3-.2,1.74-.59,2.88-1.78,3.43-3.52.42-1.34.23-2.62-.49-3.82-.15-.24-.14-.29.16-.32,1.35-.11,2.69-.24,4.04-.38.3-.03.6.03.89-.08-.01.14-.1.22-.16.3-.72.98-1.1,2.09-.99,3.29.11,1.22.7,2.22,1.8,2.84.18.1.26.2.25.41-.02.33.1.76-.06.97Zm-9.7,1.5c-1.23-.28-2.42-.57-3.62-.83-.23-.05-.23-.19-.19-.34.05-.21.2-.06.28-.03,1.04.32,2.11.43,3.19.27.29-.04.37.04.34.32-.02.19,0,.38,0,.61Zm6.32-.34s0,.06.01.09c-1.96,1.21-4.04,1.63-6.37.9,2.16-.34,4.26-.66,6.35-.98Zm-8.12-11.5c.06.08.16.12.18.25-.3-.05-.59-.06-.86-.2-.53-.07-1.01-.31-1.53-.44-.13-.03-.23-.13-.21-.29-.01-.56.3-.95.72-1.28.1-.15.21-.13.33-.02.34.3.72.54,1.12.75.41.12.8.33,1.25.16.04-.01.08,0,.11.04.11.17-.03.59-.23.67-.25.1-.52.07-.78.08-.08,0-.2-.06-.24.04-.06.12.08.16.14.23Zm.88-2.04s.11,0,.13.01c.13-.18.03-.55.21-.7.03-.04.06-.08.09-.11.02-.02.04-.05.06-.07.02-.02.05-.04.07-.06.09-.05.19-.11.28-.16.03-.02.07-.03.1-.05.01,0,.02,0,.03-.01.48-.21.81-.06,1,.32.01-.01.02-.02.03-.03.03-.02.06.13,0,.09l-.02-.05s0,0,0-.01c-.11.08-.12.23-.29.14-.3-.15-.62-.1-.92.02-.06.12-.01.16.11.16.35,0,.72-.1,1.01.2.01.02.06.01.09,0,.32-.16.5-.1.63.23.15.38.01.74-.07,1.1-.01.02-.02.04-.03.07-.01.02-.03.04-.04.06,0,.12-.07.18-.19.21h0c-.12.12-.23.27-.41.08-.03-.46-.17-.65-.53-.68.23.25.38.53.2.87,0,.09-.03.14-.13.14h0c-.13.12-.25.08-.38,0h-.01c-.1,0-.2,0-.23-.13-.05,0-.07-.02-.07-.07-.04,0-.06-.02-.06-.05,0,0,0-.02,0-.03-.19-.16-.16-.35-.08-.55h0c0-.33.21-.52.49-.69-.23-.08-.36-.02-.49.12-.35.38-1.27.41-1.66.06-.09-.08-.08-.18-.06-.27.03-.29.18-.52.41-.7.2-.22.32-.16.58-.07.07.03.16,0,.09.08,0,.14.03.39.1.53Zm.04-3.2c-.03.05-.08.1-.13.04-.11-.18-.21-.36-.33-.56.28.01.51.05.72.2.03.02.07.04.1.06.09.15.28.16.39.3.11.15.18.28.06.44-.04.17-.14.3-.28.4.02.07.08.06.13.07.09-.07.18-.15.27-.22.2-.36.2-.36.53-.11.41.32.82.64,1.24.95.2.15.29.33.23.57.02.09.01.17-.04.25-.04.16-.11.34-.3.33-.19-.02-.18-.21-.19-.37,0-.08-.05-.16-.08-.25-.24-.24-.52-.37-.85-.37-.2,0-.39.02-.59.03-.15.15-.27.16-.39-.04-.17-.31-.39-.59-.47-.95-.03-.15-.09-.3.04-.44,0-.09.04-.16.07-.24.06-.16-.04-.13-.13-.08Zm3.1-.15c-.12-.15-.22-.31-.36-.44-.12-.12-.13-.2.01-.28.13-.07.27-.11.37.04.41.59.4.59,1.06.63q.13,0,.37.15c-.2.13-.45.06-.64.23.2.08.35.2.5.33.06.04.08.13.12.19-.06.03-.13.07-.19.09-.08.02-.18.05-.23.01-.37-.24-.46,0-.54.29-.04.16-.13.3-.27.44-.21-.24-.13-.53-.16-.8-.22.06-.21.31-.36.41-.13-.23,0-.72.28-.92.19-.13.15-.22.04-.36Zm1.66.7h0s-.03-.02-.04-.03c.05-.03.04,0,.04.03,0,0,0,0,0,0h0c.15,0,.18.12.23.2.46.73.94,1.44,1.52,2.07.1.11.11.18-.01.27-.04.03-.07.05-.1.08-.2.2-.39.46-.64.53-.29.08-.46-.27-.65-.42-.52-.41-1.1-.76-1.54-1.27-.11-.13-.16-.23-.04-.37.01-.02.49.18.49.16.15-.5.16-.35.69-.29.34.04.21-.62.05-.96Zm3.87.97c.09.13.09.22-.02.35-.05.06-.33.18,0,.32.06.03-.09.32-.25.42-.11.26-.27.42-.58.31-.3.11-.4.35-.41.64.01.02.01.04,0,.06-.01.2-.11.33-.33.33-.35,0-.51.23-.6.52-.09.27-.16.52-.49.63-.28.09-.22.46-.36.7-.13-.15-.26-.28-.38-.42-.02,0-.03,0-.04-.02-.03-.01-.06-.03-.09-.04-.09-.23.07-.36.21-.5-.04-.08-.02-.13.07-.14.08-.41.33-.7.67-.81-.03-.07,0-.09.06-.07-.01-.14.11-.17.19-.23.75-.61,1.26-1.37,1.56-2.29.07-.22.17-.42.28-.62.12-.21.26-.28.39,0,.09.17.21.34.08.54-.04.11-.02.22.05.31Zm-4.41,3.92s0,0,0,0h0s0,0,0,0c-.06.11.05.2.02.37-.34-.36-.65-.26-.94.01-.11-.1-.05-.18-.01-.23.14-.22.33-.44-.29-.39.23-.14.35-.2.47-.14.35.18.27-.08.28-.26,0-.03,0-.07,0-.1-.04-.11-.12-.23,0-.34.02-.02.1-.01.12.01.08.11.02.24,0,.35-.01.11-.07.21-.02.36.17-.04.36-.14.56-.01-.08.18-.37,0-.37.23,0,.06.07.17.18.12Zm-.23-.61c.51-.27.81-.63,1-1.08.04-.09.04-.26.21-.13.12.1.39.16.23.38-.23.31-.4.66-.6.99-.04.06-.1.22-.17.12-.16-.22-.4-.2-.67-.28Zm2.36-2.7c-.08-.1-.29-.18-.18-.32.09-.12.3-.08.44-.04.22.06.44.14.63.28-.4.67-.42.67-.88.08Zm-5.95,2.84c.12,0,.18.04.08.15-.14.16-.27.32-.37.51-.09.17-.43.03-.58-.25-.04-.05-.09-.09-.17-.18.38.06.66,0,1.04-.23Zm.16.38s.03-.02.04-.03c.01-.02.03-.03.05-.03.17-.06.35-.04.52,0,.2.05.39.11.44.35.03.16,0,.32-.15.41-.21.13-.39,0-.56-.09-.25-.15-.32-.18-.51-.14-.17-.15-.13-.25.16-.48Zm1.18-.02c-.16-.31-.15-.32.2-.36.12-.01.23-.04.35-.05.13-.03.18.07.24.15.25.34.21,1.28-.06,1.54,0,0-.02,0-.03,0,0,0-.01-.02-.02-.03-.31-.06-.57-.23-.85-.35.28-.26.34-.57.17-.89Zm1.02-.74c.17-.12.31-.28.47-.42.01-.03.02-.07.03-.11-.02-.01-.03-.03-.04-.04-.26.09-.39.04-.32-.27.04-.19.04-.41-.05-.59-.13-.24-.06-.39.18-.47.04-.11.09-.21.19-.29,0-.08.02-.15.03-.26.21.11.32.28.46.43.26.29.65.38.92.63.14.13.19.24.12.43-.14.37-.33.7-.67.96.06-.09.12-.35-.02-.4-.51-.06-.57-.02-.59.42,0,.12.08.29-.14.29-.2,0-.4.34-.62,0-.09-.15-.11-.2.04-.31Zm.06,1.98c.19-.32.15-.69.14-1.05,0-.06-.03-.14.05-.17.03-.01.09.01.12.04.08.05.02.12,0,.18-.05.14-.13.3.01.4.13.09.3.03.4-.08.17-.19.3-.13.48-.01.13.08.31.28.43.09.12-.19,0-.4-.22-.51.45-.17,1.13.2,1.19.7.05.44.08.89-.11,1.32-.08.16-.16.25-.35.25-.23,0-.47.04-.7.06-.13.01-.23-.01-.33-.11-.3-.29-.62-.54-.98-.74-.16-.09-.23-.17-.12-.36Zm10.77,2.29c.1.92.15,1.85-.07,2.76-.26,1.05-1.14,1.82-2.24,1.53-.26-.07-.48-.23-.66-.42-.44-.45-.67-.99-.71-1.63-.05-1.01.26-1.91.74-2.77.28-.5.69-.87,1.24-1.07.14-.05.34-.09.34-.28,0-.2-.21-.17-.37-.22.33-.33.56-.7.83-1.06.2.22.26.47.35.72.28.79.47,1.61.56,2.45Zm-2.27-5.27c.02-.16.12-.1.18-.03.16.22.32.45.47.68.03.04,0,.11.01.16-.21,0-.32.21-.52.23-.12,0-.18-.02-.22-.17-.09-.32.04-.59.08-.88Zm.06,1.45c.14.08.21-.1.32-.1.18-.28.43-.21.68-.14.07,0,.13-.01.2-.02.03,0,.05,0,.08,0,.17.13.19.41.02.45-.35.07-.35.38-.51.59-.54.72-1.23,1.21-2.1,1.44-.05.01-.11,0-.16-.01-.54.05-1.08.1-1.63.15.03-.26.34-.15.37-.34.09-.2.17-.41.44-.42.23-.09.41-.21.54-.44.13-.22.3-.43.58-.5.15-.21.35-.36.48-.58.12-.21.54-.23.68-.07Zm-.67-2.53c.45.39.47.87.18,1.39-.04-.05-.04-.17-.08-.22-.01.03-.12.02-.13.04.04.15-.05.41.08.52.25.2.22.36.05.48-.1.07-.22.1-.32.17-.13.09-.37.1-.3.39.02.1-.17.18-.29.24-.21.09-.39.17-.45.46-.07.32-.42.39-.71.47-.05.06-.1.13-.16.19-.05.18-.08.38-.35.34-.18.08-.39.11-.41.37,0,.09-.09.07-.15.08-.42.04-.83.08-1.25.11-.22.03-.44.05-.67.08-.08,0-.17,0-.28-.02.19-.37.28-.75.27-1.14,0-.2.47-.35.49-.51-.01-.01-.21-.05-.22-.06-.19-.03-.18-.06-.17-.13.02-.14.04-.28.13-.4.12-.18.34-.14.51-.2.07-.11.25-.11.27-.27-.15-.14-.11-.57.08-.66.2-.09.42-.13.64-.2.11-.03.04.19.13.18.16-.05.22-.28.18-.37,0-.01-.02-.03-.02-.04-.06-.78-.05-.61.72-.39.11-.04.28-.11.21-.33-.22-.04-.29-.21-.12-.34.3-.23.63-.44.97-.63.13-.07.28.02.37.15h.01c.11,0,.14.08.17.16.13.03.27-.14.4,0,.08,0,.15.01.2.09Zm-1.85-1.08c-.04-.09-.08-.2.02-.26.08-.05.19-.06.28.02l.69.56s-.01.05-.02.08c-.29-.03-.56,0-.75.25-.02.02-.09.03-.12.01-.1-.03,0-.08,0-.12.03-.19-.02-.37-.09-.54Zm9.09-11.44c-.08.56-.22,1.11-.37,1.66-.4,1.42-1.13,2.65-2.07,3.76-1.81,2.13-4.13,3.5-6.74,4.42-1.03.36-2.09.58-3.13.85-.33.09-.77-.32-.7-.65.03-.15-.02-.23-.15-.29-.36-.16-.41-.58-.83-.45-.17.06-.21-.02-.24-.1-.05-.13-.35-.13-.43-.25-.13-.22-.3-.25-.51-.13-.12.08-.23.17-.33.28-.15.17-.18.35.03.51.08.06.14.15.22.21.16.13.22.23,0,.4-.23.18-.28.46-.22.82-.61-.48-1.21-.87-1.74-1.36-.37-.34-.8-.46-1.29-.39-.25.04-.29.19-.17.34.3.39.35.86.47,1.3.05.19.25.38.04.61-.06.07.08.17.17.2.1.04.21.04.32.14-.3.16-.46.45-.86.44-.35-.01-.76.33-.84.68-.03.16-.12.29-.24.34-.11.04-.2-.11-.29-.19-.35-.36-.63-.37-1.01-.05-.44.38-.77.83-.74,1.45,0,.19-.09.16-.21.12-.33-.11-.66-.22-.99-.34-.11-.04-.22-.04-.33-.03-.22,0-.26.15-.17.32.06.14.2.21.32.3,1.13.82,2.39,1.36,3.7,1.79,1,.33,2.03.55,2.98,1.02.77.38,1.49.82,1.94,1.59,1.16,2.02-.04,4.59-2.22,5.3-1.82.59-3.53.21-5.17-.63-1.28-.66-2.34-1.59-3.16-2.78-.04-.05-.08-.11-.11-.16-.08-.12-.2-.15-.32-.06-.09.07-.16.14-.1.3.47,1.44,1.36,2.55,2.56,3.44.4.3.81.59,1.29.77.16.06.22.15.21.32,0,.29-.13.66.04.84.16.17.53.13.8.19.38.08.76.18,1.14.26.13.03.22.11.32.18.97.68,2.03,1.14,3.22,1.29,2.3.29,4.33-.37,6.12-1.78.32-.25.68-.35,1.22-.34-.09.24-.3.38-.44.58-.07.1-.23.2-.12.34.12.15.24,0,.36-.04.06-.02.12-.06.18-.09-.22,1.38-1.12,2.77-2.7,3.28-.67.22-1.36.29-2.06.26-.14,0-.21-.03-.15-.19.06-.2.11-.39.12-.61,0-.2.09-.35.33-.42.35-.1.68-.27.97-.5.09-.08.22-.18.15-.3-.08-.13-.22-.05-.33,0-1.18.46-2.42.53-3.67.48-.22,0-.44-.05-.66-.08-.11-.02-.22-.09-.28.05-.07.15.06.22.16.28.47.29.99.41,1.53.42.5.02.51.01.34.49-.27.77-.76,1.35-1.44,1.79-.79.5-1.67.72-2.58.88-.88.16-1.77.16-2.65.12-1.57-.08-3.07-.43-4.3-1.49-.93-.8-1.41-1.85-1.58-3.06-.02-.14-.1-.27-.08-.42.02-.13,0-.27,0-.41.16-.01.23.13.36.17.08.02.14.08.21,0,.06-.07.07-.15.03-.22-.04-.09-.09-.18-.15-.26-1.03-1.25-1.97-2.56-2.57-4.08-.31-.8-.54-1.63-.76-2.46-.39-1.42-.47-2.88-.39-4.34.13-2.23.74-4.3,2.1-6.12.19-.25.36-.41.73-.31.48.13.99.16,1.49.21.19.02.39-.04.58-.08.07-.01.1-.09.1-.16,0-.14-.09-.23-.22-.27-.28-.09-.57-.14-.85-.23-5.08-1.59-9.28-4.31-11.75-9.22-.58-1.16-1.02-2.37-1.3-3.63-.34-1.51-.44-3.05-.34-4.59.05-.79.12-1.59.34-2.37.14.06.14.2.19.3.73,1.56,1.76,2.84,3.3,3.65.67.35,1.39.52,2.13.66.55.11,1.07.03,1.58-.14.13-.04.29-.06.27-.23-.02-.17-.18-.22-.32-.24-1.53-.18-2.85-.83-3.99-1.84-1.26-1.11-2.06-2.52-2.31-4.16-.42-2.78.51-5.13,2.54-7.05,1.24-1.18,2.74-1.87,4.42-2.15,1.17-.2,2.35-.08,3.49.26,2.28.68,3.87,2.15,4.79,4.35.02.05.04.1.07.15.06.12.14.21.28.18.15-.04.14-.16.14-.27-.01-.51-.12-1-.26-1.51.48-.12.94.04,1.39.13,1.27.26,2.53.6,3.7,1.19.71.36,1.39.77,1.98,1.3,1.08.96,2.4.91,3.45.03,1.26-1.06,2.72-1.77,4.33-2.04,1.83-.31,3.53.06,5.06,1.19.72.53,1.15,1.2,1.42,2.02.29.87.57,1.74.72,2.65.2,1.2.32,2.4.13,3.63-.11.73-.26,1.44-.47,2.15-.07.24-.16.19-.29.11-.14-.07-.27-.13-.44-.13-.08,0-.21-.02-.22.08-.01.09,0,.16.09.23.19.14.35.3.53.46.67.6,1.23,1.29,1.6,2.12.22.44.37.91.45,1.41.17.53.16,1.08.08,1.62Z"/>
    <path class="cls-12" d="m88.8,27.59c-.06-1.03-.16-2.03-.35-3.04-.17-.92-.41-1.83-.74-2.7-.29-.76-.54-1.51-.54-2.33,0-.72-.17-1.42-.39-2.09-1.17-3.62-4.61-6.23-8.33-6.39-.27-.01-.58.02-.82-.08-.49-.21-1-.35-1.5-.51-1.04-.32-2.1-.58-3.16-.78-.89-.17-1.79-.27-2.7-.37-.89-.1-1.78-.12-2.67-.17-.91-.06-1.81.03-2.72.11-1.24.1-2.47.28-3.68.58-1.56.38-3.06.96-4.48,1.71-.16.08-.27.08-.42-.02-1.15-.77-2.41-.95-3.73-.62-2.62.66-4.76,3.4-4.67,6.31.03.88.22,1.71.69,2.44.23.35.21.63.08.97-.32.88-.82,1.63-.63,4.96.06.96.47,2.26.85,3.14.08.18.06.28-.11.41-1.25.96-1.9,2.23-2.1,3.79-.22,1.65.15,3.17.94,4.61,1.55,2.82,3.85,4.82,6.71,6.22.11.06.22.11.37.18-.1.04-.15.07-.2.09-1.94.71-3.42,1.92-4.23,3.87-.46,1.12-.51,2.28-.12,3.41.41,1.18,1.22,2.07,2.36,2.61.34.16.5.35.61.71.4,1.3,1.23,2.27,2.46,2.87.12.06.27.08.31.27.19,1.02.69,1.9,1.31,2.71.11.14.16.28.16.45.02.81.22,1.57.59,2.3.61,1.18,1.6,1.91,2.82,2.28,1.05.33,2.15.38,3.25.22.19-.03.37-.02.55.08,1.1.61,2.3.9,3.53.97,1.27.07,2.54.06,3.8-.25,1.38-.34,2.62-.89,3.56-1.99.69-.8,1.1-1.74,1.25-2.78.1-.66.19-1.32.08-2.01-.04-.25-.13-.55.11-.82,1.12-1.26,1.93-2.7,2.42-4.32.23-.77.41-1.55.46-2.34.03-.61.11-1.22.03-1.85-.07-.55-.06-1.13-.18-1.68-.32-1.59-.87-3.11-1.79-4.48.03-.02.06-.03.09-.04,2.81-1.03,5.17-2.68,7.04-5.02,1.45-1.8,2.51-3.81,3.16-6.03.29-1,.51-2.01.57-3.06.05-.84.13-1.66.08-2.51Zm-35.79,24.79c-.02.15-.07.23-.23.12-.89-.59-1.44-1.41-1.5-2.49-.09-1.7.75-2.94,2.06-3.91.89-.66,1.92-1,3.03-1.18.68-.11,1.29.06,1.91.24.23.07.49.02.71.23-.72.39-1.33.91-1.8,1.57-.09.12-.19.23-.24.36-.17.46-.53.69-.95.86-.03,0-.06.03-.07.02-.02-.03,0-.04.03-.05.26-.7.72-1.27,1.2-1.83.11-.12.31-.25.17-.41-.12-.13-.32,0-.45.09-.89.59-1.51,1.43-1.97,2.36-.34.68-.66,1.36-1.1,1.98-.43.6-.68,1.29-.79,2.03Zm7.04-6.82c.33-.08.72.1,1.08.11.99.03,1.72.58,2.41,1.21.09.08.24.16.17.29-.06.11-.17-.02-.26-.03-1.13-.13-2.25-.34-3.4-.2-.76.09-1.5.22-2.23.45-.1.03-.21.06-.37.11.68-.98,1.51-1.66,2.61-1.93Zm26.63-12.24c-1.59,4.45-4.45,7.76-8.78,9.75-1.13.52-2.27.96-3.49,1.22-.03,0-.06.03-.09.04-.15.01-.27.09-.27.25,0,.17.17.21.3.21.38.01.76.01,1.14,0,.24-.01.49-.06.73-.1.22-.03.37,0,.49.22.81,1.3,1.38,2.68,1.63,4.19.12.74.23,1.49.19,2.24-.09,1.87-.53,3.65-1.42,5.31-.75,1.4-1.66,2.69-2.64,3.94-.07.09-.12.15-.03.25.08.09.13.13.27.06.29-.13.49-.38.82-.56-.03.58-.08,1.13-.22,1.66-.51,1.86-1.84,2.77-3.63,3.19-1.1.26-2.22.3-3.33.25-1.15-.05-2.26-.3-3.27-.88-.78-.45-1.34-1.09-1.73-1.89-.11-.23-.07-.38.2-.42.39-.06.78-.13,1.16-.21.3-.06.56-.2.82-.36.08-.05.16-.11.13-.21-.03-.12-.16-.12-.25-.11-.51.09-1.01.2-1.53.24-.53.04-1.06.06-1.59,0-.5-.06-.99-.17-1.45-.36-.09-.04-.18-.01-.23.08-.06.1.04.14.08.19.22.26.5.43.82.53.2.06.35.16.39.37.15.74.49,1.39.94,1.99-1.39.2-3.48-.64-3.85-2.26.02,0,.04-.01.06,0,.15.07.34.21.45.06.11-.15-.07-.31-.18-.42-.74-.75-1.32-1.62-1.86-2.52-.19-.31-.29-.68-.41-1.03-.02-.06-.1-.19.15-.16.49.05.81.26,1.12.64.86,1.05,1.93,1.85,3.25,2.18,1.84.47,3.44,0,4.69-1.48.72-.85,1.13-1.84,1.31-2.94.05-.32.15-.64.13-.97-.01-.15.09-.24.19-.33.16-.14.33-.27.45-.45.07-.11.16-.23.05-.36-.13-.15-.25-.03-.35.03-.8.49-1.63.92-2.49,1.28-1.48.62-3.01,1.06-4.61,1.24-.94.11-1.88.11-2.82-.02-.8-.11-1.57-.32-2.25-.77-.99-.65-1.54-1.56-1.56-2.77-.03-1.53.71-2.65,1.84-3.58.98-.8,2.15-1.17,3.37-1.37,1.36-.23,2.73-.3,4.1-.27.74.01,1.48.08,2.22.12.09,0,.24.07.26-.11.01-.13-.04-.22-.17-.29-.25-.13-.51-.23-.77-.28-.35-.08-.58-.29-.78-.56-.32-.41-.7-.75-1.19-1.1.38,0,.69.01,1,0,.46-.02.93.07,1.39-.06.18-.05.28-.11.27-.34-.01-.25-.18-.25-.34-.27-1.02-.11-2.05-.19-3.07-.35-1.07-.16-2.13-.43-3.17-.73-2.25-.65-4.44-1.47-6.38-2.82-1.85-1.28-3.31-2.91-4.28-4.95-.5-1.05-.74-2.15-.64-3.31.03-.35.08-.72.24-1.05.11-.5.34-.96.62-1.39h0s.04-.03.04-.03h0c.42-.78,1.06-1.34,1.81-1.79.12-.07.24-.15.36-.23.08-.05.08-.13.07-.21-.02-.11-.04-.16-.12-.16-.09,0-.26.04-.33.07-.44.2-.56-.14-.66-.42-.28-.79-.52-1.6-.63-2.44-.08-.61-.08-1.22-.06-1.82.04-1.79.49-3.48,1.21-5.11.04-.09.06-.16.22-.15.16,0,.27-.17.39-.29.8-.8,1.57-1.62,2.46-2.31-.04-.09-.12-.13-.21-.16-.67.47-1.22,1.1-1.91,1.56.39-.72.97-1.25,1.55-1.79-.27,0-.58.08-.64-.33-.57-.21-.99.08-1.39.44-.46.42-.71.97-.87,1.55-.03.11,0,.26,0,.36.02.37,0,.59-.2.83-.1.12-.15.27-.31.37-.32-.73-.35-1.48-.23-2.25.2-1.26.81-2.28,1.75-3.12.7-.63,1.52-1.03,2.46-1.12.49-.05.97.08,1.45.21.16.08.28.04.42-.07.24-.2.51-.35.82-.43.19-.04.35-.07.49.09.11.12.22.03.34,0,.51-.09.72.06.73.52,1.34-.59,2.74-1.06,4.17-1.37.79-.17,1.6-.3,2.42-.37,1.1-.1,2.21-.23,3.31-.17.84.05,1.67.07,2.51.16,1.06.12,2.11.26,3.15.48.5.11,1.02.17,1.54.38-.78.25-1.41.68-2.02,1.16-.89.7-1.51,1.57-1.8,2.67-.03.12-.01.25-.02.37,0,.11.02.2.14.23.11.03.23.05.31-.05.08-.1.16-.22.23-.33,1.18-1.71,2.8-2.74,4.86-3.09,1.35-.23,2.66-.1,3.92.34,2.28.79,3.9,2.32,4.84,4.54.29.7.45,1.44.52,2.22.33,3.63-1.99,6.36-4.66,7.28-.68.23-1.38.38-2.1.43-.09,0-.19,0-.22.11-.03.13.03.22.14.27.32.14.67.13,1.01.15,3.1.17,5.1-1.4,6.42-4.05.09-.18.17-.37.28-.61.35,1.14.56,2.24.66,3.37.06.65.15,1.3.12,1.95-.06,1.66-.26,3.3-.82,4.87Zm-28.04,24.95h.89c2.57-.01,4.93-.7,7.06-2.16.14-.09.3-.31.44-.22.15.09.01.32-.02.49-.13.68-.34,1.34-.68,1.94-1.13,2.01-3.32,2.73-5.42,1.73-.88-.41-1.6-1.02-2.27-1.77Zm-8.16-40.87c-.04-.92.93-2.11,1.64-2.04,0,.02-.28.14-.29.15-.35.43-.48.76-.8,1.2-.13.18-.12.46-.24.5-.08.03-.18.11-.31.18Z"/>
    <path class="cls-15" d="m29.23,9.5c-3.21.15-6.17,1.04-8.83,2.88-.22.15-.29.14-.4-.1-.78-1.75-1.21-3.58-1.37-5.48-.1-1.21-.09-2.4.29-3.57.13-.4.32-.76.58-1.09.42-.52.93-.8,1.61-.8,2.08,0,4.13.18,6.08,1,2.45,1.03,3.78,2.92,4.25,5.47.1.54.13,1.08.14,1.63,0,.26-.09.29-.32.25-.67-.13-1.35-.19-2.03-.19Zm.47-4.18h0c0-.1-.15-.12-.22-.2-.55-.66-1.1-.87-1.96-.94-1.42-.13-2.12.65-1.65,1.99.4,1.15,1.12,1.63,2.3,1.88.66.14,1.13.05,1.6-.48.46-.53.49-.94.26-1.58-.09-.24-.05-.54-.33-.67Z"/>
    <path class="cls-8" d="m19.1,1.53c-.55.43-.89.91-1.19,1.41-.4.66-.54,1.39-.6,2.13-.2,2.56.37,4.99,1.29,7.36.03.09.15.18.06.27-.07.07-.19,0-.29,0-.77.06-1.2-.38-1.69-.92-1.05-1.16-2.46-1.73-3.97-2.06-.94-.21-1.89-.29-2.85-.15-.18.03-.26-.03-.26-.23,0-1.58.52-2.96,1.51-4.19,1.33-1.66,3.16-2.48,5.13-3.08.77-.23,1.56-.37,2.34-.52.14-.02.28-.02.52-.03Z"/>
    <path class="cls-10" d="m33.35,50.03c-.01.14-.1.21-.16.3-.72.98-1.1,2.09-.98,3.29.11,1.21.69,2.21,1.8,2.84.18.1.26.2.25.41-.02.33.1.76-.06.97-.19.25-.66.17-1.01.23-1.48.25-2.97.5-4.46.73-.97.15-1.94.28-2.91.41-.01,0-.02,0-.03,0-.24.05-.59.25-.71.08-.17-.25-.05-.62-.05-.95,0-.2.19-.16.3-.2,1.74-.6,2.88-1.78,3.43-3.52.43-1.34.23-2.62-.49-3.82-.14-.24-.14-.29.16-.32,1.35-.11,2.69-.24,4.04-.38.3-.03.6.02.89-.08Z"/>
    <path class="cls-11" d="m21.45,13.26c2.55-1.57,5.27-2.49,8.26-2.39,2.64.08,4.95,1.13,7.08,2.78-.12,0-.17.01-.21,0-2.42-.78-4.7-.35-6.9.76-.7.35-1.34.79-1.95,1.29-.64.52-1.12.51-1.76-.03-1.22-1.03-2.62-1.72-4.13-2.22-.12-.04-.26-.04-.39-.19Z"/>
    <path class="cls-2" d="m36.29,47.94c.2.22.26.47.35.72.28.79.47,1.61.56,2.45.1.92.15,1.85-.07,2.76-.26,1.05-1.14,1.82-2.24,1.53-.26-.07-.48-.23-.66-.42-.44-.45-.68-.99-.71-1.63-.05-1.01.26-1.91.74-2.77.28-.5.69-.87,1.24-1.07.14-.05.33-.09.34-.28,0-.2-.21-.17-.37-.22.33-.33.56-.69.83-1.06Z"/>
    <path class="cls-2" d="m40.19,16.34c-.18-.41-.42-.74-.49-1.14-.11-.66-.54-1.13-.98-1.58-1.16-1.19-2.52-2.12-4.02-2.84-.07-.03-.14-.07-.26-.12.53-.15.99-.21,1.5-.16,1.03.11,1.88.54,2.62,1.23.97.91,1.55,2.02,1.68,3.36.04.4.04.79-.04,1.25Z"/>
    <path class="cls-16" d="m24.88,46.21s0,0,0,0h0s0,0,0,.01t0,0Z"/>
    <path class="cls-5" d="m28.3,42.7c-.05-.16.22.1.3.3.46.73.94,1.44,1.52,2.07.1.1.11.18-.01.27-.04.02-.07.05-.1.08-.2.2-.38.45-.64.52-.29.08-.46-.26-.65-.42-.52-.41-1.1-.76-1.54-1.27-.11-.13-.15-.23-.04-.37.01-.02.03-.03.04-.06.4-.65.12-.74.66-.53.29.06.44,0,.51-.1.08-.13.08-.21,0-.38l-.04-.1Z"/>
    <path class="cls-7" d="m28.91,49.7c-.08.16-.17.25-.35.26-.23.01-.47.04-.7.06-.13.02-.23,0-.33-.11-.3-.28-.62-.54-.98-.74-.17-.09-.23-.17-.12-.36.19-.32.15-.69.14-1.04,0-.06-.03-.15.05-.18.03-.01.09.02.12.04.08.06.02.12,0,.18-.05.13-.13.29.01.39.13.09.3.03.4-.08.17-.19.3-.12.48-.01.13.08.31.28.43.09.12-.2,0-.41-.23-.51.45-.17,1.14.2,1.19.7.05.43.09.89-.11,1.31Z"/>
    <path class="cls-6" d="m30.82,59.08c-1.96,1.21-4.04,1.63-6.37.9,2.17-.34,4.26-.66,6.35-.98,0,.03,0,.06.01.09Z"/>
    <path class="cls-2" d="m41.55,32.34c-.06.57-.2.99-.35,1.54-.4,1.42-1.13,2.65-2.07,3.76-1.81,2.13-4.13,3.5-6.74,4.42-1.03.36-2.09.58-3.13.86-.34.08-.77-.33-.7-.66.03-.14-.01-.17-.15-.23-.36-.16-.29-.17-.92-.27-.28-.01-.37-.14-.4-.22-.05-.13-.11-.24-.18-.37-.13-.22-.3-.25-.51-.12-.12.07-.23.17-.33.27-.15.18-.17.35.04.52.07.06.13.15.21.21.16.13.22.23.01.4-.23.18-.28.46-.22.81-.61-.48-1.21-.87-1.74-1.36-.37-.34-.79-.46-1.29-.39-.24.04-.29.19-.17.35.31.39.35.86.47,1.3.05.19.25.38.04.62-.07.07.07.16.17.2.1.04.42.07.53.18-.01.54-.74.39-1.13.38-.35-.01-.71.35-.78.7-.03.16-.12.29-.25.34-.11.05-.2-.1-.28-.19-.36-.36-.64-.37-1.01-.04-.44.38-.77.83-.74,1.45,0,.19-.1.16-.21.12-.34-.12-.67-.22-.99-.35-.12-.04-.22-.03-.33-.03-.22.01-.26.15-.18.33.07.13.2.2.32.29,1.13.82,2.39,1.36,3.7,1.79,1,.32,2.04.55,2.98,1.02.77.38,1.5.82,1.94,1.59,1.16,2.02-.04,4.59-2.22,5.29-1.82.59-3.53.22-5.17-.63-1.29-.66-2.34-1.59-3.16-2.78-.04-.05-.08-.11-.12-.16-.08-.12-.19-.16-.31-.07-.1.08-.16.14-.11.31.47,1.43,1.37,2.55,2.56,3.44.4.3.82.59,1.29.76.16.06.22.15.21.32,0,.29-.12.66.05.84.15.17.53.13.8.19.38.08.76.18,1.14.27.13.02.22.11.32.18.97.67,2.03,1.14,3.22,1.29,2.29.28,4.32-.37,6.12-1.79.31-.25.67-.34,1.21-.34-.1.24-.31.39-.44.58-.07.1-.23.2-.12.34.11.15.24.01.35-.03.07-.03.12-.06.19-.1-.22,1.38-1.12,2.77-2.7,3.28-.68.22-1.36.29-2.06.27-.15-.01-.21-.03-.16-.19.07-.2.12-.39.13-.61,0-.19.09-.35.33-.42.35-.11.68-.27.97-.5.1-.08.22-.18.15-.31-.08-.13-.22-.05-.33,0-1.19.46-2.42.53-3.67.48-.22,0-.44-.05-.66-.08-.11-.02-.22-.09-.28.04-.07.16.06.22.16.29.47.29.99.4,1.53.42.5.02.51,0,.34.49-.27.76-.76,1.35-1.44,1.79-.79.5-1.67.72-2.58.88-.88.15-1.77.16-2.65.12-1.57-.08-3.07-.43-4.3-1.49-.93-.8-1.41-1.85-1.58-3.06-.02-.14-.09-.27-.07-.42,0-.13,0-.27,0-.41.16-.01.23.13.36.17.07.03.13.09.21,0,.06-.07.07-.15.03-.22-.04-.09-.09-.18-.15-.25-1.03-1.26-1.98-2.56-2.57-4.09-.32-.8-.54-1.63-.77-2.45-.38-1.43-.47-2.89-.38-4.34.13-2.23.74-4.31,2.1-6.12.19-.25.36-.41.74-.31.48.13.99.16,1.49.21.19.02.39-.04.58-.08.07-.01.1-.08.1-.15,0-.14-.09-.24-.21-.27-.29-.09-.58-.15-.86-.23-5.08-1.6-9.28-4.31-11.75-9.23-.58-1.15-1.02-2.37-1.3-3.62-.34-1.51-.44-3.05-.33-4.59.05-.79.11-1.59.34-2.37.14.06.14.2.19.3.73,1.56,1.76,2.84,3.31,3.65.66.36,1.39.52,2.13.66.55.11,1.07.03,1.58-.13.13-.04.29-.06.28-.24-.02-.17-.18-.22-.33-.23-1.52-.19-2.84-.83-3.98-1.84-1.26-1.11-2.06-2.51-2.31-4.16-.42-2.77.51-5.13,2.54-7.05,1.24-1.18,2.74-1.86,4.42-2.15,1.17-.19,2.34-.07,3.48.27,2.29.68,3.87,2.15,4.79,4.35.02.05.04.1.07.15.05.12.13.21.28.17.14-.03.14-.16.14-.27-.02-.5-.12-1-.27-1.5.49-.12.95.03,1.4.13,1.27.26,2.52.6,3.7,1.19.71.35,1.38.76,1.98,1.29,1.08.97,2.4.91,3.44.03,1.27-1.06,2.72-1.77,4.34-2.04,1.82-.32,3.53.06,5.05,1.19.72.53,1.16,1.2,1.43,2.02.29.87.57,1.74.72,2.65.2,1.2.32,2.4.13,3.63-.11.73-.27,1.44-.47,2.15-.08.24-.16.18-.3.11-.14-.07-.26-.13-.45-.15-.1,0-.19,0-.21.1-.01.09.01.16.1.23.18.14.35.3.53.46.67.6,1.22,1.29,1.6,2.12.22.44.38.91.45,1.4.13.65.1,1.34.06,1.74Z"/>
    <path class="cls-14" d="m41.47,30.59c-.88-.22-1.73-.51-2.52-.94-.18-.1-.41-.24-.39-.46.02-.24.28-.32.5-.38.57-.14,1.1.07,1.62.26.11.04.22.11.35.1.22.44.38.91.45,1.41Z"/>
    <path class="cls-10" d="m24.48,59.33c-1.23-.29-2.42-.57-3.62-.83-.23-.05-.23-.19-.19-.34.05-.21.2-.06.28-.03,1.04.32,2.11.43,3.19.27.29-.04.38.04.34.32-.02.19,0,.38,0,.61Z"/>
    <path class="cls-16" d="m26.91,43.78c-.21-.24-.13-.53-.16-.8-.21.06-.21.31-.36.41-.13-.23,0-.72.28-.92.19-.13.15-.22.04-.36-.12-.15-.22-.31-.36-.44-.12-.12-.13-.2.01-.28.13-.07.27-.11.37.04q.41.59,1.06.63c.19.03.32.08.36.15-.19.13-.45.06-.64.23.2.07.35.2.5.33.05.05.12.13.12.19,0,.07-.06.15-.13.16-.07.02-.24-.03-.29-.06-.37-.25-.46,0-.53.29-.04.16-.13.3-.27.44Z"/>
    <path class="cls-14" d="m35.07,46.88c-.12,0-.18-.02-.22-.17-.09-.31.04-.59.08-.88.02-.16.12-.1.18-.03.16.22.32.45.47.68.03.04,0,.11.01.16-.21,0-.32.21-.52.23Z"/>
    <path class="cls-6" d="m30.84,44.3c-.4.67-.42.68-.88.08-.08-.1-.29-.18-.18-.32.09-.12.3-.08.44-.04.22.06.44.14.63.28Z"/>
    <path class="cls-14" d="m33.58,44.12c-.34-.12-.69-.05-.88.2-.02.02-.09.03-.12.02-.1-.03,0-.08,0-.12.03-.19-.02-.37-.09-.54-.04-.09-.08-.2.02-.26.08-.05.19-.06.28.02.23.19.46.37.69.56,0,.03.12.1.12.13Z"/>
    <path class="cls-1" d="m23.8,46.47s-.08-.06-.11-.04c-.45.17-.84-.04-1.25-.16-.4-.21-.78-.44-1.12-.75-.12-.11-.23-.13-.33.02-.41.33-.73.71-.72,1.28-.02.16.07.26.21.29.51.13.99.37,1.53.44.27.14.56.15.86.2-.01-.13-.11-.17-.18-.25-.06-.07-.2-.11-.14-.23.04-.1.16-.04.24-.04.26-.01.53.02.78-.08.2-.08.34-.5.23-.67Zm-1.77-.07c-.32-.13-.62-.3-.81-.6,0-.01.03-.05.04-.08.29.19.55.42.86.57.03.09-.01.14-.09.11Z"/>
    <g>
      <path class="cls-9" d="m24.62,42.89c.53.66,1.39.88,1.99,1.44.02.09-.09.37-.13.45-.18-.12-.3-.43-.54-.43-.24-.24-.69-.31-1.03-.31-.26-.27-.53-.49-.74-.8.09-.07.36-.28.45-.36Z"/>
      <path class="cls-9" d="m26.81,44.64c.17.41.89.49.98,1.02-.33-.04-.7-.08-.88-.25-.12-.11-.19-.34-.38-.36.04-.11.19-.33.29-.41Z"/>
      <path class="cls-9" d="m23.81,42.99c-.05-.06-.05-.27-.03-.36.07-.09.04-.3.2-.3.19,0,.45.22.58.34-.04.17-.4.44-.53.55-.05-.1-.1-.2-.22-.23Z"/>
    </g>
    <path class="cls-16" d="m26.07,48.85s-.02,0-.03,0c0,0-.01-.02-.02-.03-.31-.06-.57-.23-.85-.35.28-.26.34-.57.17-.89-.16-.31-.15-.32.2-.36.12-.01.23-.04.35-.05.13-.03.18.07.24.15.25.34.21,1.28-.06,1.54Z"/>
    <path class="cls-14" d="m24.13,46.4c.11.02.09-.15.24-.13-.15.25-.08.47.11.65.13.12.28.23.46.09.1-.08.13,0,.14.08,0,0,0,0,0,0-.07.02-.13.05-.13.14,0,0,0,0,0,0-.13,0-.25,0-.38,0,0,0-.01,0-.01,0-.06-.08-.11-.16-.23-.12,0,0,0,0,0,0,0-.05-.02-.07-.07-.07.01-.05,0-.08-.06-.08,0,0,0,0,0,0-.03-.18-.05-.37-.08-.55h0Z"/>
    <path class="cls-16" d="m24.09,44.91l.03.02s0-.06,0-.09c-.01.02-.02.04-.03.07Z"/>
    <path class="cls-16" d="m24.09,47.37c-.14.16-.27.32-.37.51-.09.17-.43.03-.58-.25-.04-.05-.09-.09-.17-.18.3,0,.46.04,1.04-.23.12,0,.18.04.08.15Z"/>
    <path class="cls-16" d="m25.07,48.3c-.21.13-.34.05-.52-.01s-.26-.11-.54-.21c-.17-.15-.13-.25.16-.48.01,0,.03-.02.04-.03.01-.02.03-.03.05-.03.17-.06.35-.04.52,0,.2.05.39.11.44.35.03.16,0,.32-.15.41Z"/>
    <path class="cls-17" d="m25.42,46.89c.14-.02.27-.05.41-.07-.12.11-.24.26-.41.07Z"/>
    <path class="cls-16" d="m24.13,46.4c.03.18.05.37.08.55-.19-.16-.16-.35-.08-.55Z"/>
    <path class="cls-17" d="m25.83,46.82c0-.12.07-.19.19-.21,0,.12-.07.19-.19.21Z"/>
    <path class="cls-16" d="m24.33,47.1c.12-.04.18.05.23.12-.1,0-.2,0-.23-.12Z"/>
    <path class="cls-16" d="m24.58,47.22c.13,0,.25,0,.38,0-.13.12-.25.08-.38,0Z"/>
    <path class="cls-16" d="m24.96,47.23c0-.09.06-.12.13-.14,0,.1-.03.15-.13.14Z"/>
    <path class="cls-16" d="m24.26,47.03c.05,0,.08.01.07.07-.05,0-.07-.02-.07-.07Z"/>
    <path class="cls-16" d="m24.2,46.95c.05,0,.07.03.06.08-.05,0-.07-.03-.06-.08Z"/>
    <path class="cls-17" d="m26.05,46.55s0-.06.04-.07c-.01.02-.02.04-.04.07Z"/>
    <g>
      <path class="cls-18" d="m25.08,43.99c-.2,0-.39.02-.59.03-.15.15-.27.16-.39-.04-.17-.31-.39-.59-.47-.95-.03-.15-.09-.3.04-.44,0-.09.04-.16.07-.24.06-.16-.04-.13-.13-.08-.03.05-.08.1-.13.04-.11-.18-.21-.36-.33-.56.28.01.51.05.72.2.03.02.07.04.1.06.09.15.28.16.39.3.11.15.18.28.06.44-.13-.13-.24-.31-.43-.31-.16,0-.08.2-.15.29-.03.09.03.15.08.21.11.03.18.11.23.21.02.07.08.06.13.07.22.31.55.51.8.78Z"/>
      <g>
        <path class="cls-18" d="m28.35,45.87c-.14.37-.33.7-.67.96.13-.3.07-.34-.02-.4-.51-.06-.57-.02-.59.42,0,.12.08.29-.14.29-.2,0-.4.34-.62,0-.09-.15-.11-.2.04-.31.17-.12.31-.28.47-.42.01-.03.02-.07.03-.11,0-.02.01-.05.02-.07-.02.01-.04.02-.06.03-.26.09-.39.04-.32-.27.04-.19.04-.41-.05-.59-.13-.24-.06-.39.18-.47.19.03.27.19.39.3.19.17.38.33.71.36-.26-.41-.74-.54-.91-.95,0-.08.02-.15.03-.26.21.11.32.28.46.43.26.29.65.38.92.63.14.13.19.24.12.43Z"/>
        <path class="cls-18" d="m24.54,42.99c.2-.36.2-.36.53-.11.42.32.82.64,1.24.95.2.15.29.33.23.57-.6-.56-1.46-.76-2-1.41Z"/>
        <path class="cls-18" d="m27.59,47.08c.51-.27.81-.62,1-1.08.03-.09.04-.26.21-.12.12.1.4.16.23.38-.23.31-.4.66-.6.98-.04.06-.1.22-.17.12-.16-.22-.4-.19-.67-.28Z"/>
        <path class="cls-18" d="m25.94,44.36c.24,0,.39.17.57.29-.04.16-.12.34-.3.33-.19-.02-.18-.21-.19-.37,0-.08-.05-.17-.08-.25Z"/>
      </g>
    </g>
    <path class="cls-2" d="m87.39,26.49c-.11-1.13-.32-2.23-.67-3.37-.11.23-.18.43-.28.61-1.32,2.65-3.32,4.22-6.42,4.05-.34-.02-.69,0-1.01-.15-.11-.05-.17-.15-.14-.27.03-.12.13-.1.22-.11.71-.06,1.42-.2,2.1-.43,2.67-.92,4.99-3.65,4.66-7.28-.07-.77-.23-1.51-.53-2.21-.93-2.23-2.56-3.76-4.83-4.55-1.27-.44-2.58-.57-3.93-.34-2.06.36-3.67,1.39-4.85,3.1-.08.11-.15.22-.23.33-.09.1-.21.08-.32.05-.11-.03-.14-.12-.13-.24s-.01-.25.02-.36c.28-1.1.91-1.98,1.8-2.67.6-.48,1.24-.91,2.02-1.17-.53-.2-1.04-.26-1.54-.37-1.04-.22-2.09-.36-3.15-.49-.83-.09-1.67-.11-2.5-.16-1.11-.06-2.21.07-3.32.17-.81.08-1.62.2-2.41.38-1.44.31-2.83.77-4.17,1.37-.04.14-.17.2-.29.31.23.11.36.3.33.54-.03.25-.24.34-.46.43-.24.11-.49.14-.73.19-.12.02-.13.05-.13.17.03.92-.68,1.35-1.5.91-.02-.01-.05-.01-.08-.03-.28.57-.69.93-1.37.82-.89.7-1.66,1.52-2.46,2.32-.12.11-.23.29-.39.28-.15-.01-.18.06-.22.15-.71,1.63-1.16,3.32-1.21,5.11-.01.61-.01,1.22.06,1.82.11.84.35,1.64.63,2.44.1.28.22.62.66.42.08-.03.19-.06.28-.06.08,0,.15.04.17.15.02.08.01.16-.07.21-.12.08-.24.16-.36.23-.75.45-1.38,1.01-1.81,1.78h.01v.06s-.03-.01-.05-.02c-.28.43-.5.88-.62,1.39-.16.33-.2.69-.23,1.05-.11,1.15.13,2.25.63,3.3.98,2.05,2.44,3.67,4.29,4.95,1.94,1.35,4.13,2.17,6.38,2.82,1.04.31,2.1.57,3.17.74,1.02.15,2.05.23,3.07.34.16.02.33.03.34.28.01.22-.1.28-.28.33-.45.13-.92.03-1.38.06-.31.01-.62,0-1,0,.49.35.88.69,1.19,1.1.21.27.43.48.79.56.26.06.52.15.77.28.13.07.18.16.17.29-.02.18-.17.11-.26.11-.74-.04-1.48-.11-2.22-.12-1.37-.03-2.75.04-4.1.27-1.22.21-2.39.57-3.37,1.37-1.13.93-1.87,2.06-1.84,3.58.02,1.21.57,2.12,1.56,2.77.69.44,1.46.66,2.25.77.94.12,1.88.12,2.82.01,1.6-.18,3.13-.62,4.61-1.24.86-.36,1.69-.79,2.49-1.28.11-.06.22-.18.35-.03.12.14.02.25-.05.36-.11.18-.28.31-.44.45-.1.09-.21.18-.19.34.02.33-.08.65-.13.97-.19,1.1-.6,2.09-1.31,2.94-1.25,1.48-2.86,1.94-4.69,1.48-1.32-.34-2.39-1.14-3.25-2.19-.31-.37-.63-.58-1.12-.64-.24-.02-.17.11-.15.17.13.34.23.71.41,1.03.54.9,1.12,1.76,1.86,2.52.11.12.29.28.19.42-.12.16-.31.02-.45-.06-.02,0-.04.01-.06.01.37,1.62,2.46,2.47,3.85,2.26-.45-.6-.8-1.25-.94-1.99-.04-.21-.19-.31-.39-.37-.32-.11-.6-.27-.82-.53-.05-.06-.15-.1-.08-.2.05-.08.13-.11.23-.07.47.19.95.29,1.45.36.53.06,1.06.05,1.59,0,.52-.04,1.02-.14,1.53-.24.1-.02.22-.01.25.11.03.1-.05.16-.13.21-.26.15-.52.3-.82.36-.39.07-.78.14-1.17.2-.27.05-.31.2-.2.43.39.8.95,1.44,1.73,1.89,1.02.58,2.13.83,3.27.89,1.12.05,2.23.01,3.33-.25,1.79-.42,3.12-1.33,3.63-3.19.15-.53.19-1.08.22-1.66-.32.19-.53.43-.82.56-.14.07-.19.03-.27-.06-.08-.1-.04-.15.04-.25.97-1.25,1.88-2.54,2.64-3.94.89-1.66,1.33-3.44,1.42-5.31.04-.75-.07-1.5-.19-2.24-.24-1.51-.82-2.89-1.62-4.19-.13-.21-.28-.25-.5-.22-.24.04-.48.09-.73.1-.37.02-.75.02-1.13,0-.13,0-.3-.04-.3-.22,0-.15.11-.23.27-.24.03,0,.06-.03.09-.04,1.21-.25,2.36-.7,3.49-1.22,4.33-1.98,7.19-5.29,8.78-9.74.56-1.58.76-3.22.82-4.88.02-.65-.06-1.3-.12-1.95Zm-9.23-3.03c.08.26.06.53-.03.79-.04.1-.01-.08-.15-.09-.14-.01-.17.15-.19.08-.12-.53-.23-1.05-.43-1.56-.6-1.51-1.48-2.82-2.67-3.92-.27-.25-.57-.46-.82-.79.26-.05.46-.06.63.07.16.11.26.02.37-.1.6-.67,1.38-1.01,2.27-.99,1.53.03,2.8.91,3.17,2.48.34,1.41-.26,2.91-1.86,3.47-.31.11-.38.27-.29.56Z"/>
    <path class="cls-2" d="m55.96,48.15c.26-.7.72-1.27,1.21-1.83.1-.12.31-.25.17-.41-.12-.13-.32,0-.45.1-.89.59-1.51,1.43-1.97,2.36-.34.68-.66,1.36-1.1,1.98-.43.6-.67,1.29-.79,2.02-.02.15-.07.23-.23.12-.9-.59-1.44-1.41-1.5-2.49-.1-1.7.75-2.94,2.06-3.91.89-.66,1.92-1,3.03-1.18.68-.11,1.29.06,1.91.24.23.07.49.02.7.22-.72.39-1.33.91-1.8,1.57-.08.12-.19.23-.24.36-.17.46-.53.69-.95.86-.01-.01-.02-.02-.04-.03Z"/>
    <path class="cls-3" d="m58.64,58.27c.32,0,.6,0,.89,0,2.57-.01,4.93-.69,7.06-2.16.14-.1.3-.31.45-.22.15.09.01.32-.02.49-.13.68-.34,1.34-.68,1.95-1.13,2.01-3.31,2.73-5.42,1.73-.88-.42-1.6-1.02-2.27-1.77Z"/>
    <path class="cls-2" d="m52.52,15.02c-.57-.21-1.17.06-1.57.42-.46.42-.71.97-.87,1.55-.03.11-.06.28,0,.36,0,.3-.01.59-.21.83-.1.12-.15.27-.31.37-.32-.74-.36-1.48-.23-2.25.2-1.26.81-2.28,1.75-3.12.7-.63,1.52-1.03,2.46-1.12.49-.05.98.08,1.45.21.2.07.39.08.35.09-.44.17-1.32.32-1.45.85-.02.09-.15.13-.23.16-.27.13-.32.31-.49.56-.23.37-.43.7-.65,1.08Z"/>
    <path class="cls-3" d="m57.45,47.5c.68-.98,1.51-1.67,2.61-1.93.33-.08.72.1,1.08.11,1,.03,1.72.58,2.41,1.21.09.08.24.16.17.29-.06.11-.17-.02-.26-.03-1.13-.13-2.25-.34-3.4-.2-.76.09-1.5.22-2.23.45-.1.03-.21.06-.37.11Z"/>
    <path class="cls-17" d="m57.82,13.23c-.03.25-.24.34-.46.43-.24.11-.49.14-.73.19-.12.02-.13.05-.13.17.03.92-.68,1.35-1.5.91-.02-.01-.05-.01-.08-.03-.28.57-.69.93-1.37.82-.04-.08-.12-.12-.21-.15-.03-.12-.05-.24-.08-.37-.11.05-.19.1-.28.14-.26,0-.58.07-.64-.33.05-.45.66-.56.47-.55-.15,0-.18-.28.08-.65.16-.25.47-.36.74-.49.08-.03.2-.04.22-.13.13-.54.56-.8,1.01-.87.29-.03.3,0,.44-.11.24-.2.6-.37.92-.44.18-.05.34-.07.48.08.11.12.23.03.34.01.51-.09.72.06.74.52-.01.15-.13.26-.29.31.23.11.36.3.33.54Z"/>
    <path class="cls-9" d="m50.48,17.92c-.27-1.98,1.04-2.88,1.64-2.57,0,.02.02.05,0,.06-.55.61-.98.96-1.65,2.51Z"/>
    <path class="cls-2" d="m52.98,15.34c.08-.04.17-.09.28-.14.03.14.05.25.08.37-.67.47-1.22,1.1-1.9,1.56.39-.71.97-1.25,1.55-1.79Z"/>
    <path class="cls-2" d="m55.99,48.18s-.06.02-.07.02c-.02-.03,0-.04.03-.05.01.01.02.02.04.03Z"/>
    <path class="cls-6" d="m38.57,35.18c-.85,2.1-2.36,3.6-4.31,4.7-1.2.68-2.49,1.06-3.85,1.22-.22.03-.44.01-.67.01-1.48.01-2.84-.37-3.97-1.37-.75-.67-1.2-1.54-1.35-2.54-.29-1.89.38-3.5,1.48-4.97.93-1.25,2.11-2.19,3.49-2.89,1.07-.54,2.2-.89,3.4-1.03,1.08-.12,2.13-.04,3.15.34,1.53.58,2.57,1.64,2.96,3.26.27,1.13.09,2.22-.33,3.27Z"/>
    <path class="cls-12" d="m11.47,15.6c.84.06,1.63.27,2.24.92.14.15.2.12.41.05,1.07-.34.96.03.88.12-.05.05-.1.09-.16.12-1.35.81-2.2,2.05-2.95,3.39-.43.77-.65,1.61-.81,2.47-.03.15,0,.39-.19.41-.24.03-.2-.55-.21-.97,0-.1-.04-.23-.25-.29-1.51-.44-2.5-1.73-2.29-3.36.19-1.4,1.34-2.61,2.82-2.79.16-.02.32-.08.49-.06Zm-2.66,3.28c-.06.97.7,1.91,1.56,2.21.32.11.46.05.58-.27.51-1.31,1.26-2.48,2.24-3.49.15-.16.16-.25,0-.39-.64-.57-1.37-.75-2.22-.61-1.06.17-2.19,1.24-2.17,2.55Z"/>
    <path class="cls-14" d="m20.46,34.16c-.43,0-.63-.28-.5-.73.21-.73.71-1.26,1.27-1.72.72-.58,1.54-.97,2.45-1.13.44-.08.89-.08,1.31.12.38.18.46.43.22.78-.14.21-.32.42-.53.55-1.24.79-2.51,1.52-3.88,2.05-.11.04-.23.1-.34.08Z"/>
    <path class="cls-12" d="m29.04,27.87c.01.1-.05.12-.14.12-.88.04-1.52.45-1.87,1.27-.05.12-.11.11-.19.02-.16-.2-.05-.38.03-.55.35-.73,1.14-1.15,1.93-1.07.18.02.24.07.23.22Z"/>
    <path class="cls-12" d="m36.78,27.93c-.21-.39-.49-.67-.96-.69-.07,0-.15-.04-.15-.14,0-.12.1-.1.17-.1.38-.02.7.1.93.4.12.16.18.33,0,.53Z"/>
    <path class="cls-12" d="m27.15,20.45c-.29.21-.44.43-.52.7-.02.06,0,.15-.1.12-.06-.02-.09-.07-.1-.15-.04-.3.32-.68.73-.66Z"/>
    <path class="cls-12" d="m35.32,20.6c-.23-.23-.45-.35-.77-.42.21-.16.36-.11.5-.04.16.08.31.18.27.47Z"/>
    <path class="cls-2" d="m29.85,7.76c-.46.53-1.09.63-1.74.49-1.18-.24-2.03-.91-2.43-2.06-.47-1.35.39-2.43,1.8-2.3.86.08,1.56.5,2.11,1.16.07.08.18.19.24.3.15.23.19.37.28.62.23.63.21,1.26-.26,1.79Z"/>
    <path class="cls-12" d="m33.53,44.66c.07,0,.14-.05.2,0,0,.07-.07.07-.1.11-.04-.03-.21.05-.1-.12Z"/>
    <path class="cls-12" d="m32.32,45.34c-.04-.09,0-.18.08-.17.1,0,.03.1.03.15-.03,0-.07.01-.1.02Z"/>
    <path class="cls-12" d="m29.54,48.26s.03-.09.07-.06c.04.03.01.07-.03.09-.01-.01-.03-.02-.04-.03Z"/>
    <path class="cls-12" d="m30.37,47.15c0-.08.04-.09.1-.07-.03.02-.07.05-.1.07Z"/>
    <path class="cls-12" d="m23.44,45.14c-.28.06-.49.08-.61.29-.03.05-.1.06-.14,0-.04-.05-.01-.1.01-.16.11-.22.38-.29.74-.14Z"/>
    <path class="cls-12" d="m24.88,46.21s-.03-.02-.04-.04c0,0,.02,0,.03,0,0,.02,0,.03,0,.05,0,0,0,0,0,0Z"/>
    <path class="cls-9" d="m28.96,48.75c0,.11,0,.13,0,.15-.05.18,0,.48-.28.45-.31-.03-.17-.31-.12-.48.12-.38.05-.67-.31-.87-.06-.03-.12-.08-.09-.16.05-.11.14-.04.2,0,.4.21.57.56.6.92Z"/>
    <path class="cls-12" d="m21.26,45.72c.29.19.55.42.86.57.03.09-.01.14-.1.11-.32-.13-.62-.3-.81-.6,0-.01,0-.09.04-.08Z"/>
    <path class="cls-12" d="m34.47,47.54c.13-.13.27-.22.46-.19-.1.2-.28.19-.46.19Z"/>
    <path class="cls-12" d="m34.93,47.35c-.02-.06.02-.07.07-.07.03.08-.01.08-.07.07Z"/>
    <path class="cls-12" d="m26.82,46.27s.04-.02.06-.03c0,.02-.01.05-.02.07-.01-.01-.03-.03-.04-.04Z"/>
    <path class="cls-12" d="m32.19,43.46s-.02-.01-.03-.02c0,0,.01,0,.02,0,0,0,0,.01.01.02,0,0,0,0,0,0Z"/>
    <path class="cls-3" d="m61.59,31.88c0,.16.13.23.22.32,1.33,1.18,2.28,2.6,2.62,4.37.31,1.58-.06,3-1.17,4.15-.84.88-1.94,1.28-3.15,1.42-1.79.2-3.44-.22-5.01-1.02-.8-.41-1.53-.93-2.2-1.54-1.02-.93-1.82-2.01-2.3-3.3-.56-1.49-.6-2.97.24-4.39.27-.46.67-.8,1.04-1.16.07-.06.14-.11.15-.21.13.08.23-.01.33-.07.4-.23.81-.44,1.26-.53.28-.06.38-.17.35-.44.14.31.4.23.64.2,1.19-.17,2.34.03,3.47.36.44.13.83.37,1.28.45,0,.1.06.15.15.2.66.3,1.27.69,1.83,1.14.08.06.16.07.24.07Zm-6.46.02c-.13,0-.35,0-.55.04-.37.06-.76.06-1.07.29-.53.37-.52.58-.24.98.43.62,1.05,1.02,1.66,1.42.13.08.18.16.17.31-.02.6,0,1.19.13,1.78.03.14-.02.23-.18.19-.24-.06-.49-.07-.72-.2-.25-.14-.52-.25-.77-.38-.07-.03-.13-.06-.18,0-.04.05-.03.12.02.18.05.06.08.14.14.19.68.61,1.13,1.37,1.51,2.2.2.44.51.83,1.03.96.89.22,1.65-.04,2.31-.65.68-.62,1.1-1.42,1.44-2.25.09-.21.12-.44.18-.66.03-.13-.04-.26-.12-.32-.12-.08-.19.06-.27.13-.22.21-.47.38-.74.5-.87.38-1.78.45-2.71.43-.14,0-.19-.05-.2-.19-.06-.6-.18-1.2-.18-1.81,0-.22.06-.28.28-.28.69,0,1.32-.2,1.9-.56.65-.4.67-.95.08-1.42-.1-.08-.2-.15-.3-.21-.77-.46-1.62-.62-2.59-.66Z"/>
    <path class="cls-12" d="m73.87,17.97c-.02-.21.45-.05.63.07.16.11.26.02.36-.1.61-.67,1.38-1.01,2.27-.99,1.53.03,2.8.91,3.17,2.48.33,1.41-.26,2.91-1.87,3.47-.31.11-.37.27-.28.56.08.26.06.53-.04.79-.04.1-.06.23-.2.22-.14-.01-.12-.15-.13-.23-.12-.53-.23-1.05-.43-1.56-.6-1.51-1.48-2.82-2.67-3.92-.27-.25-.56-.46-.81-.79Zm5.87,2.17c.03-.12-.05-.24-.07-.37-.14-1.03-.76-1.68-1.69-2-.93-.32-1.82-.16-2.55.55-.13.13-.17.21,0,.36,1.06.97,1.82,2.16,2.39,3.48.08.18.14.23.34.16.99-.34,1.54-1.13,1.59-2.18Z"/>
    <path class="cls-9" d="m68.41,35.36c-.21.02-.41-.06-.6-.15-1.2-.58-2.42-1.14-3.52-1.91-.05-.03-.1-.06-.14-.1-.25-.23-.53-.48-.41-.85.11-.33.46-.37.78-.41.84-.11,1.58.18,2.29.56.73.38,1.34.91,1.79,1.62.15.23.24.48.27.75.04.34-.12.5-.47.5Z"/>
    <path class="cls-12" d="m61.59,31.88c-.09,0-.16,0-.24-.07-.56-.46-1.17-.84-1.83-1.14-.09-.04-.15-.09-.15-.2.08-.77.68-1.27,1.57-1.2.79.07,1.18.53,1.25,1.32.05.53-.19.95-.6,1.28Z"/>
    <path class="cls-12" d="m53.97,29.47c.03.27-.07.38-.35.44-.45.09-.86.3-1.26.53-.1.06-.2.16-.33.07-.28-.34-.45-.72-.33-1.17.14-.48.61-.86,1.24-.81.56.04.9.34,1.03.94Z"/>
    <path class="cls-12" d="m62.36,21.86c.48-.03.8.35.7.73-.02.06-.03.11-.1.1-.07,0-.09-.05-.09-.11.02-.35-.21-.52-.51-.72Z"/>
    <path class="cls-12" d="m55.01,21.57c-.32.08-.54.22-.77.41-.06-.22.06-.33.19-.4.16-.1.33-.15.58,0Z"/>
    <path class="cls-16" d="m57.07,12.14c.14-.04.35-.1.42.08.07.18-.14.23-.26.29-.2.11-.42.2-.65.31.12.05.3.04.47.06s.24.01.37.07c.08.04.13.07.14.17.01.11-.07.16-.14.2-.27.15-.56.21-.86.25-.18.03-.37.05-.56.08.29.54.27.78.07.97-.4.33-.67.28-1.22-.22-.09.18-.17.36-.27.54-.12.22-.28.4-.53.48-.14.04-.29.07-.41-.04-.14-.12-.08-.26-.03-.4.03-.08.06-.17.09-.25.01-.02.04-.04.03-.04-.03-.04-.05-.01-.07,0-.21.1-.42.2-.63.3-.12.06-.29.15-.37.03-.09-.14.08-.26.19-.34.22-.18.46-.34.73-.54-.24-.02-.41.14-.63.08.15-.36.45-.5.75-.63.22-.1.45-.13.48-.48.02-.29.66-.56.95-.45.17.06.22-.07.3-.14.3-.25.61-.48,1.03-.53.1.04-.16.32-.23.39-.01.01.57-.17.84-.24Zm-2.29,1.78c.24-.03.53-.16.71-.45.14-.22.04-.4-.22-.41-.34,0-.62.15-.83.42-.07.09-.13.19-.05.31.06.1.17.14.39.13Z"/>
    <path class="cls-12" d="m33.75,30.5c.57,0,1.13.03,1.66.24.59.23.71.65.33,1.16-.42.57-.98.96-1.59,1.3-.1.06-.23.08-.22.25.04.76-.08,1.5-.13,2.25-.04.71.37,1.01,1.07.84.42-.1.79-.28,1.07-.63.06-.07.12-.2.23-.12.07.06.04.19,0,.28-.22.61-1.05,1.19-1.7,1.15-.33-.02-.65-.13-.93-.33-.14-.1-.22-.12-.35.02-.7.76-1.61,1.08-2.61,1.04-.81-.03-1.49-.41-1.98-1.07-.14-.2-.21-.42-.16-.66.01-.08.03-.16.12-.18.08-.01.11.06.15.11.51.9,1.32,1.23,2.31,1.13.81-.08,1.92-.55,2.07-1.74.08-.66.15-1.32.16-1.99,0-.18-.06-.23-.23-.22-.61.01-1.17-.14-1.7-.45-.15-.08-.29-.17-.4-.29-.4-.41-.39-.81.06-1.17.56-.45,1.21-.69,1.91-.83.29-.06.57-.08.86-.1Z"/>
    <path class="cls-6" d="m8.81,18.88c-.02-1.31,1.11-2.38,2.17-2.55.85-.13,1.58.05,2.22.61.16.14.16.23,0,.39-.98,1.01-1.73,2.17-2.24,3.49-.12.32-.27.38-.58.27-.86-.3-1.62-1.25-1.56-2.21Z"/>
    <path class="cls-12" d="m55.13,31.9c.97.04,1.82.2,2.59.66.1.06.21.13.3.21.59.47.57,1.03-.08,1.42-.58.36-1.22.56-1.9.56-.22,0-.28.07-.28.28,0,.61.12,1.21.18,1.81.01.14.06.19.2.19.93.02,1.85-.05,2.71-.43.28-.12.53-.29.74-.5.08-.07.15-.22.27-.13.08.06.16.19.12.32-.05.22-.09.45-.18.66-.35.83-.77,1.63-1.44,2.25-.66.6-1.42.87-2.31.65-.52-.13-.83-.52-1.03-.96-.38-.83-.83-1.59-1.51-2.2-.06-.05-.09-.13-.14-.19-.05-.06-.06-.13-.02-.18.05-.06.11-.03.18,0,.26.13.52.24.77.38.23.12.48.14.72.2.15.04.2-.06.18-.19-.12-.59-.15-1.18-.13-1.78,0-.15-.04-.22-.17-.31-.61-.4-1.23-.8-1.66-1.42-.28-.4-.29-.6.24-.98.32-.22.71-.23,1.07-.29.21-.04.42-.03.55-.04Zm.47,6.89c.29.55.8.76,1.38.6.91-.25,1.44-.91,1.88-1.68.17-.19.28-.41.38-.71-1.47.64-2.95.61-4.53.36.42.45.58.99.89,1.43Z"/>
    <path class="cls-9" d="m78.15,22.32c-.2.07-.26.02-.34-.16-.57-1.31-1.32-2.5-2.39-3.48-.17-.15-.13-.24,0-.36.74-.71,1.62-.87,2.55-.55.93.32,1.57.95,1.71,1.98.11,1.35-.54,2.23-1.54,2.58Z"/>
    <path class="cls-2" d="m54.77,13.92c-.22.01-.32-.02-.39-.13-.07-.11-.01-.22.05-.31.21-.27.48-.43.83-.42.26,0,.36.19.22.41-.19.29-.47.42-.71.45Z"/>
    <path class="cls-17" d="m53.66,14.71s.04-.05.07,0c0,0-.02.03-.03.04-.01-.01-.02-.02-.04-.04Z"/>
    <path class="cls-2" d="m58.86,37.71c-.44.77-.97,1.43-1.88,1.68-.58.16-1.09-.06-1.38-.6.95-.76,2.04-1.12,3.26-1.08Z"/>
    <path class="cls-9" d="m58.86,37.71c-1.22-.04-2.3.32-3.26,1.08-.31-.44-.47-.97-.89-1.43,1.57.24,3.06.28,4.53-.36-.1.3-.21.52-.38.71Z"/>
    <path class="cls-16" d="m26.12,45.29s-.04-.06-.05-.08c0-.01-.01-.02-.02-.03,0-.01-.02-.02-.03-.03-.02-.02-.04-.04-.07-.06,0,0-.23-.12-.5.06-.29-.3-.66-.2-1.01-.2-.12,0-.17-.04-.11-.16.3-.12.63-.17.92-.02.18.09.3.05.44-.03.02,0,.04-.04,0-.13h0c-.19-.39-.66-.51-1.15-.3,0,0-.41.13-.65.47-.16.22-.22.44-.22.58-.01.01-.02.03-.03.04,0-.01-.01-.03-.02-.04-.07-.13-.07-.27-.07-.41.07-.27-.39-.34-.75-.01-.22.18-.37.41-.41.7-.01.1-.03.19.06.27.39.35,1.31.32,1.66-.06.13-.14.27-.21.49-.12,0,0,0,0,0,0-.07.03-.73.31-.54,1.08.13.53.64.55.81.5,0,0,.42-.11.35-.57-.04-.3-.2-.42-.34-.51.01,0,.03,0,.04,0,0,0,0,0,.01,0,.13.04.41.16.47.58,0,.03,0,.06,0,.09,0,0,.2.34.61-.21.34-.45.3-1.05.09-1.4Zm-3.29.15s-.09.06-.14,0c-.04-.05-.01-.11.01-.16.11-.22.38-.29.74-.14-.28.06-.49.08-.61.29Zm1.3-.59s0,.06,0,.09l-.03-.02-.03-.03s.04-.03.07-.05t0,0Z"/>
    <path class="cls-2" d="m24.73,44.4c-.66.04-.97.57-.97,1.04,0,.1.2.12.2.02,0-.41.24-.87.82-.9.13,0,.09-.16-.04-.15h0Z"/>
    <path class="cls-2" d="m24.29,46.15c-.25.44-.08.82.2.99.06.04.15-.08.09-.12-.23-.15-.4-.46-.18-.84.05-.08-.06-.11-.1-.03h0Z"/>
    <path class="cls-12" d="m22.04,45.69s-.07-.47.46-.93,1.13-.34,1.13-.34c0,0,.21-.27.5-.3l.07.17-.33.29s-.17.09-.19.09-.2-.09-.2-.09l-.25-.02-.33.12-.36.29-.29.43-.17.43-.04-.14Z"/>
    <path class="cls-12" d="m26.49,43.99s.24.71-.24.99l-.04.29.17-.04s.52-.36.47-.85l-.19-.44-.17.04Z"/>
    <path class="cls-12" d="m26.51,46.25s.14.01.26-.07c.19-.14.4-.37.36-.16,0,0-.28.54-.85.86,0,0-.11-.63.22-.64Z"/>
    <path class="cls-12" d="m23.52,42.32s.21-.14.26-.19.06.19-.1.44.07.78.07.78c0,0-.34-.36-.32-.38s0-.52,0-.52l.1-.14Z"/>
    <path class="cls-12" d="m23.16,41.73s.69.08,1.28.68c0,0,.14.27-.29.73,0,0-.06.05-.04.1.02.04.18-.02.29-.1.22-.17.24-.21.36-.43l-.04-.22-.26-.35-.55-.32-.5-.23-.24.14Z"/>
    <path class="cls-12" d="m24.09,44.14s.72-.41,1.56-.04c0,0,.45.15.38.75l-.11-.02-.24-.54-.17-.12-.43-.1-.72.12-.21.12-.35.27-.19.07-.31-.02s-.19,0-.17-.04.16-.09.16-.09l.46-.05.21-.14.14-.16Z"/>
    <path class="cls-12" d="m31.13,45.59h0s.02-.02.02-.03c0-.02,0-.02-.02-.03,0,0-.02,0-.03,0-.02.01-.03.04-.03.06s-.01.05-.02.07c-.01.05-.02.1-.02.15,0,.1-.02.21-.05.31-.01.04.05.06.06.02.03-.09.04-.18.05-.28,0-.05,0-.1.02-.14,0-.02,0-.05.01-.07,0,0,0-.02,0-.03,0,0,.01-.03,0-.03h-.03,0s-.01-.02-.02-.03h0s.01-.01.02-.02h0s0,.07.03.06h0Z"/>
    <path class="cls-12" d="m31.43,45.22c-.02-.05-.08-.04-.12-.02-.04.02-.06.05-.07.09,0,.02,0,.03.02.04.02,0,.03,0,.04-.01,0,0,0,0,0,0,0,0,0-.01,0,0,0,0,0,0,.01-.01,0,0,0,0,.01-.01,0,0,0,0,0,0,0,0,0,0,0,0,0,0,0,0,0,0,0,0,.01,0,.02,0,0,0,0,0,0,0,0,0,0,0,0,0,0,0,0,0,0,0,0,0,0,0,0,0,0,0,0,0,0,0,0,0,0,0,0,0,0,0,.01,0,.02,0,.01,0,.03-.01.03-.02,0-.01,0-.03-.01-.04-.03-.02-.08,0-.11.02s-.05.05-.07.08c0,.01,0,.04.01.04.02,0,.03,0,.04-.01,0,0,0,0,0,0,0,0,0,0,0,0,0,0,0,0,0,0,0,0,0,0,0,0,0,0,0-.01.01-.02s0,0,.01-.01c0,0,0,0,0,0,0,0,0,0,0,0,0,0,0,0,0,0,0,0,.01,0,.02-.01,0,0,.01,0,.02-.01,0,0,0,0,0,0,0,0,0,0,0,0,0,0,0,0,0,0,0,0,0,0,0,0,0,0,0,0,0,0,0,0,0,0,0,0,0,0,0,0,0,0,0,0,0,0,0,0,0,0,0,0,0,0l.02-.06s-.06,0-.09.02-.05.04-.06.07l.06.02s0,0,0,0c0,0,0,0,0,0,0,0,0,0,0,0,0,0,0,0,0,0,0,0,0,0,0,0,0,0,0,0,0,0s0,0,.01-.01c0,0,0,0,0,0s0,0,0,0c0,0,0,0,0,0,0,0,0,0,0,0,0,0,0,0,0,0,0,0,0,0,0,0,0,0,.01,0,.02,0,0,0,0,0,0,0,0,0,0,0,0,0s0,0,0,0c0,0,0,0,0,0,0,0,0,0,0,0,0,0,0,0,0,0,0,0,0,0,0,0h0s0,0,0,0c0,.02.02.03.04.02s.03-.02.02-.04h0Z"/>
    <path class="cls-12" d="m31.38,45.18c-.11.02-.2.1-.25.19-.07.11-.09.24-.12.36,0,.04.05.06.06.02.04-.19.09-.46.32-.5.04,0,.02-.07-.02-.06h0Z"/>
    <path class="cls-12" d="m31.13,45.39c-.08.11-.12.24-.14.38s-.02.29-.11.4c-.03.03.02.08.05.05.09-.11.11-.24.12-.37.02-.15.05-.29.14-.42.02-.03-.03-.07-.06-.03h0Z"/>
    <path class="cls-12" d="m31.38,45.35c-.17-.09-.27.18-.31.29-.07.18-.11.38-.11.58,0,.04.07.04.06,0,0-.16.02-.32.07-.48.02-.08.05-.15.09-.22.03-.06.08-.16.16-.12.04.02.07-.04.03-.06h0Z"/>
    <path class="cls-12" d="m32.19,44.38c.11.04.04.18-.02.24-.07.07-.14.11-.2.19-.1.14-.14.32-.15.49,0,.04.06.04.06,0,0-.05.03-.1.05-.14.02-.04-.03-.07-.06-.03-.03.04-.06.09-.09.13-.02.03.02.06.04.04.04-.02.07-.07.09-.11.03-.06.06-.12.09-.18.07-.12.15-.23.24-.33.02-.03,0-.07-.04-.05s-.06.05-.09.07l.04.05.09-.11s-.02-.08-.05-.05l-.04.05.05.05.06-.08s-.02-.08-.05-.05l-.07.07.05.04.06-.09s-.03-.07-.05-.04l-.06.06.05.04.06-.09-.06-.02s-.02.05-.03.07l.06.03.08-.15s-.03-.07-.06-.03c-.07.11-.15.21-.23.3l.05.05.14-.17-.05-.05-.07.09s.01.07.05.05c.08-.08.14-.17.18-.28.01-.04-.05-.06-.06-.02-.04.1-.09.18-.17.25l.05.05.07-.09s-.02-.08-.05-.05l-.14.17s.02.08.05.05c.09-.1.17-.2.24-.31l-.06-.03-.08.15s.03.07.06.03c.02-.03.03-.06.04-.09.01-.04-.04-.05-.06-.02l-.06.09s.03.07.05.04l.06-.06-.05-.04-.06.09s.03.07.05.04l.07-.07-.05-.05-.06.08s.02.08.05.05l.04-.05-.05-.05-.09.11s0,.07.04.05.06-.05.09-.07l-.04-.05c-.08.09-.16.19-.22.3-.03.05-.06.11-.09.16-.02.05-.04.12-.09.15l.04.04s.06-.09.09-.13l-.06-.03s-.05.1-.06.15h.06c.02-.21.07-.41.24-.55.07-.06.16-.13.18-.23.01-.08-.03-.16-.1-.19-.04-.01-.06.05-.02.06h0Z"/>
    <path class="cls-12" d="m32.19,44.38c.08.07.04.19.01.28-.01.04.05.06.06.02.02-.06.04-.13.04-.19,0-.06-.02-.11-.07-.15-.03-.03-.08.02-.05.05h0Z"/>
    <path class="cls-12" d="m29.46,47.72c.05-.06.11-.12.18-.16.08-.04.16-.06.25-.08.08-.02.16-.04.22-.1.05-.05.09-.12.08-.19,0-.04-.07-.04-.06,0,.02.18-.21.22-.34.25-.15.04-.28.12-.37.24-.03.03.02.08.05.05h0Z"/>
    <path class="cls-12" d="m29.66,47.51c.14-.02.27-.08.38-.17.03-.02,0-.07-.04-.05l-.16.11.04.05.06-.05s0-.06-.03-.05l-.11.04s-.02.07.02.06c.12-.02.24-.05.36-.1.03,0,.03-.06,0-.06-.08-.01-.15.01-.21.07-.02.02,0,.06.02.06.11,0,.21-.06.28-.15.02-.03-.03-.06-.05-.04-.04.04-.1.08-.15.1-.04.02-.02.08.02.06.1-.03.18-.09.24-.16l-.05-.03s-.04.05-.06.07c-.04.02-.08.03-.11.04-.08.03-.17.05-.25.06-.04,0-.04.07,0,.06.1-.01.21-.03.3-.07.07-.03.17-.06.19-.14,0-.03-.03-.06-.05-.03-.06.07-.13.12-.21.15l.02.06c.07-.03.13-.07.18-.12l-.05-.04c-.05.07-.14.11-.22.12l.02.06s.09-.06.15-.05v-.06c-.12.04-.23.07-.36.1l.02.06.11-.04-.03-.05-.06.05s0,.07.04.05l.16-.11-.04-.05c-.1.08-.22.13-.35.16-.04,0-.02.07.02.06h0Z"/>
    <path class="cls-12" d="m30.21,47.22s0,.04-.02.06c-.02.02-.05.03-.08.04-.05.02-.11.04-.15,0-.01-.01-.04,0-.04.01,0,.02,0,.03.01.04.07.05.16.02.22-.01.04-.02.07-.04.1-.07s.03-.08,0-.11-.08,0-.06.03h0Z"/>
    <path class="cls-12" d="m30.21,47.24s.05.01.07.01l-.03-.02s0,0,0,0c0,0,0,0-.02.01-.01,0-.03.02-.05.03-.03.01-.06.03-.09.04s-.06.02-.1.02c-.01,0-.03,0-.05,0,0,0,0,0-.01,0,0,0,0,0,0,0,.02-.04-.04-.07-.06-.03-.02.05.01.1.06.11.03,0,.05,0,.08,0s.05-.01.08-.02c.05-.01.1-.04.14-.06s.09-.06.07-.12c0,0-.02-.02-.03-.02-.02,0-.04,0-.05,0-.02,0-.04,0-.04.02,0,.02,0,.03.02.04h0Z"/>
    <path class="cls-12" d="m30.22,47.23h0s0,.01,0,.02h0s0,.01-.01.01h-.01s0,0-.01,0h0s0-.01,0-.01c0,0,0,0,0,0,0,0,0,.01-.01.02,0,.01-.02.02-.03.03-.02.02-.04.03-.07.04-.05.01-.12,0-.16-.04-.03-.03-.08.02-.05.05.08.07.19.08.28.03.04-.02.08-.06.09-.1.01-.03,0-.06-.03-.07-.01,0-.03,0-.04.01-.01.01-.01.03,0,.05s.03.02.04.01c.02,0,.02-.03.01-.04h0Z"/>
    <path class="cls-12" d="m30.17,47.24c-.07.05-.15.08-.24.08-.04,0-.04.07,0,.06.1,0,.19-.03.27-.09.01-.01.02-.03.01-.04,0-.01-.03-.02-.04-.01h0Z"/>
    <path class="cls-12" d="m32.42,48.73c-.08.02-.14.09-.15.17,0,.02.02.03.03.03.02,0,.03-.01.03-.03,0-.05.03-.1.07-.13.02-.02,0-.07-.03-.05-.09.03-.16.1-.19.19-.01.03.04.06.06.02.03-.06.06-.11.11-.14.03-.02,0-.08-.03-.06-.12.07-.19.23-.16.37,0,.04.07.02.06-.02-.02-.11.03-.24.13-.29l-.03-.06c-.06.04-.11.1-.14.16l.06.02c.02-.07.08-.12.14-.15l-.03-.05c-.05.05-.08.11-.09.18h.06c0-.05.05-.09.1-.11.04,0,.02-.07-.02-.06h0Z"/>
    <path class="cls-12" d="m32.32,48.84c-.08.07-.14.18-.16.29,0,.04.05.06.06.02.02-.07.03-.14.05-.22,0-.04-.04-.06-.06-.02-.04.07-.08.14-.1.22-.01.04.04.05.06.02.03-.05.06-.11.08-.16l-.06-.02c-.04.14-.13.27-.24.37h.05s0-.02,0-.03c.02-.04-.03-.07-.06-.03-.02.03-.02.06-.01.09,0,.02.04.03.05.01.12-.11.21-.25.25-.4.01-.04-.05-.06-.06-.02-.02.05-.04.1-.07.15l.06.02c.02-.07.06-.14.1-.2l-.06-.02c-.02.07-.03.14-.05.22l.06.02c.01-.1.06-.19.14-.26.03-.03-.01-.07-.05-.05h0Z"/>
    <path class="cls-12" d="m35.28,47.03c0,.05-.03.1-.08.13s-.09.05-.14.04c-.02,0-.03.01-.03.03s0,.03.02.04c.1.02.21-.05.23-.15h-.06s0,0,0,0c0,0,0,0,0,0,0,0,0,0,0,.01,0,.01,0,.01,0,.02,0,.02-.02.03-.04.04,0,0,0,0,0,0,0,0,0,0,0,0,0,0,0,0-.01,0,0,0,0,0,0,0,0,0,0,0,0,0,0,0,0,0-.01,0,0,0-.02,0-.02,0,0,0-.01,0-.01,0,0,0,0,0,0,0-.01,0,0,0,0,0l-.02.06c.1.02.22-.05.24-.16h-.06s0,0,0,0c0,0,0,0,0,0,0,0,0,0,0,0,0,0,0,0,0,.01,0,0,0,0,0,0,0,0,0,0,0,0,0,0,0,0,0,.01,0,0,0,0,0,0,0,0,0,0,0,0,0,0-.01.01-.02.02-.02.01-.03.02-.05.02,0,0,0,0,0,0,0,0,0,0,0,0,0,0-.01,0-.02,0,0,0,0,0,0,0,0,0,0,0,0,0,0,0-.01,0-.02,0-.02,0-.04,0-.04.02,0,.02,0,.03.02.04.1.04.23-.05.22-.16,0-.02-.01-.03-.03-.03-.01,0-.03,0-.04.02,0,.02,0,.03-.02.05,0,0,0,0,0,0,0,0,0,0-.01.01,0,0-.01.01-.02.02-.02.01-.03.02-.05.02,0,0,0,0-.01,0h0s0,0,0,0c0,0,0,0,0,0,0,0-.01,0-.02,0,0,0,0,0,0,0-.01,0,0,0,0,0-.02,0-.03,0-.04.02,0,.02,0,.04.02.04.11.02.22-.07.23-.18,0-.04-.05-.04-.06,0,0,.03-.03.06-.06.08,0,0-.02,0-.03.01,0,0,0,0,0,0,0,0,0,0-.01,0,0,0,0,0-.01,0,0,0,0,0,0,0h0s0,0,0,0c0,0,0,0-.01,0,0,0,0,0,0,0,0,0,0,0,0,0v.06c.12.01.25-.09.27-.21,0-.02,0-.03-.02-.04-.02,0-.04,0-.04.02h0Z"/>
    <path class="cls-12" d="m35.31,47.07s-.04.09-.09.11-.11,0-.15-.02c-.01-.01-.03-.01-.05,0-.01.01-.01.03,0,.05.06.05.14.07.21.04.07-.03.12-.08.14-.16,0-.02,0-.03-.02-.04-.02,0-.04,0-.04.02h0Z"/>
    <path class="cls-12" d="m34.31,46.05c-.03.17.05.35.2.45.03.02.07-.03.03-.06-.12-.08-.19-.23-.17-.37,0-.02,0-.03-.02-.04-.02,0-.04,0-.04.02h0Z"/>
    <path class="cls-12" d="m34.3,46c-.03.1,0,.21.09.28.01.01.03.01.05,0,.01-.01.01-.03,0-.05-.03-.03-.05-.06-.07-.1s-.01-.08,0-.12-.05-.06-.06-.02h0Z"/>
    <path class="cls-12" d="m31.2,46.27s-.12.04-.18.04c-.07,0-.14,0-.21-.01-.12,0-.24,0-.33.07-.03.02,0,.08.03.06.11-.08.24-.07.37-.05.07,0,.14.01.21,0,.06,0,.12-.02.16-.06.03-.03-.02-.08-.05-.05h0Z"/>
    <path class="cls-12" d="m30.61,46.4l.47-.05s.05-.05,0-.06c-.06-.02-.12-.01-.18.02-.03.01-.02.06.02.06.08,0,.16-.02.23-.04.03,0,.03-.06,0-.06-.08-.02-.15,0-.22,0s-.15-.02-.23,0c-.13.02-.21.13-.33.17l.02.06c.11-.05.22-.08.33-.1.04,0,.03-.06,0-.06-.06,0-.11,0-.16.02-.04.01-.02.07.02.06.15-.03.31-.03.46-.02.05,0,.12.02.17,0,.05-.03.03-.1,0-.14-.01-.02-.04-.02-.06,0-.02.03-.02.06-.02.1l.02-.03s-.09.01-.13-.01c-.04-.02-.07.04-.03.06.06.03.12.04.18.02.01,0,.02-.02.02-.03,0-.02,0-.04.01-.06h-.06s.03.06-.01.06c-.02,0-.05,0-.07,0-.06,0-.12,0-.17,0-.11,0-.23.01-.34.03l.02.06s.1-.02.15-.02v-.06c-.13.02-.25.05-.36.1-.03.02,0,.07.02.06.11-.04.2-.14.31-.17.07-.02.15,0,.22,0s.15-.03.22-.01v-.06c-.07.02-.14.03-.21.04l.02.06s.08-.02.13-.01v-.06c-.15.02-.3.03-.46.05-.04,0-.04.07,0,.06h0Z"/>
    <path class="cls-12" d="m30.58,46.32c-.11.03-.22.07-.32.13-.04.02,0,.08.03.06.13-.07.28-.12.43-.13.07,0,.14-.01.21-.01.04,0,.08,0,.11,0s.08,0,.11.03l.02-.06s-.07,0-.07-.03c0-.03,0-.05.04-.06.02,0,.05,0,.06.03.02.04-.02.08-.06.07v.06s.05,0,.07,0v-.06s-.04.01-.05.02l.02.06h.03s.03-.06,0-.07c-.08-.03-.17-.06-.25-.09-.04-.01-.06.05-.02.06.08.03.17.06.25.09v-.06h-.03s-.02.09.02.07l.04-.02s.03-.06,0-.06h-.08s-.05.06,0,.06c.07,0,.14-.03.14-.1,0-.07-.05-.12-.11-.12s-.11.04-.12.11c0,.03,0,.06.03.09.03.04.07.03.11.03.03,0,.04-.03.02-.06-.05-.05-.13-.05-.2-.05-.09,0-.18,0-.26,0-.17.02-.33.06-.48.14l.03.06c.09-.05.19-.1.3-.12.04-.01.02-.07-.02-.06h0Z"/>
    <path class="cls-12" d="m30.11,47.28l-.09.06s0,.07.03.06c.01,0,.02,0,.04-.01l-.02-.06s-.03.02-.04.02-.02.02-.01.04c0,.01.02.03.03.02s.02,0,.04-.01l-.04-.05s-.03.02-.04.03-.01.03,0,.04c.01.01.03.02.04,0h.02s.02-.04.01-.05c0-.02-.03-.02-.04-.01h-.02s-.02.04-.01.05c0,.02.03.02.04.01.1-.05.19-.11.27-.19.02-.02,0-.05-.01-.05h-.02s-.06.05-.02.06h.02s0-.03-.01-.05c-.08.07-.16.13-.26.18l.03.06h.02s-.02-.05-.03-.07h-.02s.03.04.04.06c.01-.01.03-.02.04-.03s.01-.03,0-.04c0-.01-.03-.02-.04,0,0,0,0,0,0,0l.02.06s.03-.02.04-.02.02-.02.01-.04c0-.01-.02-.03-.03-.02-.02,0-.05,0-.07.02l.03.06.09-.06s.02-.03.01-.04c0-.01-.03-.02-.04-.01h0Z"/>
    <path class="cls-12" d="m30.83,46.41c.11.01.21.02.32.02.04,0,.1.01.12-.03.03-.04-.03-.09-.06-.11-.01-.01-.04,0-.04.01,0,.02,0,.03.01.04,0,0,.02.01.02.02,0,0,0,0,0,.01s0,0,0,0v-.02s.01,0,0,0c0,0-.01,0-.02,0-.02,0-.03,0-.05,0-.04,0-.07,0-.11,0-.07,0-.14,0-.21-.02-.02,0-.03.02-.03.03,0,.02.01.03.03.03h0Z"/>
    <path class="cls-12" d="m30.43,46.51s0,.01,0,0c0,0,0,0,.01-.01.01,0,.02-.02.03-.02.02-.01.04-.03.07-.04.05-.02.1-.03.16-.03.06,0,.12,0,.18,0,.04,0,.1,0,.12-.04.02-.04-.04-.07-.06-.03,0,.02-.05.01-.07.01-.03,0-.07,0-.1,0-.06,0-.12,0-.18.01-.05.01-.1.03-.14.06-.03.02-.11.06-.09.11.01.04.08.02.06-.02h0Z"/>
    <path class="cls-12" d="m30.62,46.36c-.15.05-.27.14-.35.27s-.14.32-.07.46c.02.04.07,0,.06-.03-.06-.13,0-.3.07-.41s.18-.19.31-.24c.04-.01.02-.08-.02-.06h0Z"/>
    <path class="cls-12" d="m30.36,46.52c.15-.06.31-.1.47-.12.02,0,.03-.01.03-.03,0-.02-.02-.03-.03-.03-.17.02-.33.06-.48.12-.04.02-.02.08.02.06h0Z"/>
    <path class="cls-12" d="m30.3,47.14s-.04.05-.06.07c-.03.02-.06.04-.08.06-.06.04-.12.07-.19.08-.02,0-.03.01-.03.03,0,.02.01.03.03.03.08,0,.16-.04.22-.09.03-.02.06-.05.1-.07s.06-.05.08-.09c0-.02,0-.03-.01-.04-.01,0-.04,0-.04.01h0Z"/>
    <path class="cls-12" d="m30.28,47.2s-.04.05-.06.06c-.03.02-.06.04-.1.06-.07.03-.14.05-.21.06-.02,0-.03.02-.02.04,0,.02.02.03.04.02.09-.01.17-.04.25-.08.04-.02.07-.04.11-.07s.06-.06.06-.1c0-.02-.02-.03-.03-.03-.02,0-.03.01-.03.03h0Z"/>
    <path class="cls-12" d="m29.42,47.78c-.05.19-.07.38-.07.58h.06c0-.09,0-.18,0-.26,0-.04-.07-.04-.06,0,0,.09,0,.18,0,.26,0,.04.07.04.06,0,0-.19.02-.38.06-.56.01-.04-.05-.06-.06-.02h0Z"/>
    <path class="cls-12" d="m29.41,48.02v-.02s-.03-.01-.05-.02c0,.11,0,.22-.02.33,0,.04.06.04.06,0,.01-.07.02-.14.02-.21,0-.07,0-.15.01-.22,0-.04-.06-.04-.06,0-.01.16-.02.32-.03.49,0,.04.06.04.06,0,0-.09.01-.18.02-.27s.02-.17.04-.26l-.06-.02c-.02.16-.05.33-.07.49,0,.04.05.06.06.02.03-.08.02-.15.02-.23,0-.08.02-.17.04-.25l-.06-.02c-.02.16-.04.31-.04.47,0,.04.06.04.06,0,0-.05,0-.11,0-.16,0-.04-.07-.04-.06,0,0,.05,0,.11,0,.16l.06-.02v-.03s-.09,0-.07.03v.03s.07.01.07-.02c0-.05,0-.11,0-.16h-.06c0,.05,0,.11,0,.16h.06c0-.15.02-.3.04-.45,0-.04-.05-.06-.06-.02-.02.08-.03.16-.04.24s0,.16-.02.24l.06.02c.02-.16.05-.33.07-.49,0-.04-.05-.06-.06-.02-.03.09-.04.18-.05.27,0,.09-.01.19-.02.28h.06c.01-.16.02-.32.03-.49h-.06c0,.07,0,.14-.01.21s0,.14-.02.2h.06c.01-.1.02-.21.02-.32,0-.03-.04-.04-.06-.02v.02s.02.07.04.03h0Z"/>
    <path class="cls-12" d="m27.71,47.62h0s.03,0,.04,0h0s0,0,.01.01h0v.03h0s-.02,0-.03.01h0s-.01,0-.02,0c0,0,0,0,0,0,0,0,0,0,0,.01,0,0,0,.01.01.01,0,0,.02.02.03.03.02.02.04.04.05.05s.03.03.05.05c0,0,0,0,0,0,0,0,0,0,0,0,0,0,0,.01.01.02,0,.01.01.02.01.03,0,.02.02.03.04.02.02,0,.03-.02.02-.04-.02-.06-.07-.11-.12-.16-.02-.02-.05-.04-.07-.07-.01-.01-.02-.03-.04-.03-.02,0-.03,0-.03.02s0,.03.02.04c.01,0,.03,0,.04,0h0s.01-.03,0-.05-.03-.01-.05,0h0Z"/>
    <path class="cls-12" d="m27.73,47.6h0s0-.02-.02-.03c0,0-.02,0-.03,0-.04.02,0,.07.01.09s.04.05.06.07c.04.04.09.08.13.12.01.01.03.01.05,0s.01-.03,0-.05c-.07-.07-.16-.13-.21-.22v.02s0,0,0,0v.02s0,0,0,0h-.01s0,.01,0,.01l-.05-.03h0s.01.03.03.03c.02,0,.03-.01.03-.03h0Z"/>
    <path class="cls-12" d="m27.68,47.64s.08.08.12.13c.03.04.07.08.09.12,0,.02.03.02.04.01.02,0,.02-.03.01-.04-.02-.05-.06-.09-.1-.13-.04-.04-.08-.09-.12-.13-.03-.03-.07.02-.05.05h0Z"/>
    <path class="cls-12" d="m27.73,47.59h-.01s-.07,0-.05.03c.06.08.12.15.19.22l.05-.05c-.06-.06-.12-.12-.17-.18l-.05.05c.07.09.15.17.22.26l.05-.05c-.06-.06-.12-.12-.16-.19l-.05.04c.06.07.11.14.17.21.01.01.03.02.04.01.01,0,.02-.03.01-.04-.06-.1-.13-.19-.21-.27-.02-.03-.07,0-.05.04,0,.01.02.03.02.04l.05-.04s-.02-.03-.03-.04c-.02-.03-.07,0-.05.04.03.04.06.07.09.1l.05-.05s-.04-.04-.06-.06l-.05.05c.08.08.15.18.2.28l.06-.03c-.06-.08-.11-.16-.16-.24l-.05.04c.07.08.12.18.17.27l.05-.04s0,0-.01-.02c-.02-.03-.08,0-.06.03,0,.01.01.02.02.03.03.03.07,0,.05-.04-.05-.1-.11-.2-.18-.29-.02-.03-.07,0-.05.04.05.08.1.16.16.24.02.03.08,0,.06-.03-.06-.11-.13-.2-.21-.29-.03-.03-.07.01-.05.05.02.02.04.04.06.06.03.03.08-.02.05-.05-.03-.03-.06-.06-.08-.09l-.05.04s.02.03.03.04c.02.03.07,0,.05-.04,0-.01-.02-.03-.02-.04l-.05.04c.07.08.14.17.2.26l.06-.03c-.06-.08-.11-.15-.18-.22-.02-.03-.07,0-.05.04.05.07.11.14.17.2.03.03.07-.01.05-.05-.07-.09-.15-.17-.22-.26-.01-.01-.03-.01-.05,0-.01.01-.01.03,0,.05.05.07.11.13.17.18.03.03.08-.02.05-.05-.06-.07-.13-.13-.18-.21l-.05.04h.01s.08,0,.05-.04h0Z"/>
    <path class="cls-12" d="m27.76,47.62h-.01s-.02.03-.03.05c.1.07.15.19.21.29l.05-.04s0,0,0,0c-.01-.01-.03-.01-.05,0-.01.01-.01.03,0,.05,0,0,0,0,0,0,0,.01.03.01.04,0,.01-.01.02-.03,0-.04-.06-.12-.12-.24-.23-.32-.01,0-.04,0-.04.01,0,.02,0,.03.01.04h.01s.04.01.04,0c0-.02,0-.03-.01-.04h0Z"/>
    <path class="cls-12" d="m27.74,47.64c.08.08.15.18.19.29,0,.02.02.03.04.02.02,0,.03-.02.02-.04-.05-.12-.12-.23-.21-.31-.03-.03-.08.02-.05.05h0Z"/>
    <path class="cls-12" d="m27.77,47.65c.09.09.16.2.21.32,0,.02.03.02.04.01.02,0,.02-.03.01-.04-.06-.12-.13-.23-.22-.33-.03-.03-.07.02-.05.05h0Z"/>
    <path class="cls-12" d="m27.79,47.67s.09.08.12.13c.02.03.03.05.05.08,0,.01.01.03.02.04,0,0,0,.01.01.02,0,0,0,0,0,0,0,0,0,.01,0,0v-.02s0,0,0,0h.01s0,0,0,0h.02s0,0,0,0c-.03-.03-.07.01-.05.05.02.02.06.01.06-.02,0-.02-.01-.05-.02-.07-.02-.04-.04-.07-.06-.11-.04-.07-.09-.14-.16-.19-.01-.01-.04,0-.04.01,0,.02,0,.03.01.04h0Z"/>
    <path class="cls-12" d="m27.81,47.69c.05.03.09.08.13.13.02.03.03.05.04.08,0,.02.03.06.02.08-.02.04.04.07.06.03.02-.04,0-.08,0-.12-.01-.03-.03-.07-.05-.1-.04-.06-.09-.12-.16-.16-.04-.02-.07.03-.03.06h0Z"/>
    <path class="cls-12" d="m27.16,47.15c-.16-.05-.33-.05-.48.02-.06.03-.12.07-.17.12-.04.05-.1.12-.1.18,0,.04.06.04.06,0,0-.03.02-.06.04-.08s.04-.05.06-.07c.04-.04.1-.08.15-.1.13-.06.28-.05.42-.01.04.01.06-.05.02-.06h0Z"/>
    <path class="cls-12" d="m26.93,47.15c-.18,0-.35.09-.45.24-.02.02.01.05.04.05.04,0,.06-.03.09-.06.03-.03.07-.05.1-.07.07-.04.15-.06.24-.07v-.06c-.12.02-.22.04-.32.1-.03.02-.01.07.02.06.13-.05.26-.09.4-.12.04,0,.02-.07-.02-.06h-.06s.01.05.02.07c.04-.01.08-.03.12-.04l-.02-.06-.02.02s-.01.07.02.06h.02s.02-.08-.02-.07c-.21.04-.42.08-.58.21-.03.02,0,.07.04.05l.14-.1s.01-.07-.02-.06c-.06.02-.11.05-.17.08-.04.03-.09.06-.07.12.01.04.07.02.06-.02,0-.03.07-.06.09-.07.04-.02.07-.04.11-.05l-.02-.06-.14.1.04.05c.16-.13.36-.16.55-.19l-.02-.06h-.02s.02.05.02.06l.02-.02s.01-.07-.02-.06c-.04.02-.08.03-.12.04s-.02.07.02.06h.06s-.01-.05-.02-.07c-.14.03-.27.07-.4.12l.02.06c.09-.05.2-.07.3-.09.04,0,.03-.07,0-.06-.08,0-.17.02-.24.06-.04.02-.07.04-.11.07-.03.02-.06.06-.1.07l.04.05c.09-.13.24-.21.4-.21.04,0,.04-.06,0-.06h0Z"/>
    <path class="cls-12" d="m27.23,46.49c-.06.03-.11.09-.13.16-.02.08,0,.17.03.24.01.04.08.02.06-.02-.02-.06-.05-.14-.03-.2.01-.05.05-.1.1-.12.04-.02,0-.07-.03-.06h0Z"/>
    <path class="cls-12" d="m27.26,46.53s-.03-.04-.05-.04-.04.03-.06.05c-.03.05-.05.1-.05.16-.01.11.01.23.08.32.02.03.08,0,.06-.03-.04-.07-.07-.14-.07-.22,0-.04,0-.08.02-.12,0-.02.01-.04.02-.05,0,0,0-.02.02-.02,0,0,0,0,.01-.01.01,0,0-.01-.02,0v-.02s0,0,0,0c0,.04.06.04.06,0h0Z"/>
    <path class="cls-18" d="m27.69,46.83s.19-.37-.15-.42-.51.12-.4.5c0,0,.1.3-.07.2l-.16-.28.05-.36s.17-.18.22-.22.29-.1.29-.1c0,0,.12,0,.19.04s.1,0,.13.07.04.05.06.1.02.15.02.17-.18.28-.18.28Z"/>
    <path class="cls-12" d="m31.08,43.59s-.14.83-1.71,2.31c-.82.78-1.06,1.5-1.06,1.5l.14.07.33-.51s.42-.73.6-.86.62-.57.62-.57l.6-.68s.41-.58.41-.61.2-.6.2-.6l-.12-.06Z"/>
    <path class="cls-12" d="m50.03,18.08c-.04-1.31.25-2.23.85-2.73.66-.55,1.44-.39,1.47-.39l-.04.19s-.73-.14-1.31.35c-.55.47-.82,1.33-.78,2.58h-.19Z"/>
    <path class="cls-17" d="m52.84,14.47s-.68.25-.45.73c0,0,.07.18.41.18.26,0,.46-.17.46-.17,0,0-.04.34.15.48s.72.13,1.09-.2l-.2.03s-.33.09-.4.09-.4-.05-.4-.05l-.08-.23.02-.21-.07-.13s-.28.12-.31.14-.4.13-.4.13c0,0-.13-.23-.13-.24s-.03-.12,0-.14.17-.16.19-.19.12-.21.12-.21Z"/>
    <path class="cls-17" d="m53.31,13.8s-.32.23-.31.39c0,.12.22-.06.58-.04l-.49.16s-.17.03-.19.02-.08-.17-.07-.19.17-.29.17-.29c0,0,.11-.12.15-.14s.16.1.16.1Z"/>
    <g>
      <g>
        <path class="cls-13" d="m29.97,49.8s-.11.04-.67.08c0,0,0-.01.01-.03.17-.02.4-.03.66-.05Z"/>
        <path class="cls-13" d="m31.47,49.45c-.11.28-.19.24-.19.24-.03.03-.71.08-1.31.11-.26.02-.49.03-.66.05-.16,0-.26.01-.26.01.24-.49.26-.91.26-1.17s.09-.24.26-.32c.17-.08.05-.08-.09-.1-.13-.02-.11-.11-.11-.11.05-.59.29-.65.29-.65.06-.02.29-.06.46-.16.17-.1.19-.21.19-.21-.08-.12-.08-.3-.08-.3.01-.2.11-.32.32-.41.22-.08.63.03.69-.06s.04-.15.03-.35c-.02-.19-.08-.39.03-.53.1-.15.34-.09.56-.01.23.07.3-.01.3-.01.07-.05-.03-.15-.03-.15-.07-.05-.1-.12-.1-.12-.08-.3.3-.53.3-.53.73-.44,1.05-.34,1.18-.29.2.07.24.23.24.23.09-.04.56-.18.8.1.24.27.12.92.12.92-.06.32-.2.52-.2.52-.14.03-.18-.17-.18-.17-.09.31.22.56.22.56.31.39-.35.55-.45.6-.1.05-.33.14-.31.27.02.13-.01.27-.23.34-.23.06-.47.22-.5.48-.02.26-.37.4-.37.4,0,0-.45.04-.48.28-.03.24-.17.3-.17.3,0,0-.42-.04-.53.24Z"/>
        <path class="cls-13" d="m36.26,47.41c-.2.1-.33.2-.41.34-.07.15-.34.65-.88,1.04s-.99.65-1.53.69c-.6.1-1.59.15-1.59.15-.01-.07.05-.17.2-.21.16-.05.17-.15.17-.15.19-.5.45-.4.45-.4,0,0,.28-.02.55-.47.26-.45.49-.43.57-.47.09-.03.08-.07.37-.48.28-.41.74-.25.74-.25.14.03.23.12.38-.05.29-.33.62-.1.7-.15.07-.04.25.03.25.03h.01c.08.03.21.29.02.38Z"/>
        <path class="cls-13" d="m29.14,48.06c-.07-.12-.28-.32-.41-.43,0,0-.04-.04-.1-.08-.02-.02-.04-.03-.07-.05,0,0,.12-.71.99-1.51.87-.81,1.32-1.34,2.02-2.94.02-.02.06-.36.29-.33.22.02.18.2.18.2.12.16.19.27.12.52-.08.27.04.31.04.31,0,0,.2.13-.03.37-.22.23-.09.24-.09.24,0,0,.28.04.05.24-.23.2-.29.27-.31.5-.02.24-.23.1-.47.12-.25.02-.39.17-.41.55,0,.38-.09.38-.37.43-.29.06-.46.19-.54.49s-.18.5-.42.63c-.24.14-.29.15-.32.36-.03.22-.15.38-.15.38Z"/>
      </g>
      <g>
        <path class="cls-16" d="m29.03,49.86s2.17-.12,2.23-.17c0,0,.08.03.19-.25s.53-.24.53-.24c0,0,.14-.06.17-.3s.48-.28.48-.28c0,0,.35-.13.37-.4s.27-.42.5-.48.26-.2.23-.33.21-.22.31-.27.76-.21.45-.6c0,0-.32-.25-.22-.56,0,0,.04.2.18.17,0,0,.15-.2.21-.53,0,0,.12-.65-.12-.92s-.71-.14-.8-.1c0,0-.04-.16-.25-.23-.12-.05-.45-.15-1.18.29,0,0-.38.23-.29.53,0,0,.02.07.1.13,0,0,.1.1.03.15,0,0-.07.08-.3,0s-.47-.14-.57,0-.04.34-.03.54.03.26-.03.35-.47-.02-.68.06-.31.2-.32.41c0,0,0,.18.08.3,0,0-.02.11-.19.21s-.41.14-.46.16c0,0-.25.06-.29.65,0,0-.03.09.11.11s.26.02.08.1-.26.05-.26.31-.02.68-.26,1.17Z"/>
        <path class="cls-16" d="m28.61,47.54s.41.35.51.52c0,0,.11-.17.15-.38s.08-.23.32-.36.34-.33.42-.63.25-.43.53-.49.36-.05.38-.43.15-.53.4-.55.45.12.47-.12.08-.3.31-.51-.05-.24-.05-.24c0,0-.13,0,.09-.24s.02-.36.02-.36c0,0-.11-.04-.03-.32s-.02-.38-.17-.57l-.2-.11-.12.35-.43.86-.59,1.05s-.91.99-.92.99-.59.63-.59.63l-.37.57-.14.33Z"/>
        <path class="cls-16" d="m31.82,49.64s1-.05,1.6-.15c.4-.07,1.07-.48,1.07-.48l.4-.36.41-.26.34-.39.19-.36s.22-.21.24-.21.11-.13.12-.15.01-.24.01-.24c0,0-.18-.07-.25-.03s-.41-.18-.7.14c-.16.18-.25.08-.38.05,0,0-.46-.16-.75.25s-.27.45-.36.49-.31.02-.58.47-.55.47-.55.47c0,0-.25-.1-.44.4,0,0-.01.1-.17.14s-.22.15-.21.22Z"/>
      </g>
      <g>
        <path class="cls-1" d="m29.29,49.85s.07-.72.35-1.2c.17-.3.32-.3.19-.04-.21.41-.11.71-.14.79s.3-.22.5-.66c.37-.81.28-1.34.43-1.6.24-.42-.05,1.25-.1,1.37s.53-.46.59-.65.1-1.39.5-1.89c0,0,.04,0-.03.36s-.11,1.04-.13,1.12.53-.37.58-.92c.04-.49.09-.68.27-.92s-.15.51-.04.95c0,0,.28-.15.34-.63,0,0-.05-.75.44-.94,0,0,.17-.1-.01.14-.28.38-.19.81-.19.81,0,0,.11-.21.26-.37.08-.09.51-.65,1.06-.64,0,0,.1.04-.17.16s-.71.54-.86.79c0,0,.19-.04.42-.15s.54-.12.61-.04-.27-.04-.58.18-.6.27-.6.27c0,0-.18.22-.39.42s.7.11.96-.03.21.06-.11.2-.63.14-.92.12c0,0-.11.02-.29.26s-.41.63-.48.64.28.05.65-.04.51-.11.51-.04-.69.41-1.29.34c-.05,0-.13.01-.3.21s-.39.49-.39.49c0,0,.78-.26,1-.11s-.12.07-.31.12-.65.25-1.06.36c0,0-.39.15-.64.75,0,0-.09,0-.66.04Z"/>
        <path class="cls-1" d="m28.71,47.64s-.07-.07-.17-.13c0,0,.12-.71.99-1.52s1.32-1.34,2.02-2.94c.02-.02.06-.36.29-.33s.18.2.18.2c0,0-.21-.07-.2.14,0,0,.26.01.28.19s-.03-.09-.3-.03c-.08.02-.23.1-.32.42s-.1.31.02.31.35.1.35.27-.08-.19-.51-.09c0,0-.23.39-.3.49s.58-.03.64.34c.05.28-.02-.04-.33-.11-.36-.08-.39.04-.48.13,0,0-.44.5-.5.59s.42.1.41.29c-.01.17-.16-.28-.79-.03,0,0-.28.2-.48.46,0,0,.37.04.35.3s-.07-.19-.35-.12-.59.52-.63.66.42-.16.67-.06c0,0,.09.04-.38.12-.4.07-.46.44-.46.44Z"/>
        <path class="cls-1" d="m33.42,49.48s.06-.19.14-.53c.16-.64-.05-.75.07-.8s.16.72.04,1.1c0,0,.26-.03.46-.19s.43-.49.4-.96.28-.07.08.63c0,0,.33-.18.46-.33s.03-.97.29-1.22-.1.15-.02.85c0,0-.02.12.09-.02s.2-.18.27-.55.26-.35.26-.35c0,0-.11.05-.11.24s.17.11.25-.02.04-.3.12-.27.21.29.01.38-.33.2-.4.34-.34.64-.88,1.03-.99.65-1.53.69Z"/>
      </g>
    </g>
    <path class="cls-16" d="m27.75,47.7c.18.14.27.36.18.44,0,0-.08-.07-.22-.17-.12-.09-.21-.13-.3-.15h-.04c-.21,0-.4.19-.42.22-.03.04-.12.09-.13-.01-.04-.07.05-.24.17-.42.04-.06.11-.1-.06-.16-.21-.08-.35,0-.34-.05,0,0,.13-.17.38-.14.13.01.12.04.32.05l.03-.26s0-.14-.03-.19-.07-.21-.03-.25c.05-.05.25-.06.28.01.02.07.01.17-.02.25-.02.08-.05.17-.07.47,0,0,.21-.11.46-.01.32.1.2.19.2.19,0,0-.19-.03-.39.07,0,0-.08.03.03.11Z"/>
    <g>
      <path class="cls-8" d="m28.01,5.56c0-.55.41-.75.92-.48.24.13.5.2.77.25,0,0,0,0,0,0-.02.08-.07.14-.2.16-.2.03-.39.05-.6.03-.37-.04-.57.25-.71.58-.13-.18-.17-.33-.17-.53Z"/>
      <path class="cls-8" d="m29.56,5.6c-.09.23-.32.38-.56.54-.36.24-.41.68-.45,1.13-.15-.23-.35-.58-.26-1.03.06-.3.21-.55.55-.58.42-.03.59-.03.72-.06Z"/>
      <path class="cls-8" d="m26.63,5.9c.22.09.45.07.68.07.56,0,.71.1.85.66-.31-.22-.69-.23-1.04-.38-.15-.06-.4-.14-.5-.35Z"/>
      <path class="cls-8" d="m26.28,5.64s.22.21.67.18.69-.09.91.07c0,0,.21-.42-.27-.56,0,0-.16-.06-.44.07-.49.23-.87.24-.87.24Z"/>
    </g>
    <path class="cls-9" d="m48.82,30.58c.31-.1.45-.13.67-.19.42-.11.82-.18,1.24-.01.38.15.41.42.08.65-.15.11-.33.19-.5.26-.7.28-1.38.61-2.13.71.11-.5.33-.95.62-1.38"/>
  </g>
</svg>