<svg width="30" height="30" viewBox="0 0 55 55" fill="none" xmlns="http://www.w3.org/2000/svg">
<path d="M32.4436 31.6805L30.3407 35.7073C30.1105 36.1485 29.5873 36.348 29.1217 36.172C24.3735 34.3746 20.6258 30.6259 18.8298 25.8773C18.6538 25.4116 18.8533 24.8884 19.2945 24.6582L23.3214 22.5563L22.0515 15.3614C20.5308 14.5054 18.6701 14.5212 17.1638 15.4022C15.6575 16.2832 14.7319 17.8974 14.7324 19.6425C14.7454 31.0278 23.9721 40.2545 35.3574 40.2675C37.1016 40.2675 38.7153 39.3424 39.5963 37.8366C40.4772 36.3313 40.4935 34.471 39.6385 32.9503L32.4436 31.6805Z" fill="#C7C7C7"/>
<path d="M27.5 0C12.3123 0 0 12.3123 0 27.5C0 42.6877 12.3123 55 27.5 55C42.6877 55 55 42.6877 55 27.5C54.9827 12.3195 42.6805 0.0172642 27.5 0ZM35.3571 42.2321C22.8871 42.2182 12.7818 32.1129 12.7679 19.6429C12.7683 17.1002 14.172 14.7652 16.4173 13.5721C18.6631 12.3794 21.3837 12.5233 23.4909 13.9466C23.7115 14.0953 23.862 14.3274 23.9081 14.5897L25.3813 22.925C25.4556 23.347 25.2485 23.768 24.8686 23.9661L20.9991 25.9875C22.5816 29.565 25.4398 32.4246 29.0164 34.0086L31.0358 30.1342C31.2339 29.7544 31.6549 29.5473 32.0769 29.6216L40.4132 31.0948C40.675 31.1408 40.9066 31.2909 41.0553 31.5111C42.4777 33.6183 42.6211 36.3388 41.4279 38.5836C40.2343 40.8289 37.8998 42.2321 35.3571 42.2321Z" fill="#C7C7C7"/>
</svg>
