<svg width="50" height="50" viewBox="0 0 60 60" fill="none" xmlns="http://www.w3.org/2000/svg">
<g filter="url(#filter0_d)">
<rect x="5" y="5" width="50" height="50" rx="25" fill="white"/>
<path d="M30 5C16.195 5 5 16.195 5 30C5 43.805 16.195 55 30 55C43.805 55 55 43.805 55 30C55 16.195 43.805 5 30 5ZM41.4147 24.4923C41.4258 24.7384 41.4311 24.9856 41.4311 25.2339C41.4311 32.8164 35.6595 41.5601 25.1046 41.5604H25.105H25.1046C21.864 41.5604 18.8485 40.6106 16.3091 38.9828C16.758 39.0359 17.215 39.0622 17.6778 39.0622C20.3664 39.0622 22.8406 38.1451 24.8048 36.6059C22.2928 36.5594 20.1749 34.9004 19.444 32.6203C19.7938 32.6875 20.1535 32.7241 20.5224 32.7241C21.0461 32.7241 21.5535 32.6535 22.0357 32.5219C19.41 31.9962 17.4321 29.6758 17.4321 26.8971C17.4321 26.8712 17.4321 26.8479 17.4329 26.8239C18.2061 27.2538 19.0903 27.5124 20.0318 27.5414C18.4911 26.5134 17.4783 24.7559 17.4783 22.765C17.4783 21.7137 17.7625 20.7288 18.2553 19.8808C21.0851 23.3529 25.314 25.6364 30.0832 25.8763C29.9847 25.4559 29.934 25.018 29.934 24.5679C29.934 21.4001 32.504 18.8302 35.6728 18.8302C37.3235 18.8302 38.8142 19.5279 39.8614 20.6433C41.1687 20.3854 42.3962 19.9078 43.5052 19.2506C43.076 20.5899 42.1666 21.7137 40.9818 22.4244C42.1426 22.2855 43.2488 21.9777 44.2769 21.5207C43.509 22.6716 42.5351 23.6825 41.4147 24.4923Z" fill="#01A9E6"/>
</g>
<defs>
<filter id="filter0_d" x="0" y="0" width="60" height="60" filterUnits="userSpaceOnUse" color-interpolation-filters="sRGB">
<feFlood flood-opacity="0" result="BackgroundImageFix"/>
<feColorMatrix in="SourceAlpha" type="matrix" values="0 0 0 0 0 0 0 0 0 0 0 0 0 0 0 0 0 0 127 0" result="hardAlpha"/>
<feOffset/>
<feGaussianBlur stdDeviation="2.5"/>
<feColorMatrix type="matrix" values="0 0 0 0 0 0 0 0 0 0 0 0 0 0 0 0 0 0 0.13 0"/>
<feBlend mode="normal" in2="BackgroundImageFix" result="effect1_dropShadow"/>
<feBlend mode="normal" in="SourceGraphic" in2="effect1_dropShadow" result="shape"/>
</filter>
</defs>
</svg>
