<svg width="50" height="50" viewBox="0 0 60 60" fill="none" xmlns="http://www.w3.org/2000/svg">
<g filter="url(#filter0_d)">
<rect x="5" y="5" width="50" height="50" rx="25" fill="white"/>
<path d="M34.7852 30C34.7852 32.6428 32.6428 34.7852 30 34.7852C27.3572 34.7852 25.2148 32.6428 25.2148 30C25.2148 27.3572 27.3572 25.2148 30 25.2148C32.6428 25.2148 34.7852 27.3572 34.7852 30Z" fill="url(#paint0_linear)"/>
<path d="M41.1923 21.5329C40.9623 20.9095 40.5953 20.3453 40.1185 19.8822C39.6554 19.4054 39.0916 19.0384 38.4679 18.8084C37.962 18.6119 37.2021 18.3781 35.8025 18.3144C34.2885 18.2453 33.8345 18.2305 30.0015 18.2305C26.1681 18.2305 25.7142 18.245 24.2005 18.314C22.8009 18.3781 22.0406 18.6119 21.5352 18.8084C20.9115 19.0384 20.3473 19.4054 19.8846 19.8822C19.4077 20.3453 19.0408 20.9091 18.8103 21.5329C18.6139 22.0387 18.3801 22.799 18.3163 24.1986C18.2473 25.7122 18.2324 26.1662 18.2324 29.9996C18.2324 33.8326 18.2473 34.2865 18.3163 35.8006C18.3801 37.2002 18.6139 37.9601 18.8103 38.4659C19.0408 39.0896 19.4073 39.6534 19.8842 40.1165C20.3473 40.5934 20.9111 40.9603 21.5348 41.1904C22.0406 41.3872 22.8009 41.621 24.2005 41.6848C25.7142 41.7538 26.1678 41.7683 30.0011 41.7683C33.8349 41.7683 34.2889 41.7538 35.8022 41.6848C37.2018 41.621 37.962 41.3872 38.4679 41.1904C39.7198 40.7074 40.7094 39.7179 41.1923 38.4659C41.3888 37.9601 41.6226 37.2002 41.6867 35.8006C41.7558 34.2865 41.7702 33.8326 41.7702 29.9996C41.7702 26.1662 41.7558 25.7122 41.6867 24.1986C41.623 22.799 41.3892 22.0387 41.1923 21.5329ZM30.0015 37.3707C25.9301 37.3707 22.6296 34.0706 22.6296 29.9992C22.6296 25.9278 25.9301 22.6277 30.0015 22.6277C34.0726 22.6277 37.373 25.9278 37.373 29.9992C37.373 34.0706 34.0726 37.3707 30.0015 37.3707ZM37.6645 24.0589C36.7131 24.0589 35.9418 23.2876 35.9418 22.3362C35.9418 21.3848 36.7131 20.6135 37.6645 20.6135C38.6159 20.6135 39.3872 21.3848 39.3872 22.3362C39.3868 23.2876 38.6159 24.0589 37.6645 24.0589Z" fill="url(#paint1_linear)"/>
<path d="M30 5C16.195 5 5 16.195 5 30C5 43.805 16.195 55 30 55C43.805 55 55 43.805 55 30C55 16.195 43.805 5 30 5ZM44.2689 35.9185C44.1994 37.4467 43.9565 38.49 43.6017 39.4032C42.8559 41.3316 41.3316 42.8559 39.4032 43.6017C38.4904 43.9565 37.4467 44.1991 35.9189 44.2689C34.388 44.3387 33.899 44.3555 30.0004 44.3555C26.1014 44.3555 25.6127 44.3387 24.0815 44.2689C22.5537 44.1991 21.51 43.9565 20.5972 43.6017C19.6389 43.2412 18.7714 42.6762 18.0543 41.9457C17.3241 41.2289 16.7592 40.3611 16.3987 39.4032C16.0439 38.4904 15.8009 37.4467 15.7315 35.9189C15.6609 34.3877 15.6445 33.8986 15.6445 30C15.6445 26.1014 15.6609 25.6123 15.7311 24.0815C15.8006 22.5533 16.0432 21.51 16.3979 20.5968C16.7584 19.6389 17.3238 18.7711 18.0543 18.0543C18.7711 17.3238 19.6389 16.7588 20.5968 16.3983C21.51 16.0435 22.5533 15.8009 24.0815 15.7311C25.6123 15.6613 26.1014 15.6445 30 15.6445C33.8986 15.6445 34.3877 15.6613 35.9185 15.7315C37.4467 15.8009 38.49 16.0435 39.4032 16.3979C40.3611 16.7584 41.2289 17.3238 41.9461 18.0543C42.6762 18.7714 43.2416 19.6389 43.6017 20.5968C43.9568 21.51 44.1994 22.5533 44.2693 24.0815C44.3391 25.6123 44.3555 26.1014 44.3555 30C44.3555 33.8986 44.3391 34.3877 44.2689 35.9185Z" fill="url(#paint2_linear)"/>
</g>
<defs>
<filter id="filter0_d" x="0" y="0" width="60" height="60" filterUnits="userSpaceOnUse" color-interpolation-filters="sRGB">
<feFlood flood-opacity="0" result="BackgroundImageFix"/>
<feColorMatrix in="SourceAlpha" type="matrix" values="0 0 0 0 0 0 0 0 0 0 0 0 0 0 0 0 0 0 127 0" result="hardAlpha"/>
<feOffset/>
<feGaussianBlur stdDeviation="2.5"/>
<feColorMatrix type="matrix" values="0 0 0 0 0 0 0 0 0 0 0 0 0 0 0 0 0 0 0.13 0"/>
<feBlend mode="normal" in2="BackgroundImageFix" result="effect1_dropShadow"/>
<feBlend mode="normal" in="SourceGraphic" in2="effect1_dropShadow" result="shape"/>
</filter>
<linearGradient id="paint0_linear" x1="30" y1="25.2148" x2="30" y2="34.7852" gradientUnits="userSpaceOnUse">
<stop stop-color="#F06F7C"/>
<stop offset="1" stop-color="#FDBC3C"/>
</linearGradient>
<linearGradient id="paint1_linear" x1="30.0013" y1="18.2305" x2="30.0013" y2="41.7683" gradientUnits="userSpaceOnUse">
<stop stop-color="#F06F7C"/>
<stop offset="1" stop-color="#FDBC3C"/>
</linearGradient>
<linearGradient id="paint2_linear" x1="30" y1="5" x2="30" y2="55" gradientUnits="userSpaceOnUse">
<stop stop-color="#F06F7C"/>
<stop offset="1" stop-color="#FDBC3C"/>
</linearGradient>
</defs>
</svg>
