<svg width="187" height="153" viewBox="0 0 212 171" fill="none" xmlns="http://www.w3.org/2000/svg">
<rect width="118" height="123" transform="translate(52 23)" fill="white"/>
<path d="M17.0217 80.7591C56.5217 52.2591 79.8551 31.4257 96.0218 10.7591C119.49 -19.241 157.67 19.646 181.522 52.2591C206.022 85.759 211.022 101.259 211.022 135.759C211.022 170.259 158.022 170.259 145.022 170.259C132.022 170.259 74.0217 156.759 45.5217 156.759C-9.98726 156.759 -8.5489 99.2088 17.0217 80.7591Z" fill="#B4DBCA"/>
<path d="M62.2718 48.0773C61.9884 48.4318 61.834 48.8722 61.834 49.3261V137.875C61.834 139.532 63.1771 140.875 64.834 140.875H157.167C158.824 140.875 160.167 139.532 160.167 137.875V49.3261C160.167 48.8722 160.013 48.4318 159.729 48.0773L144.379 28.8761C143.999 28.4013 143.425 28.1249 142.817 28.1249H79.1845C78.5767 28.1249 78.0019 28.4013 77.6224 28.8761L62.2718 48.0773Z" stroke="#2B657D" stroke-width="11"/>
<path d="M61.834 51.1876H160.167" stroke="#2B657D" stroke-width="11"/>
<path d="M130.667 74.25C130.667 85.5718 121.862 94.75 111.001 94.75C100.139 94.75 91.334 85.5718 91.334 74.25" stroke="#2B657D" stroke-width="11" stroke-linecap="round"/>
</svg>
