<svg width="1912" height="156" viewBox="0 0 1912 156" fill="none" xmlns="http://www.w3.org/2000/svg">
<path d="M0 23.4951C51.1667 11.9951 183 -6.59947 319 11.0005C455 28.6005 553 62.0003 585 76.5002C632.5 95.3335 736.653 136.485 775.453 150.485L1185.5 149.907C1269.67 131.407 1454 94.8002 1528 94.0002C1620.5 93.0002 1754 80.5054 1906.5 149.005L775.453 150.485L0 151.5V23.4951Z" fill="#5AB394"/>
<path d="M157.5 11.5005C218.5 5.83383 355.225 -0.630059 415.5 3.0005C498.5 7.99987 610.5 32.0005 737 91.0005C793.5 117.352 913.086 153.61 937.252 153.777H1025.25C1079.42 144.11 1189.2 121.401 1200 121.001C1213.5 120.501 1434.5 75.0005 1566 75.0005C1674.26 75.0005 1782 82.5005 1910.5 142.001" stroke="#5AB394" stroke-width="3"/>
</svg>
