<svg width="50" height="50" viewBox="0 0 60 60" fill="none" xmlns="http://www.w3.org/2000/svg">
<g filter="url(#filter0_d)">
<rect x="5" y="5" width="50" height="50" rx="25" fill="white"/>
<path d="M55 30C55 16.1914 43.8086 5 30 5C16.1914 5 5 16.1914 5 30C5 43.8086 16.1914 55 30 55C30.1465 55 30.293 55 30.4395 54.9902V35.5371H25.0684V29.2773H30.4395V24.668C30.4395 19.3262 33.7012 16.416 38.4668 16.416C40.752 16.416 42.7148 16.582 43.2812 16.6602V22.2461H40C37.4121 22.2461 36.9043 23.4766 36.9043 25.2832V29.2676H43.1055L42.2949 35.5273H36.9043V54.0332C47.3535 51.0352 55 41.416 55 30Z" fill="#285BA1"/>
</g>
<defs>
<filter id="filter0_d" x="0" y="0" width="60" height="60" filterUnits="userSpaceOnUse" color-interpolation-filters="sRGB">
<feFlood flood-opacity="0" result="BackgroundImageFix"/>
<feColorMatrix in="SourceAlpha" type="matrix" values="0 0 0 0 0 0 0 0 0 0 0 0 0 0 0 0 0 0 127 0" result="hardAlpha"/>
<feOffset/>
<feGaussianBlur stdDeviation="2.5"/>
<feColorMatrix type="matrix" values="0 0 0 0 0 0 0 0 0 0 0 0 0 0 0 0 0 0 0.13 0"/>
<feBlend mode="normal" in2="BackgroundImageFix" result="effect1_dropShadow"/>
<feBlend mode="normal" in="SourceGraphic" in2="effect1_dropShadow" result="shape"/>
</filter>
</defs>
</svg>
