<?xml version="1.0" encoding="utf-8"?>
<!-- Generator: Adobe Illustrator 25.2.0, SVG Export Plug-In . SVG Version: 6.00 Build 0)  -->
<svg version="1.1" id="Layer_1" xmlns="http://www.w3.org/2000/svg" xmlns:xlink="http://www.w3.org/1999/xlink" x="0px" y="0px"
	 viewBox="0 0 313.9 199.6" style="enable-background:new 0 0 313.9 199.6;" xml:space="preserve">
<style type="text/css">
	.st0{clip-path:url(#SVGID_2_);fill:#909090;}
	.st1{clip-path:url(#SVGID_2_);}
	.st2{fill:#C2C2C2;}
	.st3{fill:url(#SVGID_3_);}
	.st4{fill:#C9C9C9;}
	.st5{fill:#CFCFCF;}
	.st6{fill:#ABABAB;}
	.st7{fill:url(#SVGID_4_);}
	.st8{fill:#A2A2A2;}
	.st9{fill:#A4A4A4;}
	.st10{fill:url(#SVGID_5_);}
	.st11{fill:#B1B1B1;}
	.st12{fill:#D1D1D1;}
	.st13{fill:url(#SVGID_6_);}
	.st14{fill:url(#SVGID_7_);}
	.st15{fill:url(#SVGID_8_);}
	.st16{fill:url(#SVGID_9_);}
	.st17{fill:url(#SVGID_10_);}
	.st18{fill:#C3C3C3;}
	.st19{fill:#9A9A9A;}
	.st20{fill:#C7C7C7;}
	.st21{fill:#A0A0A0;}
	.st22{fill:#BEBEBE;}
	.st23{fill:#D5D5D5;}
	.st24{fill:#EFEFEF;}
	.st25{fill:#DBDBDB;}
	.st26{fill:#CACACA;}
	.st27{fill:#B2B2B2;}
	.st28{fill:#C5C5C5;}
	.st29{fill:#A7A7A7;}
	.st30{fill:#B9B9B9;}
	.st31{fill:#ADADAD;}
	.st32{fill:#C0C0C0;}
	.st33{fill:#E5E5E5;}
	.st34{fill:#A9A9A9;}
	.st35{fill:#D7D7D7;}
	.st36{fill:#959595;}
	.st37{fill:#AEAEAE;}
	.st38{fill:#9E9E9E;}
	.st39{fill:#BBBBBB;}
	.st40{fill:#DADADA;}
	.st41{fill:url(#SVGID_11_);}
	.st42{fill:url(#SVGID_12_);}
</style>
<g>
	<defs>
		<path id="SVGID_1_" d="M283.4,186.9H30.5c-9.1,0-16.5-7.4-16.5-16.5V29.1c0-9.1,7.4-16.5,16.5-16.5h252.9
			c9.1,0,16.5,7.4,16.5,16.5v141.3C299.9,179.6,292.5,186.9,283.4,186.9z"/>
	</defs>
	<clipPath id="SVGID_2_">
		<use xlink:href="#SVGID_1_"  style="overflow:visible;"/>
	</clipPath>
	<path class="st0" d="M283.4,186.9H30.5c-9.1,0-16.5-7.4-16.5-16.5V29.1c0-9.1,7.4-16.5,16.5-16.5h252.9c9.1,0,16.5,7.4,16.5,16.5
		v141.3C299.9,179.6,292.5,186.9,283.4,186.9z"/>
	<g class="st1">
		<polygon class="st2" points="30.3,115.5 -28.9,144.6 -47.2,64.7 		"/>
		
			<linearGradient id="SVGID_3_" gradientUnits="userSpaceOnUse" x1="-223.0508" y1="478.1002" x2="-222.8817" y2="477.9311" gradientTransform="matrix(0 449 130 0 -61855.5352 100098.1562)">
			<stop  offset="0" style="stop-color:#A94000"/>
			<stop  offset="1" style="stop-color:#B44700"/>
		</linearGradient>
		<polygon class="st3" points="294.8,-42.9 298,17.1 276.3,-48.9 		"/>
		<polygon class="st4" points="276.3,54.3 315,80.8 300.1,110.8 		"/>
		<polygon class="st5" points="276.3,54.3 315,80.8 311.5,56.7 		"/>
		<polygon class="st6" points="145.7,6.4 86.4,68.6 169.4,35.2 		"/>
		
			<linearGradient id="SVGID_4_" gradientUnits="userSpaceOnUse" x1="-224.9103" y1="461.6548" x2="-224.752" y2="461.4965" gradientTransform="matrix(0 340 274 0 -126303.6406 76422.875)">
			<stop  offset="0" style="stop-color:#B94700"/>
			<stop  offset="1" style="stop-color:#AA3F00"/>
		</linearGradient>
		<polygon class="st7" points="172.9,-43.6 145.7,6.4 191.4,-30.8 		"/>
		<polygon class="st8" points="169.4,35.2 86.4,68.6 110.5,107.4 		"/>
		<polygon class="st9" points="86.4,68.6 30.3,115.5 110.5,107.4 		"/>
		<polygon class="st6" points="169.4,35.2 110.5,107.4 162.9,108 		"/>
		
			<linearGradient id="SVGID_5_" gradientUnits="userSpaceOnUse" x1="-223.9509" y1="461.0526" x2="-223.7961" y2="460.8978" gradientTransform="matrix(0 386 288 0 -132618.3125 86383.4688)">
			<stop  offset="0" style="stop-color:#C54E00"/>
			<stop  offset="1" style="stop-color:#CD5A00"/>
		</linearGradient>
		<polygon class="st10" points="172.9,-43.6 145.7,6.4 124.9,-50.4 		"/>
		<polygon class="st11" points="145.7,6.4 86.4,68.6 101.9,5.8 		"/>
		<polygon class="st12" points="63.5,50.3 86.4,68.6 101.9,5.8 		"/>
		
			<linearGradient id="SVGID_6_" gradientUnits="userSpaceOnUse" x1="-223.9019" y1="463.3183" x2="-223.748" y2="463.1645" gradientTransform="matrix(0 386 263 0 -121703.3359 86383.4688)">
			<stop  offset="0" style="stop-color:#C85500"/>
			<stop  offset="1" style="stop-color:#D76A04"/>
		</linearGradient>
		<polygon class="st13" points="124.9,-50.4 145.7,6.4 101.9,5.8 		"/>
		
			<linearGradient id="SVGID_7_" gradientUnits="userSpaceOnUse" x1="-224.0116" y1="464.6616" x2="-223.8576" y2="464.5076" gradientTransform="matrix(0 382 251 0 -116510.9141 85513.3281)">
			<stop  offset="0" style="stop-color:#DE7306"/>
			<stop  offset="1" style="stop-color:#E9820F"/>
		</linearGradient>
		<polygon class="st14" points="124.9,-50.4 83,-42.7 101.9,5.8 		"/>
		
			<linearGradient id="SVGID_8_" gradientUnits="userSpaceOnUse" x1="-228.868" y1="464.0607" x2="-228.7112" y2="463.9039" gradientTransform="matrix(0 220 268 0 -124294.9297 50295.7188)">
			<stop  offset="0" style="stop-color:#FB820D"/>
			<stop  offset="1" style="stop-color:#F07C06"/>
		</linearGradient>
		<polygon class="st15" points="38.3,-47 83,-42.7 45.3,-14.6 		"/>
		
			<linearGradient id="SVGID_9_" gradientUnits="userSpaceOnUse" x1="-235.4933" y1="457.3579" x2="-235.3427" y2="457.2073" gradientTransform="matrix(0 142 408 0 -186557.5625 33406.0156)">
			<stop  offset="0" style="stop-color:#BB4500"/>
			<stop  offset="1" style="stop-color:#DD6001"/>
		</linearGradient>
		<polygon class="st16" points="-22.7,-15.2 45.3,-14.6 -7.8,-35.5 		"/>
		
			<linearGradient id="SVGID_10_" gradientUnits="userSpaceOnUse" x1="-228.822" y1="461.3411" x2="-228.661" y2="461.18" gradientTransform="matrix(0 220 319 0 -147119.9844 50295.7188)">
			<stop  offset="0" style="stop-color:#F07707"/>
			<stop  offset="1" style="stop-color:#E76901"/>
		</linearGradient>
		<polygon class="st17" points="38.3,-47 45.3,-14.6 -7.8,-35.5 		"/>
		<polygon class="st18" points="-22.7,-15.2 45.3,-14.6 53.9,32 		"/>
		<polygon class="st19" points="257.6,35.2 276.3,54.3 220.3,57.2 		"/>
		<polygon class="st20" points="217.6,-35.1 191.4,-30.8 234.9,22.4 		"/>
		<polygon class="st21" points="257.6,35.2 220.3,57.2 234.9,22.4 		"/>
		<polygon class="st22" points="276.3,-48.9 217.6,-35.1 234.9,22.4 		"/>
		<polygon class="st23" points="276.3,-48.9 298,17.1 234.9,22.4 		"/>
		<polygon class="st24" points="-22.7,-15.2 53.9,32 27.7,70.2 		"/>
		<polygon class="st25" points="-22.7,-15.2 -43.2,61.2 27.7,70.2 		"/>
		<polygon class="st20" points="53.9,32 63.5,50.3 27.7,70.2 		"/>
		<polygon class="st26" points="63.5,50.3 86.4,68.6 27.7,70.2 		"/>
		<polygon class="st27" points="-43.2,61.2 -47.2,64.7 27.7,70.2 		"/>
		<polygon class="st4" points="-47.2,64.7 30.3,115.5 27.7,70.2 		"/>
		<polygon class="st27" points="86.4,68.6 30.3,115.5 27.7,70.2 		"/>
		<polygon class="st28" points="169.4,35.2 162.9,108 197.8,59.6 		"/>
		<polygon class="st29" points="220.3,57.2 210.9,122.7 197.8,59.6 		"/>
		<polygon class="st30" points="162.9,108 210.9,122.7 197.8,59.6 		"/>
		<polygon class="st31" points="276.3,54.3 220.3,57.2 257.6,119.4 		"/>
		<polygon class="st30" points="276.3,54.3 300.1,110.8 257.6,119.4 		"/>
		<polygon class="st32" points="220.3,57.2 210.9,122.7 257.6,119.4 		"/>
		<polygon class="st4" points="298,17.1 234.9,22.4 274.1,32.8 		"/>
		<polygon class="st33" points="298,17.1 311.5,56.7 274.1,32.8 		"/>
		<polygon class="st34" points="234.9,22.4 257.6,35.2 274.1,32.8 		"/>
		<polygon class="st11" points="257.6,35.2 276.3,54.3 274.1,32.8 		"/>
		<polygon class="st35" points="276.3,54.3 311.5,56.7 274.1,32.8 		"/>
		<polygon class="st24" points="191.4,-30.8 145.7,6.4 179.7,17.6 		"/>
		<polygon class="st32" points="191.4,-30.8 234.9,22.4 179.7,17.6 		"/>
		<polygon class="st4" points="145.7,6.4 169.4,35.2 179.7,17.6 		"/>
		<polygon class="st36" points="234.9,22.4 220.3,57.2 179.7,17.6 		"/>
		<polygon class="st37" points="169.4,35.2 197.8,59.6 179.7,17.6 		"/>
		<polygon class="st38" points="220.3,57.2 197.8,59.6 179.7,17.6 		"/>
		<polygon class="st39" points="45.3,-14.6 53.9,32 67.9,10.9 		"/>
		<polygon class="st20" points="101.9,5.8 63.5,50.3 67.9,10.9 		"/>
		<polygon class="st40" points="53.9,32 63.5,50.3 67.9,10.9 		"/>
		
			<linearGradient id="SVGID_11_" gradientUnits="userSpaceOnUse" x1="-224.4133" y1="467.993" x2="-224.2534" y2="467.833" gradientTransform="matrix(0 365 226 0 -105683.9375 81867.2422)">
			<stop  offset="0" style="stop-color:#E27404"/>
			<stop  offset="1" style="stop-color:#E46C03"/>
		</linearGradient>
		<polygon class="st41" points="83,-42.7 45.3,-14.6 67.9,10.9 		"/>
		
			<linearGradient id="SVGID_12_" gradientUnits="userSpaceOnUse" x1="-224.3969" y1="470.223" x2="-224.2438" y2="470.0699" gradientTransform="matrix(0 365 204 0 -95822.3281 81867.2422)">
			<stop  offset="0" style="stop-color:#EF820B"/>
			<stop  offset="1" style="stop-color:#E9750D"/>
		</linearGradient>
		<polygon class="st42" points="83,-42.7 101.9,5.8 67.9,10.9 		"/>
	</g>
</g>
</svg>
