<svg width="50" height="50" viewBox="0 0 75 75" fill="none" xmlns="http://www.w3.org/2000/svg">
<g filter="url(#filter0_d)">
<rect x="10" y="8" width="55" height="55" rx="27.5" fill="#4FBFED"/>
<path d="M37.5 8C22.3145 8 10 20.3145 10 35.5C10 50.6855 22.3145 63 37.5 63C52.6855 63 65 50.6855 65 35.5C65 20.3145 52.6855 8 37.5 8ZM50.0562 29.4416C50.0684 29.7122 50.0742 29.9841 50.0742 30.2573C50.0742 38.598 43.7254 48.2161 32.1151 48.2165H32.1155H32.1151C28.5504 48.2165 25.2333 47.1716 22.44 45.3811C22.9338 45.4395 23.4365 45.4684 23.9455 45.4684C26.903 45.4684 29.6246 44.4597 31.7852 42.7665C29.0221 42.7153 26.6924 40.8904 25.8884 38.3823C26.2732 38.4562 26.6689 38.4965 27.0746 38.4965C27.6508 38.4965 28.2088 38.4189 28.7392 38.2741C25.851 37.6959 23.6753 35.1433 23.6753 32.0868C23.6753 32.0583 23.6753 32.0327 23.6761 32.0063C24.5267 32.4792 25.4994 32.7637 26.535 32.7956C24.8402 31.6647 23.7261 29.7315 23.7261 27.5415C23.7261 26.3851 24.0387 25.3016 24.5808 24.3688C27.6936 28.1882 32.3454 30.7 37.5915 30.9639C37.4832 30.5015 37.4274 30.0198 37.4274 29.5247C37.4274 26.0402 40.2544 23.2132 43.7401 23.2132C45.5558 23.2132 47.1957 23.9807 48.3475 25.2076C49.7855 24.924 51.1359 24.3986 52.3557 23.6756C51.8836 25.1489 50.8833 26.3851 49.5799 27.1668C50.8568 27.0141 52.0737 26.6755 53.2046 26.1728C52.3599 27.4387 51.2886 28.5507 50.0562 29.4416Z" fill="white"/>
</g>
<defs>
<filter id="filter0_d" x="0" y="0" width="75" height="75" filterUnits="userSpaceOnUse" color-interpolation-filters="sRGB">
<feFlood flood-opacity="0" result="BackgroundImageFix"/>
<feColorMatrix in="SourceAlpha" type="matrix" values="0 0 0 0 0 0 0 0 0 0 0 0 0 0 0 0 0 0 127 0" result="hardAlpha"/>
<feOffset dy="2"/>
<feGaussianBlur stdDeviation="5"/>
<feColorMatrix type="matrix" values="0 0 0 0 0 0 0 0 0 0 0 0 0 0 0 0 0 0 0.2 0"/>
<feBlend mode="normal" in2="BackgroundImageFix" result="effect1_dropShadow"/>
<feBlend mode="normal" in="SourceGraphic" in2="effect1_dropShadow" result="shape"/>
</filter>
</defs>
</svg>
