<svg width="2001" height="154" viewBox="0 0 2001 154" fill="none" xmlns="http://www.w3.org/2000/svg">
<path d="M2.08203 121.5V7L2000 6.5V96.5C1940.64 110.1 1851.37 106.5 1814.15 103C1520.81 61 1569.35 77.5 1463.25 46.5C1357.14 15.5 1263.06 70.9037 1153.26 68C794.038 58.5 749.655 121.5 640.778 121.5C531.902 121.5 370.321 96 248.961 77.5C151.874 62.7 43.9221 100.667 2.08203 121.5Z" fill="white" fill-opacity="0.29"/>
<path d="M295.423 61.5C180.028 13.9 50.393 14.6667 0 21V0.5H1997.92V81.5C1696.95 130.5 1624.83 75.5 1475.73 52.5L1472.94 52.0699C1326 29.3972 1274.96 21.5225 998.613 104.5C720.527 188 439.667 121 295.423 61.5Z" fill="white"/>
<path d="M416.782 127C154.368 144.6 30.5127 59 2.77344 14H1996.53V94L1994.21 92.933C1934.29 65.3736 1774.85 -7.95828 1676.84 55.2079C1552.7 135.208 1245.49 160.708 985.436 88.2079C725.381 15.7079 744.798 105 416.782 127Z" fill="white" fill-opacity="0.22"/>
<path d="M271.244 61.3731C195.212 33.047 49.9466 21.874 2.77344 19.8282V0H1995.84V75.064C1681.58 155.793 1566.42 93.4759 1453.35 77.4245C1340.27 61.3731 1086.37 47.6822 836.628 126.051C586.888 204.42 366.284 96.7806 271.244 61.3731Z" fill="white" fill-opacity="0.39"/>
</svg>
