<svg width="75" height="75" viewBox="0 0 75 75" fill="none" xmlns="http://www.w3.org/2000/svg">
<g filter="url(#filter0_d)">
<rect x="10" y="8" width="55" height="55" rx="27.5" fill="#E2574C"/>
<path d="M34.0742 40.6521L43.0196 35.5001L34.0742 30.348V40.6521Z" fill="white"/>
<path d="M37.5 8C22.3145 8 10 20.3145 10 35.5C10 50.6855 22.3145 63 37.5 63C52.6855 63 65 50.6855 65 35.5C65 20.3145 52.6855 8 37.5 8ZM54.6833 35.5281C54.6833 35.5281 54.6833 41.1052 53.9758 43.7946C53.5793 45.2666 52.4186 46.4272 50.9466 46.8234C48.2573 47.5312 37.5 47.5312 37.5 47.5312C37.5 47.5312 26.7708 47.5312 24.0534 46.7952C22.5814 46.3991 21.4207 45.238 21.0242 43.766C20.3163 41.1052 20.3163 35.5 20.3163 35.5C20.3163 35.5 20.3163 29.9233 21.0242 27.234C21.4203 25.762 22.6095 24.5728 24.0534 24.1766C26.7427 23.4688 37.5 23.4688 37.5 23.4688C37.5 23.4688 48.2573 23.4688 50.9466 24.2048C52.4186 24.6009 53.5793 25.762 53.9758 27.234C54.7118 29.9233 54.6833 35.5281 54.6833 35.5281Z" fill="white"/>
</g>
<defs>
<filter id="filter0_d" x="0" y="0" width="75" height="75" filterUnits="userSpaceOnUse" color-interpolation-filters="sRGB">
<feFlood flood-opacity="0" result="BackgroundImageFix"/>
<feColorMatrix in="SourceAlpha" type="matrix" values="0 0 0 0 0 0 0 0 0 0 0 0 0 0 0 0 0 0 127 0" result="hardAlpha"/>
<feOffset dy="2"/>
<feGaussianBlur stdDeviation="5"/>
<feColorMatrix type="matrix" values="0 0 0 0 0 0 0 0 0 0 0 0 0 0 0 0 0 0 0.2 0"/>
<feBlend mode="normal" in2="BackgroundImageFix" result="effect1_dropShadow"/>
<feBlend mode="normal" in="SourceGraphic" in2="effect1_dropShadow" result="shape"/>
</filter>
</defs>
</svg>
